<svg width="31" height="31" viewBox="0 0 31 31" fill="none" xmlns="http://www.w3.org/2000/svg">
<path d="M11.8431 7.02377H18.3855C18.5332 7.02377 18.6696 6.94501 18.7434 6.81712C18.8172 6.68924 18.8172 6.53172 18.7434 6.40384L15.4722 0.737892C15.3983 0.61001 15.2619 0.53125 15.1143 0.53125C14.9666 0.53125 14.8302 0.61001 14.7564 0.737892L11.4852 6.40384C11.4114 6.53172 11.4114 6.68924 11.4852 6.81712C11.559 6.94501 11.6954 7.02377 11.8431 7.02377ZM15.1143 1.7711L17.6697 6.1972H12.5589L15.1143 1.7711ZM17.9472 23.2048H12.2813C12.053 23.2048 11.868 23.3898 11.868 23.6181V29.284C11.868 29.5123 12.053 29.6973 12.2813 29.6973H17.9472C18.1755 29.6973 18.3605 29.5123 18.3605 29.284V23.6181C18.3605 23.3898 18.1755 23.2048 17.9472 23.2048ZM17.5339 28.8707H12.6946V24.0314H17.5339V28.8707ZM26.332 11.749C24.4763 11.749 22.9667 13.2586 22.9667 15.1143C22.9667 16.9699 24.4763 18.4796 26.332 18.4796C28.1876 18.4796 29.6973 16.9699 29.6973 15.1143C29.6973 13.2586 28.1876 11.749 26.332 11.749ZM26.332 17.653C24.9321 17.653 23.7932 16.5141 23.7932 15.1143C23.7932 13.7144 24.9321 12.5755 26.332 12.5755C27.7318 12.5755 28.8707 13.7144 28.8707 15.1143C28.8707 16.5141 27.7318 17.653 26.332 17.653ZM7.26188 15.1143C7.26188 13.2586 5.75221 11.749 3.89656 11.749C2.04092 11.749 0.53125 13.2586 0.53125 15.1143C0.53125 16.9699 2.04092 18.4796 3.89656 18.4796C5.75221 18.4796 7.26188 16.9699 7.26188 15.1143ZM3.89656 17.653C2.49671 17.653 1.35782 16.5141 1.35782 15.1143C1.35782 13.7144 2.49671 12.5755 3.89656 12.5755C5.29642 12.5755 6.43531 13.7144 6.43531 15.1143C6.43531 16.5141 5.29648 17.653 3.89656 17.653ZM19.3633 4.7706C19.4579 4.5629 19.7029 4.47115 19.9107 4.56579C22.1594 5.58985 24.0154 7.30191 25.2181 9.44183L25.4337 8.63711C25.4928 8.41665 25.7196 8.28594 25.9399 8.34486C26.1604 8.40396 26.2912 8.63056 26.2321 8.85101L25.7351 10.7059C25.6856 10.8905 25.5186 11.0123 25.3362 11.0123C25.3007 11.0123 25.2648 11.0077 25.2289 10.9981L23.3741 10.5011C23.1536 10.442 23.0228 10.2154 23.0818 9.99493C23.1409 9.77453 23.3673 9.6434 23.588 9.70273L24.5623 9.96381C23.4477 7.9216 21.6975 6.28783 19.5681 5.31802C19.3604 5.22344 19.2687 4.97836 19.3633 4.7706ZM10.8652 25.458C10.7959 25.6101 10.6458 25.7 10.4889 25.7C10.4316 25.7 10.3734 25.688 10.3178 25.6628C8.06914 24.6387 6.21314 22.9266 5.01042 20.7867L4.79481 21.5914C4.73571 21.8119 4.50911 21.9427 4.28865 21.8837C4.06819 21.8246 3.9373 21.598 3.9964 21.3775L4.49341 19.5227C4.52174 19.4168 4.591 19.3265 4.68594 19.2717C4.78081 19.2169 4.89364 19.2021 4.99956 19.2304L6.85444 19.7275C7.0749 19.7865 7.20573 20.0132 7.14663 20.2336C7.08759 20.4541 6.86111 20.585 6.64048 20.5258L5.66619 20.2647C6.78081 22.307 8.53095 23.9407 10.6604 24.9105C10.8681 25.0052 10.9598 25.2502 10.8652 25.458ZM4.56579 10.3178C5.58985 8.06914 7.30191 6.21314 9.44183 5.01042L8.63711 4.79481C8.41665 4.73571 8.28576 4.50911 8.34486 4.28865C8.40396 4.06819 8.6305 3.93724 8.85101 3.9964L10.7059 4.49335C10.8118 4.52169 10.902 4.591 10.9568 4.68594C11.0116 4.78087 11.0265 4.8937 10.9981 4.99956L10.5011 6.85444C10.442 7.0749 10.2154 7.20567 9.99493 7.14669C9.77447 7.08759 9.64363 6.86099 9.70273 6.64053L9.96381 5.66619C7.9216 6.78081 6.28783 8.53095 5.31802 10.6604C5.24871 10.8126 5.09863 10.9026 4.94164 10.9026C4.88437 10.9026 4.82616 10.8906 4.7706 10.8653C4.5629 10.7707 4.47121 10.5256 4.56579 10.3178ZM25.6628 19.9107C24.6387 22.1594 22.9266 24.0154 20.7867 25.2181L21.5914 25.4337C21.8119 25.4928 21.9428 25.7194 21.8837 25.9399C21.8342 26.1245 21.6672 26.2463 21.4848 26.2463C21.4493 26.2463 21.4134 26.2417 21.3775 26.2322L19.5227 25.7351C19.3022 25.6761 19.1713 25.4495 19.2304 25.229L19.7274 23.3741C19.7865 23.1537 20.0132 23.0228 20.2336 23.0819C20.454 23.141 20.5849 23.3676 20.5258 23.588L20.2647 24.5624C22.307 23.4477 23.9407 21.6975 24.9105 19.5681C25.0051 19.3605 25.2501 19.2687 25.458 19.3633C25.6657 19.458 25.7573 19.703 25.6628 19.9107ZM20.3416 19.3902C20.3416 16.5079 17.9967 14.163 15.1144 14.163C12.2319 14.163 9.88682 16.5079 9.88682 19.3902C9.88682 19.9512 10.1947 20.7334 11.6617 21.2735C12.5794 21.6114 13.8055 21.7974 15.1142 21.7974C17.7162 21.7974 20.3416 21.0531 20.3416 19.3902ZM10.7134 19.3902C10.7134 16.9636 12.6877 14.9895 15.1145 14.9895C17.541 14.9895 19.5151 16.9637 19.5151 19.3902C19.5151 20.2766 17.5821 20.9709 15.1143 20.9709C12.6465 20.9709 10.7134 20.2766 10.7134 19.3902ZM12.4762 11.0691C12.4762 12.5238 13.6597 13.7073 15.1145 13.7073C16.5692 13.7073 17.7527 12.5238 17.7527 11.0691C17.7527 9.61447 16.5692 8.43112 15.1145 8.43112C13.6597 8.43112 12.4762 9.61447 12.4762 11.0691ZM16.9262 11.0691C16.9262 12.068 16.1134 12.8808 15.1145 12.8808C14.1155 12.8808 13.3027 12.068 13.3027 11.0691C13.3027 10.0703 14.1155 9.25769 15.1145 9.25769C16.1134 9.25769 16.9262 10.0703 16.9262 11.0691Z" fill="#0CC2FE"/>
</svg>
