<svg width="64" height="64" viewBox="0 0 64 64" fill="none" xmlns="http://www.w3.org/2000/svg">
<path d="M7.29194 46.8762H37.5776V50.2175C37.5776 53.3759 38.8075 56.3507 41.043 58.5973C43.2865 60.8297 46.2612 62.0595 49.4197 62.0595C55.9496 62.0595 61.2617 56.7474 61.2617 50.2175V44.0598C61.2617 43.2423 60.9428 42.4661 60.357 41.867C59.7681 41.2777 58.9893 40.9534 58.1647 40.9534C57.9801 40.9534 57.7985 40.9721 57.6207 41.0034V6.49519C57.6207 3.98391 55.5773 1.94055 53.066 1.94055H7.29194C4.78066 1.94055 2.7373 3.98391 2.7373 6.49519V42.3216C2.7373 44.8329 4.78066 46.8762 7.29194 46.8762ZM47.2349 30.1193C47.0975 29.9853 46.9499 29.8652 46.7943 29.7598C46.3286 29.4436 45.791 29.2592 45.2422 29.2315C44.4114 29.179 43.6138 29.4712 42.9898 30.057C42.3288 30.677 41.9499 31.5506 41.9499 32.4544V35.4807H40.4314C39.9292 35.4807 39.5205 35.072 39.5205 34.5698V25.3511C39.5205 24.849 39.9292 24.4402 40.4314 24.4402H49.6501C50.1522 24.4402 50.561 24.849 50.561 25.3511V34.5698C50.561 35.072 50.1522 35.4807 49.6501 35.4807H48.1471V32.329C48.1471 31.5186 47.8309 30.742 47.2349 30.1193ZM59.0618 43.148C59.3055 43.3975 59.4399 43.7213 59.4399 44.0598V50.2175C59.4399 55.7426 54.9448 60.2377 49.4197 60.2377C46.7465 60.2377 44.2276 59.1964 42.3315 57.3087C40.4407 55.4095 39.3995 52.8907 39.3995 50.2175V45.9785C39.3995 45.9739 39.4021 45.97 39.4021 45.9653V44.2346C39.4021 42.7692 40.5218 41.5646 41.9499 41.4207V49.1971C41.9499 49.7002 42.3578 50.1081 42.8608 50.1081C43.3639 50.1081 43.7717 49.7002 43.7717 49.1971V41.1258C43.7719 41.1204 43.7749 41.1159 43.7749 41.1104V36.3917V32.4566C43.7749 32.0536 43.9443 31.664 44.2392 31.3873C44.4923 31.1503 44.8068 31.0333 45.1412 31.0524C45.4292 31.0668 45.6552 31.1787 45.8095 31.2914C45.8453 31.3176 45.8724 31.3426 45.9002 31.3676C45.9116 31.3778 45.927 31.3889 45.937 31.3986C46.1855 31.6587 46.3226 31.9883 46.3226 32.3267V44.0448C46.3226 44.0495 46.3199 44.0534 46.3199 44.058V46.9087C46.3199 47.4118 46.7278 47.8196 47.2309 47.8196C47.7339 47.8196 48.1418 47.4118 48.1418 46.9087V44.088C48.1421 44.0787 48.1471 44.071 48.1471 44.0616C48.1471 43.3535 48.7191 42.7771 49.4223 42.7771C49.591 42.7771 49.754 42.8101 49.905 42.8739C50.0555 42.9379 50.1944 43.0321 50.315 43.1551C50.5574 43.3975 50.6898 43.7147 50.6927 44.049C50.6927 44.0522 50.6909 44.0548 50.6909 44.058V46.9087C50.6909 47.4118 51.0987 47.8196 51.6018 47.8196C52.1049 47.8196 52.5127 47.4118 52.5127 46.9087V44.0946C52.5132 44.083 52.5194 44.0733 52.5194 44.0616C52.5194 43.3535 53.0918 42.7771 53.7951 42.7771C53.9666 42.7771 54.1318 42.8101 54.2843 42.8738C54.4363 42.9378 54.576 43.0321 54.6966 43.1551C54.9359 43.3944 55.0676 43.7156 55.0676 44.0598V46.9109C55.0676 47.414 55.4755 47.8218 55.9785 47.8218C56.4816 47.8218 56.8895 47.414 56.8895 46.9109V44.0748C56.8895 44.0702 56.8921 44.0663 56.8921 44.0616C56.8921 43.6995 57.0487 43.3459 57.3111 43.1155C57.3139 43.1131 57.3148 43.1093 57.3175 43.1069C57.3211 43.1036 57.3235 43.0996 57.3271 43.0964C57.7915 42.6659 58.5974 42.6832 59.0618 43.148ZM4.55916 6.49519C4.55916 4.98824 5.785 3.76241 7.29194 3.76241H53.066C54.573 3.76241 55.7988 4.98824 55.7988 6.49519V41.6922C55.7445 41.6455 55.6827 41.6108 55.6257 41.5682C55.5635 41.5218 55.5026 41.4748 55.4374 41.4335C55.3392 41.3712 55.2363 41.3195 55.1319 41.2692C55.0626 41.2356 54.9958 41.1989 54.9241 41.1708C54.8141 41.1277 54.6995 41.098 54.5847 41.0679C54.5124 41.0489 54.4428 41.0234 54.3689 41.0096C54.2294 40.9838 54.0857 40.9747 53.9414 40.968C53.891 40.9656 53.8428 40.9534 53.7919 40.9534C52.9376 40.9534 52.163 41.302 51.6021 41.8655C51.4573 41.7187 51.3005 41.5884 51.1336 41.4755C50.6322 41.1358 50.0411 40.9534 49.4197 40.9534C48.9665 40.9534 48.5357 41.052 48.1471 41.2283V37.3026H49.6501C51.157 37.3026 52.3829 36.0768 52.3829 34.5698V25.3511C52.3829 23.8442 51.157 22.6183 49.6501 22.6183H40.4314C38.9244 22.6183 37.6986 23.8442 37.6986 25.3511V34.5698C37.6986 36.0768 38.9244 37.3026 40.4314 37.3026H41.9499V39.5861C39.5142 39.7325 37.5776 41.7607 37.5776 44.2328V45.0544H7.29194C5.785 45.0544 4.55916 43.8285 4.55916 42.3216V6.49519Z" fill="#0CC2FE"/>
<path d="M10.9359 14.6864H29.9706C31.4776 14.6864 32.7034 13.4606 32.7034 11.9537V9.45617C32.7034 7.94923 31.4776 6.72339 29.9706 6.72339H10.9359C9.42896 6.72339 8.20312 7.94923 8.20312 9.45617V11.9537C8.20312 13.4606 9.42896 14.6864 10.9359 14.6864ZM10.025 9.45617C10.025 8.954 10.4337 8.54524 10.9359 8.54524H29.9706C30.4728 8.54524 30.8816 8.954 30.8816 9.45617V11.9537C30.8816 12.4558 30.4728 12.8646 29.9706 12.8646H10.9359C10.4337 12.8646 10.025 12.4558 10.025 11.9537V9.45617Z" fill="#0CC2FE"/>
<path d="M10.025 23.8224H12.7578C13.7625 23.8224 14.5796 23.0053 14.5796 22.0006V19.2678C14.5796 18.263 13.7625 17.4459 12.7578 17.4459H10.025C9.0202 17.4459 8.20312 18.263 8.20312 19.2678V22.0006C8.20312 23.0053 9.0202 23.8224 10.025 23.8224ZM10.025 19.2678H12.7578L12.7591 22.0006H10.025V19.2678Z" fill="#0CC2FE"/>
<path d="M21.8193 17.4459H19.0865C18.0817 17.4459 17.2646 18.263 17.2646 19.2678V22.0006C17.2646 23.0053 18.0817 23.8224 19.0865 23.8224H21.8193C22.8241 23.8224 23.6411 23.0053 23.6411 22.0006V19.2678C23.6411 18.263 22.8241 17.4459 21.8193 17.4459ZM19.0865 22.0006V19.2678H21.8193L21.8206 22.0006H19.0865Z" fill="#0CC2FE"/>
<path d="M30.8818 17.4459H28.149C27.1442 17.4459 26.3271 18.263 26.3271 19.2678V22.0006C26.3271 23.0053 27.1442 23.8224 28.149 23.8224H30.8818C31.8866 23.8224 32.7036 23.0053 32.7036 22.0006V19.2678C32.7036 18.263 31.8866 17.4459 30.8818 17.4459ZM28.149 22.0006V19.2678H30.8818L30.8831 22.0006H28.149Z" fill="#0CC2FE"/>
<path d="M10.025 32.9584H12.7578C13.7625 32.9584 14.5796 32.1413 14.5796 31.1365V28.4038C14.5796 27.399 13.7625 26.5819 12.7578 26.5819H10.025C9.0202 26.5819 8.20312 27.399 8.20312 28.4038V31.1365C8.20312 32.1413 9.0202 32.9584 10.025 32.9584ZM10.025 28.4038H12.7578L12.7591 31.1365H10.025V28.4038Z" fill="#0CC2FE"/>
<path d="M21.8193 26.5819H19.0865C18.0817 26.5819 17.2646 27.399 17.2646 28.4038V31.1365C17.2646 32.1413 18.0817 32.9584 19.0865 32.9584H21.8193C22.8241 32.9584 23.6411 32.1413 23.6411 31.1365V28.4038C23.6411 27.399 22.8241 26.5819 21.8193 26.5819ZM19.0865 31.1365V28.4038H21.8193L21.8206 31.1365H19.0865Z" fill="#0CC2FE"/>
<path d="M30.8818 26.5819H28.149C27.1442 26.5819 26.3271 27.399 26.3271 28.4038V31.1365C26.3271 32.1413 27.1442 32.9584 28.149 32.9584H30.8818C31.8866 32.9584 32.7036 32.1413 32.7036 31.1365V28.4038C32.7036 27.399 31.8866 26.5819 30.8818 26.5819ZM28.149 31.1365V28.4038H30.8818L30.8831 31.1365H28.149Z" fill="#0CC2FE"/>
<path d="M10.025 42.0943H12.7578C13.7625 42.0943 14.5796 41.2772 14.5796 40.2724V37.5396C14.5796 36.5349 13.7625 35.7178 12.7578 35.7178H10.025C9.0202 35.7178 8.20312 36.5349 8.20312 37.5396V40.2724C8.20312 41.2772 9.0202 42.0943 10.025 42.0943ZM10.025 37.5396H12.7578L12.7591 40.2724H10.025V37.5396Z" fill="#0CC2FE"/>
<path d="M21.8193 35.7178H19.0865C18.0817 35.7178 17.2646 36.5349 17.2646 37.5396V40.2724C17.2646 41.2772 18.0817 42.0943 19.0865 42.0943H21.8193C22.8241 42.0943 23.6411 41.2772 23.6411 40.2724V37.5396C23.6411 36.5349 22.8241 35.7178 21.8193 35.7178ZM19.0865 40.2724V37.5396H21.8193L21.8206 40.2724H19.0865Z" fill="#0CC2FE"/>
<path d="M30.8818 35.7178H28.149C27.1442 35.7178 26.3271 36.5349 26.3271 37.5396V40.2724C26.3271 41.2772 27.1442 42.0943 28.149 42.0943H30.8818C31.8866 42.0943 32.7036 41.2772 32.7036 40.2724V37.5396C32.7036 36.5349 31.8866 35.7178 30.8818 35.7178ZM28.149 40.2724V37.5396H30.8818L30.8831 40.2724H28.149Z" fill="#0CC2FE"/>
<path d="M38.6131 9.42366H51.4715C51.9745 9.42366 52.3824 9.01579 52.3824 8.51273C52.3824 8.00968 51.9745 7.60181 51.4715 7.60181H38.6131C38.11 7.60181 37.7021 8.00968 37.7021 8.51273C37.7021 9.01579 38.11 9.42366 38.6131 9.42366Z" fill="#0CC2FE"/>
<path d="M38.6131 14.3457H51.4715C51.9745 14.3457 52.3824 13.9378 52.3824 13.4347C52.3824 12.9317 51.9745 12.5238 51.4715 12.5238H38.6131C38.11 12.5238 37.7021 12.9317 37.7021 13.4347C37.7021 13.9378 38.11 14.3457 38.6131 14.3457Z" fill="#0CC2FE"/>
<path d="M38.6131 19.2678H51.4715C51.9745 19.2678 52.3824 18.8599 52.3824 18.3569C52.3824 17.8538 51.9745 17.4459 51.4715 17.4459H38.6131C38.11 17.4459 37.7021 17.8538 37.7021 18.3569C37.7021 18.8599 38.11 19.2678 38.6131 19.2678Z" fill="#0CC2FE"/>
</svg>
