<svg width="32" height="32" viewBox="0 0 32 32" fill="none" xmlns="http://www.w3.org/2000/svg">
<path d="M28.475 1.5H3.525C2.685 1.5 2 2.185 2 3.025V21.975C2 22.815 2.685 23.5 3.525 23.5H13V27.5H9.89C9.43 27.5 9.03 27.81 8.92 28.255L8.67 29.255C8.595 29.555 8.66 29.87 8.855 30.115C9.05 30.36 9.335 30.5 9.645 30.5H22.365C22.675 30.5 22.96 30.36 23.155 30.115C23.35 29.87 23.41 29.56 23.335 29.255L23.085 28.255C22.975 27.81 22.575 27.5 22.115 27.5H19.005V23.5H28.48C29.32 23.5 30.005 22.815 30.005 21.975V3.025C30.005 2.185 29.32 1.5 28.48 1.5H28.475ZM22.11 28.5L22.36 29.5H9.64L9.89 28.5H22.11ZM18 27.5H14V23.5H18V27.5ZM29 21.975C29 22.265 28.765 22.5 28.475 22.5H3.525C3.235 22.5 3 22.265 3 21.975V3.025C3 2.735 3.235 2.5 3.525 2.5H28.475C28.765 2.5 29 2.735 29 3.025V21.975ZM27.5 3.5H4.5C4.225 3.5 4 3.725 4 4V21C4 21.275 4.225 21.5 4.5 21.5H27.5C27.775 21.5 28 21.275 28 21V4C28 3.725 27.775 3.5 27.5 3.5ZM27 20.5H5V4.5H27V20.5ZM9 17.5H14.5C14.5 18.325 15.175 19 16 19C16.825 19 17.5 18.325 17.5 17.5H23C23.825 17.5 24.5 16.825 24.5 16V9C24.5 8.175 23.825 7.5 23 7.5H22.5V7C22.5 6.785 22.365 6.595 22.16 6.525C20.175 5.845 17.995 5.825 16 6.47C14.005 5.825 11.825 5.845 9.84 6.525C9.64 6.595 9.5 6.785 9.5 7V7.5H9C8.175 7.5 7.5 8.175 7.5 9V16C7.5 16.825 8.175 17.5 9 17.5ZM21.5 7.365V14.325C19.87 13.89 18.135 13.895 16.5 14.33V7.37C18.125 6.885 19.875 6.88 21.5 7.365ZM10.5 7.365C12.125 6.88 13.875 6.89 15.5 7.37V14.33C14.685 14.115 13.85 14 13 14C12.15 14 11.315 14.11 10.5 14.325V7.365ZM8.5 9C8.5 8.725 8.725 8.5 9 8.5H9.5V15C9.5 15.16 9.58 15.315 9.71 15.405C9.795 15.465 9.9 15.5 10 15.5C10.055 15.5 10.11 15.49 10.16 15.475C11.99 14.85 14.005 14.85 15.835 15.475C15.94 15.51 16.055 15.51 16.16 15.475C17.99 14.85 20.005 14.85 21.835 15.475C21.985 15.525 22.155 15.505 22.29 15.41C22.42 15.315 22.5 15.165 22.5 15.005V8.505H23C23.275 8.505 23.5 8.73 23.5 9.005V16.005C23.5 16.28 23.275 16.505 23 16.505H17C16.725 16.505 16.5 16.73 16.5 17.005V17.505C16.5 17.78 16.275 18.005 16 18.005C15.725 18.005 15.5 17.78 15.5 17.505V17.005C15.5 16.73 15.275 16.505 15 16.505H9C8.725 16.505 8.5 16.28 8.5 16.005V9.005V9ZM17.505 8.64C17.465 8.365 17.66 8.115 17.93 8.075C18.635 7.975 19.36 7.975 20.07 8.075C20.345 8.115 20.535 8.365 20.495 8.64C20.46 8.89 20.245 9.07 20 9.07C19.975 9.07 19.955 9.07 19.93 9.07C19.315 8.985 18.685 8.985 18.07 9.07C17.795 9.105 17.545 8.915 17.505 8.645V8.64ZM17.505 10.64C17.465 10.365 17.66 10.115 17.93 10.075C18.635 9.975 19.36 9.975 20.07 10.075C20.345 10.115 20.535 10.365 20.495 10.64C20.46 10.89 20.245 11.07 20 11.07C19.975 11.07 19.955 11.07 19.93 11.07C19.315 10.985 18.685 10.985 18.07 11.07C17.795 11.105 17.545 10.915 17.505 10.645V10.64ZM20.495 12.64C20.46 12.89 20.245 13.07 20 13.07C19.975 13.07 19.955 13.07 19.93 13.07C19.315 12.985 18.685 12.985 18.07 13.07C17.795 13.105 17.545 12.915 17.505 12.645C17.465 12.37 17.66 12.12 17.93 12.08C18.635 11.98 19.36 11.98 20.07 12.08C20.345 12.12 20.535 12.37 20.495 12.645V12.64ZM11.505 8.64C11.465 8.365 11.66 8.115 11.93 8.075C12.635 7.975 13.36 7.975 14.07 8.075C14.345 8.115 14.535 8.365 14.495 8.64C14.46 8.89 14.245 9.07 14 9.07C13.975 9.07 13.955 9.07 13.93 9.07C13.315 8.985 12.685 8.985 12.07 9.07C11.795 9.105 11.545 8.915 11.505 8.645V8.64ZM11.505 10.64C11.465 10.365 11.66 10.115 11.93 10.075C12.635 9.975 13.36 9.975 14.07 10.075C14.345 10.115 14.535 10.365 14.495 10.64C14.46 10.89 14.245 11.07 14 11.07C13.975 11.07 13.955 11.07 13.93 11.07C13.315 10.985 12.685 10.985 12.07 11.07C11.795 11.105 11.545 10.915 11.505 10.645V10.64ZM11.505 12.64C11.465 12.365 11.66 12.115 11.93 12.075C12.635 11.975 13.36 11.975 14.07 12.075C14.345 12.115 14.535 12.365 14.495 12.64C14.46 12.89 14.245 13.07 14 13.07C13.975 13.07 13.955 13.07 13.93 13.07C13.315 12.985 12.685 12.985 12.07 13.07C11.795 13.105 11.545 12.915 11.505 12.645V12.64Z" fill="#0CC2FE"/>
</svg>
