<svg width="64" height="64" viewBox="0 0 64 64" fill="none" xmlns="http://www.w3.org/2000/svg">
<path d="M15 27.5H49C49.5303 27.4995 50.0387 27.2886 50.4136 26.9136C50.7886 26.5387 50.9995 26.0303 51 25.5V5.5C50.9995 4.96973 50.7886 4.46133 50.4136 4.08637C50.0387 3.71141 49.5303 3.50053 49 3.5H15C14.4697 3.50053 13.9613 3.71141 13.5864 4.08637C13.2114 4.46133 13.0005 4.96973 13 5.5V25.5C13.0005 26.0303 13.2114 26.5387 13.5864 26.9136C13.9613 27.2886 14.4697 27.4995 15 27.5ZM15 5.5H49L49.0015 25.5H15V5.5Z" fill="#0CC2FE"/>
<path d="M34.9986 12.4458C34.9049 12.3538 34.794 12.2811 34.6723 12.2319C34.5505 12.1827 34.4202 12.158 34.2889 12.1592C34.1576 12.1604 34.0278 12.1874 33.9069 12.2388C33.7861 12.2902 33.6765 12.3648 33.5845 12.4585L28.9878 17.1402C28.8958 17.2338 28.8231 17.3447 28.7739 17.4665C28.7247 17.5883 28.7 17.7185 28.7012 17.8498C28.7024 17.9811 28.7294 18.1109 28.7808 18.2318C28.8321 18.3527 28.9068 18.4622 29.0005 18.5542C29.1912 18.7371 29.4459 18.8382 29.7101 18.8358C29.9744 18.8335 30.2272 18.7279 30.4146 18.5415L35.0113 13.8599C35.1033 13.7662 35.176 13.6554 35.2252 13.5336C35.2744 13.4118 35.2991 13.2816 35.2979 13.1502C35.2967 13.0189 35.2697 12.8891 35.2183 12.7683C35.167 12.6474 35.0923 12.5378 34.9986 12.4458Z" fill="#0CC2FE"/>
<path d="M29.4302 14.1944L30.7437 12.857C30.929 12.6677 31.0316 12.4126 31.029 12.1477C31.0264 11.8828 30.9188 11.6298 30.7298 11.4441C30.5408 11.2585 30.2859 11.1555 30.021 11.1576C29.7561 11.1598 29.5029 11.2669 29.317 11.4556L28.0035 12.793C27.9114 12.8867 27.8387 12.9975 27.7896 13.1193C27.7404 13.2411 27.7157 13.3713 27.7168 13.5026C27.718 13.6339 27.745 13.7637 27.7964 13.8846C27.8477 14.0054 27.9224 14.115 28.0161 14.207C28.2082 14.3871 28.4623 14.4863 28.7257 14.484C28.989 14.4816 29.2414 14.3779 29.4302 14.1944Z" fill="#0CC2FE"/>
<path d="M34.5699 16.8056L33.2564 18.143C33.1643 18.2367 33.0917 18.3476 33.0425 18.4693C32.9933 18.5911 32.9686 18.7214 32.9698 18.8527C32.9709 18.984 32.998 19.1138 33.0493 19.2346C33.1007 19.3555 33.1754 19.4651 33.2691 19.5571C33.4599 19.7397 33.7145 19.8406 33.9787 19.8383C34.2428 19.8359 34.4956 19.7304 34.6831 19.5444L35.9966 18.207C36.0889 18.1134 36.1618 18.0025 36.2112 17.8806C36.2606 17.7588 36.2855 17.6284 36.2844 17.497C36.2833 17.3655 36.2563 17.2355 36.205 17.1145C36.1537 16.9935 36.079 16.8838 35.9852 16.7917C35.8914 16.6996 35.7804 16.6268 35.6584 16.5777C35.5365 16.5285 35.4061 16.5039 35.2746 16.5052C35.1432 16.5065 35.0133 16.5337 34.8923 16.5852C34.7714 16.6368 34.6618 16.7117 34.5699 16.8056Z" fill="#0CC2FE"/>
<path d="M61 43.5H60.0713C59.8445 43.1167 59.6977 42.6915 59.6396 42.25C59.7417 41.6407 59.978 41.0618 60.3315 40.5552C60.4321 40.4046 60.4899 40.2296 60.4988 40.0488C60.5076 39.8679 60.4672 39.6881 60.3819 39.5284C60.2965 39.3687 60.1694 39.2352 60.014 39.1422C59.8587 39.0491 59.6811 39 59.5 39H49.1738C48.3223 39.0112 47.51 39.3596 46.9151 39.9689C46.3201 40.5782 45.991 41.3985 46 42.25C45.9996 42.6786 46.0828 43.1032 46.2449 43.5H38.325C38.4869 43.0478 38.5375 42.5633 38.4726 42.0874C38.4077 41.6115 38.2291 41.1582 37.952 40.7659C37.6749 40.3735 37.3075 40.0537 36.8807 39.8333C36.4539 39.613 35.9803 39.4987 35.5 39.5H28.5C28.0197 39.4987 27.5461 39.613 27.1193 39.8333C26.6925 40.0537 26.3251 40.3735 26.048 40.7659C25.7709 41.1582 25.5923 41.6115 25.5274 42.0874C25.4625 42.5633 25.5131 43.0478 25.675 43.5H14.4825C14.7882 42.9729 14.964 42.3806 14.9954 41.7721C15.0267 41.1636 14.9126 40.5564 14.6626 40.0007C14.4317 39.4694 14.1345 38.9694 13.7781 38.5128C13.6761 38.3784 13.5665 38.2384 13.4625 38.1077V38H13.75C13.8979 37.9983 14.0436 37.9641 14.1769 37.8998C14.3101 37.8356 14.4276 37.7428 14.521 37.6281C14.6145 37.5135 14.6816 37.3797 14.7176 37.2362C14.7536 37.0927 14.7577 36.9431 14.7295 36.7979L13.7129 31.8784C13.6317 31.4878 13.4181 31.1371 13.108 30.8859C12.798 30.6348 12.4107 30.4984 12.0117 30.5H8.98828C8.59027 30.4981 8.2038 30.6336 7.89407 30.8836C7.58433 31.1335 7.3703 31.4827 7.28808 31.8721L6.2705 36.7979C6.24321 36.943 6.24791 37.0923 6.28429 37.2354C6.32066 37.3785 6.38782 37.5119 6.48109 37.6264C6.57435 37.7409 6.69148 37.8336 6.82428 37.8981C6.95708 37.9627 7.10237 37.9974 7.25 38H7.5375V38.1077C7.39315 38.2892 7.24057 38.4852 7.11023 38.6621C6.79894 39.0783 6.53846 39.5301 6.33434 40.008C6.08604 40.563 5.97318 41.169 6.00509 41.7762C6.037 42.3833 6.21275 42.9741 6.51786 43.5H3C2.20462 43.5009 1.44206 43.8172 0.879639 44.3797C0.317218 44.9421 0.000868196 45.7046 0 46.5L0 59.5C1.32596e-05 59.7652 0.105374 60.0196 0.292908 60.2071C0.480441 60.3946 0.734788 60.5 1 60.5H63C63.2652 60.5 63.5196 60.3946 63.7071 60.2071C63.8946 60.0196 64 59.7652 64 59.5V46.5C63.9991 45.7046 63.6828 44.9421 63.1204 44.3797C62.5579 43.8172 61.7954 43.5009 61 43.5ZM48 42.25C47.9905 41.9288 48.1087 41.6168 48.3287 41.3826C48.5487 41.1483 48.8526 41.0107 49.1738 41H57.8838C57.5583 41.8016 57.5583 42.6985 57.8838 43.5H49.1738C48.8526 43.4893 48.5487 43.3518 48.3287 43.1175C48.1087 42.8832 47.9905 42.5713 48 42.25ZM27.5 42.5C27.5003 42.2349 27.6058 41.9808 27.7933 41.7933C27.9807 41.6058 28.2349 41.5004 28.5 41.5H35.5C35.7652 41.5 36.0196 41.6054 36.2071 41.7929C36.3946 41.9804 36.5 42.2348 36.5 42.5C36.5 42.7652 36.3946 43.0196 36.2071 43.2071C36.0196 43.3947 35.7652 43.5 35.5 43.5H28.5C28.2349 43.4997 27.9807 43.3942 27.7933 43.2067C27.6058 43.0193 27.5003 42.7651 27.5 42.5ZM42.5 45.5V51H21.5V45.5H42.5ZM9.20068 32.5H11.7993L12.5225 36H8.47754L9.20068 32.5ZM8.17966 40.7793C8.32275 40.449 8.50413 40.1367 8.72006 39.8488C8.92111 39.5761 9.19223 39.239 9.36596 39.0261C9.47628 38.8933 9.53692 38.7263 9.53747 38.5536V38H11.4625V38.5536C11.4636 38.7271 11.5248 38.8948 11.6357 39.0282C11.7832 39.2089 11.9999 39.4781 12.1847 39.7215C12.4384 40.0454 12.6513 40.3993 12.8186 40.7751C13.0941 41.4311 13.2741 42.6086 11.661 43.5H9.339C7.72928 42.6106 7.90515 41.4361 8.17966 40.7793ZM2 46.5C2.00035 46.2349 2.10581 45.9808 2.29327 45.7933C2.48074 45.6058 2.73489 45.5004 3 45.5H19.5V58.5H2V46.5ZM21.5 58.5V53H42.5V58.5H21.5ZM62 58.5H44.5V45.5H61C61.2651 45.5004 61.5193 45.6058 61.7067 45.7933C61.8942 45.9808 61.9997 46.2349 62 46.5V58.5Z" fill="#0CC2FE"/>
<path d="M12 47.5H9C8.73478 47.5 8.48043 47.6054 8.29289 47.7929C8.10536 47.9804 8 48.2348 8 48.5C8 48.7652 8.10536 49.0196 8.29289 49.2071C8.48043 49.3946 8.73478 49.5 9 49.5H12C12.2652 49.5 12.5196 49.3946 12.7071 49.2071C12.8946 49.0196 13 48.7652 13 48.5C13 48.2348 12.8946 47.9804 12.7071 47.7929C12.5196 47.6054 12.2652 47.5 12 47.5Z" fill="#0CC2FE"/>
<path d="M55 47.5H52C51.7348 47.5 51.4804 47.6054 51.2929 47.7929C51.1054 47.9804 51 48.2348 51 48.5C51 48.7652 51.1054 49.0196 51.2929 49.2071C51.4804 49.3946 51.7348 49.5 52 49.5H55C55.2652 49.5 55.5196 49.3946 55.7071 49.2071C55.8946 49.0196 56 48.7652 56 48.5C56 48.2348 55.8946 47.9804 55.7071 47.7929C55.5196 47.6054 55.2652 47.5 55 47.5Z" fill="#0CC2FE"/>
<path d="M26.5 29.5C26.2348 29.5 25.9804 29.6054 25.7929 29.7929C25.6054 29.9804 25.5 30.2348 25.5 30.5C25.5 30.7652 25.6054 31.0196 25.7929 31.2071C25.9804 31.3946 26.2348 31.5 26.5 31.5H37.5C37.7652 31.5 38.0196 31.3946 38.2071 31.2071C38.3946 31.0196 38.5 30.7652 38.5 30.5C38.5 30.2348 38.3946 29.9804 38.2071 29.7929C38.0196 29.6054 37.7652 29.5 37.5 29.5H26.5Z" fill="#0CC2FE"/>
<path d="M3 21.5H7C7.26522 21.5 7.51957 21.3946 7.70711 21.2071C7.89464 21.0196 8 20.7652 8 20.5C8 20.2348 7.89464 19.9804 7.70711 19.7929C7.51957 19.6054 7.26522 19.5 7 19.5H3C2.73478 19.5 2.48043 19.6054 2.29289 19.7929C2.10536 19.9804 2 20.2348 2 20.5C2 20.7652 2.10536 21.0196 2.29289 21.2071C2.48043 21.3946 2.73478 21.5 3 21.5Z" fill="#0CC2FE"/>
<path d="M3 16.5H7C7.26522 16.5 7.51957 16.3946 7.70711 16.2071C7.89464 16.0196 8 15.7652 8 15.5C8 15.2348 7.89464 14.9804 7.70711 14.7929C7.51957 14.6054 7.26522 14.5 7 14.5H3C2.73478 14.5 2.48043 14.6054 2.29289 14.7929C2.10536 14.9804 2 15.2348 2 15.5C2 15.7652 2.10536 16.0196 2.29289 16.2071C2.48043 16.3946 2.73478 16.5 3 16.5Z" fill="#0CC2FE"/>
<path d="M3 11.5H7C7.26522 11.5 7.51957 11.3946 7.70711 11.2071C7.89464 11.0196 8 10.7652 8 10.5C8 10.2348 7.89464 9.98043 7.70711 9.79289C7.51957 9.60536 7.26522 9.5 7 9.5H3C2.73478 9.5 2.48043 9.60536 2.29289 9.79289C2.10536 9.98043 2 10.2348 2 10.5C2 10.7652 2.10536 11.0196 2.29289 11.2071C2.48043 11.3946 2.73478 11.5 3 11.5Z" fill="#0CC2FE"/>
<path d="M57 21.5H61C61.2652 21.5 61.5196 21.3946 61.7071 21.2071C61.8946 21.0196 62 20.7652 62 20.5C62 20.2348 61.8946 19.9804 61.7071 19.7929C61.5196 19.6054 61.2652 19.5 61 19.5H57C56.7348 19.5 56.4804 19.6054 56.2929 19.7929C56.1054 19.9804 56 20.2348 56 20.5C56 20.7652 56.1054 21.0196 56.2929 21.2071C56.4804 21.3946 56.7348 21.5 57 21.5Z" fill="#0CC2FE"/>
<path d="M57 16.5H61C61.2652 16.5 61.5196 16.3946 61.7071 16.2071C61.8946 16.0196 62 15.7652 62 15.5C62 15.2348 61.8946 14.9804 61.7071 14.7929C61.5196 14.6054 61.2652 14.5 61 14.5H57C56.7348 14.5 56.4804 14.6054 56.2929 14.7929C56.1054 14.9804 56 15.2348 56 15.5C56 15.7652 56.1054 16.0196 56.2929 16.2071C56.4804 16.3946 56.7348 16.5 57 16.5Z" fill="#0CC2FE"/>
<path d="M57 11.5H61C61.2652 11.5 61.5196 11.3946 61.7071 11.2071C61.8946 11.0196 62 10.7652 62 10.5C62 10.2348 61.8946 9.98043 61.7071 9.79289C61.5196 9.60536 61.2652 9.5 61 9.5H57C56.7348 9.5 56.4804 9.60536 56.2929 9.79289C56.1054 9.98043 56 10.2348 56 10.5C56 10.7652 56.1054 11.0196 56.2929 11.2071C56.4804 11.3946 56.7348 11.5 57 11.5Z" fill="#0CC2FE"/>
</svg>
