<svg width="64" height="64" viewBox="0 0 64 64" fill="none" xmlns="http://www.w3.org/2000/svg">
<g clip-path="url(#clip0_8138_2532)">
<path d="M32.3465 22.6882H8.34851C7.83076 22.6882 7.41113 23.108 7.41113 23.6256C7.41113 24.1434 7.83076 24.563 8.34851 24.563H32.3466C32.8644 24.563 33.284 24.1432 33.284 23.6256C33.284 23.108 32.8644 22.6882 32.3465 22.6882Z" fill="#0CC2FE"/>
<path d="M32.3465 29.2753H8.34851C7.83076 29.2753 7.41113 29.695 7.41113 30.2126C7.41113 30.7303 7.83076 31.15 8.34851 31.15H32.3466C32.8644 31.15 33.284 30.7303 33.284 30.2126C33.284 29.695 32.8644 29.2753 32.3465 29.2753Z" fill="#0CC2FE"/>
<path d="M32.3465 35.8622H8.34851C7.83076 35.8622 7.41113 36.2819 7.41113 36.7996C7.41113 37.3172 7.83076 37.7369 8.34851 37.7369H32.3466C32.8644 37.7369 33.284 37.3172 33.284 36.7996C33.284 36.2819 32.8644 35.8622 32.3465 35.8622Z" fill="#0CC2FE"/>
<path d="M33.284 43.3866C33.284 42.8688 32.8644 42.4492 32.3466 42.4492H8.34851C7.83076 42.4492 7.41113 42.869 7.41113 43.3866C7.41113 43.9042 7.83076 44.324 8.34851 44.324H32.3466C32.8644 44.324 33.284 43.9043 33.284 43.3866Z" fill="#0CC2FE"/>
<path d="M8.34851 52.1027C7.83076 52.1027 7.41113 52.5224 7.41113 53.04C7.41113 53.5577 7.83076 53.9774 8.34851 53.9774H20.3783C20.896 53.9774 21.3156 53.5577 21.3156 53.04C21.3156 52.5224 20.896 52.1027 20.3783 52.1027H8.34851Z" fill="#0CC2FE"/>
<path d="M43.1489 11.6066V8.56488C43.1489 7.40613 42.2063 6.46338 41.0474 6.46338H21.8016C20.6428 6.46338 19.7002 7.40613 19.7002 8.56488V11.6066C19.7002 12.7654 20.6428 13.708 21.8016 13.708H23.4268C23.9446 13.708 24.3642 13.2883 24.3642 12.7706C24.3642 12.2529 23.9446 11.8333 23.4268 11.8333H21.8016C21.6767 11.8333 21.5751 11.7316 21.5751 11.6068V8.56488C21.5751 8.44 21.6767 8.33825 21.8016 8.33825H41.0474C41.1724 8.33825 41.2741 8.43988 41.2741 8.56488V11.6066C41.2741 11.7315 41.1724 11.8331 41.0474 11.8331H27.8093C27.2916 11.8331 26.8719 12.2529 26.8719 12.7705C26.8719 13.2883 27.2916 13.7079 27.8093 13.7079H41.0476C42.2063 13.7081 43.1489 12.7654 43.1489 11.6066Z" fill="#0CC2FE"/>
<path d="M50.1584 57.162C49.6406 57.162 49.221 57.5818 49.221 58.0994V59.3618C49.221 60.8854 47.9814 62.1251 46.4575 62.1251H4.98725C3.46362 62.1251 2.22387 60.8855 2.22387 59.3618V14.3035C2.22387 14.1006 2.24762 13.9016 2.29 13.708H10.8254C12.6074 13.708 14.0571 12.2582 14.0571 10.4762V1.941C14.2507 1.89863 14.4496 1.87487 14.6525 1.87487H46.4574C47.9811 1.87487 49.2209 3.1145 49.2209 4.63825V17.1185C49.2209 17.6362 49.6405 18.0559 50.1582 18.0559C50.676 18.0559 51.0956 17.6361 51.0956 17.1185V4.63812C51.0957 2.08075 49.015 0 46.4575 0H14.6526C13.4137 0 12.2489 0.4825 11.3729 1.3585L1.7075 11.0239C0.831496 11.8999 0.349121 13.0646 0.349121 14.3036V59.3619C0.349121 61.9194 2.42975 64 4.98725 64H46.4575C49.015 64 51.0957 61.9193 51.0957 59.3619V58.0995C51.0957 57.5817 50.6761 57.162 50.1584 57.162ZM12.1824 3.2005V10.4762C12.1824 11.2245 11.5736 11.8333 10.8254 11.8333H3.54962L12.1824 3.2005Z" fill="#0CC2FE"/>
<path d="M62.9975 33.4999C63.6555 32.534 63.8257 31.3426 63.4646 30.2311C63.1035 29.1196 62.2653 28.2559 61.1653 27.8614C60.4356 27.5996 59.9487 26.9296 59.9255 26.1546C59.8901 24.9865 59.3275 23.9225 58.3818 23.2355C57.4365 22.5486 56.2505 22.3425 55.129 22.6697C54.3842 22.887 53.5971 22.631 53.1226 22.0179C52.4075 21.0935 51.327 20.5634 50.1582 20.5634C48.9896 20.5634 47.909 21.0935 47.1937 22.0179C46.7192 22.6311 45.9316 22.8867 45.1875 22.6697C44.0658 22.3422 42.88 22.5486 41.9343 23.2355C40.9888 23.9225 40.4265 24.9864 40.391 26.1545C40.3676 26.9295 39.8808 27.5994 39.151 27.8612C38.051 28.2557 37.2128 29.1196 36.8518 30.231C36.4907 31.3425 36.661 32.534 37.319 33.4997C37.7555 34.1406 37.7555 34.9686 37.319 35.6094C36.661 36.5752 36.4907 37.7666 36.8518 38.8781C37.2128 39.9896 38.051 40.8534 39.151 41.248C39.8808 41.5099 40.3677 42.1797 40.391 42.9547C40.4236 44.0292 40.916 45.0389 41.7422 45.7245C42.2873 46.177 42.9422 46.4601 43.6276 46.5547V55.0895C43.6276 55.8096 44.0182 56.4752 44.6468 56.8264C45.2747 57.1772 46.0466 57.1616 46.6602 56.7837L50.0983 54.6672C50.1543 54.6326 50.1877 54.6482 50.2186 54.6672L53.6565 56.7837C54.2698 57.1612 55.0415 57.1775 55.67 56.8262C56.2987 56.475 56.6892 55.8094 56.6892 55.0894V46.5545C57.3743 46.46 58.0292 46.1769 58.5743 45.7245C59.4007 45.0389 59.8932 44.0294 59.9258 42.9546C59.9491 42.1796 60.436 41.5096 61.1657 41.2479C62.2658 40.8534 63.104 39.9895 63.465 38.878C63.8261 37.7665 63.6558 36.5751 62.9978 35.6092C62.5608 34.9687 62.5608 34.1407 62.9975 33.4999ZM54.6391 55.1872L51.2011 53.0707C50.562 52.6774 49.755 52.6767 49.1152 53.0707L45.6772 55.1871C45.599 55.2347 45.5023 55.1799 45.5023 55.0894V46.3767C46.1468 46.3021 46.7858 46.5644 47.1937 47.0915C47.9091 48.0157 48.9896 48.5459 50.1583 48.5459C51.327 48.5459 52.4075 48.0157 53.1226 47.0915C53.5306 46.5642 54.1697 46.3021 54.8141 46.3767V55.0894C54.8141 55.1805 54.7162 55.2349 54.6391 55.1872ZM61.4481 36.6652C61.7771 37.148 61.8621 37.7434 61.6816 38.2989C61.5011 38.8544 61.0822 39.2861 60.5323 39.4834C59.0721 40.0071 58.0983 41.3475 58.0515 42.8981C58.0348 43.4432 57.7952 43.9346 57.3768 44.2819C56.9065 44.6722 56.2695 44.8195 55.6542 44.64C54.1651 44.2055 52.5892 44.7175 51.6397 45.9442C51.2823 46.4061 50.7422 46.6711 50.1581 46.6711C49.5741 46.6711 49.034 46.4062 48.6763 45.9442C47.9515 45.0072 46.8613 44.4872 45.7235 44.4872C45.3712 44.4872 45.0142 44.5371 44.6622 44.6399C44.041 44.8209 43.4058 44.6691 42.9392 44.2817C42.5208 43.9345 42.2812 43.4431 42.2648 42.8981C42.2178 41.3475 41.2441 40.0071 39.7837 39.4832C39.234 39.286 38.8152 38.8544 38.6346 38.2989C38.4541 37.7434 38.5391 37.1479 38.8681 36.6651C39.7415 35.383 39.7415 33.7264 38.8681 32.4442C38.5391 31.9615 38.4541 31.366 38.6346 30.8104C38.8151 30.2549 39.234 29.8231 39.7837 29.626C41.2441 29.1021 42.2178 27.7617 42.2648 26.2111C42.2825 25.6272 42.5635 25.0955 43.0361 24.7522C43.5085 24.4089 44.101 24.3059 44.6621 24.4694C46.1508 24.904 47.7271 24.3919 48.6763 23.1651C49.0338 22.7031 49.5738 22.4381 50.1581 22.4381C50.7422 22.4381 51.2822 22.703 51.6397 23.165C52.5891 24.3919 54.1646 24.9039 55.6541 24.4694C56.2148 24.3056 56.8073 24.4087 57.28 24.7521C57.7526 25.0954 58.0338 25.6272 58.0513 26.211C58.0983 27.7616 59.0721 29.1021 60.5323 29.6259C61.0822 29.823 61.501 30.2547 61.6816 30.8102C61.8621 31.3657 61.7771 31.9614 61.4481 32.444C60.5745 33.7262 60.5745 35.3831 61.4481 36.6652Z" fill="#0CC2FE"/>
<path d="M50.1585 26.6979C45.8263 26.6979 42.3018 30.2224 42.3018 34.5546C42.3018 38.8869 45.8263 42.4114 50.1585 42.4114C54.4906 42.4114 58.0151 38.8869 58.0151 34.5546C58.0151 30.2224 54.4906 26.6979 50.1585 26.6979ZM50.1585 40.5366C46.86 40.5366 44.1765 37.8531 44.1765 34.5548C44.1765 31.2564 46.86 28.5728 50.1585 28.5728C53.457 28.5728 56.1404 31.2563 56.1404 34.5548C56.1404 37.8533 53.4569 40.5366 50.1585 40.5366Z" fill="#0CC2FE"/>
</g>
<defs>
<clipPath id="clip0_8138_2532">
<rect width="64" height="64" fill="white"/>
</clipPath>
</defs>
</svg>
