<svg width="31" height="31" viewBox="0 0 31 31" fill="none" xmlns="http://www.w3.org/2000/svg">
<path d="M6.61291 13.6976V17.0039H3.77897C3.6537 17.0039 3.53356 17.0536 3.44498 17.1422C3.3564 17.2308 3.30664 17.3509 3.30664 17.4762C3.30664 20.6079 4.55071 23.6113 6.76516 25.8258C8.97961 28.0402 11.9831 29.2843 15.1148 29.2843C18.2465 29.2843 21.2499 28.0402 23.4644 25.8258C25.6788 23.6113 26.9229 20.6079 26.9229 17.4762C26.9229 17.3509 26.8731 17.2308 26.7845 17.1422C26.696 17.0536 26.5758 17.0039 26.4506 17.0039H23.6166V13.6976C23.6166 13.3218 23.4673 12.9614 23.2016 12.6956C22.9358 12.4299 22.5754 12.2806 22.1996 12.2806H22.0192C22.3105 12.0285 22.5177 11.6933 22.6131 11.3201C22.7085 10.9468 22.6875 10.5534 22.553 10.1924C22.4184 9.83139 22.1768 9.52016 21.8603 9.30041C21.5439 9.08066 21.1679 8.96289 20.7827 8.96289C20.3974 8.96289 20.0214 9.08066 19.705 9.30041C19.3885 9.52016 19.1469 9.83139 19.0123 10.1924C18.8778 10.5534 18.8568 10.9468 18.9522 11.3201C19.0476 11.6933 19.2548 12.0285 19.5461 12.2806H19.3657C19.1403 12.2821 18.9186 12.3382 18.7195 12.444C18.5698 12.1144 18.3286 11.8347 18.0244 11.6382C17.7203 11.4418 17.3661 11.3369 17.0041 11.336H16.4344C16.7485 11.0888 16.986 10.7575 17.1193 10.3807C17.2526 10.0039 17.2762 9.59702 17.1875 9.20731C17.0987 8.81761 16.9013 8.46107 16.618 8.17913C16.3347 7.89718 15.9772 7.7014 15.5871 7.61452V4.95108C16.055 5.03262 16.5291 5.07402 17.0041 5.07483C17.6795 5.07513 18.3523 4.99264 19.0077 4.82922C19.1099 4.80373 19.2007 4.74478 19.2655 4.66177C19.3304 4.57875 19.3657 4.47643 19.3657 4.37107V2.00944C19.3657 1.9377 19.3493 1.8669 19.3178 1.80242C19.2864 1.73795 19.2406 1.68149 19.1841 1.63733C19.1275 1.59317 19.0617 1.56247 18.9915 1.54756C18.9213 1.53265 18.8487 1.53393 18.7791 1.55129C17.7336 1.81059 16.6439 1.83703 15.5871 1.62875V0.944824H14.6424V7.61452C14.2523 7.7014 13.8948 7.89718 13.6115 8.17913C13.3283 8.46107 13.1308 8.81761 13.042 9.20731C12.9533 9.59702 12.977 10.0039 13.1103 10.3807C13.2436 10.7575 13.481 11.0888 13.7951 11.336H13.2255C12.8634 11.3369 12.5092 11.4418 12.2051 11.6382C11.901 11.8347 11.6597 12.1144 11.51 12.444C11.311 12.3382 11.0893 12.2821 10.8638 12.2806H10.6834C10.9747 12.0285 11.1819 11.6933 11.2773 11.3201C11.3727 10.9468 11.3517 10.5534 11.2172 10.1924C11.0827 9.83139 10.841 9.52016 10.5246 9.30041C10.2081 9.08066 9.8321 8.96289 9.44686 8.96289C9.06162 8.96289 8.68559 9.08066 8.36917 9.30041C8.05275 9.52016 7.81107 9.83139 7.67653 10.1924C7.54198 10.5534 7.52101 10.9468 7.61642 11.3201C7.71182 11.6933 7.91905 12.0285 8.21032 12.2806H8.02989C7.65408 12.2806 7.29367 12.4299 7.02794 12.6956C6.7622 12.9614 6.61291 13.3218 6.61291 13.6976ZM15.5871 2.5819C16.5242 2.74751 17.4828 2.7507 18.421 2.59135V3.99274C17.4846 4.17296 16.522 4.16911 15.5871 3.9814V2.5819ZM4.26121 17.9485H8.74121C8.76503 19.297 8.92006 20.6401 9.20409 21.9586C8.01634 22.1709 6.85252 22.5003 5.72967 22.9419C4.84029 21.4221 4.33615 19.7078 4.26121 17.9485ZM6.25206 23.7506C7.28027 23.3627 8.34218 23.0708 9.42419 22.8786C9.73394 24.045 10.1944 25.166 10.7939 26.2133C10.2177 26.3115 9.67452 26.4291 9.16536 26.5628C8.02791 25.8146 7.03992 24.8609 6.25206 23.7506ZM10.3613 22.7266C13.5138 22.27 16.7157 22.27 19.8682 22.7266C19.5515 23.906 19.0612 25.0319 18.4135 26.0673C17.3186 25.9384 16.2171 25.8744 15.1148 25.8755C14.0124 25.8741 12.911 25.9372 11.816 26.0645C11.1686 25.03 10.6783 23.9051 10.3613 22.7266ZM15.1148 28.3397C13.4744 28.341 11.8554 27.9683 10.3806 27.25C10.7835 27.1692 11.2053 27.0979 11.6422 27.0375C13.9476 26.7487 16.28 26.7487 18.5854 27.0375C19.0243 27.0979 19.446 27.1688 19.8503 27.25C18.3751 27.9685 16.7556 28.3412 15.1148 28.3397ZM21.0623 26.5628C20.5536 26.4291 20.0109 26.3115 19.4337 26.2133C20.0331 25.1659 20.4935 24.0449 20.8034 22.8786C21.8854 23.0709 22.9473 23.3628 23.9756 23.7506C23.1877 24.8609 22.1997 25.8146 21.0623 26.5628ZM25.9683 17.9485C25.8934 19.7078 25.3892 21.4221 24.4999 22.9419C23.3769 22.5005 22.2131 22.1711 21.0254 21.9586C21.3095 20.6401 21.4645 19.297 21.4883 17.9485H25.9683ZM20.7827 9.91899C20.9695 9.91899 21.1521 9.9744 21.3075 10.0782C21.4628 10.182 21.5839 10.3295 21.6554 10.5021C21.7269 10.6748 21.7456 10.8647 21.7092 11.0479C21.6727 11.2312 21.5827 11.3995 21.4506 11.5316C21.3185 11.6637 21.1502 11.7537 20.9669 11.7901C20.7837 11.8266 20.5938 11.8079 20.4212 11.7364C20.2485 11.6649 20.101 11.5438 19.9972 11.3885C19.8934 11.2331 19.838 11.0505 19.838 10.8636C19.838 10.6131 19.9375 10.3728 20.1147 10.1957C20.2918 10.0185 20.5321 9.91899 20.7827 9.91899ZM18.8934 13.6976C18.8934 13.5723 18.9431 13.4522 19.0317 13.3636C19.1203 13.275 19.2404 13.2253 19.3657 13.2253H22.1996C22.3249 13.2253 22.445 13.275 22.5336 13.3636C22.6222 13.4522 22.672 13.5723 22.672 13.6976V17.0039H18.8934V13.6976ZM15.1148 8.50202C15.3483 8.50202 15.5766 8.57127 15.7708 8.70102C15.965 8.83077 16.1163 9.01519 16.2057 9.23095C16.2951 9.44672 16.3184 9.68414 16.2729 9.9132C16.2273 10.1423 16.1149 10.3527 15.9497 10.5178C15.7846 10.6829 15.5742 10.7954 15.3451 10.841C15.1161 10.8865 14.8786 10.8631 14.6629 10.7738C14.4471 10.6844 14.2627 10.533 14.1329 10.3389C14.0032 10.1447 13.9339 9.91637 13.9339 9.68283C13.9339 9.36966 14.0584 9.06932 14.2798 8.84787C14.5012 8.62643 14.8016 8.50202 15.1148 8.50202ZM12.2808 13.2253C12.2808 12.9747 12.3803 12.7345 12.5575 12.5573C12.7346 12.3801 12.9749 12.2806 13.2255 12.2806H17.0041C17.2546 12.2806 17.4949 12.3801 17.672 12.5573C17.8492 12.7345 17.9487 12.9747 17.9487 13.2253V17.0039H12.2808V13.2253ZM20.5437 17.9485C20.5202 19.2457 20.3691 20.5375 20.0926 21.805C16.7919 21.3176 13.4376 21.3176 10.1369 21.805C9.86043 20.5374 9.70935 19.2457 9.68586 17.9485H20.5437ZM9.44686 9.91899C9.6337 9.91899 9.81633 9.9744 9.97168 10.0782C10.127 10.182 10.2481 10.3295 10.3196 10.5021C10.3911 10.6748 10.4098 10.8647 10.3734 11.0479C10.3369 11.2312 10.2469 11.3995 10.1148 11.5316C9.98272 11.6637 9.8144 11.7537 9.63115 11.7901C9.44791 11.8266 9.25797 11.8079 9.08536 11.7364C8.91275 11.6649 8.76521 11.5438 8.66141 11.3885C8.55762 11.2331 8.50221 11.0505 8.50221 10.8636C8.50221 10.6131 8.60174 10.3728 8.77889 10.1957C8.95605 10.0185 9.19633 9.91899 9.44686 9.91899ZM10.8638 13.2253C10.9891 13.2253 11.1092 13.275 11.1978 13.3636C11.2864 13.4522 11.3362 13.5723 11.3362 13.6976V17.0039H7.55756V13.6976C7.55756 13.5723 7.60733 13.4522 7.6959 13.3636C7.78448 13.275 7.90462 13.2253 8.02989 13.2253H10.8638Z" fill="#0CC2FE"/>
</svg>
