<svg width="32" height="32" viewBox="0 0 32 32" fill="none" xmlns="http://www.w3.org/2000/svg">
<path d="M22.9996 21.5V16.5C22.9996 16.0963 22.7571 15.7319 22.384 15.5769L16.384 13.0769C16.1378 12.9744 15.8609 12.9744 15.6146 13.0769L9.61465 15.5769C9.24215 15.7319 8.99902 16.0963 8.99902 16.5C8.99902 16.9038 9.24152 17.2681 9.61465 17.4231L11.999 18.4169V21C11.999 22.6825 13.7559 24 15.999 24C18.2421 24 19.999 22.6825 19.999 21V18.4169L20.999 18V21.5C20.999 22.0525 21.4465 22.5 21.999 22.5C22.5515 22.5 22.999 22.0525 22.999 21.5H22.9996ZM15.9996 15.0831L19.3996 16.5L15.9996 17.9169L12.5996 16.5L15.9996 15.0831ZM17.9996 21C17.9996 21.4075 17.2203 22 15.9996 22C14.779 22 13.9996 21.4075 13.9996 21V19.25L15.6153 19.9231C15.7384 19.9744 15.869 20 15.9996 20C16.1303 20 16.2609 19.9744 16.384 19.9231L17.9996 19.25V21Z" fill="#0CC2FE"/>
<path d="M12 11H20C20.5525 11 21 10.5525 21 10C21 8.15 19.9894 6.53312 18.4919 5.66813C18.8125 5.19063 19 4.61687 19 4C19 2.34563 17.6544 1 16 1C14.3456 1 13 2.34563 13 4C13 4.61687 13.1875 5.19063 13.5081 5.66813C12.0106 6.53312 11 8.15 11 10C11 10.5525 11.4475 11 12 11ZM15 4C15 3.44875 15.4488 3 16 3C16.5512 3 17 3.44875 17 4C17 4.55125 16.5512 5 16 5C15.4488 5 15 4.55125 15 4ZM16 7C17.3038 7 18.4156 7.83625 18.8288 9H13.1713C13.5838 7.83625 14.6962 7 16 7Z" fill="#0CC2FE"/>
<path d="M7.49188 23.6681C7.8125 23.1906 8 22.6169 8 22C8 20.3456 6.65438 19 5 19C3.34562 19 2 20.3456 2 22C2 22.6169 2.1875 23.1906 2.50813 23.6681C1.01063 24.5331 0 26.15 0 28C0 28.5525 0.4475 29 1 29H9C9.5525 29 10 28.5525 10 28C10 26.15 8.98938 24.5331 7.49188 23.6681ZM4 22C4 21.4488 4.44875 21 5 21C5.55125 21 6 21.4488 6 22C6 22.5512 5.55125 23 5 23C4.44875 23 4 22.5512 4 22ZM2.17125 27C2.58375 25.8362 3.69625 25 5 25C6.30375 25 7.41563 25.8362 7.82875 27H2.17125Z" fill="#0CC2FE"/>
<path d="M29.4919 23.6681C29.8125 23.1906 30 22.6169 30 22C30 20.3456 28.6544 19 27 19C25.3456 19 24 20.3456 24 22C24 22.6169 24.1875 23.1906 24.5081 23.6681C23.0106 24.5331 22 26.15 22 28C22 28.5525 22.4475 29 23 29H31C31.5525 29 32 28.5525 32 28C32 26.15 30.9894 24.5331 29.4919 23.6681ZM26 22C26 21.4488 26.4488 21 27 21C27.5512 21 28 21.4488 28 22C28 22.5512 27.5512 23 27 23C26.4488 23 26 22.5512 26 22ZM24.1712 27C24.5837 25.8362 25.6962 25 27 25C28.3038 25 29.4156 25.8362 29.8288 27H24.1712Z" fill="#0CC2FE"/>
<path d="M18.7505 28.6538C17.8574 28.8838 16.9317 29.0001 15.9999 29.0001C15.068 29.0001 14.1424 28.8832 13.2492 28.6538C12.7149 28.5163 12.1692 28.8382 12.0317 29.3732C11.8942 29.9082 12.2161 30.4532 12.7511 30.5907C13.8074 30.8626 14.9005 31.0001 16.0005 31.0001C17.1005 31.0001 18.1936 30.8619 19.2499 30.5907C19.7849 30.4532 20.1067 29.9082 19.9692 29.3732C19.8317 28.8382 19.2861 28.5163 18.7517 28.6538H18.7505Z" fill="#0CC2FE"/>
<path d="M3.99662 17.0469C4.051 17.0556 4.10475 17.06 4.1585 17.06C4.64037 17.06 5.06475 16.7113 5.14412 16.2206C5.54912 13.7294 6.821 11.4319 8.72412 9.75125C9.13787 9.38563 9.17725 8.75375 8.81225 8.34C8.44725 7.92625 7.81475 7.88688 7.401 8.25188C5.15162 10.2375 3.64912 12.9531 3.17037 15.8994C3.08162 16.4444 3.45162 16.9581 3.99662 17.0469Z" fill="#0CC2FE"/>
<path d="M23.276 9.75074C25.1798 11.4314 26.451 13.7289 26.856 16.2201C26.936 16.7107 27.3604 17.0595 27.8416 17.0595C27.8948 17.0595 27.9491 17.0551 28.0035 17.0464C28.5485 16.9576 28.9185 16.4439 28.8298 15.8989C28.3504 12.9526 26.8479 10.237 24.5991 8.25137C24.1854 7.88574 23.5529 7.92512 23.1879 8.33949C22.8223 8.75324 22.8616 9.38574 23.276 9.75074Z" fill="#0CC2FE"/>
</svg>
