<svg width="40" height="40" viewBox="0 0 40 40" fill="none" xmlns="http://www.w3.org/2000/svg">
<path d="M37.7583 4.24585H2.24167C1.64786 4.24585 1.07831 4.48145 0.65804 4.90094C0.237766 5.32044 0.00110373 5.88955 0 6.48335L0 29.7667C0.00110373 30.3605 0.237766 30.9296 0.65804 31.3491C1.07831 31.7686 1.64786 32.0042 2.24167 32.0042H15.6958V34.8958H11.7C11.5895 34.8958 11.4835 34.9397 11.4054 35.0179C11.3272 35.096 11.2833 35.202 11.2833 35.3125V37.3958C11.2833 37.5064 11.3272 37.6123 11.4054 37.6905C11.4835 37.7686 11.5895 37.8125 11.7 37.8125H28.3C28.4105 37.8125 28.5165 37.7686 28.5946 37.6905C28.6728 37.6123 28.7167 37.5064 28.7167 37.3958V35.3125C28.7167 35.202 28.6728 35.096 28.5946 35.0179C28.5165 34.9397 28.4105 34.8958 28.3 34.8958H24.3042V32.0042H37.7583C38.3521 32.0042 38.9217 31.7686 39.342 31.3491C39.7622 30.9296 39.9989 30.3605 40 29.7667V6.48335C39.9989 5.88955 39.7622 5.32044 39.342 4.90094C38.9217 4.48145 38.3521 4.24585 37.7583 4.24585ZM0.833333 6.48335C0.833332 6.2986 0.86979 6.11567 0.940616 5.94503C1.01144 5.7744 1.11525 5.61942 1.24608 5.48898C1.37691 5.35853 1.53219 5.25519 1.70304 5.18487C1.87388 5.11455 2.05692 5.07863 2.24167 5.07918H37.7583C37.9431 5.07863 38.1261 5.11455 38.297 5.18487C38.4678 5.25519 38.6231 5.35853 38.7539 5.48898C38.8848 5.61942 38.9886 5.7744 39.0594 5.94503C39.1302 6.11567 39.1667 6.2986 39.1667 6.48335V26.5875C39.1667 26.961 39.0183 27.3192 38.7542 27.5834C38.4901 27.8475 38.1318 27.9959 37.7583 27.9959H2.24167C1.86815 27.9959 1.50994 27.8475 1.24582 27.5834C0.981711 27.3192 0.833333 26.961 0.833333 26.5875V6.48335ZM27.8833 36.9792H12.1167V35.7292H27.8833V36.9792ZM23.4708 34.8958H16.5292V32.0042H23.4708V34.8958ZM37.7583 31.1708H2.24167C2.05692 31.1714 1.87388 31.1355 1.70304 31.0652C1.53219 30.9948 1.37691 30.8915 1.24608 30.7611C1.11525 30.6306 1.01144 30.4756 0.940616 30.305C0.86979 30.1344 0.833332 29.9514 0.833333 29.7667V28.3333C1.22886 28.6628 1.7269 28.8441 2.24167 28.8459H37.7583C38.2731 28.8441 38.7711 28.6628 39.1667 28.3333V29.7834C39.1623 30.1536 39.0118 30.5071 38.7481 30.767C38.4843 31.0268 38.1286 31.172 37.7583 31.1708Z" fill="#0CC2FE"/>
<path d="M2.49992 26.7459H37.4999C37.6104 26.7459 37.7164 26.702 37.7945 26.6239C37.8727 26.5457 37.9166 26.4397 37.9166 26.3292V6.74589C37.9166 6.63538 37.8727 6.5294 37.7945 6.45126C37.7164 6.37312 37.6104 6.32922 37.4999 6.32922H2.49992C2.38941 6.32922 2.28343 6.37312 2.20529 6.45126C2.12715 6.5294 2.08325 6.63538 2.08325 6.74589V26.3292C2.08325 26.4397 2.12715 26.5457 2.20529 26.6239C2.28343 26.702 2.38941 26.7459 2.49992 26.7459ZM2.91659 7.16256H37.0833V25.9126H2.91659V7.16256Z" fill="#0CC2FE"/>
<path d="M22.5292 12.15C21.25 8.72496 18.75 8.74996 17.4709 12.15C13.8667 11.5333 12.5917 13.7166 14.9334 16.5375C12.5667 19.3916 13.9209 21.5375 17.4709 20.925C18.7542 24.3458 21.2459 24.3416 22.5292 20.925C26.0625 21.5291 27.4417 19.4 25.0667 16.5375C27.3959 13.75 26.15 11.5291 22.5292 12.15ZM24.5 15.9C24.0723 15.4729 23.6142 15.0774 23.1292 14.7166C23.0589 14.1171 22.9432 13.5237 22.7834 12.9416C25.4625 12.5375 26.2167 13.775 24.5 15.9125V15.9ZM20 19.2333C19.1784 18.8569 18.3944 18.4035 17.6584 17.8791C17.575 16.9797 17.575 16.0744 17.6584 15.175C18.3958 14.6563 19.1797 14.2072 20 13.8333C20.8215 14.2082 21.6056 14.6602 22.3417 15.1833C22.425 16.0828 22.425 16.988 22.3417 17.8875C21.6058 18.4119 20.8217 18.8654 20 19.2416V19.2333ZM22.1917 18.9875C22.1292 19.325 22.0542 19.6458 21.9709 19.9458C21.6667 19.8666 21.35 19.7708 21.0334 19.6541C21.4167 19.4625 21.8042 19.2416 22.1917 18.9958V18.9875ZM18.9667 19.6541C18.65 19.7708 18.3334 19.8666 18.0292 19.9458C17.9459 19.6458 17.8709 19.325 17.8084 18.9875C18.175 19.2291 18.5667 19.4541 18.9667 19.6625V19.6541ZM16.775 17.2083C16.5167 16.9875 16.275 16.7625 16.0542 16.5375C16.2825 16.3013 16.5231 16.0774 16.775 15.8666C16.7542 16.3416 16.7542 16.7333 16.775 17.2083ZM17.8084 14.0791C17.8709 13.7375 17.9459 13.4208 18.0292 13.1208C18.3334 13.2 18.65 13.2958 18.9667 13.4083C18.5834 13.6083 18.1959 13.8333 17.8084 14.0791ZM21.0334 13.4083C21.35 13.2958 21.6667 13.2 21.9709 13.1208C22.0542 13.4208 22.1292 13.7375 22.1917 14.0791C21.825 13.8458 21.4334 13.6208 21.0334 13.4083ZM23.225 15.8666C23.477 16.0774 23.7176 16.3013 23.9459 16.5375C23.725 16.7625 23.4834 16.9875 23.225 17.2083C23.2459 16.7333 23.2459 16.3416 23.225 15.8666ZM20 10.4166C20.6042 10.4166 21.25 11.125 21.7084 12.325C21.1255 12.4811 20.5546 12.6789 20 12.9166C19.4454 12.6789 18.8745 12.4811 18.2917 12.325C18.75 11.1291 19.3959 10.4166 20 10.4166ZM17.2167 12.95C17.0568 13.5321 16.9412 14.1254 16.8709 14.725C16.3859 15.0857 15.9278 15.4812 15.5 15.9083C13.7834 13.775 14.525 12.5375 17.2167 12.9541V12.95ZM15.5 17.1583C15.9281 17.5824 16.3863 17.9751 16.8709 18.3333C16.9416 18.9328 17.0572 19.5261 17.2167 20.1083C14.5417 20.5333 13.7834 19.3 15.5 17.1583ZM20 22.6541C19.3959 22.6541 18.75 21.9416 18.2917 20.7458C18.8752 20.59 19.4462 20.3909 20 20.15C20.5538 20.3909 21.1249 20.59 21.7084 20.7458C21.25 21.9416 20.6042 22.6541 20 22.6541ZM22.7834 20.1208C22.9434 19.5345 23.059 18.937 23.1292 18.3333C23.6142 17.9711 24.0724 17.5742 24.5 17.1458C26.2042 19.2833 25.4875 20.5375 22.7834 20.1208Z" fill="#0CC2FE"/>
<path d="M9.34163 11.3292H6.35413C5.84801 11.3292 5.36262 11.5303 5.00474 11.8882C4.64686 12.246 4.4458 12.7314 4.4458 13.2376V19.8334C4.4458 20.3399 4.64672 20.8257 5.00449 21.1843C5.36225 21.5428 5.84763 21.7448 6.35413 21.7459H9.34163C9.84814 21.7448 10.3335 21.5428 10.6913 21.1843C11.049 20.8257 11.25 20.3399 11.25 19.8334V13.2376C11.2489 12.7318 11.0475 12.247 10.6898 11.8894C10.3322 11.5317 9.84742 11.3303 9.34163 11.3292ZM10.4166 19.8334C10.4166 20.1189 10.3035 20.3927 10.102 20.595C9.90055 20.7973 9.62712 20.9115 9.34163 20.9126H6.35413C6.06864 20.9115 5.79522 20.7973 5.59374 20.595C5.39226 20.3927 5.27913 20.1189 5.27913 19.8334V13.2376C5.28023 12.9528 5.39384 12.68 5.59521 12.4786C5.79657 12.2773 6.06936 12.1637 6.35413 12.1626H9.34163C9.6264 12.1637 9.8992 12.2773 10.1006 12.4786C10.3019 12.68 10.4155 12.9528 10.4166 13.2376V19.8334Z" fill="#0CC2FE"/>
<path d="M33.6793 11.3292H30.6959C30.1894 11.3292 29.7036 11.5301 29.3451 11.8879C28.9865 12.2457 28.7846 12.7311 28.7834 13.2376V19.8334C28.7845 20.3403 28.9864 20.8261 29.3448 21.1845C29.7032 21.5429 30.1891 21.7448 30.6959 21.7459H33.6793C34.1862 21.7448 34.672 21.5429 35.0304 21.1845C35.3888 20.8261 35.5907 20.3403 35.5918 19.8334V13.2376C35.5907 12.7311 35.3887 12.2457 35.0302 11.8879C34.6716 11.5301 34.1858 11.3292 33.6793 11.3292ZM29.6168 13.2376C29.6179 12.9521 29.7321 12.6786 29.9343 12.4772C30.1366 12.2757 30.4105 12.1626 30.6959 12.1626H33.6793C33.9648 12.1626 34.2386 12.2757 34.4409 12.4772C34.6432 12.6786 34.7573 12.9521 34.7584 13.2376V13.6209H29.6168V13.2376ZM33.6793 20.9126H30.6959C30.4097 20.9126 30.1352 20.7989 29.9329 20.5965C29.7305 20.3941 29.6168 20.1196 29.6168 19.8334V14.4542H34.7584V19.8334C34.7584 20.1196 34.6447 20.3941 34.4424 20.5965C34.24 20.7989 33.9655 20.9126 33.6793 20.9126Z" fill="#0CC2FE"/>
<path d="M33.4126 15.2583H30.9626C30.8521 15.2583 30.7461 15.3022 30.6679 15.3803C30.5898 15.4585 30.5459 15.5645 30.5459 15.675C30.5459 15.7855 30.5898 15.8915 30.6679 15.9696C30.7461 16.0477 30.8521 16.0916 30.9626 16.0916H33.4126C33.5231 16.0916 33.6291 16.0477 33.7072 15.9696C33.7853 15.8915 33.8292 15.7855 33.8292 15.675C33.8292 15.5645 33.7853 15.4585 33.7072 15.3803C33.6291 15.3022 33.5231 15.2583 33.4126 15.2583Z" fill="#0CC2FE"/>
<path d="M33.4126 17.0583H30.9626C30.8521 17.0583 30.7461 17.1022 30.6679 17.1804C30.5898 17.2585 30.5459 17.3645 30.5459 17.475C30.5459 17.5855 30.5898 17.6915 30.6679 17.7696C30.7461 17.8478 30.8521 17.8917 30.9626 17.8917H33.4126C33.5231 17.8917 33.6291 17.8478 33.7072 17.7696C33.7853 17.6915 33.8292 17.5855 33.8292 17.475C33.8292 17.3645 33.7853 17.2585 33.7072 17.1804C33.6291 17.1022 33.5231 17.0583 33.4126 17.0583Z" fill="#0CC2FE"/>
<path d="M33.4126 18.8541H30.9626C30.8521 18.8541 30.7461 18.898 30.6679 18.9762C30.5898 19.0543 30.5459 19.1603 30.5459 19.2708C30.5459 19.3813 30.5898 19.4873 30.6679 19.5654C30.7461 19.6436 30.8521 19.6875 30.9626 19.6875H33.4126C33.5231 19.6875 33.6291 19.6436 33.7072 19.5654C33.7853 19.4873 33.8292 19.3813 33.8292 19.2708C33.8292 19.1603 33.7853 19.0543 33.7072 18.9762C33.6291 18.898 33.5231 18.8541 33.4126 18.8541Z" fill="#0CC2FE"/>
<path d="M9.09587 13.2709H6.59587C6.48536 13.2709 6.37938 13.3148 6.30124 13.3929C6.2231 13.4711 6.1792 13.577 6.1792 13.6875C6.1792 13.798 6.2231 13.904 6.30124 13.9822C6.37938 14.0603 6.48536 14.1042 6.59587 14.1042H9.09587C9.20637 14.1042 9.31235 14.0603 9.39049 13.9822C9.46863 13.904 9.51253 13.798 9.51253 13.6875C9.51253 13.577 9.46863 13.4711 9.39049 13.3929C9.31235 13.3148 9.20637 13.2709 9.09587 13.2709Z" fill="#0CC2FE"/>
<path d="M9.09587 15H6.59587C6.48536 15 6.37938 15.0439 6.30124 15.122C6.2231 15.2002 6.1792 15.3062 6.1792 15.4167C6.1792 15.5272 6.2231 15.6332 6.30124 15.7113C6.37938 15.7894 6.48536 15.8333 6.59587 15.8333H9.09587C9.20637 15.8333 9.31235 15.7894 9.39049 15.7113C9.46863 15.6332 9.51253 15.5272 9.51253 15.4167C9.51253 15.3062 9.46863 15.2002 9.39049 15.122C9.31235 15.0439 9.20637 15 9.09587 15Z" fill="#0CC2FE"/>
<path d="M7.63753 16.7458H6.59587C6.48536 16.7458 6.37938 16.7897 6.30124 16.8679C6.2231 16.946 6.1792 17.052 6.1792 17.1625C6.1792 17.273 6.2231 17.379 6.30124 17.4571C6.37938 17.5353 6.48536 17.5792 6.59587 17.5792H7.63753C7.74804 17.5792 7.85402 17.5353 7.93216 17.4571C8.0103 17.379 8.0542 17.273 8.0542 17.1625C8.0542 17.052 8.0103 16.946 7.93216 16.8679C7.85402 16.7897 7.74804 16.7458 7.63753 16.7458Z" fill="#0CC2FE"/>
</svg>
