<svg width="31" height="31" viewBox="0 0 31 31" fill="none" xmlns="http://www.w3.org/2000/svg">
<path fill-rule="evenodd" clip-rule="evenodd" d="M19.5226 23.1206V23.9775C19.5226 24.2383 19.3112 24.4498 19.0503 24.4498H11.0601C10.7992 24.4498 10.5877 24.2383 10.5877 23.9775V23.1206C10.4368 23.0429 10.2952 22.9408 10.1689 22.8144L5.79015 18.4358C5.13303 17.7786 5.13303 16.7132 5.79015 16.0561L9.19945 12.6468C9.20382 12.6425 9.20824 12.6382 9.21273 12.6341C9.59041 12.2847 10.2261 11.8543 11.1321 11.8543H19.4335C19.872 11.8543 20.2925 12.0284 20.6025 12.3385L24.3202 16.0561C24.9773 16.7132 24.9773 17.7786 24.3202 18.4358L19.9414 22.8144C19.8151 22.9408 19.6735 23.0429 19.5226 23.1206ZM19.5226 16.1154V18.474L20.7398 17.2568L19.5226 16.1154ZM10.5877 18.474V16.1154L9.37055 17.2568L10.5877 18.474ZM11.1694 22.338C11.1741 22.3392 11.1787 22.3403 11.1833 22.3415C11.4254 22.4004 11.6916 22.3354 11.8805 22.1465C12.1685 21.8585 12.1685 21.3908 11.8805 21.1028L8.35765 17.5799C8.26726 17.4895 8.21737 17.3662 8.21937 17.2384C8.22144 17.1105 8.27528 16.9889 8.36857 16.9014L11.2221 14.2255C11.4122 14.0472 11.7114 14.0568 11.8897 14.2469C12.068 14.4371 12.0584 14.7362 11.8683 14.9146L11.5324 15.2296V19.4187L12.5485 20.4348C13.2052 21.0915 13.2052 22.1578 12.5485 22.8144C12.2644 23.0986 11.9035 23.2598 11.5324 23.298V23.5052H18.5779V23.298C18.2068 23.2598 17.8459 23.0986 17.5618 22.8144C16.9051 22.1578 16.9051 21.0915 17.5618 20.4348L18.5779 19.4187V15.2296L18.242 14.9146C18.0519 14.7362 18.0423 14.4371 18.2206 14.2469C18.3989 14.0568 18.6981 14.0472 18.8882 14.2255L21.7417 16.9014C21.8831 17.034 21.9291 17.2394 21.8579 17.4197C21.8334 17.4815 21.7969 17.536 21.7516 17.581L21.654 17.6786C21.0833 18.2492 18.2298 21.1028 18.2298 21.1028C17.9418 21.3908 17.9418 21.8585 18.2298 22.1465C18.4187 22.3354 18.6849 22.4004 18.927 22.3415C18.9316 22.3403 18.9362 22.3392 18.9409 22.338C19.0628 22.3058 19.178 22.242 19.2735 22.1465L23.6522 17.7678C23.9404 17.4796 23.9404 17.0123 23.6522 16.7241L19.9345 13.0064C19.8017 12.8735 19.6215 12.7989 19.4335 12.7989H11.1321C10.5325 12.7989 10.1135 13.0893 9.86058 13.3216L6.45813 16.7241C6.1699 17.0123 6.1699 17.4796 6.45813 17.7678L10.8368 22.1465C10.9323 22.242 11.0475 22.3058 11.1694 22.338ZM15.0552 4.86599C16.7301 4.86599 18.0975 6.26188 18.0975 7.99024C18.0975 9.71859 16.7301 11.1145 15.0552 11.1145C13.3802 11.1145 12.0128 9.71859 12.0128 7.99024C12.0128 6.26188 13.3802 4.86599 15.0552 4.86599ZM15.0552 5.81064C13.8932 5.81064 12.9574 6.7913 12.9574 7.99024C12.9574 9.18917 13.8932 10.1699 15.0552 10.1699C16.2171 10.1699 17.1529 9.18917 17.1529 7.99024C17.1529 6.7913 16.2171 5.81064 15.0552 5.81064ZM14.5828 0.885411C14.5828 0.624746 14.7945 0.413086 15.0552 0.413086C15.3158 0.413086 15.5275 0.624746 15.5275 0.885411V2.33533C15.5275 2.59599 15.3158 2.80765 15.0552 2.80765C14.7945 2.80765 14.5828 2.59599 14.5828 2.33533V0.885411ZM21.731 2.54764C21.8613 2.32187 22.1504 2.24441 22.3762 2.37477C22.602 2.50507 22.6794 2.79419 22.5491 3.01996L21.8241 4.27564C21.6938 4.50141 21.4047 4.57887 21.1789 4.44851C20.9531 4.31815 20.8757 4.02909 21.006 3.80331L21.731 2.54764ZM27.0903 7.56125C27.3161 7.43089 27.6052 7.50835 27.7355 7.73412C27.8659 7.95989 27.7884 8.24901 27.5627 8.37931L26.307 9.10427C26.0812 9.23464 25.7922 9.15717 25.6618 8.9314C25.5314 8.70563 25.6089 8.41651 25.8347 8.28621L27.0903 7.56125ZM29.2249 14.5828C29.4856 14.5828 29.6972 14.7945 29.6972 15.0552C29.6972 15.3158 29.4856 15.5275 29.2249 15.5275H27.775C27.5143 15.5275 27.3026 15.3158 27.3026 15.0552C27.3026 14.7945 27.5143 14.5828 27.775 14.5828H29.2249ZM27.5627 21.731C27.7884 21.8613 27.8659 22.1504 27.7355 22.3762C27.6052 22.602 27.3161 22.6794 27.0903 22.5491L25.8347 21.8241C25.6089 21.6938 25.5314 21.4047 25.6618 21.1789C25.7922 20.9531 26.0812 20.8757 26.307 21.006L27.5627 21.731ZM22.5491 27.0903C22.6794 27.3161 22.602 27.6052 22.3762 27.7355C22.1504 27.8659 21.8613 27.7884 21.731 27.5627L21.006 26.307C20.8757 26.0812 20.9531 25.7922 21.1789 25.6618C21.4047 25.5314 21.6938 25.6089 21.8241 25.8347L22.5491 27.0903ZM15.5275 29.2249C15.5275 29.4856 15.3158 29.6972 15.0552 29.6972C14.7945 29.6972 14.5828 29.4856 14.5828 29.2249V27.775C14.5828 27.5143 14.7945 27.3026 15.0552 27.3026C15.3158 27.3026 15.5275 27.5143 15.5275 27.775V29.2249ZM8.37931 27.5627C8.24901 27.7884 7.95989 27.8659 7.73412 27.7355C7.50835 27.6052 7.43089 27.3161 7.56125 27.0903L8.28621 25.8347C8.41651 25.6089 8.70563 25.5314 8.9314 25.6618C9.15717 25.7922 9.23464 26.0812 9.10427 26.307L8.37931 27.5627ZM3.01996 22.5491C2.79419 22.6794 2.50507 22.602 2.37477 22.3762C2.24441 22.1504 2.32187 21.8613 2.54764 21.731L3.80331 21.006C4.02909 20.8757 4.31815 20.9531 4.44851 21.1789C4.57887 21.4047 4.50141 21.6938 4.27564 21.8241L3.01996 22.5491ZM0.885411 15.5275C0.624746 15.5275 0.413086 15.3158 0.413086 15.0552C0.413086 14.7945 0.624746 14.5828 0.885411 14.5828H2.33533C2.59599 14.5828 2.80765 14.7945 2.80765 15.0552C2.80765 15.3158 2.59599 15.5275 2.33533 15.5275H0.885411ZM2.54764 8.37931C2.32187 8.24901 2.24441 7.95989 2.37477 7.73412C2.50507 7.50835 2.79419 7.43089 3.01996 7.56125L4.27564 8.28621C4.50141 8.41651 4.57887 8.70563 4.44851 8.9314C4.31815 9.15717 4.02909 9.23464 3.80331 9.10427L2.54764 8.37931ZM7.56125 3.01996C7.43089 2.79419 7.50835 2.50507 7.73412 2.37477C7.95989 2.24441 8.24901 2.32187 8.37931 2.54764L9.10427 3.80331C9.23464 4.02909 9.15717 4.31815 8.9314 4.44851C8.70563 4.57887 8.41651 4.50141 8.28621 4.27564L7.56125 3.01996Z" fill="#0CC2FE"/>
</svg>
