<svg width="64" height="64" viewBox="0 0 64 64" fill="none" xmlns="http://www.w3.org/2000/svg">
<path d="M26.8034 13.0752H37.3314C37.6231 13.0655 37.9001 12.9449 38.1058 12.7379C38.3116 12.531 38.4306 12.2533 38.4386 11.9616C38.4439 11.6597 38.3311 11.3677 38.1243 11.1477C37.9175 10.9278 37.633 10.7972 37.3314 10.784H26.8034C26.6466 10.7805 26.4907 10.8085 26.3449 10.8661C26.199 10.9238 26.0662 11.01 25.9541 11.1197C25.842 11.2294 25.753 11.3603 25.6922 11.5049C25.6314 11.6495 25.6002 11.8047 25.6002 11.9616C25.6135 12.2637 25.7438 12.5489 25.9636 12.7567C26.1833 12.9646 26.4753 13.0788 26.7778 13.0752H26.8034ZM56.4226 37.5232C57.4226 36.9437 58.2554 36.115 58.8398 35.1179C59.4242 34.1208 59.7402 32.9892 59.757 31.8336C59.771 30.6754 59.4786 29.5342 58.9097 28.5254C58.3407 27.5166 57.5153 26.676 56.5169 26.0889C55.5186 25.5017 54.3829 25.1887 53.2247 25.1817C52.0665 25.1746 50.927 25.4737 49.9216 26.0487C48.9163 26.6237 48.0806 27.4541 47.4994 28.4559C46.9182 29.4577 46.612 30.5953 46.6119 31.7535C46.6117 32.9117 46.9176 34.0494 47.4986 35.0513C48.0795 36.0533 48.9149 36.8839 49.9202 37.4591C48.601 38.0921 47.4869 39.0841 46.7058 40.3214C45.9247 41.5587 45.5082 42.9911 45.5042 44.4543V47.36H40.205C39.5691 47.3583 38.9392 47.4823 38.3514 47.7248C37.7636 47.9674 37.2296 48.3237 36.78 48.7733C36.3303 49.2229 35.974 49.757 35.7315 50.3448C35.4889 50.9326 35.3649 51.5625 35.3666 52.1983C35.3652 53.0773 35.6138 53.9386 36.0834 54.6816H27.981C28.4506 53.9386 28.6992 53.0773 28.6978 52.1983C28.6833 50.9306 28.1776 49.718 27.2871 48.8156C26.3966 47.9132 25.1908 47.3914 23.9234 47.36H18.4962V44.4799C18.5113 43.0258 18.1063 41.5982 17.3297 40.3687C16.5532 39.1391 15.4382 38.1599 14.1186 37.5487C15.1186 36.9693 15.9514 36.1406 16.5358 35.1435C17.1202 34.1464 17.4362 33.0148 17.453 31.8591C17.4606 30.9942 17.2972 30.1362 16.9722 29.3345C16.6472 28.5329 16.167 27.8033 15.5592 27.1878C14.9515 26.5723 14.228 26.0829 13.4305 25.7478C12.6331 25.4127 11.7772 25.2385 10.9122 25.2352C9.45131 25.2162 8.02604 25.6863 6.86322 26.5709C5.7004 27.4554 4.86684 28.7034 4.4952 30.1164C4.12357 31.5293 4.23521 33.026 4.81236 34.3682C5.38951 35.7104 6.39901 36.8209 7.6802 37.5232C6.3459 38.1252 5.21356 39.0993 4.41894 40.3287C3.62433 41.558 3.20117 42.9905 3.2002 44.4543V60.7999H60.8002V44.4543C60.8145 43.0004 60.4092 41.5731 59.6327 40.3437C58.8562 39.1143 57.7417 38.135 56.4226 37.5232ZM53.2162 27.52C54.3502 27.5334 55.4329 27.9943 56.2288 28.8021C57.0247 29.61 57.4692 30.6995 57.4658 31.8336C57.4658 32.9691 57.0147 34.0581 56.2117 34.8611C55.4088 35.6641 54.3197 36.1152 53.1842 36.1152C52.0486 36.1152 50.9596 35.6641 50.1566 34.8611C49.3537 34.0581 48.9026 32.9691 48.9026 31.8336C48.9026 30.6895 49.3571 29.5923 50.166 28.7834C50.975 27.9744 52.0722 27.52 53.2162 27.52ZM10.9122 27.52C12.0462 27.5334 13.1289 27.9943 13.9248 28.8021C14.7207 29.61 15.1653 30.6995 15.1618 31.8336C15.1635 32.3921 15.0547 32.9454 14.8418 33.4618C14.6288 33.9781 14.3158 34.4473 13.9209 34.8422C13.5259 35.2372 13.0568 35.5501 12.5404 35.7631C12.0241 35.9761 11.4707 36.0848 10.9122 36.0832C9.77664 36.0832 8.6876 35.6321 7.88465 34.8291C7.08169 34.0261 6.63059 32.9371 6.63059 31.8015C6.63059 30.666 7.08169 29.577 7.88465 28.774C8.6876 27.971 9.77664 27.52 10.9122 27.52ZM5.4914 44.4543C5.49139 43.7428 5.63165 43.0382 5.90415 42.3809C6.17665 41.7235 6.57605 41.1264 7.0795 40.6235C7.58295 40.1207 8.18058 39.722 8.83823 39.4503C9.49587 39.1785 10.2006 39.0391 10.9122 39.04C12.3293 39.0734 13.677 39.6599 14.6673 40.6741C15.6576 41.6883 16.2118 43.0497 16.2114 44.4672V46.8864L14.8354 44.0768C14.7072 43.8069 14.4771 43.5989 14.1957 43.4987C13.9142 43.3985 13.6045 43.4142 13.3346 43.5424C13.0647 43.6705 12.8568 43.9006 12.7566 44.1821C12.6564 44.4635 12.672 44.7733 12.8002 45.0431L15.021 49.6191H23.9234C24.5694 49.6517 25.1781 49.9313 25.6238 50.4C26.0695 50.8687 26.318 51.4908 26.318 52.1375C26.318 52.7843 26.0695 53.4064 25.6238 53.8751C25.1781 54.3438 24.5694 54.6234 23.9234 54.656H14.6434C13.8009 54.6709 12.9716 54.4452 12.2529 54.0054C11.5342 53.5655 10.9558 52.9298 10.5858 52.1727L9.4786 49.8815C9.34747 49.6146 9.11612 49.4104 8.835 49.3134C8.55388 49.2164 8.24581 49.2345 7.97799 49.3638C7.71017 49.493 7.50434 49.723 7.40539 50.0034C7.30644 50.2838 7.3224 50.592 7.4498 50.8608L8.5634 53.152C8.98789 54.0453 9.60723 54.8321 10.3759 55.4546C11.1445 56.077 12.0429 56.5192 13.005 56.7487C12.7891 57.3121 12.7666 57.9312 12.941 58.5087H5.4914V44.4543ZM15.949 58.5343C15.8401 58.5442 15.7303 58.5312 15.6267 58.4963C15.5231 58.4614 15.4278 58.4053 15.3471 58.3315C15.2664 58.2578 15.2019 58.168 15.1578 58.0679C15.1137 57.9679 15.0909 57.8597 15.0909 57.7504C15.0909 57.641 15.1137 57.5328 15.1578 57.4328C15.2019 57.3327 15.2664 57.243 15.3471 57.1692C15.4278 57.0954 15.5231 57.0393 15.6267 57.0044C15.7303 56.9695 15.8401 56.9565 15.949 56.9664H16.2114V58.5343H15.949ZM18.509 58.5343V56.9599H45.5042V58.5279L18.509 58.5343ZM47.8018 58.5343V56.9599H48.1282C48.2371 56.9501 48.3469 56.9631 48.4505 56.998C48.5541 57.0329 48.6493 57.089 48.7301 57.1628C48.8108 57.2365 48.8753 57.3263 48.9194 57.4264C48.9635 57.5264 48.9863 57.6346 48.9863 57.7439C48.9863 57.8533 48.9635 57.9615 48.9194 58.0615C48.8753 58.1616 48.8108 58.2514 48.7301 58.3251C48.6493 58.3989 48.5541 58.455 48.4505 58.4899C48.3469 58.5248 48.2371 58.5378 48.1282 58.5279L47.8018 58.5343ZM58.5218 58.5343H51.0594C51.2692 57.9619 51.2462 57.33 50.9954 56.7743C51.9575 56.5448 52.8559 56.1026 53.6245 55.4802C54.3932 54.8577 55.0125 54.0709 55.437 53.1775L56.5506 50.8864C56.678 50.6176 56.694 50.3094 56.595 50.029C56.4961 49.7486 56.2902 49.5186 56.0224 49.3894C55.7546 49.2601 55.4465 49.242 55.1654 49.339C54.8843 49.436 54.6529 49.6402 54.5218 49.9072L53.4146 52.1983C53.0517 52.9474 52.4839 53.5782 51.7771 54.0177C51.0702 54.4572 50.2533 54.6874 49.421 54.6816H40.205C39.8636 54.6988 39.5223 54.6464 39.2017 54.5276C38.8812 54.4088 38.5882 54.2261 38.3404 53.9905C38.0927 53.755 37.8955 53.4715 37.7607 53.1574C37.6259 52.8433 37.5564 52.505 37.5564 52.1631C37.5564 51.8213 37.6259 51.4831 37.7607 51.1689C37.8955 50.8548 38.0927 50.5713 38.3404 50.3358C38.5882 50.1002 38.8812 49.9175 39.2017 49.7987C39.5223 49.6799 39.8636 49.6275 40.205 49.6447H49.0306L51.2002 45.0431C51.3056 44.7786 51.3068 44.484 51.2037 44.2186C51.1007 43.9532 50.9009 43.7366 50.6446 43.6125C50.3883 43.4885 50.0946 43.466 49.8224 43.5498C49.5503 43.6335 49.32 43.8172 49.1778 44.0639L47.8018 46.8736V44.4543C47.8018 43.0184 48.3722 41.6412 49.3876 40.6258C50.403 39.6104 51.7802 39.04 53.2162 39.04C53.9207 39.0466 54.617 39.1925 55.2649 39.4693C55.9128 39.7461 56.4996 40.1482 56.9915 40.6526C57.4834 41.157 57.8707 41.7537 58.1311 42.4083C58.3916 43.063 58.52 43.7627 58.509 44.4672L58.5218 58.5343ZM37.3314 16.9984H33.2802C33.123 16.9866 32.965 17.0074 32.8162 17.0594C32.6674 17.1115 32.531 17.1937 32.4154 17.301C32.2998 17.4082 32.2077 17.5381 32.1446 17.6826C32.0816 17.8271 32.049 17.9831 32.049 18.1407C32.049 18.2984 32.0816 18.4544 32.1446 18.5989C32.2077 18.7434 32.2998 18.8733 32.4154 18.9805C32.531 19.0878 32.6674 19.17 32.8162 19.2221C32.965 19.2741 33.123 19.2949 33.2802 19.2831H37.3378C37.626 19.2616 37.8954 19.1318 38.092 18.92C38.2886 18.7081 38.3978 18.4298 38.3978 18.1407C38.3978 17.8517 38.2886 17.5734 38.092 17.3615C37.8954 17.1497 37.626 17.0199 37.3378 16.9984H37.3314ZM26.8034 19.2831H28.4994C28.7876 19.2616 29.057 19.1318 29.2536 18.92C29.4502 18.7081 29.5594 18.4298 29.5594 18.1407C29.5594 17.8517 29.4502 17.5734 29.2536 17.3615C29.057 17.1497 28.7876 17.0199 28.4994 16.9984H26.8034C26.6462 16.9866 26.4882 17.0074 26.3394 17.0594C26.1906 17.1115 26.0542 17.1937 25.9386 17.301C25.823 17.4082 25.7309 17.5381 25.6678 17.6826C25.6048 17.8271 25.5722 17.9831 25.5722 18.1407C25.5722 18.2984 25.6048 18.4544 25.6678 18.5989C25.7309 18.7434 25.823 18.8733 25.9386 18.9805C26.0542 19.0878 26.1906 19.17 26.3394 19.2221C26.4882 19.2741 26.6462 19.2949 26.8034 19.2831ZM23.0402 27.1936L24.6146 27.1296V30.9696C24.6166 31.3797 24.7342 31.7809 24.9538 32.1273C25.1734 32.4737 25.4861 32.7512 25.8562 32.928C26.1664 33.0578 26.4991 33.1252 26.8354 33.1263C27.2818 33.1352 27.7185 32.9957 28.077 32.7295L35.3346 27.1744H41.0946C41.713 27.1769 42.3259 27.057 42.8977 26.8215C43.4696 26.586 43.9892 26.2396 44.4265 25.8022C44.8638 25.3649 45.2102 24.8454 45.4457 24.2735C45.6812 23.7016 45.8011 23.0888 45.7986 22.4704V7.97435C45.8028 7.34888 45.6833 6.72876 45.4468 6.14968C45.2104 5.57061 44.8617 5.04403 44.4209 4.60026C43.9801 4.15649 43.4559 3.80431 42.8785 3.56398C42.301 3.32366 41.6817 3.19994 41.0562 3.19995H23.0402C21.7771 3.20835 20.5683 3.71427 19.6757 4.60801C18.7832 5.50175 18.2789 6.71128 18.2722 7.97435V22.4895C18.2823 23.7451 18.79 24.9454 19.6838 25.8272C20.5776 26.709 21.7846 27.2004 23.0402 27.1936ZM20.557 7.99355C20.5545 7.66584 20.6168 7.34087 20.7405 7.03737C20.8641 6.73388 21.0466 6.45786 21.2775 6.22524C21.5083 5.99261 21.7829 5.80798 22.0855 5.68199C22.388 5.556 22.7125 5.49114 23.0402 5.49115H41.0882C41.7367 5.50458 42.3539 5.77253 42.8065 6.23714C43.2592 6.70174 43.5109 7.32572 43.5074 7.97435V22.4895C43.4975 23.1281 43.2394 23.7377 42.7879 24.1892C42.3363 24.6408 41.7267 24.8988 41.0882 24.9087H35.3282C34.8353 24.9245 34.3575 25.0823 33.9522 25.3632L26.8802 30.7199V27.1296C26.8844 26.8421 26.832 26.5566 26.7259 26.2895C26.6198 26.0223 26.4621 25.7786 26.2618 25.5724C26.0615 25.3662 25.8226 25.2014 25.5586 25.0875C25.2946 24.9737 25.0108 24.9129 24.7234 24.9087H23.0402C22.3916 24.9122 21.7676 24.6605 21.303 24.2079C20.8384 23.7552 20.5704 23.138 20.557 22.4895V7.99355Z" fill="#0CC2FE"/>
</svg>
