<svg width="20" height="21" viewBox="0 0 20 21" fill="none" xmlns="http://www.w3.org/2000/svg">
<path d="M15.25 1H5.96999C4.346 1 3.024 2.322 3.024 3.946V4.388H1.722C1.32 4.388 1 4.708 1 5.108V5.91C1 6.312 1.32 6.63199 1.722 6.63199H3.024V9.378H1.722C1.32 9.378 1 9.698 1 10.1V10.9C1 11.302 1.32 11.622 1.722 11.622H3.024V14.368H1.722C1.32 14.368 1 14.688 1 15.09V15.892C1 16.292 1.32 16.612 1.722 16.612H3.024V17.054C3.024 18.678 4.346 20 5.96999 20H15.25C16.874 20 18.196 18.678 18.196 17.054V3.946C18.196 2.322 16.874 1 15.25 1ZM14.048 15.57C13.726 15.892 13.286 16.172 13.026 16.292C11.602 16.914 9.238 14.91 7.874 11.762C6.512 8.61599 6.69199 5.51 8.134 4.888C8.396 4.788 8.896 4.66799 9.358 4.648C9.698 4.648 9.998 4.86799 10.1 5.188L10.66 7.072C10.78 7.45399 10.56 7.874 10.18 7.99399C9.778 8.136 9.51799 8.21599 9.438 8.25599C8.836 8.51599 9.116 9.678 9.678 11.002C10.24 12.324 10.9 13.326 11.502 13.066C11.582 13.026 11.842 12.906 12.204 12.704C12.564 12.504 13.006 12.644 13.206 12.986L14.168 14.668C14.348 14.97 14.288 15.33 14.048 15.57Z" fill="#FF7373"/>
</svg>
