<svg width="31" height="31" viewBox="0 0 31 31" fill="none" xmlns="http://www.w3.org/2000/svg">
<path d="M19.954 11.6542C19.9504 11.8821 19.7633 12.0627 19.5354 12.0592C19.3075 12.0556 19.1268 11.8685 19.1303 11.6406L19.164 9.58361C18.3492 9.26716 17.4335 9.05461 16.4877 8.95601V10.8087C16.4877 11.0366 16.3017 11.222 16.0744 11.222C15.8453 11.222 15.6611 11.036 15.6611 10.8087V8.9011C15.1906 8.88634 14.7171 8.89933 14.25 8.94479V11.4469C14.25 11.676 14.0658 11.8602 13.8368 11.8602C13.6089 11.8602 13.4235 11.676 13.4235 11.4469V9.05697C10.5635 9.5659 8.34421 11.2545 8.34421 14.3724H8.34244V17.6072C8.34776 17.7041 8.31883 17.8044 8.25211 17.8865L6.2406 20.3833C6.18392 20.4536 6.09181 20.5894 6.11189 20.6762C6.1237 20.7281 6.20872 20.773 6.26067 20.7948C6.72237 20.9908 7.08075 21.106 7.35706 21.1963C7.87425 21.3634 8.16532 21.4573 8.37964 21.7873C8.61875 22.1539 8.61757 22.6694 8.61403 23.8407V24.4063C8.61403 24.9903 9.14598 25.4272 9.74229 25.4272V25.4289L11.5649 25.4307C11.7509 25.4307 11.8495 25.459 11.9297 25.4608C12.8567 25.4673 13.7759 25.2229 14.5742 24.7511C14.7714 24.6354 15.0247 24.701 15.1398 24.897C15.2555 25.093 15.19 25.3457 14.994 25.4626C14.2807 25.8824 13.4896 26.1486 12.6695 26.2443C12.8484 27.0077 12.581 28.0586 13.2954 28.0586H20.3531V24.6496H20.3548C20.3548 24.6331 20.3566 24.6142 20.3584 24.5976C20.5007 23.4711 20.7782 22.3582 21.1938 21.2589C21.6071 20.1607 22.1526 19.0779 22.8322 18.0069C23.5501 16.6998 23.7343 15.4009 23.4982 14.2165C23.2974 13.214 22.7985 12.2871 22.0641 11.4989L22.0694 12.9501C22.0694 13.1774 21.8852 13.3616 21.6579 13.3616C21.4306 13.3616 21.2464 13.1774 21.2464 12.9501L21.2399 10.7544C20.8413 10.458 20.4216 10.1953 19.9847 9.96266L19.954 11.6542ZM19.1793 8.7104L19.2148 6.5631H18.0664C17.7553 6.5631 17.5274 6.21653 17.7299 5.9107L20.3123 1.68812C20.4729 1.42538 20.8579 1.42361 21.0202 1.69461L23.6162 5.93549C23.7833 6.2118 23.5808 6.5631 23.2632 6.5631H22.0481L22.0599 10.3553C24.4847 12.4453 25.1442 15.5119 23.546 18.4202C23.5424 18.4267 23.5377 18.435 23.5324 18.4421H23.5342C22.88 19.4711 22.3557 20.5073 21.9643 21.55C21.5758 22.579 21.3148 23.617 21.1796 24.6626V28.4719C21.1796 28.6998 20.9937 28.8852 20.7664 28.8852H13.2948C12.0142 28.8852 11.9728 27.9813 11.9309 27.1092C11.9109 26.6741 11.8908 26.2537 11.5643 26.2537L9.7417 26.2531V26.2549C8.69432 26.2549 7.78687 25.4484 7.78687 24.4075C7.78687 24.1348 7.78864 24.2434 7.79041 23.8419C7.79396 22.8394 7.79514 22.3996 7.69004 22.2372C7.63455 22.1534 7.44384 22.0914 7.10436 21.981C6.93196 21.9255 6.25772 21.7064 5.91469 21.5441C5.16665 21.191 5.10997 20.4748 5.59824 19.8685L7.51942 17.4821V14.3724H7.51765C7.51765 10.781 10.1137 8.7659 13.4235 8.21859V7.24147H12.7138V7.2397C12.3956 7.24147 12.1931 6.89018 12.3625 6.61387L14.6002 2.95513C14.7625 2.68413 15.1475 2.68708 15.3081 2.9504L17.5339 6.58848C17.7364 6.8949 17.5085 7.24147 17.1974 7.24147H16.4877V8.12708C17.4288 8.21859 18.3445 8.41579 19.1793 8.7104ZM21.2345 9.74657L21.2227 6.14981C21.2227 5.92251 21.4069 5.73653 21.636 5.73653H22.5264L20.6654 2.69417L18.8027 5.73653H19.6328V5.7383C19.8636 5.74007 20.0478 5.92723 20.0443 6.1569L19.9976 9.04871C20.4281 9.25594 20.8378 9.48679 21.2345 9.74657ZM15.6617 8.07454V6.8276C15.6617 6.60029 15.8459 6.41431 16.075 6.41431H16.4617L14.955 3.95409L13.4506 6.41431H13.8374C14.0664 6.41431 14.2506 6.60029 14.2506 6.8276V8.11468C14.7194 8.07276 15.1912 8.05919 15.6617 8.07454ZM15.5295 14.6463C17.123 14.6463 18.413 15.9382 18.413 17.5317C18.413 19.1252 17.1224 20.4152 15.5295 20.4152C13.9365 20.4152 12.6441 19.1246 12.6441 17.5317C12.6441 15.9387 13.9359 14.6463 15.5295 14.6463ZM16.9836 16.0757C16.1801 15.2722 14.8765 15.2722 14.0735 16.0757C13.27 16.8804 13.27 18.1829 14.0735 18.9858C14.8771 19.7906 16.1807 19.7894 16.9836 18.9858C17.7872 18.1829 17.7872 16.881 16.9836 16.0757ZM15.1475 12.0893H15.8955C16.3407 12.0893 16.7055 12.4559 16.7055 12.8993V13.1786C17.0787 13.279 17.4353 13.4277 17.7718 13.6202C18.0027 13.3876 18.1668 13.1851 18.5417 13.1851C18.7478 13.1851 18.955 13.2654 19.1138 13.423L19.6428 13.952C19.9593 14.2685 19.9593 14.7804 19.6428 15.0968L19.4456 15.2946C19.6345 15.6241 19.7886 15.9925 19.8872 16.3609C20.2155 16.3609 20.4747 16.3343 20.7392 16.5982C20.885 16.7441 20.9771 16.9466 20.9771 17.1703V17.9166C20.9771 18.1392 20.885 18.3417 20.738 18.4887L20.7398 18.4905C20.5928 18.6363 20.3903 18.7266 20.1659 18.7266L19.8878 18.7249L19.7007 19.2739C19.6286 19.4528 19.5419 19.6252 19.4462 19.7929C19.6771 20.0238 19.8813 20.1926 19.8813 20.5628C19.8813 20.7671 19.801 20.9814 19.6422 21.1349L19.644 21.1367L19.115 21.6639C18.7985 21.9821 18.2796 21.9786 17.9702 21.6639L17.773 21.4661C17.4365 21.6586 17.0799 21.8074 16.7067 21.9077C16.7067 22.236 16.7333 22.4952 16.4688 22.7597C16.323 22.9067 16.1193 22.997 15.8967 22.997H15.1486C14.9278 22.997 14.7253 22.9049 14.5777 22.7579L14.5759 22.7597C14.3114 22.4952 14.338 22.236 14.338 21.9077C13.9684 21.8091 13.6047 21.6568 13.2735 21.4661C13.0409 21.6987 12.8768 21.9013 12.5036 21.9013C12.2993 21.9013 12.085 21.821 11.9315 21.6639H11.9297L11.3724 21.103C11.0831 20.7665 11.0979 20.2965 11.4025 19.9901L11.5985 19.7929C11.4061 19.4582 11.259 19.0998 11.1569 18.7266C10.8304 18.7266 10.5712 18.755 10.3067 18.4905C10.1597 18.3435 10.0688 18.141 10.0688 17.9166V17.1703C10.0688 16.7234 10.4319 16.3603 10.8788 16.3603H11.1569C11.2573 15.9889 11.4096 15.6258 11.5985 15.294C11.3677 15.0632 11.1652 14.8943 11.1652 14.5241C11.1652 14.3198 11.2455 14.1073 11.4031 13.952H11.4013L11.9622 13.3947C12.3017 13.1036 12.7723 13.1184 13.0769 13.423L13.2741 13.6202C13.6035 13.4313 13.972 13.2772 14.3404 13.1768V12.8987H14.3386C14.3374 12.4559 14.7041 12.0893 15.1475 12.0893ZM15.879 12.9159H15.1628V13.1904H15.1646C15.1646 13.5588 14.9184 13.8782 14.5635 13.9721C14.2453 14.0577 13.9578 14.1782 13.675 14.3405C13.3556 14.5247 12.9553 14.4728 12.6961 14.2136L12.5036 14.0193L11.9982 14.5247L12.1925 14.719H12.1907C12.4517 14.9799 12.5036 15.3784 12.3194 15.6961C12.1571 15.9771 12.0348 16.2717 11.951 16.5846C11.8554 16.9413 11.5377 17.1869 11.1693 17.1869H10.8948V17.9013C11.1876 17.9013 11.4102 17.8747 11.6611 18.0672C11.7999 18.174 11.902 18.3234 11.9504 18.5023C12.0343 18.8152 12.1582 19.1134 12.3188 19.3908C12.503 19.7103 12.4493 20.1106 12.1919 20.368L11.9976 20.5622L12.503 21.0676C12.7103 20.8604 12.8478 20.6862 13.1643 20.6443C13.5492 20.5941 13.7252 20.8114 14.0865 20.9525L14.5635 21.1148C14.9184 21.2105 15.1646 21.5281 15.1646 21.8965V22.1711H15.879C15.879 21.8765 15.8524 21.6556 16.0461 21.4047C16.1517 21.266 16.3023 21.1621 16.4794 21.1154C16.7923 21.0316 17.0917 20.9076 17.3698 20.747C17.6892 20.5628 18.0895 20.6165 18.3469 20.8739L18.5411 21.0682L19.0465 20.5628L18.8523 20.3686C18.5931 20.1076 18.5393 19.7108 18.7253 19.3914C18.8038 19.2545 18.8759 19.1086 18.9379 18.9581H18.9396C18.9981 18.814 19.05 18.6617 19.0937 18.5029C19.1876 18.1463 19.507 17.9018 19.8754 17.9018V17.9036H20.15V17.1869C19.8554 17.1869 19.6345 17.2122 19.3836 17.0198C19.2449 16.9129 19.141 16.7635 19.0943 16.5846C19.0087 16.2664 18.8883 15.9789 18.7259 15.6961C18.5399 15.3767 18.5954 14.9764 18.8528 14.719L19.0471 14.5247L18.5417 14.0193C18.3327 14.2283 18.1969 14.4025 17.8787 14.4427C17.7081 14.4663 17.5292 14.4326 17.3698 14.3405C17.0917 14.1799 16.7923 14.0559 16.4794 13.9721C16.1246 13.8782 15.8784 13.5588 15.8784 13.1904V12.9159H15.879ZM19.8772 18.7249H19.8754V18.7266L19.8772 18.7249ZM14.3392 13.1886L14.3374 13.1904H14.3392V13.1886Z" fill="#0CC2FE"/>
</svg>
