<svg width="32" height="32" viewBox="0 0 32 32" fill="none" xmlns="http://www.w3.org/2000/svg">
<g clip-path="url(#clip0_8138_3467)">
<path d="M16 16.4375C18.1711 16.4375 19.9375 14.6711 19.9375 12.5C19.9375 10.3289 18.1711 8.5625 16 8.5625C13.8289 8.5625 12.0625 10.3289 12.0625 12.5C12.0625 14.6711 13.8289 16.4375 16 16.4375ZM16 10.4375C17.1372 10.4375 18.0625 11.3628 18.0625 12.5C18.0625 13.6372 17.1372 14.5625 16 14.5625C14.8628 14.5625 13.9375 13.6372 13.9375 12.5C13.9375 11.3628 14.8628 10.4375 16 10.4375Z" fill="#0CC2FE"/>
<path d="M29.1875 20.0625H25.9553C27.6064 17.8996 28.5 15.2717 28.5 12.5C28.5 5.6075 22.8925 0 16 0C9.1075 0 3.5 5.6075 3.5 12.5C3.5 15.2728 4.39319 17.9 6.04425 20.0625H2.8125C1.26169 20.0625 0 21.3242 0 22.875V28.125C0 29.4161 0.87475 30.5061 2.0625 30.8351V31.0625C2.0625 31.5802 2.48225 32 3 32C3.51775 32 3.9375 31.5802 3.9375 31.0625V30.9375H28.0625V31.0625C28.0625 31.5802 28.4823 32 29 32C29.5177 32 29.9375 31.5802 29.9375 31.0625V30.8351C31.1252 30.506 32 29.4161 32 28.125V22.875C32 21.3242 30.7383 20.0625 29.1875 20.0625ZM5.375 12.5C5.375 6.64138 10.1414 1.875 16 1.875C21.8586 1.875 26.625 6.64138 26.625 12.5C26.625 15.3654 25.5021 18.0501 23.4629 20.0625H8.53744C6.49794 18.0502 5.375 15.3666 5.375 12.5ZM30.125 28.125C30.125 28.6419 29.7044 29.0625 29.1875 29.0625H2.8125C2.29556 29.0625 1.875 28.6419 1.875 28.125V22.875C1.875 22.3581 2.29556 21.9375 2.8125 21.9375H29.1875C29.7044 21.9375 30.125 22.3581 30.125 22.875V28.125Z" fill="#0CC2FE"/>
<path d="M26.5 24.5625H17C16.4822 24.5625 16.0625 24.9822 16.0625 25.5C16.0625 26.0178 16.4822 26.4375 17 26.4375H26.5C27.0177 26.4375 27.4375 26.0178 27.4375 25.5C27.4375 24.9822 27.0177 24.5625 26.5 24.5625Z" fill="#0CC2FE"/>
<path d="M6.41925 24.6615L5.41925 24.1615C5.12863 24.0162 4.78356 24.0317 4.50712 24.2025C4.23069 24.3733 4.0625 24.6751 4.0625 25V26C4.0625 26.3249 4.23075 26.6266 4.50712 26.7975C4.65769 26.8906 4.82862 26.9375 5 26.9375C5.14325 26.9375 5.28694 26.9047 5.41925 26.8385L6.41925 26.3385C6.73688 26.1797 6.9375 25.8551 6.9375 25.5C6.9375 25.1449 6.73688 24.8202 6.41925 24.6615Z" fill="#0CC2FE"/>
<path d="M10 24.0625C9.48225 24.0625 9.0625 24.4822 9.0625 25V26C9.0625 26.5178 9.48225 26.9375 10 26.9375C10.5178 26.9375 10.9375 26.5178 10.9375 26V25C10.9375 24.4822 10.5178 24.0625 10 24.0625Z" fill="#0CC2FE"/>
<path d="M13 24.0625C12.4822 24.0625 12.0625 24.4822 12.0625 25V26C12.0625 26.5178 12.4822 26.9375 13 26.9375C13.5178 26.9375 13.9375 26.5178 13.9375 26V25C13.9375 24.4822 13.5178 24.0625 13 24.0625Z" fill="#0CC2FE"/>
<path d="M20.6409 18.4662C20.8239 18.6493 21.0638 18.7408 21.3037 18.7408C21.5436 18.7408 21.7836 18.6493 21.9666 18.4662C23.5603 16.8726 24.4379 14.7538 24.4379 12.5C24.4379 10.2463 23.5603 8.12745 21.9666 6.53382C21.6006 6.16776 21.0069 6.16776 20.6408 6.53382C20.2747 6.89989 20.2747 7.49351 20.6408 7.85964C21.8803 9.09914 22.5629 10.7471 22.5629 12.5C22.5629 14.2529 21.8803 15.9009 20.6409 17.1404C20.2747 17.5065 20.2747 18.1001 20.6409 18.4662Z" fill="#0CC2FE"/>
</g>
<defs>
<clipPath id="clip0_8138_3467">
<rect width="32" height="32" fill="white"/>
</clipPath>
</defs>
</svg>
