<svg width="32" height="32" viewBox="0 0 32 32" fill="none" xmlns="http://www.w3.org/2000/svg">
<g clip-path="url(#clip0_8138_3484)">
<path d="M31.1468 15.3744C31.1468 14.5308 30.8171 13.7357 30.2256 13.1441C29.6292 12.5478 28.8389 12.2229 27.9953 12.2229C27.1517 12.2229 26.3565 12.5526 25.7601 13.149L25.4741 13.4399V7.79627C25.4741 7.78172 25.4644 7.76718 25.4644 7.75263C25.4595 7.6993 25.4498 7.64596 25.4305 7.59263C25.4208 7.56839 25.4159 7.54899 25.4062 7.5296C25.3771 7.47142 25.3432 7.41324 25.2947 7.3599C25.2898 7.35506 25.2898 7.35021 25.285 7.34536L18.9674 1.03748C18.9626 1.03263 18.9529 1.02778 18.9432 1.01809C18.8947 0.974449 18.8462 0.94051 18.7929 0.916267C18.7686 0.901722 18.7395 0.896874 18.7105 0.887177C18.6668 0.872631 18.6232 0.862934 18.5795 0.862934C18.5601 0.862934 18.5408 0.848389 18.5214 0.848389H4.005C2.26439 0.848389 0.848633 2.26415 0.848633 4.00475V27.9951C0.848633 29.7357 2.26439 31.1514 4.005 31.1514H22.3129C24.0535 31.1514 25.4692 29.7357 25.4692 27.9951V22.3563L29.3286 18.4969L29.3335 18.492L30.2256 17.6096C30.822 17.0084 31.1468 16.2181 31.1468 15.3744ZM24.3977 21.6435C24.3929 21.6484 24.388 21.6532 24.3832 21.6581L19.9565 26.0848L18.6232 24.7514C18.6086 24.7369 18.5892 24.7175 18.5698 24.7029L17.2801 23.4132L25.3141 15.3793L27.9856 18.0557L24.3977 21.6435ZM16.7129 24.6254L17.7262 25.6387C17.7456 25.6581 17.765 25.6726 17.7844 25.6872L18.7444 26.652L15.9517 27.4181L16.7129 24.6254ZM19.1565 3.00596L23.3165 7.16596H21.0523C20.0098 7.16596 19.1565 6.31748 19.1565 5.27021V3.00596ZM24.2086 27.9951C24.2086 29.0375 23.3601 29.8908 22.3129 29.8908H4.005C2.96257 29.8908 2.10924 29.0423 2.10924 27.9951V4.00475C2.10924 2.96233 2.95772 2.10899 4.005 2.10899H17.8911V5.27021C17.8911 7.01081 19.3068 8.42657 21.0474 8.42657H24.2086V14.7005L15.9565 22.9526C15.8935 23.0108 15.8498 23.0787 15.8159 23.1611C15.8111 23.1708 15.8062 23.1805 15.8014 23.1902C15.7965 23.2096 15.782 23.2241 15.7771 23.2484L14.4341 28.1599C14.3759 28.3781 14.4389 28.6108 14.5989 28.7708C14.7201 28.892 14.8801 28.9551 15.045 28.9551C15.0983 28.9551 15.1565 28.9454 15.2098 28.9308L20.1214 27.5878C20.1359 27.5829 20.1505 27.5732 20.165 27.5684C20.1844 27.5587 20.2038 27.5538 20.228 27.5441C20.2862 27.5151 20.3395 27.4811 20.388 27.4375C20.3929 27.4326 20.4026 27.4278 20.4074 27.4229L24.2086 23.6217V27.9951ZM29.3335 16.7126L28.8826 17.1587L26.2062 14.4823L26.6523 14.0363C27.365 13.3235 28.6159 13.3235 29.3335 14.0363C29.6923 14.3951 29.8862 14.8702 29.8862 15.3744C29.8862 15.8787 29.6923 16.3538 29.3335 16.7126Z" fill="#0CC2FE"/>
<path d="M7.79197 4.63501H4.0053C3.65621 4.63501 3.375 4.91622 3.375 5.26531V9.05198C3.375 9.40107 3.65621 9.68228 4.0053 9.68228H7.79197C8.14106 9.68228 8.42227 9.40107 8.42227 9.05198V5.26531C8.42712 4.91622 8.14106 4.63501 7.79197 4.63501ZM7.16167 8.42168H4.64045V5.89562H7.16652V8.42168H7.16167Z" fill="#0CC2FE"/>
<path d="M10.3178 6.53087H16.0002C16.3493 6.53087 16.6305 6.24966 16.6305 5.90057C16.6305 5.55148 16.3493 5.27026 16.0002 5.27026H10.3178C9.96871 5.27026 9.6875 5.55148 9.6875 5.90057C9.6875 6.24966 9.96871 6.53087 10.3178 6.53087Z" fill="#0CC2FE"/>
<path d="M10.3178 9.05211H14.1045C14.4536 9.05211 14.7348 8.7709 14.7348 8.42181C14.7348 8.07272 14.4536 7.7915 14.1045 7.7915H10.3178C9.96871 7.7915 9.6875 8.07272 9.6875 8.42181C9.6875 8.7709 9.96871 9.05211 10.3178 9.05211Z" fill="#0CC2FE"/>
<path d="M7.79197 11.5879H4.0053C3.65621 11.5879 3.375 11.8691 3.375 12.2182V16.0049C3.375 16.354 3.65621 16.6352 4.0053 16.6352H7.79197C8.14106 16.6352 8.42227 16.354 8.42227 16.0049V12.2182C8.42712 11.8691 8.14106 11.5879 7.79197 11.5879ZM7.16167 15.3746H4.64045V12.8485H7.16652V15.3746H7.16167Z" fill="#0CC2FE"/>
<path d="M10.3178 13.4786H16.0002C16.3493 13.4786 16.6305 13.1974 16.6305 12.8483C16.6305 12.4992 16.3493 12.218 16.0002 12.218H10.3178C9.96871 12.218 9.6875 12.4992 9.6875 12.8483C9.6875 13.1974 9.96871 13.4786 10.3178 13.4786Z" fill="#0CC2FE"/>
<path d="M10.3178 15.9999H14.1045C14.4536 15.9999 14.7348 15.7187 14.7348 15.3696C14.7348 15.0205 14.4536 14.7393 14.1045 14.7393H10.3178C9.96871 14.7393 9.6875 15.0205 9.6875 15.3696C9.6875 15.7187 9.96871 15.9999 10.3178 15.9999Z" fill="#0CC2FE"/>
<path d="M7.79197 18.5356H4.0053C3.65621 18.5356 3.375 18.8169 3.375 19.1659V22.9526C3.375 23.3017 3.65621 23.5829 4.0053 23.5829H7.79197C8.14106 23.5829 8.42227 23.3017 8.42227 22.9526V19.1659C8.42712 18.8217 8.14106 18.5356 7.79197 18.5356ZM7.16167 22.3223H4.64045V19.7963H7.16652V22.3223H7.16167Z" fill="#0CC2FE"/>
<path d="M10.3178 20.4315H16.0002C16.3493 20.4315 16.6305 20.1503 16.6305 19.8012C16.6305 19.4521 16.3493 19.1709 16.0002 19.1709H10.3178C9.96871 19.1709 9.6875 19.4521 9.6875 19.8012C9.6875 20.1503 9.96871 20.4315 10.3178 20.4315Z" fill="#0CC2FE"/>
<path d="M14.7348 22.3224C14.7348 21.9734 14.4536 21.6921 14.1045 21.6921H10.3178C9.96871 21.6921 9.6875 21.9734 9.6875 22.3224C9.6875 22.6715 9.96871 22.9527 10.3178 22.9527H14.1045C14.4536 22.9527 14.7348 22.6715 14.7348 22.3224Z" fill="#0CC2FE"/>
</g>
<defs>
<clipPath id="clip0_8138_3484">
<rect width="32" height="32" fill="white"/>
</clipPath>
</defs>
</svg>
