<svg width="40" height="40" viewBox="0 0 40 40" fill="none" xmlns="http://www.w3.org/2000/svg">
<path d="M38.5405 17.193C38.2648 16.7359 37.8296 16.4133 37.314 16.2852C36.2468 16.0203 35.1624 16.6727 34.8976 17.7406L33.9108 21.7164C33.7319 21.5922 33.5327 21.4969 33.3163 21.4352C32.803 21.2883 32.2647 21.3492 31.8022 21.6055L24.7796 25.45C24.3194 25.7016 23.9999 26.1016 23.8562 26.6055L22.4616 31.4766L21.9882 31.3266C21.7858 31.2625 21.5702 31.2805 21.3804 31.3789C21.1913 31.4766 21.0515 31.6422 20.9874 31.8445L19.9999 34.9539L19.0116 31.8445C18.9476 31.6422 18.8077 31.4766 18.6187 31.3789C18.4296 31.2812 18.214 31.2625 18.0116 31.3266L17.5382 31.4773L16.1437 26.6063C15.9991 26.1023 15.6796 25.7023 15.2202 25.4508L8.19991 21.6078C7.73585 21.35 7.19757 21.2891 6.6835 21.4359C6.46788 21.4977 6.26788 21.593 6.08897 21.7172L5.10225 17.7414C4.83741 16.6742 3.75303 16.0211 2.68585 16.2859C2.17022 16.4141 1.73507 16.7359 1.45928 17.1938C1.1835 17.6516 1.10225 18.1867 1.23038 18.7023L3.521 27.9305C3.6835 28.5844 4.08585 29.0922 4.68585 29.3984L10.9569 32.6062L11.1843 33.4961L10.6132 33.6773C10.1952 33.8102 9.96241 34.2594 10.0952 34.6773L11.2374 38.2719C11.3452 38.6102 11.6593 38.8273 11.9968 38.8273C12.0765 38.8273 12.1577 38.8148 12.2374 38.7898L19.6351 36.4383C19.7788 36.393 19.903 36.3086 19.9991 36.1961C20.0944 36.3086 20.2194 36.393 20.3632 36.4383L27.7608 38.7898C27.8405 38.8156 27.9218 38.8273 28.0015 38.8273C28.339 38.8273 28.6538 38.6109 28.7608 38.2719L29.903 34.6773C30.0358 34.2586 29.8038 33.8102 29.3851 33.6773L28.814 33.4961L29.0413 32.6062L35.3124 29.3984C35.9124 29.0914 36.3148 28.5836 36.4772 27.9305L38.7679 18.7023C38.8976 18.1867 38.8163 17.6508 38.5405 17.193ZM11.8601 32.3563C11.7952 32.1039 11.6319 31.8992 11.4007 31.7805L5.11319 28.5641C4.75694 28.382 4.52803 28.093 4.43116 27.7047L2.14053 18.4758C2.07257 18.2031 2.11632 17.9195 2.26241 17.6766C2.4085 17.4336 2.63897 17.2625 2.91163 17.1953C3.47725 17.0547 4.05147 17.4008 4.1921 17.9664L5.3585 22.6648C5.02882 23.5672 5.39522 24.6078 6.26163 25.0938L10.3671 27.3945C10.5929 27.5211 10.8788 27.4406 11.0054 27.2148C11.1319 26.9891 11.0515 26.7031 10.8257 26.5766L6.72022 24.2758C6.21085 23.9898 6.02569 23.3453 6.30694 22.8375C6.44288 22.5922 6.66866 22.4141 6.94132 22.3359C7.21397 22.2578 7.49913 22.2898 7.74678 22.4273L14.7694 26.2719C15.0116 26.4047 15.1663 26.5977 15.2421 26.8633L16.6444 31.7609L12.0796 33.2117L11.8601 32.3563ZM12.0882 37.8547L11.0312 34.5289L18.1608 32.2633L19.2179 35.5891L12.0882 37.8547ZM27.9116 37.8547L20.7819 35.5891L21.839 32.2633L28.9687 34.5289L27.9116 37.8547ZM37.8593 18.4758L35.5687 27.7039C35.4726 28.0922 35.2429 28.3812 34.8866 28.5633L28.5991 31.7797C28.3671 31.8984 28.2038 32.1023 28.1397 32.3555L27.921 33.2117L23.3562 31.7609L24.7585 26.8633C24.8343 26.5977 24.989 26.4047 25.2312 26.2719L32.2562 22.4266C32.5015 22.2898 32.7866 22.2578 33.0593 22.3359C33.3319 22.4141 33.5569 22.5922 33.6937 22.8375C33.9757 23.3453 33.7897 23.9898 33.2804 24.2758L29.1749 26.5766C28.9491 26.7031 28.8687 26.9891 28.9952 27.2148C29.1218 27.4406 29.4077 27.5211 29.6335 27.3945L33.739 25.0938C34.6054 24.6078 34.9726 23.568 34.6421 22.6648L35.8085 17.9664C35.9491 17.4008 36.5233 17.0547 37.089 17.1953C37.3616 17.2633 37.5921 17.4336 37.7382 17.6766C37.8835 17.9203 37.9272 18.2039 37.8593 18.4758ZM19.9999 23.8445C26.2507 23.8445 31.3358 18.7594 31.3358 12.5086C31.3358 6.25781 26.2507 1.17188 19.9999 1.17188C13.7491 1.17188 8.66397 6.25703 8.66397 12.5078C8.66397 18.7586 13.7491 23.8445 19.9999 23.8445ZM19.9999 2.31562C21.5866 2.31562 23.0241 4.00391 23.9194 6.55078C22.6944 6.79922 21.3671 6.93125 19.9999 6.93125C18.6327 6.93125 17.3062 6.79922 16.0804 6.55078C16.9757 4.00391 18.4132 2.31562 19.9999 2.31562ZM19.9999 7.86797C21.4624 7.86797 22.8858 7.72188 24.2015 7.44688C24.5866 8.81953 24.8233 10.3852 24.8608 12.0383H15.1382C15.1757 10.3844 15.4124 8.81875 15.7976 7.44688C17.114 7.72266 18.5374 7.86797 19.9999 7.86797ZM19.9999 22.7C18.4132 22.7 16.9757 21.0117 16.0804 18.4648C17.3054 18.2164 18.6327 18.0844 19.9999 18.0844C21.3671 18.0844 22.6937 18.2164 23.9194 18.4648C23.0241 21.0125 21.5866 22.7 19.9999 22.7ZM19.9999 17.1477C18.5374 17.1477 17.114 17.2938 15.7983 17.5688C15.4132 16.1961 15.1765 14.6313 15.139 12.9773H24.8616C24.8241 14.6313 24.5874 16.1969 24.2023 17.5688C22.8858 17.2938 21.4624 17.1477 19.9999 17.1477ZM25.7983 12.9766H30.3874C30.2866 15.2344 29.4632 17.307 28.1421 18.968C27.2663 18.482 26.2429 18.0844 25.1202 17.7859C25.5288 16.3172 25.7624 14.6805 25.7983 12.9766ZM25.7983 12.0391C25.7624 10.3359 25.5288 8.69844 25.1194 7.22969C26.2421 6.93125 27.2663 6.53359 28.1413 6.04766C29.4624 7.70859 30.2858 9.78125 30.3866 12.0391H25.7983ZM14.2015 12.0391H9.61241C9.71319 9.78125 10.5366 7.70859 11.8577 6.04766C12.7335 6.53359 13.7569 6.93125 14.8796 7.22969C14.471 8.69844 14.2374 10.3359 14.2015 12.0391ZM14.2015 12.9766C14.2374 14.6797 14.471 16.3172 14.8804 17.7859C13.7577 18.0844 12.7335 18.482 11.8585 18.968C10.5382 17.307 9.71397 15.2344 9.61319 12.9766H14.2015ZM12.489 19.6922C13.2694 19.2805 14.171 18.9398 15.1569 18.6805C15.3483 19.2359 15.5663 19.7617 15.8101 20.25C16.3101 21.2492 16.8929 22.043 17.5319 22.6102C15.578 22.1328 13.8374 21.1016 12.489 19.6922ZM22.4671 22.6102C23.1062 22.043 23.689 21.2492 24.189 20.25C24.4335 19.7617 24.6507 19.2352 24.8421 18.6805C25.828 18.9398 26.7304 19.2805 27.5101 19.6922C26.1624 21.1016 24.4218 22.1328 22.4671 22.6102ZM27.5108 5.32344C26.7304 5.73516 25.8288 6.07578 24.8429 6.33516C24.6515 5.77969 24.4335 5.25391 24.1898 4.76562C23.6898 3.76641 23.1069 2.97344 22.4679 2.40547C24.4218 2.88359 26.1624 3.91484 27.5108 5.32344ZM17.5327 2.40625C16.8937 2.97344 16.3108 3.76641 15.8108 4.76641C15.5663 5.25469 15.3491 5.78125 15.1577 6.33594C14.1718 6.07656 13.2694 5.73594 12.4898 5.32422C13.8374 3.91484 15.578 2.88359 17.5327 2.40625Z" fill="#0CC2FE"/>
</svg>
