<svg width="31" height="31" viewBox="0 0 31 31" fill="none" xmlns="http://www.w3.org/2000/svg">
<g clip-path="url(#clip0_8138_3458)">
<path d="M15.1145 30.2286C8.44952 30.2286 3.02734 24.8062 3.02734 18.1414C3.02734 12.1257 7.51538 6.97738 13.4667 6.16602L13.603 7.16426C8.1484 7.90805 4.03498 12.6271 4.03498 18.1415C4.03498 24.2508 9.0052 29.221 15.1145 29.221C21.2234 29.221 26.1937 24.2508 26.1937 18.1415C26.1937 15.5829 25.2994 13.0859 23.6758 11.111L24.4542 10.4709C26.2257 12.6259 27.2013 15.3499 27.2013 18.1415C27.2013 24.8062 21.7792 30.2286 15.1145 30.2286Z" fill="#0CC2FE"/>
<path d="M15.1142 26.2349C10.652 26.2349 7.02148 22.6044 7.02148 18.1419C7.02148 14.3444 9.71671 11.015 13.4299 10.2256L13.6395 11.2111C10.3886 11.9024 8.02912 14.8172 8.02912 18.1419C8.02912 22.0487 11.2075 25.2273 15.1142 25.2273C19.0209 25.2273 22.1993 22.0487 22.1993 18.1419C22.1993 14.8172 19.8396 11.9023 16.5887 11.2111L16.7983 10.2256C20.5117 11.0153 23.2069 14.3445 23.2069 18.1419C23.2069 22.6043 19.5764 26.2349 15.1142 26.2349Z" fill="#0CC2FE"/>
<path d="M15.1145 21.0149C13.5303 21.0149 12.2412 19.7259 12.2412 18.1417C12.2412 16.5574 13.5303 15.2686 15.1145 15.2686C16.6987 15.2686 17.9876 16.5574 17.9876 18.1417C17.9876 19.7259 16.6987 21.0149 15.1145 21.0149ZM15.1145 16.2762C14.0857 16.2762 13.2488 17.1131 13.2488 18.1417C13.2488 19.1704 14.0857 20.0073 15.1145 20.0073C16.1431 20.0073 16.98 19.1704 16.98 18.1417C16.98 17.1131 16.1431 16.2762 15.1145 16.2762Z" fill="#0CC2FE"/>
<path d="M15.1141 2.32399C14.8359 2.32399 14.6104 2.09843 14.6104 1.82022V0.503771C14.6104 0.225556 14.8359 0 15.1141 0C15.3923 0 15.6179 0.225556 15.6179 0.503771V1.82013C15.6179 2.09843 15.3923 2.32399 15.1141 2.32399Z" fill="#0CC2FE"/>
<path d="M15.1141 16.2765C14.8359 16.2765 14.6104 16.0509 14.6104 15.7727V8.6649C14.6104 8.38669 14.8359 8.16113 15.1141 8.16113C15.3923 8.16113 15.6179 8.38669 15.6179 8.6649V15.7727C15.6179 16.0509 15.3923 16.2765 15.1141 16.2765Z" fill="#0CC2FE"/>
<path d="M25.1178 9.16845H15.1141C14.8359 9.16845 14.6104 8.9429 14.6104 8.66468V1.82018C14.6104 1.54196 14.8359 1.31641 15.1141 1.31641H25.1178C25.3056 1.31641 25.4775 1.42069 25.5643 1.58674C25.6512 1.75306 25.6387 1.95375 25.5314 2.10778L23.3516 5.2421L25.5314 8.37718C25.6387 8.53121 25.6512 8.73189 25.5643 8.89822C25.4775 9.06417 25.3056 9.16845 25.1178 9.16845ZM15.6179 8.16082H24.1537L22.3242 5.52961C22.2039 5.35671 22.2039 5.12712 22.3242 4.9545L24.1537 2.32395H15.6179V8.16082Z" fill="#0CC2FE"/>
</g>
<defs>
<clipPath id="clip0_8138_3458">
<rect width="30.2288" height="30.2288" fill="white"/>
</clipPath>
</defs>
</svg>
