<svg width="31" height="30" viewBox="0 0 31 30" fill="none" xmlns="http://www.w3.org/2000/svg">
<path d="M4.47232 28.7463H12.7569C12.8454 28.7465 12.9322 28.7218 13.0074 28.675C13.0825 28.6282 13.143 28.5613 13.182 28.4818L14.9154 24.9346H25.5569C25.6822 24.9346 25.8023 24.8849 25.8909 24.7963C25.9795 24.7077 26.0292 24.5876 26.0292 24.4623C26.0292 24.337 25.9795 24.2169 25.8909 24.1283C25.8023 24.0397 25.6822 23.99 25.5569 23.99H24.4611V14.501C24.8261 14.3381 25.1361 14.0731 25.3537 13.7378C25.5713 13.4025 25.687 13.0114 25.687 12.6117C25.687 12.212 25.5713 11.8209 25.3537 11.4856C25.1361 11.1503 24.8261 10.8852 24.4611 10.7224V8.74334C24.4611 8.61807 24.4113 8.49793 24.3228 8.40935C24.2342 8.32077 24.114 8.27101 23.9888 8.27101C23.8635 8.27101 23.7434 8.32077 23.6548 8.40935C23.5662 8.49793 23.5165 8.61807 23.5165 8.74334V10.5287H20.0213C19.929 10.5302 19.8391 10.5002 19.7662 10.4437L17.3762 8.60636C17.4325 8.4048 17.4626 8.19685 17.466 7.98762C17.466 7.93094 17.466 7.87426 17.466 7.81758C17.7902 7.51544 18.0489 7.14992 18.226 6.74368C18.4031 6.33743 18.4949 5.89913 18.4956 5.45596V5.04503H19.6623C19.7876 5.04503 19.9077 4.99527 19.9963 4.90669C20.0849 4.81811 20.1346 4.69798 20.1346 4.57271C20.1346 4.44744 20.0849 4.3273 19.9963 4.23872C19.9077 4.15015 19.7876 4.10038 19.6623 4.10038H18.4531C18.4108 3.25554 18.0421 2.46015 17.4247 1.88184C16.8074 1.30354 15.9896 0.987516 15.1438 1.00038C14.298 1.01324 13.4903 1.35398 12.8908 1.95079C12.2913 2.54759 11.947 3.35384 11.9303 4.19957V5.53625H9.09638C8.58068 5.53357 8.07717 5.69297 7.65697 5.99194C7.23677 6.29092 6.92111 6.71435 6.75459 7.20243C6.58807 7.69051 6.57909 8.21858 6.72894 8.71204C6.87878 9.2055 7.17987 9.63941 7.58967 9.95249C7.22453 10.3746 6.96257 10.8759 6.8245 11.4167L5.91764 15.0867C5.81582 15.498 5.80899 15.9272 5.89769 16.3416C5.98638 16.756 6.16826 17.1447 6.42954 17.4784C6.69082 17.812 7.02464 18.0818 7.40568 18.2673C7.78673 18.4528 8.205 18.549 8.62878 18.5488H8.67601L5.73815 27.8016H4.47232C4.34706 27.8016 4.22692 27.8514 4.13834 27.94C4.04976 28.0286 4 28.1487 4 28.274C4 28.3992 4.04976 28.5194 4.13834 28.6079C4.22692 28.6965 4.34706 28.7463 4.47232 28.7463ZM15.657 23.99H14.6226C14.5341 23.9898 14.4473 24.0145 14.3721 24.0613C14.2969 24.108 14.2364 24.175 14.1975 24.2545L12.4641 27.8016H11.9445L10.8298 26.2194L13.1914 21.3166C13.2538 21.1948 13.3485 21.0924 13.4651 21.0208C13.5817 20.9492 13.7158 20.911 13.8527 20.9104L16.2757 20.9435L15.657 23.99ZM23.6345 13.7264H23.2142V11.4734H23.6345C23.7886 11.4634 23.9431 11.4851 24.0884 11.5372C24.2338 11.5893 24.3669 11.6707 24.4795 11.7762C24.5922 11.8818 24.6819 12.0094 24.7433 12.1511C24.8047 12.2927 24.8364 12.4455 24.8364 12.5999C24.8364 12.7543 24.8047 12.907 24.7433 13.0487C24.6819 13.1903 24.5922 13.3179 24.4795 13.4235C24.3669 13.5291 24.2338 13.6104 24.0884 13.6625C23.9431 13.7146 23.7886 13.7363 23.6345 13.7264ZM23.5165 14.671V23.99H21.443L20.1063 22.1621L21.117 19.2242C21.1782 19.0477 21.2038 18.8609 21.1924 18.6744C21.1811 18.488 21.133 18.3057 21.0509 18.1379C20.9693 17.9604 20.8528 17.8012 20.7084 17.6698C20.5639 17.5383 20.3945 17.4373 20.2102 17.3727L17.1542 16.3194L17.6549 13.887L18.25 14.2506C18.7226 14.5425 19.2674 14.6963 19.8229 14.6946H23.5165V14.671ZM19.19 11.1947C19.4297 11.3749 19.7213 11.4727 20.0213 11.4734H22.2695V13.7264H19.8229C19.4405 13.7239 19.0663 13.6161 18.7413 13.4146L17.5746 12.7061C17.5092 12.6661 17.435 12.6426 17.3585 12.6377C17.282 12.6327 17.2054 12.6465 17.1354 12.6778C17.0657 12.7083 17.0044 12.7551 16.9567 12.8143C16.909 12.8735 16.8763 12.9433 16.8614 13.0179L16.2238 16.1588H14.5423L15.435 12.1819C15.5667 11.5985 15.5105 10.9884 15.2744 10.439C15.5975 10.399 15.9094 10.2949 16.1917 10.1327C16.4739 9.97045 16.7209 9.75341 16.9181 9.49433L19.19 11.1947ZM10.2914 9.63603H12.653C12.9418 9.62843 13.2285 9.68716 13.491 9.80771C13.7536 9.92826 13.985 10.1074 14.1674 10.3314C14.3499 10.5554 14.4786 10.8182 14.5436 11.0997C14.6085 11.3812 14.6081 11.6738 14.5423 11.9551L13.9519 14.5765H6.98509L7.7172 11.6292C7.85801 11.0551 8.18911 10.5455 8.65655 10.1836C9.12399 9.82161 9.70022 9.62862 10.2914 9.63603ZM15.1941 1.86156C15.7915 1.8635 16.3651 2.09591 16.7954 2.51035C17.2257 2.92479 17.4794 3.4893 17.5038 4.08621H12.8844C12.9088 3.4893 13.1625 2.92479 13.5928 2.51035C14.0231 2.09591 14.5967 1.8635 15.1941 1.86156ZM12.875 5.44179V5.03086H17.5132V5.44179C17.5136 5.91046 17.372 6.36826 17.107 6.75485C16.8911 6.38179 16.5813 6.07172 16.2084 5.85546C15.8356 5.63919 15.4126 5.52426 14.9816 5.52208H12.8797C12.8797 5.49374 12.875 5.47013 12.875 5.44179ZM9.09638 6.46673H14.9816C15.3849 6.46673 15.7718 6.62697 16.057 6.91219C16.3422 7.19741 16.5024 7.58425 16.5024 7.98762C16.5024 8.39098 16.3422 8.77782 16.057 9.06305C15.7718 9.34827 15.3849 9.5085 14.9816 9.5085H14.6745C14.4082 9.24557 14.0925 9.03798 13.7455 8.89774C13.3985 8.75749 13.0272 8.68735 12.653 8.69138H10.2914C9.58725 8.6932 8.89973 8.90538 8.31705 9.30068C8.02769 9.13159 7.80229 8.87165 7.67587 8.56127C7.54945 8.25089 7.52909 7.90744 7.61796 7.5843C7.70682 7.26115 7.89993 6.97641 8.16728 6.77431C8.43464 6.57222 8.76125 6.46409 9.09638 6.46673ZM7.16458 16.8579C6.87349 16.4716 6.74469 15.9869 6.80561 15.507H13.7299L13.6354 15.9179C13.5336 16.3891 13.273 16.8109 12.8972 17.1127C12.5214 17.4145 12.0533 17.578 11.5714 17.5758H8.60517C8.32413 17.5748 8.04686 17.5111 7.79356 17.3893C7.54026 17.2676 7.31731 17.0909 7.14096 16.872L7.16458 16.8579ZM9.6679 18.5205H11.595C12.1118 18.5232 12.6209 18.3947 13.0745 18.1468C13.5281 17.899 13.9112 17.54 14.188 17.1035H16.5497L19.9221 18.2654C19.9858 18.2868 20.0446 18.3209 20.0949 18.3655C20.1452 18.4101 20.186 18.4644 20.2149 18.5252C20.2467 18.585 20.2653 18.651 20.2694 18.7186C20.2735 18.7863 20.2629 18.854 20.2385 18.9172L19.1475 22.0912C19.1232 22.1629 19.1166 22.2394 19.1281 22.3142C19.1396 22.389 19.1689 22.4599 19.2136 22.521L20.2858 23.99H16.6205L17.329 20.5798C17.344 20.51 17.343 20.4378 17.3261 20.3685C17.3092 20.2992 17.2768 20.2346 17.2313 20.1796C17.1859 20.1246 17.1285 20.0806 17.0637 20.0509C16.9988 20.0213 16.928 20.0067 16.8567 20.0083L13.8621 19.9658C13.5452 19.9659 13.2345 20.0543 12.965 20.2212C12.6955 20.388 12.4779 20.6267 12.3365 20.9104L9.85683 26.0588C9.82096 26.1338 9.80557 26.2171 9.81221 26.3C9.81884 26.3829 9.84727 26.4627 9.89461 26.5311L10.7873 27.7969H6.73004L9.6679 18.5205Z" fill="#0CC2FE"/>
</svg>
