<svg width="64" height="64" viewBox="0 0 64 64" fill="none" xmlns="http://www.w3.org/2000/svg">
<path fill-rule="evenodd" clip-rule="evenodd" d="M23.3266 4.3389e-08C25.6234 -4.61101e-05 27.8569 0.751874 29.686 2.14085C31.515 3.52982 32.839 5.47944 33.4555 7.69175C34.072 9.90407 33.9471 12.2574 33.1 14.392C32.2528 16.5267 30.73 18.3253 28.7642 19.5129C30.1246 19.8363 31.4531 20.2818 32.7335 20.844C34.0637 19.6581 35.8932 19.3017 37.6866 19.7499C38.3167 19.917 38.9842 19.8726 39.5866 19.6236C40.189 19.3746 40.693 18.9347 41.0211 18.3714C43.1892 14.7578 47.9651 14.7589 50.1328 18.3714C50.4609 18.9347 50.9649 19.3746 51.5673 19.6236C52.1697 19.8727 52.8373 19.9171 53.4674 19.7499C57.5945 18.7184 60.9431 22.0669 59.9114 26.1938C59.7444 26.8239 59.7888 27.4914 60.0379 28.0937C60.287 28.6961 60.7269 29.2001 61.2902 29.5282C64.9031 31.6959 64.9034 36.4714 61.2902 38.6394C60.7269 38.9675 60.287 39.4715 60.0379 40.0739C59.7889 40.6762 59.7445 41.3437 59.9116 41.9738C60.8393 45.6838 58.2017 48.8754 54.5041 48.5879V62.9231C54.5046 63.1287 54.4461 63.3301 54.3356 63.5034C54.225 63.6767 54.0671 63.8146 53.8805 63.9009C53.6939 63.9871 53.4865 64.018 53.2828 63.9899C53.0792 63.9618 52.8879 63.8759 52.7316 63.7423L45.5769 58.827L38.3297 63.8054C38.1689 63.9151 37.9813 63.9789 37.787 63.99C37.5926 64.0011 37.399 63.959 37.2268 63.8683C37.0546 63.7776 36.9103 63.6416 36.8096 63.4751C36.7088 63.3086 36.6553 63.1178 36.6549 62.9231H36.6491V48.5879C32.9516 48.875 30.3139 45.6847 31.2418 41.9739C31.3132 41.6906 31.3449 41.3987 31.3359 41.1067H1.07638C0.918071 41.1072 0.761621 41.0726 0.618243 41.0055C0.474864 40.9384 0.348109 40.8404 0.247062 40.7185C0.146016 40.5967 0.0731799 40.454 0.0337764 40.3006C-0.0056272 40.1473 -0.0106227 39.9872 0.0191476 39.8317C0.533818 35.0143 2.5276 30.4745 5.72658 26.8359C8.92556 23.1972 13.1728 20.6384 17.8848 19.5108C15.9197 18.3225 14.3977 16.5236 13.5514 14.389C12.705 12.2543 12.5808 9.90128 13.1977 7.68939C13.8146 5.4775 15.1388 3.5284 16.9678 2.13988C18.7969 0.751363 21.0302 -0.000208503 23.3266 4.3389e-08ZM46.8856 27.22C46.7717 26.9683 46.5877 26.7548 46.3556 26.6051C46.1235 26.4554 45.8531 26.3757 45.5769 26.3757C45.3007 26.3757 45.0303 26.4554 44.7982 26.6051C44.5661 26.7548 44.3821 26.9683 44.2682 27.22L42.8205 30.4254L39.3247 30.8116C39.0503 30.8423 38.7906 30.9514 38.5767 31.1258C38.3627 31.3002 38.2035 31.5326 38.1182 31.7951C38.0329 32.0577 38.025 32.3392 38.0955 32.6061C38.166 32.873 38.3119 33.1139 38.5158 33.3L41.1189 35.6692L40.4053 39.1163C40.3502 39.3862 40.3739 39.6662 40.4737 39.9229C40.5734 40.1796 40.745 40.4022 40.9679 40.564C41.1908 40.7258 41.4555 40.8201 41.7305 40.8355C42.0055 40.8508 42.2792 40.7867 42.5187 40.6508L45.5773 38.9066L48.635 40.6508C48.8745 40.7867 49.1481 40.8508 49.4232 40.8355C49.6982 40.8201 49.9629 40.7258 50.1858 40.564C50.4087 40.4022 50.5802 40.1796 50.68 39.9229C50.7798 39.6662 50.8035 39.3862 50.7484 39.1163L50.0348 35.6692L52.6382 33.3C52.842 33.1139 52.9879 32.873 53.0585 32.6061C53.129 32.3392 53.1211 32.0577 53.0358 31.7951C52.9504 31.5326 52.7912 31.3002 52.5773 31.1258C52.3633 30.9514 52.1036 30.8423 51.8293 30.8116L48.3334 30.4254L46.8857 27.22H46.8856ZM45.5769 29.5489L44.2762 32.4288L41.1354 32.7758L43.4737 34.9039L42.8341 37.9942L45.577 36.4301L48.32 37.9942L47.6803 34.9039L50.0188 32.7757L46.8779 32.4287L45.5772 29.5487L45.5769 29.5489ZM45.5769 22.587C43.3029 22.587 41.08 23.2612 39.1892 24.5245C37.2985 25.7878 35.8248 27.5834 34.9546 29.6842C34.0844 31.785 33.8567 34.0967 34.3003 36.3268C34.744 38.557 35.839 40.6056 37.447 42.2134C39.055 43.8213 41.1036 44.9163 43.3339 45.3599C45.5642 45.8035 47.876 45.5758 49.9769 44.7056C52.0778 43.8354 53.8735 42.3618 55.1368 40.4711C56.4001 38.5804 57.0744 36.3576 57.0744 34.0837C57.0743 31.0346 55.863 28.1103 53.7068 25.9543C51.5506 23.7982 48.6262 22.5869 45.5769 22.5868V22.587ZM45.5769 24.7382C43.7284 24.7382 41.9214 25.2863 40.3844 26.3132C38.8474 27.3401 37.6495 28.7997 36.9421 30.5074C36.2347 32.2152 36.0497 34.0943 36.4103 35.9072C36.7709 37.7201 37.6611 39.3853 38.9682 40.6923C40.2753 41.9993 41.9406 42.8894 43.7536 43.25C45.5666 43.6106 47.4458 43.4255 49.1536 42.7181C50.8614 42.0108 52.3211 40.8129 53.3481 39.276C54.375 37.7391 54.9231 35.9321 54.9231 34.0837C54.9231 32.8564 54.6814 31.6411 54.2117 30.5073C53.742 29.3734 53.0536 28.3431 52.1857 27.4753C51.3178 26.6074 50.2875 25.919 49.1536 25.4494C48.0196 24.9797 46.8043 24.738 45.5769 24.738V24.7382ZM31.4623 22.6313C28.8824 21.5666 26.1177 21.0213 23.3266 21.0265C12.8729 21.0265 3.93224 28.6344 2.29765 38.9555H30.3022C30.1653 38.838 30.0186 38.7323 29.8638 38.6395C26.2507 36.472 26.2504 31.696 29.8638 29.5283C30.427 29.2002 30.867 28.6963 31.1161 28.0939C31.3651 27.4915 31.4095 26.824 31.2424 26.194C30.9274 25.0139 31.0046 23.7634 31.4623 22.6311V22.6313ZM33.2349 39.6257C33.2592 39.6855 33.278 39.7473 33.2912 39.8105C33.5384 40.6865 33.5505 41.6122 33.3264 42.4945C32.688 45.0473 34.6136 46.9716 37.1656 46.3334C38.2427 46.0564 39.3807 46.1369 40.408 46.5629C41.4354 46.9889 42.2964 47.7372 42.8614 48.6952C44.1917 50.9124 46.9623 50.9122 48.2925 48.6952C48.8576 47.7373 49.7186 46.989 50.746 46.563C51.7733 46.137 52.9113 46.0564 53.9884 46.3334C56.542 46.9718 58.4658 45.0455 57.8275 42.4945C57.5509 41.4175 57.6317 40.2799 58.0576 39.2528C58.4836 38.2257 59.2317 37.3647 60.1894 36.7996C62.4066 35.4692 62.4066 32.6989 60.1894 31.3688C59.2316 30.8036 58.4834 29.9426 58.0574 28.9154C57.6314 27.8881 57.5507 26.7503 57.8275 25.6732C58.4652 23.1211 56.5412 21.1961 53.9884 21.8343C52.9113 22.1111 51.7734 22.0304 50.7461 21.6045C49.7188 21.1785 48.8577 20.4303 48.2925 19.4726C46.9614 17.2555 44.1916 17.2551 42.8614 19.4726C42.2962 20.4302 41.4351 21.1783 40.4079 21.6042C39.3807 22.0301 38.2429 22.1108 37.1658 21.834C34.6133 21.1961 32.6884 23.1207 33.3267 25.673C33.6035 26.75 33.5228 27.8879 33.0968 28.9151C32.6709 29.9423 31.9226 30.8034 30.9648 31.3685C28.7475 32.6988 28.7475 35.4692 30.9648 36.7993C32.039 37.4356 32.8457 38.44 33.2351 39.6261L33.2349 39.6257ZM52.3528 48.3411C51.8954 48.395 51.4567 48.5544 51.0714 48.8069C50.6861 49.0594 50.3648 49.3979 50.1328 49.7959C47.9654 53.4087 43.189 53.4092 41.0211 49.7959C40.7891 49.3979 40.4678 49.0593 40.0825 48.8069C39.6972 48.5544 39.2585 48.395 38.801 48.3411V60.8853L44.9526 56.659C45.1313 56.5307 45.3452 56.4606 45.5652 56.4582C45.7851 56.4558 46.0005 56.5212 46.182 56.6455L52.3528 60.885V48.3409V48.3411ZM23.3266 2.15119C21.6727 2.15119 20.0559 2.64162 18.6807 3.56045C17.3055 4.47929 16.2336 5.78527 15.6007 7.31324C14.9677 8.84121 14.8021 10.5225 15.1248 12.1446C15.4475 13.7667 16.2439 15.2567 17.4134 16.4262C18.583 17.5956 20.073 18.392 21.6952 18.7147C23.3174 19.0373 24.9988 18.8717 26.5268 18.2388C28.0549 17.6059 29.3609 16.5341 30.2798 15.159C31.1987 13.7839 31.6892 12.1671 31.6892 10.5133C31.6892 9.41514 31.4729 8.32776 31.0526 7.31322C30.6324 6.29868 30.0164 5.37684 29.2399 4.60035C28.4633 3.82385 27.5415 3.20791 26.5269 2.78768C25.5123 2.36745 24.4248 2.15117 23.3266 2.15119Z" fill="#0CC2FE"/>
</svg>
