<svg width="69" height="65" viewBox="0 0 69 65" fill="none" xmlns="http://www.w3.org/2000/svg">
<path d="M36.7236 0.25C39.1506 0.250159 41.5339 1.43624 42.4316 3.88672H45.6709C48.2691 3.88691 50.36 5.30947 51.1748 7.18066C51.5838 8.12017 51.6688 9.17267 51.3223 10.1904C50.9987 11.1404 50.3123 12.0245 49.2363 12.748V19.7246C49.2504 19.7914 49.2516 19.8618 49.2363 19.9326V26.5127C49.2362 29.9663 47.3504 32.9439 44.8369 35.0762C44.5155 35.3488 44.1815 35.6075 43.8398 35.8535C44.1626 36.4092 44.5295 36.8848 44.9893 37.2451C45.5422 37.6782 46.2586 37.9691 47.2578 38.002L47.2656 38.0029C49.9236 38.1281 52.4465 38.6269 54.4678 39.7549C56.507 40.8933 58.0207 42.6657 58.6406 45.2764L59.749 49.9482C60.1218 49.774 60.5362 49.6738 60.9727 49.6738H62.3486C62.344 49.6465 62.3408 49.6185 62.3408 49.5898V34.4219H60.6709C58.7772 34.4217 57.2276 32.8843 57.2275 30.9941V22.1523L57.2324 21.9766C57.325 20.1714 58.8358 18.7248 60.6709 18.7246H65.0107C66.9005 18.7251 68.4541 20.2661 68.4541 22.1523V30.9941C68.454 32.8845 66.9 34.4214 65.0107 34.4219H63.3408V49.5898C63.3408 49.6272 63.3349 49.6632 63.3271 49.6982C65.7233 49.9427 67.6113 51.9703 67.6113 54.4209V58.3867C67.6112 61.0009 65.4627 63.1335 62.8408 63.1338H60.9727C59.3794 63.1338 58.0705 61.835 58.0703 60.2412V59.8877H33.2529V61.7686C33.2529 63.1392 32.1261 64.2555 30.7549 64.2559H20.1094C19.8334 64.2557 19.6094 64.0319 19.6094 63.7559C19.6094 63.4798 19.8334 63.256 20.1094 63.2559H30.7549C31.5792 63.2555 32.2529 62.5816 32.2529 61.7686V59.6953C32.2529 58.8823 31.5791 58.2084 30.7549 58.208H9.46777C8.69176 58.208 8.05431 58.7995 7.97754 59.5439L7.96973 59.6953V61.7686C7.96973 62.5824 8.63989 63.2558 9.46777 63.2559H15.4541C15.7298 63.2563 15.9541 63.48 15.9541 63.7559C15.9541 64.0317 15.7299 64.2554 15.4541 64.2559H9.46777C8.09167 64.2558 6.96973 63.1388 6.96973 61.7686V59.6953L6.98242 59.4414C7.11064 58.1896 8.17758 57.208 9.46777 57.208H12.1797C9.51258 55.6627 7.40359 53.2898 6.18848 50.291H3.18359C1.57205 50.2908 0.250351 48.9813 0.25 47.3721C0.25 45.7635 1.57082 44.4494 3.18359 44.4492H7.24609C7.25697 44.4491 7.26836 44.4482 7.2793 44.4482H14.3027C15.5513 40.7066 18.7794 38.9604 22.6055 38.3018C22.6082 38.3012 22.6115 38.3003 22.6143 38.2998C23.5291 38.1428 24.4785 38.0483 25.4424 38.0029L25.4502 38.002C26.4491 37.969 27.165 37.6781 27.7178 37.2451C28.188 36.8766 28.5615 36.3874 28.8896 35.8154C28.74 35.7065 28.5903 35.5956 28.4434 35.4814C25.7891 33.4192 23.5254 30.4468 23.5254 27.0391V12.7471C22.4494 12.0228 21.7689 11.1375 21.457 10.1846C21.1231 9.16403 21.2266 8.11138 21.6523 7.17383C22.4999 5.30782 24.6195 3.88681 27.2168 3.88672H30.2676C31.6603 1.45239 34.2698 0.250164 36.7236 0.25ZM60.9727 50.6738C59.9269 50.6738 59.0704 51.5294 59.0703 52.5625V60.2412C59.0705 61.2786 59.9276 62.1338 60.9727 62.1338H62.8408C64.9157 62.1335 66.6112 60.4433 66.6113 58.3867V54.4209C66.6113 52.3642 64.9158 50.6741 62.8408 50.6738H60.9727ZM39.2061 47.5488C39.1133 49.0765 37.8306 50.2908 36.2754 50.291H33.2607C32.0648 53.1854 29.9697 55.6154 27.3125 57.208H30.7549C31.8432 57.2083 32.7752 57.9124 33.1143 58.8877H53.1875L51.4697 49.0117V49.0098C51.3205 48.1266 50.7766 47.5493 50.0791 47.5488H39.2061ZM50.5791 46.6035C51.6512 46.843 52.2868 47.8412 52.4561 48.8428L52.4551 48.8438L54.2021 58.8877H58.0703V52.5625C58.0703 51.795 58.3765 51.0965 58.8711 50.5781L57.668 45.5078C57.1176 43.1899 55.7934 41.6404 53.9795 40.6279C52.9836 40.0722 51.8344 39.6774 50.5791 39.4121V46.6035ZM7.2793 45.4492H7.26367C7.00042 45.4517 6.8278 45.5173 6.71094 45.6016C6.58997 45.6889 6.49037 45.8238 6.41895 46.0186C6.26978 46.4256 6.27222 47.025 6.41699 47.6758L6.51953 48.1035C7.63181 52.4557 10.5878 55.6659 14.4648 57.208H25.1006C29.0875 55.5408 32.0826 51.9863 33.043 47.6758C33.1878 47.0246 33.1917 46.4244 33.043 46.0176C32.9719 45.8232 32.8718 45.6889 32.751 45.6016C32.6341 45.5173 32.4609 45.4518 32.1963 45.4492H32.1807C32.1779 45.4492 32.1746 45.4484 32.1719 45.4482H7.28809C7.2854 45.4483 7.28202 45.4491 7.2793 45.4492ZM3.18359 45.4492C2.1199 45.4494 1.25098 46.319 1.25098 47.3721C1.25133 48.4239 2.11911 49.2908 3.18359 49.291H5.82422C5.72452 48.9838 5.63224 48.6712 5.55078 48.3525L5.44141 47.8936C5.27745 47.1568 5.23604 46.3379 5.47949 45.6738C5.50754 45.5974 5.54063 45.5224 5.57715 45.4492H3.18359ZM33.9814 45.6748C34.2242 46.339 34.1823 47.1575 34.0186 47.8936C33.9128 48.3684 33.7824 48.8345 33.6318 49.291H36.2754C37.3441 49.2908 38.2116 48.4233 38.2119 47.3721C38.2119 46.3196 37.3433 45.4495 36.2754 45.4492H33.8838C33.9204 45.5227 33.9534 45.598 33.9814 45.6748ZM44.916 39.6074C44.1129 40.4352 43.0563 41.0681 41.8809 41.5234C40.1555 42.1916 38.1276 42.4988 36.1357 42.4746C34.1439 42.4503 32.1575 42.094 30.5166 41.4121C29.4858 40.9836 28.566 40.4148 27.873 39.6982V44.4482H32.1807C32.1916 44.4483 32.203 44.4491 32.2139 44.4492H36.2754C37.6045 44.4494 38.7329 45.3381 39.0918 46.5488H44.916V39.6074ZM45.916 46.5488H49.5791V39.2295C48.8212 39.1141 48.0306 39.0402 47.2178 39.002C46.7425 38.9858 46.3102 38.9179 45.916 38.8076V46.5488ZM22.21 39.3936C18.9764 40.058 16.4621 41.5779 15.3652 44.4482H22.21V39.3936ZM26.873 38.7842C26.4567 38.9086 25.997 38.9848 25.4883 39.002H25.4893C24.704 39.0389 23.9415 39.108 23.21 39.2158V44.4482H26.873V38.7842ZM29.7158 36.3809C29.3551 36.9976 28.9166 37.5765 28.335 38.0322C28.2335 38.1117 28.1266 38.185 28.0176 38.2559C28.5577 39.1731 29.5638 39.9337 30.9004 40.4893C32.4011 41.1129 34.2567 41.4515 36.1475 41.4746C38.038 41.4976 39.9359 41.2045 41.5205 40.5908C42.9195 40.0489 44.0388 39.2714 44.7207 38.2754C44.6009 38.1989 44.4838 38.119 44.373 38.0322C43.8018 37.5847 43.3672 37.0191 43.0098 36.415C41.0513 37.6509 38.8775 38.4467 36.8906 38.6592L36.3682 38.7021L36.166 38.709C35.1441 38.7213 33.8992 38.4237 32.6172 37.9053C31.6665 37.5208 30.6777 37.0039 29.7158 36.3809ZM10.9111 29.7871C11.1128 29.5993 11.4288 29.6094 11.6172 29.8105C11.8054 30.0121 11.7948 30.329 11.5938 30.5176C10.8386 31.2238 10.6512 31.7483 10.6436 32.1514C10.6354 32.5891 10.829 33.0018 11.1035 33.5361C11.3561 34.0278 11.6951 34.6499 11.7148 35.3555C11.7357 36.1072 11.4031 36.8603 10.5742 37.6631C10.3759 37.855 10.0593 37.8495 9.86719 37.6514C9.67522 37.453 9.68057 37.1364 9.87891 36.9443C10.5739 36.2711 10.7255 35.7725 10.7148 35.3838C10.7027 34.9489 10.4949 34.5383 10.2148 33.9932C9.95671 33.4908 9.63002 32.8603 9.64355 32.1328C9.65784 31.3705 10.0346 30.6069 10.9111 29.7871ZM36.7236 1.25C34.4937 1.25017 32.1606 2.38349 31.0088 4.61621C30.9339 4.76144 30.7927 4.8593 30.6338 4.88184L30.5645 4.88672H27.2168C24.9757 4.88681 23.2335 6.10977 22.5625 7.58691C22.2292 8.32087 22.1591 9.1156 22.4072 9.87402C22.6554 10.6319 23.2374 11.3998 24.2881 12.0498C24.435 12.1409 24.5252 12.3018 24.5254 12.4746V19.1992C25.8467 18.9035 27.167 18.6579 28.4854 18.4619C28.4913 18.461 28.4979 18.4597 28.5039 18.459C28.5064 18.4587 28.5093 18.4582 28.5117 18.458C30.3984 18.1785 32.2827 18.0009 34.1631 17.9248C34.4385 17.9142 34.6713 18.1289 34.6826 18.4043C34.6936 18.6798 34.4786 18.9123 34.2031 18.9238C32.5029 18.9927 30.7986 19.1464 29.0918 19.3848C29.1896 21.6049 28.1857 23.0378 27.0352 23.9199C26.1149 24.6254 25.1091 24.9751 24.5254 25.1328V27.0391C24.5254 29.9977 26.5084 32.7125 29.0566 34.6924C30.3213 35.6749 31.7021 36.4567 32.9922 36.9785C34.2907 37.5036 35.4602 37.7504 36.3125 37.7041V37.7031C38.8207 37.5639 41.8192 36.324 44.1895 34.3135C46.5568 32.3052 48.2362 29.5841 48.2363 26.5127V25.1436C47.699 25.0037 46.7438 24.688 45.8418 24.043C44.6311 23.1769 43.521 21.719 43.625 19.3867C42.0865 19.1736 40.5458 19.0254 39.0039 18.9463C38.7283 18.9321 38.5164 18.6975 38.5303 18.4219C38.5446 18.1463 38.7791 17.9333 39.0547 17.9473C40.7696 18.0353 42.4826 18.2067 44.1924 18.457C44.2003 18.4575 44.2088 18.4571 44.2168 18.458C44.2353 18.4601 44.2537 18.4657 44.2715 18.4697C45.5949 18.6654 46.9168 18.9096 48.2363 19.2012V12.4746C48.2365 12.3017 48.3266 12.1408 48.4736 12.0498C49.5253 11.3991 50.1168 10.6293 50.376 9.86816C50.6351 9.10708 50.5773 8.31198 50.2588 7.58008C49.6179 6.10833 47.9105 4.88691 45.6709 4.88672H42.0713C41.8774 4.88653 41.7034 4.77488 41.6211 4.60449L41.5918 4.52734C40.9616 2.37285 38.9538 1.25016 36.7236 1.25ZM60.6709 19.7246C59.4089 19.7248 58.3659 20.6896 58.2402 21.9053L58.2275 22.1523V30.9941C58.2276 32.3268 59.3241 33.4217 60.6709 33.4219H65.0107C66.3538 33.4214 67.454 32.3262 67.4541 30.9941V22.1523C67.4541 20.8236 66.3535 19.7251 65.0107 19.7246H60.6709ZM16.5654 24.3428C16.767 24.1546 17.0829 24.165 17.2715 24.3662C17.4595 24.5678 17.4493 24.8848 17.248 25.0732C16.493 25.7795 16.3061 26.3041 16.2988 26.707C16.2912 27.1447 16.4857 27.5574 16.7607 28.0918C17.0138 28.5834 17.352 29.2056 17.3721 29.9111C17.3932 30.6629 17.0613 31.416 16.2324 32.2188C16.0342 32.4104 15.7175 32.4048 15.5254 32.207C15.3335 32.0087 15.3389 31.692 15.5371 31.5C16.2323 30.8267 16.3839 30.3281 16.373 29.9395C16.3607 29.5047 16.1516 29.0947 15.8711 28.5498C15.6125 28.0475 15.2859 27.416 15.2988 26.6885C15.3126 25.926 15.6889 25.1625 16.5654 24.3428ZM31.9873 23.335C32.3879 23.335 32.7983 23.3835 33.165 23.4844C33.5231 23.583 33.8871 23.7447 34.1475 24.0049C34.3421 24.2 34.3421 24.5168 34.1475 24.7119C33.9524 24.907 33.6357 24.9067 33.4404 24.7119C33.352 24.6237 33.175 24.5239 32.9004 24.4482C32.6339 24.3749 32.3139 24.335 31.9873 24.335C31.6608 24.335 31.3428 24.3751 31.0781 24.4482C30.8047 24.5238 30.6318 24.6229 30.5469 24.709C30.3533 24.9058 30.0367 24.9082 29.8398 24.7148C29.6433 24.5212 29.6405 24.2046 29.834 24.0078C30.0922 23.7455 30.4547 23.583 30.8115 23.4844C31.1772 23.3833 31.5868 23.335 31.9873 23.335ZM40.2656 23.335C40.6662 23.335 41.0766 23.3835 41.4434 23.4844C41.8015 23.583 42.1654 23.7446 42.4258 24.0049C42.6203 24.1999 42.6201 24.5167 42.4258 24.7119C42.2307 24.907 41.9141 24.9067 41.7188 24.7119C41.6304 24.6237 41.4535 24.524 41.1787 24.4482C40.9122 24.3749 40.5922 24.335 40.2656 24.335C39.9392 24.335 39.6211 24.3752 39.3564 24.4482C39.0833 24.5238 38.9102 24.6229 38.8252 24.709C38.6316 24.9057 38.315 24.9082 38.1182 24.7148C37.9214 24.5212 37.9187 24.2046 38.1123 24.0078C38.3706 23.7456 38.7331 23.583 39.0898 23.4844C39.4555 23.3834 39.8652 23.335 40.2656 23.335ZM44.624 19.5361C44.5743 21.4135 45.458 22.5385 46.4238 23.2295C47.0732 23.6938 47.7625 23.9609 48.2363 24.1055V20.2256C47.0337 19.955 45.8292 19.7257 44.624 19.5361ZM28.0947 19.5342C26.9067 19.7231 25.7166 19.953 24.5254 20.2246V24.0898C25.0358 23.9292 25.7628 23.6358 26.4268 23.127C27.3381 22.4283 28.1409 21.3225 28.0947 19.5342ZM29.291 8.85059C29.5668 8.85098 29.791 9.07475 29.791 9.35059V14.0107C29.791 14.2866 29.5668 14.5103 29.291 14.5107C29.0149 14.5107 28.791 14.2869 28.791 14.0107V9.35059C28.7911 9.0745 29.0149 8.85059 29.291 8.85059ZM43.1699 8.85059C43.4458 8.85086 43.6699 9.07467 43.6699 9.35059V14.0107C43.6699 14.2867 43.4458 14.5105 43.1699 14.5107C42.8938 14.5107 42.6699 14.2869 42.6699 14.0107V9.35059C42.67 9.0745 42.8938 8.85059 43.1699 8.85059ZM36.2305 6.74219C36.5062 6.74258 36.7303 6.9664 36.7305 7.24219V11.9062C36.7305 12.1821 36.5063 12.4059 36.2305 12.4062C35.9543 12.4062 35.7305 12.1824 35.7305 11.9062V7.24219C35.7306 6.96616 35.9544 6.74219 36.2305 6.74219Z" fill="#0CC2FE"/>
<path d="M36.7236 0.25L36.7236 0H36.7236L36.7236 0.25ZM42.4316 3.88672L42.1969 3.97272C42.233 4.07122 42.3267 4.13672 42.4316 4.13672V3.88672ZM45.6709 3.88672L45.6709 3.63672H45.6709V3.88672ZM51.1748 7.18066L51.404 7.08088L51.404 7.08085L51.1748 7.18066ZM51.3223 10.1904L51.5589 10.271L51.5589 10.271L51.3223 10.1904ZM49.2363 12.748L49.0968 12.5406C49.0278 12.587 48.9863 12.6648 48.9863 12.748H49.2363ZM49.2363 19.7246H48.9863C48.9863 19.742 48.9881 19.7593 48.9917 19.7763L49.2363 19.7246ZM49.2363 19.9326L48.9919 19.88C48.9882 19.8973 48.9863 19.9149 48.9863 19.9326H49.2363ZM49.2363 26.5127L49.4863 26.5127V26.5127H49.2363ZM44.8369 35.0762L44.9986 35.2668L44.9986 35.2668L44.8369 35.0762ZM43.8398 35.8535L43.6938 35.6506C43.5894 35.7258 43.5591 35.8679 43.6237 35.9791L43.8398 35.8535ZM44.9893 37.2451L44.835 37.4419L44.8351 37.4419L44.9893 37.2451ZM47.2578 38.002L47.2888 37.7539C47.2813 37.7529 47.2736 37.7523 47.266 37.7521L47.2578 38.002ZM47.2656 38.0029L47.2346 38.251C47.241 38.2518 47.2474 38.2523 47.2539 38.2527L47.2656 38.0029ZM54.4678 39.7549L54.5896 39.5366L54.5896 39.5366L54.4678 39.7549ZM58.6406 45.2764L58.8839 45.2187L58.8839 45.2186L58.6406 45.2764ZM59.749 49.9482L59.5058 50.006C59.5231 50.0791 59.5725 50.1406 59.6402 50.1733C59.7079 50.2061 59.7868 50.2066 59.8549 50.1747L59.749 49.9482ZM60.9727 49.6738V49.4238H60.9727L60.9727 49.6738ZM62.3486 49.6738V49.9238C62.4223 49.9238 62.4921 49.8914 62.5396 49.8351C62.5871 49.7789 62.6074 49.7045 62.5951 49.632L62.3486 49.6738ZM62.3408 49.5898H62.0908V49.5899L62.3408 49.5898ZM62.3408 34.4219H62.5908C62.5908 34.2838 62.4789 34.1719 62.3408 34.1719V34.4219ZM60.6709 34.4219L60.6709 34.6719H60.6709V34.4219ZM57.2275 30.9941H56.9775V30.9942L57.2275 30.9941ZM57.2275 22.1523L56.9775 22.1454V22.1523H57.2275ZM57.2324 21.9766L56.9827 21.9638L56.9825 21.9696L57.2324 21.9766ZM60.6709 18.7246V18.4746H60.6709L60.6709 18.7246ZM65.0107 18.7246L65.0108 18.4746H65.0107V18.7246ZM68.4541 30.9941L68.7041 30.9942V30.9941H68.4541ZM65.0107 34.4219V34.6719H65.0108L65.0107 34.4219ZM63.3408 34.4219V34.1719C63.2027 34.1719 63.0908 34.2838 63.0908 34.4219H63.3408ZM63.3408 49.5898L63.5908 49.5899V49.5898H63.3408ZM63.3271 49.6982L63.0831 49.6441C63.0676 49.7137 63.0827 49.7867 63.1245 49.8446C63.1662 49.9025 63.2308 49.9397 63.3018 49.947L63.3271 49.6982ZM67.6113 58.3867L67.8613 58.3867V58.3867H67.6113ZM62.8408 63.1338V63.3838H62.8409L62.8408 63.1338ZM60.9727 63.1338L60.9727 63.3838H60.9727V63.1338ZM58.0703 60.2412H57.8203V60.2412L58.0703 60.2412ZM58.0703 59.8877H58.3203C58.3203 59.7496 58.2084 59.6377 58.0703 59.6377V59.8877ZM33.2529 59.8877V59.6377C33.1149 59.6377 33.0029 59.7496 33.0029 59.8877H33.2529ZM30.7549 64.2559V64.5059H30.755L30.7549 64.2559ZM20.1094 64.2559L20.1092 64.5059H20.1094V64.2559ZM19.6094 63.7559L19.3594 63.7558V63.7559H19.6094ZM20.1094 63.2559V63.0059H20.1092L20.1094 63.2559ZM30.7549 63.2559V63.5059H30.755L30.7549 63.2559ZM32.2529 59.6953H32.5029V59.6953L32.2529 59.6953ZM30.7549 58.208L30.755 57.958H30.7549V58.208ZM9.46777 58.208V57.958H9.46776L9.46777 58.208ZM7.97754 59.5439L7.72853 59.5183L7.72787 59.5311L7.97754 59.5439ZM7.96973 59.6953L7.71973 59.6824V59.6953H7.96973ZM9.46777 63.2559L9.46777 63.5059H9.46777V63.2559ZM15.4541 63.2559L15.4545 63.0059H15.4541V63.2559ZM15.9541 63.7559H16.2041V63.7558L15.9541 63.7559ZM15.4541 64.2559V64.5059H15.4545L15.4541 64.2559ZM9.46777 64.2559L9.46777 64.5059H9.46777V64.2559ZM6.96973 59.6953L6.71973 59.6828V59.6953H6.96973ZM6.98242 59.4414L6.73339 59.4159L6.73273 59.4289L6.98242 59.4414ZM9.46777 57.208V56.958H9.46777L9.46777 57.208ZM12.1797 57.208V57.458C12.2928 57.458 12.3918 57.3821 12.4211 57.2729C12.4505 57.1637 12.4029 57.0484 12.305 56.9917L12.1797 57.208ZM6.18848 50.291L6.42018 50.1971C6.38194 50.1028 6.29029 50.041 6.18848 50.041V50.291ZM3.18359 50.291L3.18357 50.541H3.18359V50.291ZM0.25 47.3721H0V47.3721L0.25 47.3721ZM3.18359 44.4492V44.1992H3.18357L3.18359 44.4492ZM7.24609 44.4492V44.6992L7.24975 44.6992L7.24609 44.4492ZM14.3027 44.4482V44.6982C14.4103 44.6982 14.5058 44.6294 14.5399 44.5274L14.3027 44.4482ZM22.6055 38.3018L22.6479 38.5484L22.6587 38.546L22.6055 38.3018ZM22.6143 38.2998L22.572 38.0534L22.5667 38.0544L22.6143 38.2998ZM25.4424 38.0029L25.4541 38.2527C25.4606 38.2523 25.467 38.2518 25.4734 38.251L25.4424 38.0029ZM25.4502 38.002L25.442 37.7521C25.4343 37.7523 25.4267 37.7529 25.4192 37.7539L25.4502 38.002ZM27.7178 37.2451L27.8719 37.4419L27.872 37.4419L27.7178 37.2451ZM28.8896 35.8154L29.1065 35.9398C29.17 35.8292 29.14 35.6885 29.0368 35.6133L28.8896 35.8154ZM28.4434 35.4814L28.29 35.6789L28.29 35.6789L28.4434 35.4814ZM23.5254 12.7471H23.7754C23.7754 12.6639 23.734 12.5861 23.665 12.5397L23.5254 12.7471ZM21.457 10.1846L21.2194 10.2623L21.2194 10.2623L21.457 10.1846ZM21.6523 7.17383L21.4247 7.07044L21.4247 7.07046L21.6523 7.17383ZM27.2168 3.88672V3.63672H27.2168L27.2168 3.88672ZM30.2676 3.88672V4.13672C30.3572 4.13672 30.44 4.0887 30.4846 4.01086L30.2676 3.88672ZM60.9727 50.6738V50.4238H60.9727L60.9727 50.6738ZM59.0703 52.5625L58.8203 52.5625V52.5625H59.0703ZM59.0703 60.2412H58.8203V60.2413L59.0703 60.2412ZM60.9727 62.1338L60.9727 62.3838H60.9727V62.1338ZM62.8408 62.1338V62.3838H62.8409L62.8408 62.1338ZM66.6113 58.3867L66.8613 58.3867V58.3867H66.6113ZM62.8408 50.6738L62.8409 50.4238H62.8408V50.6738ZM39.2061 47.5488V47.2988C39.0739 47.2988 38.9645 47.4017 38.9565 47.5337L39.2061 47.5488ZM36.2754 50.291V50.541H36.2754L36.2754 50.291ZM33.2607 50.291V50.041C33.1595 50.041 33.0683 50.102 33.0297 50.1955L33.2607 50.291ZM27.3125 57.208L27.184 56.9936C27.0876 57.0514 27.0416 57.1664 27.0716 57.2747C27.1015 57.383 27.2001 57.458 27.3125 57.458V57.208ZM30.7549 57.208L30.755 56.958H30.7549V57.208ZM33.1143 58.8877L32.8781 58.9698C32.9131 59.0703 33.0078 59.1377 33.1143 59.1377V58.8877ZM53.1875 58.8877V59.1377C53.2613 59.1377 53.3313 59.1051 53.3788 59.0486C53.4263 58.9921 53.4464 58.9176 53.4338 58.8449L53.1875 58.8877ZM51.4697 49.0117H51.2197C51.2197 49.0261 51.221 49.0404 51.2234 49.0546L51.4697 49.0117ZM51.4697 49.0098H51.7197C51.7197 48.9958 51.7186 48.9819 51.7162 48.9681L51.4697 49.0098ZM50.0791 47.5488L50.0793 47.2988H50.0791V47.5488ZM50.5791 46.6035H50.3291C50.3291 46.7206 50.4103 46.822 50.5246 46.8475L50.5791 46.6035ZM52.4561 48.8428L52.6328 49.0196C52.6901 48.9623 52.716 48.8809 52.7026 48.8011L52.4561 48.8428ZM52.4551 48.8438L52.2783 48.667C52.2208 48.7245 52.1948 48.8064 52.2088 48.8866L52.4551 48.8438ZM54.2021 58.8877L53.9558 58.9305C53.9767 59.0503 54.0806 59.1377 54.2021 59.1377V58.8877ZM58.0703 58.8877V59.1377C58.2084 59.1377 58.3203 59.0258 58.3203 58.8877H58.0703ZM58.0703 52.5625L57.8203 52.5625V52.5625H58.0703ZM58.8711 50.5781L59.052 50.7507C59.1104 50.6895 59.1339 50.6028 59.1143 50.5204L58.8711 50.5781ZM57.668 45.5078L57.9112 45.4501L57.9112 45.4501L57.668 45.5078ZM53.9795 40.6279L54.1013 40.4096L54.1013 40.4096L53.9795 40.6279ZM50.5791 39.4121L50.6308 39.1675C50.557 39.1519 50.4802 39.1704 50.4217 39.2179C50.3631 39.2654 50.3291 39.3367 50.3291 39.4121H50.5791ZM7.2793 45.4492V45.6994L7.28816 45.6991L7.2793 45.4492ZM7.26367 45.4492V45.1992L7.26128 45.1992L7.26367 45.4492ZM6.71094 45.6016L6.56475 45.3988L6.56455 45.3989L6.71094 45.6016ZM6.41895 46.0186L6.18423 45.9325L6.18421 45.9325L6.41895 46.0186ZM6.41699 47.6758L6.17293 47.7301L6.17388 47.7341L6.41699 47.6758ZM6.51953 48.1035L6.27639 48.1618L6.27732 48.1654L6.51953 48.1035ZM14.4648 57.208L14.3724 57.4403C14.4018 57.452 14.4332 57.458 14.4648 57.458V57.208ZM25.1006 57.208V57.458C25.1337 57.458 25.1665 57.4514 25.197 57.4387L25.1006 57.208ZM33.043 47.6758L33.287 47.7301L33.287 47.7301L33.043 47.6758ZM33.043 46.0176L33.2778 45.9317L33.2777 45.9317L33.043 46.0176ZM32.751 45.6016L32.8974 45.3989L32.8972 45.3988L32.751 45.6016ZM32.1963 45.4492L32.1987 45.1992H32.1963V45.4492ZM32.1719 45.4482L32.1842 45.1982H32.1719V45.4482ZM7.28809 45.4482V45.1982L7.28373 45.1983L7.28809 45.4482ZM3.18359 45.4492V45.1992H3.18355L3.18359 45.4492ZM1.25098 47.3721H1.00098V47.3722L1.25098 47.3721ZM3.18359 49.291L3.18355 49.541H3.18359V49.291ZM5.82422 49.291V49.541C5.90423 49.541 5.97941 49.5027 6.02645 49.438C6.07349 49.3733 6.08671 49.29 6.06201 49.2138L5.82422 49.291ZM5.55078 48.3525L5.30756 48.4105L5.30857 48.4145L5.55078 48.3525ZM5.44141 47.8936L5.19735 47.9479L5.19822 47.9515L5.44141 47.8936ZM5.47949 45.6738L5.24479 45.5877L5.24477 45.5878L5.47949 45.6738ZM5.57715 45.4492L5.80084 45.5609C5.83951 45.4834 5.83533 45.3914 5.78976 45.3177C5.7442 45.244 5.66376 45.1992 5.57715 45.1992V45.4492ZM33.9814 45.6748L34.2163 45.589L34.2162 45.5889L33.9814 45.6748ZM34.0186 47.8936L34.2626 47.9479L34.2626 47.9479L34.0186 47.8936ZM33.6318 49.291L33.3944 49.2127C33.3693 49.2889 33.3822 49.3725 33.4293 49.4375C33.4763 49.5025 33.5516 49.541 33.6318 49.541V49.291ZM36.2754 49.291V49.541H36.2755L36.2754 49.291ZM38.2119 47.3721L38.4619 47.3722V47.3721H38.2119ZM36.2754 45.4492L36.2755 45.1992H36.2754V45.4492ZM33.8838 45.4492V45.1992C33.7972 45.1992 33.7168 45.244 33.6712 45.3176C33.6257 45.3912 33.6214 45.4832 33.66 45.5607L33.8838 45.4492ZM44.916 39.6074H45.166C45.166 39.5056 45.1043 39.414 45.0099 39.3757C44.9156 39.3375 44.8075 39.3603 44.7366 39.4333L44.916 39.6074ZM41.8809 41.5234L41.9711 41.7566L41.9712 41.7566L41.8809 41.5234ZM36.1357 42.4746L36.1327 42.7246H36.1327L36.1357 42.4746ZM30.5166 41.4121L30.4206 41.643L30.4207 41.643L30.5166 41.4121ZM27.873 39.6982L28.0528 39.5245C27.9819 39.4512 27.8738 39.4283 27.7793 39.4665C27.6849 39.5047 27.623 39.5964 27.623 39.6982H27.873ZM27.873 44.4482H27.623C27.623 44.5863 27.735 44.6982 27.873 44.6982V44.4482ZM32.1807 44.4482L32.1812 44.1982H32.1807V44.4482ZM32.2139 44.4492L32.2107 44.6992H32.2139V44.4492ZM36.2754 44.4492L36.2754 44.1992H36.2754V44.4492ZM39.0918 46.5488L38.8521 46.6199C38.8836 46.726 38.9811 46.7988 39.0918 46.7988V46.5488ZM44.916 46.5488V46.7988C45.0541 46.7988 45.166 46.6869 45.166 46.5488H44.916ZM45.916 46.5488H45.666C45.666 46.6869 45.7779 46.7988 45.916 46.7988V46.5488ZM49.5791 46.5488V46.7988C49.7172 46.7988 49.8291 46.6869 49.8291 46.5488H49.5791ZM49.5791 39.2295H49.8291C49.8291 39.106 49.7389 39.0009 49.6167 38.9823L49.5791 39.2295ZM47.2178 39.002L47.2295 38.7522L47.2263 38.7521L47.2178 39.002ZM45.916 38.8076L45.9834 38.5669C45.908 38.5458 45.8272 38.5612 45.7649 38.6085C45.7026 38.6557 45.666 38.7294 45.666 38.8076H45.916ZM22.21 39.3936H22.46C22.46 39.3184 22.4262 39.2473 22.3679 39.1998C22.3097 39.1523 22.2332 39.1335 22.1596 39.1487L22.21 39.3936ZM15.3652 44.4482L15.1317 44.359C15.1023 44.4359 15.1127 44.5222 15.1593 44.59C15.206 44.6578 15.283 44.6982 15.3652 44.6982V44.4482ZM22.21 44.4482V44.6982C22.348 44.6982 22.46 44.5863 22.46 44.4482H22.21ZM26.873 38.7842H27.123C27.123 38.7052 27.0857 38.6309 27.0224 38.5837C26.959 38.5365 26.8771 38.522 26.8015 38.5447L26.873 38.7842ZM25.4883 39.002L25.4799 38.7521C25.3435 38.7567 25.236 38.8698 25.2383 39.0062C25.2406 39.1426 25.3519 39.252 25.4883 39.252V39.002ZM25.4893 39.002L25.501 39.2517C25.6366 39.2453 25.7424 39.1318 25.7392 38.9961C25.736 38.8603 25.625 38.752 25.4893 38.752V39.002ZM23.21 39.2158L23.1735 38.9685C23.0508 38.9866 22.96 39.0918 22.96 39.2158H23.21ZM23.21 44.4482H22.96C22.96 44.5863 23.0719 44.6982 23.21 44.6982V44.4482ZM26.873 44.4482V44.6982C27.0111 44.6982 27.123 44.5863 27.123 44.4482H26.873ZM29.7158 36.3809L29.8517 36.171C29.7944 36.1339 29.7244 36.1218 29.658 36.1376C29.5916 36.1534 29.5345 36.1957 29.5 36.2546L29.7158 36.3809ZM28.335 38.0322L28.4891 38.229L28.4892 38.229L28.335 38.0322ZM28.0176 38.2559L27.8813 38.0463C27.7692 38.1192 27.7343 38.2674 27.8022 38.3827L28.0176 38.2559ZM30.9004 40.4893L30.8044 40.7201L30.8045 40.7201L30.9004 40.4893ZM36.1475 41.4746L36.1444 41.7246H36.1444L36.1475 41.4746ZM41.5205 40.5908L41.6108 40.8239L41.6108 40.8239L41.5205 40.5908ZM44.7207 38.2754L44.927 38.4166C44.9652 38.3608 44.9792 38.2918 44.9657 38.2255C44.9521 38.1591 44.9123 38.1011 44.8552 38.0647L44.7207 38.2754ZM44.373 38.0322L44.2189 38.229L44.2189 38.229L44.373 38.0322ZM43.0098 36.415L43.2249 36.2877C43.1905 36.2296 43.1341 36.1879 43.0684 36.172C43.0027 36.1562 42.9335 36.1676 42.8764 36.2036L43.0098 36.415ZM36.8906 38.6592L36.9111 38.9084L36.9172 38.9078L36.8906 38.6592ZM36.3682 38.7021L36.3766 38.9523L36.3887 38.9513L36.3682 38.7021ZM36.166 38.709L36.169 38.959L36.1745 38.9588L36.166 38.709ZM32.6172 37.9053L32.5234 38.137L32.5235 38.137L32.6172 37.9053ZM10.9111 29.7871L10.7408 29.6042L10.7404 29.6045L10.9111 29.7871ZM11.6172 29.8105L11.7999 29.6399L11.7997 29.6397L11.6172 29.8105ZM11.5938 30.5176L11.7645 30.7002L11.7648 30.6999L11.5938 30.5176ZM10.6436 32.1514L10.3936 32.1467L10.3936 32.1467L10.6436 32.1514ZM11.1035 33.5361L10.8811 33.6504L10.8812 33.6504L11.1035 33.5361ZM11.7148 35.3555L11.9647 35.3485L11.9647 35.3485L11.7148 35.3555ZM10.5742 37.6631L10.7481 37.8427L10.7481 37.8427L10.5742 37.6631ZM9.86719 37.6514L9.68753 37.8252L9.6877 37.8254L9.86719 37.6514ZM9.87891 36.9443L10.0528 37.1239L10.0528 37.1239L9.87891 36.9443ZM10.7148 35.3838L10.9647 35.3769L10.9647 35.3768L10.7148 35.3838ZM10.2148 33.9932L10.4372 33.8789V33.8789L10.2148 33.9932ZM9.64355 32.1328L9.3936 32.1281L9.3936 32.1282L9.64355 32.1328ZM36.7236 1.25L36.7237 1H36.7236L36.7236 1.25ZM31.0088 4.61621L30.7866 4.5016L30.7866 4.50162L31.0088 4.61621ZM30.6338 4.88184L30.6514 5.13122C30.6572 5.13081 30.6631 5.13019 30.6689 5.12936L30.6338 4.88184ZM30.5645 4.88672V5.13672C30.5703 5.13672 30.5762 5.13651 30.582 5.1361L30.5645 4.88672ZM27.2168 4.88672V4.63672H27.2168L27.2168 4.88672ZM22.5625 7.58691L22.3349 7.48352L22.3349 7.48353L22.5625 7.58691ZM22.4072 9.87402L22.1696 9.95177L22.1696 9.95182L22.4072 9.87402ZM24.2881 12.0498L24.4198 11.8373L24.4196 11.8372L24.2881 12.0498ZM24.5254 12.4746H24.7754V12.4743L24.5254 12.4746ZM24.5254 19.1992H24.2754C24.2754 19.2751 24.3099 19.3469 24.3691 19.3943C24.4283 19.4418 24.5059 19.4598 24.58 19.4432L24.5254 19.1992ZM28.4854 18.4619L28.5221 18.7092L28.5229 18.7091L28.4854 18.4619ZM28.5039 18.459L28.5315 18.7075L28.5329 18.7073L28.5039 18.459ZM28.5117 18.458L28.5354 18.7072L28.5484 18.7053L28.5117 18.458ZM34.1631 17.9248L34.1535 17.675L34.153 17.675L34.1631 17.9248ZM34.6826 18.4043L34.9324 18.3943L34.9324 18.3941L34.6826 18.4043ZM34.2031 18.9238L34.2132 19.1736L34.2136 19.1736L34.2031 18.9238ZM29.0918 19.3848L29.0572 19.1372C28.9295 19.155 28.8364 19.267 28.842 19.3958L29.0918 19.3848ZM27.0352 23.9199L27.1873 24.1183L27.1873 24.1183L27.0352 23.9199ZM24.5254 25.1328L24.4602 24.8915C24.3511 24.9209 24.2754 25.0199 24.2754 25.1328H24.5254ZM29.0566 34.6924L28.9033 34.8898L28.9033 34.8898L29.0566 34.6924ZM32.9922 36.9785L32.8984 37.2103L32.8985 37.2103L32.9922 36.9785ZM36.3125 37.7041L36.326 37.9537C36.4587 37.9465 36.5625 37.8369 36.5625 37.7041H36.3125ZM36.3125 37.7031L36.2986 37.4535C36.1662 37.4609 36.0625 37.5704 36.0625 37.7031H36.3125ZM44.1895 34.3135L44.3512 34.5041L44.3512 34.5041L44.1895 34.3135ZM48.2363 26.5127L48.4863 26.5127V26.5127H48.2363ZM48.2363 25.1436H48.4863C48.4863 25.0297 48.4094 24.9303 48.2993 24.9016L48.2363 25.1436ZM45.8418 24.043L45.6963 24.2463L45.6964 24.2463L45.8418 24.043ZM43.625 19.3867L43.8748 19.3979C43.8805 19.2689 43.7871 19.1568 43.6593 19.1391L43.625 19.3867ZM39.0039 18.9463L39.0167 18.6966H39.0167L39.0039 18.9463ZM38.5303 18.4219L38.2806 18.4089L38.2806 18.4093L38.5303 18.4219ZM39.0547 17.9473L39.0675 17.6976L39.0674 17.6976L39.0547 17.9473ZM44.1924 18.457L44.1562 18.7044C44.1634 18.7055 44.1706 18.7062 44.1779 18.7066L44.1924 18.457ZM44.2168 18.458L44.2455 18.2097L44.2444 18.2095L44.2168 18.458ZM44.2715 18.4697L44.2164 18.7136C44.2225 18.715 44.2287 18.7161 44.2349 18.717L44.2715 18.4697ZM48.2363 19.2012L48.1824 19.4453C48.2564 19.4616 48.3338 19.4435 48.3929 19.3961C48.452 19.3486 48.4863 19.2769 48.4863 19.2012H48.2363ZM48.2363 12.4746L47.9863 12.4743V12.4746H48.2363ZM48.4736 12.0498L48.3421 11.8372L48.342 11.8372L48.4736 12.0498ZM50.376 9.86816L50.6126 9.94876L50.6126 9.94874L50.376 9.86816ZM50.2588 7.58008L50.488 7.48032L50.488 7.48027L50.2588 7.58008ZM45.6709 4.88672L45.6709 4.63672H45.6709V4.88672ZM42.0713 4.88672L42.071 5.13672H42.0713V4.88672ZM41.6211 4.60449L41.3874 4.69324C41.3899 4.70001 41.3928 4.70666 41.396 4.71318L41.6211 4.60449ZM41.5918 4.52734L41.3519 4.59753C41.3537 4.6038 41.3558 4.60999 41.3581 4.6161L41.5918 4.52734ZM60.6709 19.7246V19.4746H60.6709L60.6709 19.7246ZM58.2402 21.9053L57.9912 21.8795L57.9906 21.8924L58.2402 21.9053ZM58.2275 22.1523L57.9775 22.1395V22.1523H58.2275ZM58.2275 30.9941H57.9775V30.9942L58.2275 30.9941ZM60.6709 33.4219L60.6709 33.6719H60.6709V33.4219ZM65.0107 33.4219V33.6719H65.0108L65.0107 33.4219ZM67.4541 30.9941L67.7041 30.9942V30.9941H67.4541ZM65.0107 19.7246L65.0108 19.4746H65.0107V19.7246ZM16.5654 24.3428L16.3948 24.16L16.3947 24.1602L16.5654 24.3428ZM17.2715 24.3662L17.4543 24.1957L17.4539 24.1953L17.2715 24.3662ZM17.248 25.0732L17.4188 25.2558L17.4189 25.2557L17.248 25.0732ZM16.2988 26.707L16.0489 26.7025L16.0489 26.7026L16.2988 26.707ZM16.7607 28.0918L16.5385 28.2062L16.5385 28.2062L16.7607 28.0918ZM17.3721 29.9111L17.622 29.9041L17.622 29.904L17.3721 29.9111ZM16.2324 32.2188L16.4062 32.3985L16.4063 32.3983L16.2324 32.2188ZM15.5254 32.207L15.3457 32.3808L15.3461 32.3812L15.5254 32.207ZM15.5371 31.5L15.3632 31.3204L15.3632 31.3204L15.5371 31.5ZM16.373 29.9395L16.6229 29.9325L16.6229 29.9324L16.373 29.9395ZM15.8711 28.5498L16.0934 28.4354V28.4354L15.8711 28.5498ZM15.2988 26.6885L15.0489 26.6839L15.0489 26.684L15.2988 26.6885ZM31.9873 23.335L31.9873 23.085H31.9873L31.9873 23.335ZM33.165 23.4844L33.2314 23.2433L33.2313 23.2433L33.165 23.4844ZM34.1475 24.0049L34.3245 23.8283L34.3242 23.828L34.1475 24.0049ZM34.1475 24.7119L34.3242 24.8887L34.3245 24.8884L34.1475 24.7119ZM33.4404 24.7119L33.2639 24.8889L33.2639 24.8889L33.4404 24.7119ZM32.9004 24.4482L32.9668 24.2072L32.9667 24.2072L32.9004 24.4482ZM31.9873 24.335L31.9873 24.085H31.9873L31.9873 24.335ZM31.0781 24.4482L31.0116 24.2073L31.0115 24.2073L31.0781 24.4482ZM30.5469 24.709L30.3689 24.5335L30.3686 24.5337L30.5469 24.709ZM29.8398 24.7148L29.6644 24.8929L29.6647 24.8932L29.8398 24.7148ZM29.834 24.0078L29.6558 23.8324L29.6558 23.8325L29.834 24.0078ZM30.8115 23.4844L30.7449 23.2434L30.7449 23.2434L30.8115 23.4844ZM40.2656 23.335L40.2657 23.085H40.2656L40.2656 23.335ZM41.4434 23.4844L41.5097 23.2433L41.5097 23.2433L41.4434 23.4844ZM42.4258 24.0049L42.6028 23.8283L42.6025 23.8281L42.4258 24.0049ZM42.4258 24.7119L42.6026 24.8887L42.6029 24.8883L42.4258 24.7119ZM41.7188 24.7119L41.542 24.8887L41.5422 24.8889L41.7188 24.7119ZM41.1787 24.4482L41.2451 24.2072L41.245 24.2072L41.1787 24.4482ZM40.2656 24.335L40.2657 24.085H40.2656L40.2656 24.335ZM39.3564 24.4482L39.2899 24.2073L39.2898 24.2073L39.3564 24.4482ZM38.8252 24.709L38.6474 24.5333L38.647 24.5337L38.8252 24.709ZM38.1182 24.7148L37.9428 24.893L37.943 24.8932L38.1182 24.7148ZM38.1123 24.0078L37.9342 23.8324L37.9341 23.8325L38.1123 24.0078ZM39.0898 23.4844L39.0233 23.2434L39.0232 23.2434L39.0898 23.4844ZM44.624 19.5361L44.6629 19.2892C44.5918 19.278 44.5194 19.298 44.4641 19.344C44.4088 19.39 44.376 19.4576 44.3741 19.5295L44.624 19.5361ZM46.4238 23.2295L46.2784 23.4328L46.2784 23.4329L46.4238 23.2295ZM48.2363 24.1055L48.1634 24.3446C48.2392 24.3677 48.3214 24.3535 48.3851 24.3064C48.4488 24.2592 48.4863 24.1847 48.4863 24.1055H48.2363ZM48.2363 20.2256H48.4863C48.4863 20.1087 48.4053 20.0074 48.2912 19.9817L48.2363 20.2256ZM28.0947 19.5342L28.3446 19.5277C28.3428 19.4557 28.31 19.388 28.2546 19.342C28.1992 19.2959 28.1266 19.276 28.0555 19.2873L28.0947 19.5342ZM24.5254 20.2246L24.4698 19.9809C24.3561 20.0068 24.2754 20.108 24.2754 20.2246H24.5254ZM24.5254 24.0898H24.2754C24.2754 24.1695 24.3133 24.2443 24.3775 24.2914C24.4417 24.3385 24.5245 24.3522 24.6004 24.3283L24.5254 24.0898ZM26.4268 23.127L26.5788 23.3254L26.5789 23.3254L26.4268 23.127ZM29.291 8.85059L29.2914 8.60059H29.291V8.85059ZM29.791 9.35059H30.041V9.35053L29.791 9.35059ZM29.791 14.0107L30.041 14.0108V14.0107H29.791ZM29.291 14.5107V14.7607H29.2914L29.291 14.5107ZM28.791 14.0107H28.541V14.0108L28.791 14.0107ZM28.791 9.35059L28.541 9.35053V9.35059H28.791ZM43.1699 8.85059L43.1702 8.60059H43.1699V8.85059ZM43.6699 9.35059H43.9199V9.35053L43.6699 9.35059ZM43.6699 14.0107L43.9199 14.0108V14.0107H43.6699ZM43.1699 14.5107V14.7607H43.1702L43.1699 14.5107ZM42.6699 14.0107H42.4199V14.0108L42.6699 14.0107ZM42.6699 9.35059L42.4199 9.35053V9.35059H42.6699ZM36.2305 6.74219L36.2308 6.49219H36.2305V6.74219ZM36.7305 7.24219H36.9805V7.24207L36.7305 7.24219ZM36.2305 12.4062V12.6562H36.2308L36.2305 12.4062ZM35.7305 7.24219L35.4805 7.24207V7.24219H35.7305ZM36.7236 0.25L36.7236 0.5C39.0766 0.500154 41.3448 1.6469 42.1969 3.97272L42.4316 3.88672L42.6664 3.80072C41.723 1.22557 39.2246 0.000163913 36.7236 0L36.7236 0.25ZM42.4316 3.88672V4.13672H45.6709V3.88672V3.63672H42.4316V3.88672ZM45.6709 3.88672L45.6709 4.13672C48.1795 4.13691 50.1743 5.50921 50.9456 7.28048L51.1748 7.18066L51.404 7.08085C50.5457 5.10972 48.3587 3.63692 45.6709 3.63672L45.6709 3.88672ZM51.1748 7.18066L50.9456 7.28045C51.332 8.1682 51.4103 9.15633 51.0856 10.1099L51.3223 10.1904L51.5589 10.271C51.9273 9.18901 51.8355 8.07215 51.404 7.08088L51.1748 7.18066ZM51.3223 10.1904L51.0856 10.1098C50.7824 11.0002 50.1348 11.8425 49.0968 12.5406L49.2363 12.748L49.3758 12.9555C50.4897 12.2064 51.2151 11.2807 51.5589 10.271L51.3223 10.1904ZM49.2363 12.748H48.9863V19.7246H49.2363H49.4863V12.748H49.2363ZM49.2363 19.7246L48.9917 19.7763C48.999 19.8107 48.9993 19.8456 48.9919 19.88L49.2363 19.9326L49.4807 19.9853C49.5038 19.8781 49.5019 19.772 49.4809 19.6729L49.2363 19.7246ZM49.2363 19.9326H48.9863V26.5127H49.2363H49.4863V19.9326H49.2363ZM49.2363 26.5127L48.9863 26.5127C48.9862 29.8706 47.1522 32.7842 44.6752 34.8855L44.8369 35.0762L44.9986 35.2668C47.5487 33.1035 49.4862 30.0619 49.4863 26.5127L49.2363 26.5127ZM44.8369 35.0762L44.6752 34.8855C44.3594 35.1534 44.0307 35.408 43.6938 35.6506L43.8398 35.8535L43.9859 36.0564C44.3323 35.807 44.6716 35.5443 44.9986 35.2668L44.8369 35.0762ZM43.8398 35.8535L43.6237 35.9791C43.956 36.5513 44.342 37.0555 44.835 37.4419L44.9893 37.2451L45.1435 37.0483C44.717 36.7141 44.3691 36.267 44.056 35.728L43.8398 35.8535ZM44.9893 37.2451L44.8351 37.4419C45.4328 37.9101 46.2013 38.2174 47.2496 38.2518L47.2578 38.002L47.266 37.7521C46.3159 37.7208 45.6515 37.4463 45.1434 37.0483L44.9893 37.2451ZM47.2578 38.002L47.2268 38.25L47.2346 38.251L47.2656 38.0029L47.2966 37.7549L47.2888 37.7539L47.2578 38.002ZM47.2656 38.0029L47.2539 38.2527C49.8923 38.3769 52.372 38.8715 54.3459 39.9732L54.4678 39.7549L54.5896 39.5366C52.5211 38.3822 49.9548 37.8793 47.2774 37.7532L47.2656 38.0029ZM54.4678 39.7549L54.3459 39.9732C56.3288 41.0801 57.7948 42.7967 58.3974 45.3341L58.6406 45.2764L58.8839 45.2186C58.2465 42.5346 56.6853 40.7065 54.5896 39.5366L54.4678 39.7549ZM58.6406 45.2764L58.3974 45.3341L59.5058 50.006L59.749 49.9482L59.9923 49.8905L58.8839 45.2187L58.6406 45.2764ZM59.749 49.9482L59.8549 50.1747C60.1965 50.015 60.5748 49.9238 60.9727 49.9238L60.9727 49.6738L60.9727 49.4238C60.4975 49.4238 60.0472 49.5329 59.6432 49.7218L59.749 49.9482ZM60.9727 49.6738V49.9238H62.3486V49.6738V49.4238H60.9727V49.6738ZM62.3486 49.6738L62.5951 49.632C62.592 49.6136 62.5908 49.6003 62.5908 49.5898L62.3408 49.5898L62.0908 49.5899C62.0908 49.6367 62.096 49.6793 62.1022 49.7157L62.3486 49.6738ZM62.3408 49.5898H62.5908V34.4219H62.3408H62.0908V49.5898H62.3408ZM62.3408 34.4219V34.1719H60.6709V34.4219V34.6719H62.3408V34.4219ZM60.6709 34.4219L60.6709 34.1719C58.9139 34.1717 57.4776 32.7449 57.4775 30.9941L57.2275 30.9941L56.9775 30.9942C56.9776 33.0237 58.6404 34.6717 60.6709 34.6719L60.6709 34.4219ZM57.2275 30.9941H57.4775V22.1523H57.2275H56.9775V30.9941H57.2275ZM57.2275 22.1523L57.4774 22.1593L57.4823 21.9835L57.2324 21.9766L56.9825 21.9696L56.9776 22.1454L57.2275 22.1523ZM57.2324 21.9766L57.4821 21.9894C57.5678 20.3173 58.9687 18.9748 60.6709 18.9746L60.6709 18.7246L60.6709 18.4746C58.7029 18.4748 57.0821 20.0255 56.9827 21.9638L57.2324 21.9766ZM60.6709 18.7246V18.9746H65.0107V18.7246V18.4746H60.6709V18.7246ZM65.0107 18.7246L65.0107 18.9746C66.7638 18.9751 68.2041 20.4055 68.2041 22.1523H68.4541H68.7041C68.7041 20.1267 67.0372 18.4751 65.0108 18.4746L65.0107 18.7246ZM68.4541 22.1523H68.2041V30.9941H68.4541H68.7041V22.1523H68.4541ZM68.4541 30.9941L68.2041 30.9941C68.204 32.7449 66.7635 34.1714 65.0107 34.1719L65.0107 34.4219L65.0108 34.6719C67.0365 34.6713 68.704 33.0242 68.7041 30.9942L68.4541 30.9941ZM65.0107 34.4219V34.1719H63.3408V34.4219V34.6719H65.0107V34.4219ZM63.3408 34.4219H63.0908V49.5898H63.3408H63.5908V34.4219H63.3408ZM63.3408 49.5898L63.0908 49.5898C63.0908 49.6014 63.089 49.6176 63.0831 49.6441L63.3271 49.6982L63.5712 49.7524C63.5809 49.7089 63.5908 49.6529 63.5908 49.5899L63.3408 49.5898ZM63.3271 49.6982L63.3018 49.947C65.5731 50.1786 67.3613 52.1013 67.3613 54.4209H67.6113H67.8613C67.8613 51.8393 65.8735 49.7067 63.3525 49.4495L63.3271 49.6982ZM67.6113 54.4209H67.3613V58.3867H67.6113H67.8613V54.4209H67.6113ZM67.6113 58.3867L67.3613 58.3867C67.3612 60.8615 65.326 62.8835 62.8408 62.8838L62.8408 63.1338L62.8409 63.3838C65.5994 63.3835 67.8612 61.1403 67.8613 58.3867L67.6113 58.3867ZM62.8408 63.1338V62.8838H60.9727V63.1338V63.3838H62.8408V63.1338ZM60.9727 63.1338L60.9727 62.8838C59.5164 62.8838 58.3205 61.6958 58.3203 60.2412L58.0703 60.2412L57.8203 60.2412C57.8205 61.9742 59.2424 63.3838 60.9727 63.3838L60.9727 63.1338ZM58.0703 60.2412H58.3203V59.8877H58.0703H57.8203V60.2412H58.0703ZM58.0703 59.8877V59.6377H33.2529V59.8877V60.1377H58.0703V59.8877ZM33.2529 59.8877H33.0029V61.7686H33.2529H33.5029V59.8877H33.2529ZM33.2529 61.7686H33.0029C33.0029 62.9997 31.9895 64.0055 30.7548 64.0059L30.7549 64.2559L30.755 64.5059C32.2628 64.5054 33.5029 63.2787 33.5029 61.7686H33.2529ZM30.7549 64.2559V64.0059H20.1094V64.2559V64.5059H30.7549V64.2559ZM20.1094 64.2559L20.1095 64.0059C19.9713 64.0058 19.8594 63.8937 19.8594 63.7559H19.6094H19.3594C19.3594 64.1701 19.6954 64.5056 20.1092 64.5059L20.1094 64.2559ZM19.6094 63.7559L19.8594 63.7559C19.8594 63.618 19.9714 63.5059 20.1095 63.5059L20.1094 63.2559L20.1092 63.0059C19.6954 63.0061 19.3594 63.3417 19.3594 63.7558L19.6094 63.7559ZM20.1094 63.2559V63.5059H30.7549V63.2559V63.0059H20.1094V63.2559ZM30.7549 63.2559L30.755 63.5059C31.716 63.5054 32.5029 62.7209 32.5029 61.7686H32.2529H32.0029C32.0029 62.4423 31.4423 63.0055 30.7548 63.0059L30.7549 63.2559ZM32.2529 61.7686H32.5029V59.6953H32.2529H32.0029V61.7686H32.2529ZM32.2529 59.6953L32.5029 59.6953C32.5029 58.743 31.716 57.9585 30.755 57.958L30.7549 58.208L30.7548 58.458C31.4422 58.4583 32.0029 59.0216 32.0029 59.6953L32.2529 59.6953ZM30.7549 58.208V57.958H9.46777V58.208V58.458H30.7549V58.208ZM9.46777 58.208L9.46776 57.958C8.56271 57.958 7.81868 58.6472 7.72886 59.5183L7.97754 59.5439L8.22622 59.5696C8.28994 58.9517 8.8208 58.458 9.46778 58.458L9.46777 58.208ZM7.97754 59.5439L7.72787 59.5311L7.72006 59.6824L7.96973 59.6953L8.21939 59.7082L8.22721 59.5568L7.97754 59.5439ZM7.96973 59.6953H7.71973V61.7686H7.96973H8.21973V59.6953H7.96973ZM7.96973 61.7686H7.71973C7.71973 62.7213 8.50264 63.5058 9.46777 63.5059L9.46777 63.2559L9.46778 63.0059C8.77714 63.0058 8.21973 62.4435 8.21973 61.7686H7.96973ZM9.46777 63.2559V63.5059H15.4541V63.2559V63.0059H9.46777V63.2559ZM15.4541 63.2559L15.4537 63.5059C15.592 63.5061 15.7041 63.6185 15.7041 63.7559L15.9541 63.7559L16.2041 63.7558C16.204 63.3416 15.8676 63.0065 15.4545 63.0059L15.4541 63.2559ZM15.9541 63.7559H15.7041C15.7041 63.8932 15.5921 64.0056 15.4537 64.0059L15.4541 64.2559L15.4545 64.5059C15.8676 64.5052 16.2041 64.1702 16.2041 63.7559H15.9541ZM15.4541 64.2559V64.0059H9.46777V64.2559V64.5059H15.4541V64.2559ZM9.46777 64.2559L9.46778 64.0059C8.22872 64.0058 7.21973 62.9997 7.21973 61.7686H6.96973H6.71973C6.71973 63.2779 7.95462 64.5058 9.46777 64.5059L9.46777 64.2559ZM6.96973 61.7686H7.21973V59.6953H6.96973H6.71973V61.7686H6.96973ZM6.96973 59.6953L7.21941 59.7078L7.23211 59.4539L6.98242 59.4414L6.73273 59.4289L6.72004 59.6828L6.96973 59.6953ZM6.98242 59.4414L7.23112 59.4669C7.34633 58.3421 8.30634 57.458 9.46778 57.458L9.46777 57.208L9.46777 56.958C8.04882 56.958 6.87495 58.0372 6.73372 59.4159L6.98242 59.4414ZM9.46777 57.208V57.458H12.1797V57.208V56.958H9.46777V57.208ZM12.1797 57.208L12.305 56.9917C9.68545 55.474 7.61419 53.1438 6.42018 50.1971L6.18848 50.291L5.95678 50.3849C7.19299 53.4357 9.33971 55.8515 12.0544 57.4243L12.1797 57.208ZM6.18848 50.291V50.041H3.18359V50.291V50.541H6.18848V50.291ZM3.18359 50.291L3.18362 50.041C1.70864 50.0409 0.50032 48.8418 0.5 47.372L0.25 47.3721L0 47.3721C0.000381202 49.1209 1.43545 50.5408 3.18357 50.541L3.18359 50.291ZM0.25 47.3721H0.5C0.5 45.9026 1.70791 44.6994 3.18362 44.6992L3.18359 44.4492L3.18357 44.1992C1.43373 44.1994 0 45.6245 0 47.3721H0.25ZM3.18359 44.4492V44.6992H7.24609V44.4492V44.1992H3.18359V44.4492ZM7.24609 44.4492L7.24975 44.6992C7.25919 44.6991 7.2687 44.6986 7.27272 44.6985C7.27833 44.6982 7.27939 44.6982 7.2793 44.6982V44.4482V44.1982C7.26826 44.1982 7.25816 44.1987 7.25262 44.1989C7.24549 44.1992 7.24387 44.1992 7.24244 44.1992L7.24609 44.4492ZM7.2793 44.4482V44.6982H14.3027V44.4482V44.1982H7.2793V44.4482ZM14.3027 44.4482L14.5399 44.5274C15.7471 40.9097 18.867 39.199 22.6479 38.5481L22.6055 38.3018L22.5631 38.0554C18.6918 38.7218 15.3555 40.5036 14.0656 44.3691L14.3027 44.4482ZM22.6055 38.3018L22.6587 38.546C22.6607 38.5456 22.6625 38.5452 22.6636 38.5449C22.6642 38.5448 22.6647 38.5447 22.6651 38.5446C22.6655 38.5445 22.6657 38.5444 22.6659 38.5444C22.667 38.5441 22.665 38.5446 22.6618 38.5452L22.6143 38.2998L22.5667 38.0544C22.5608 38.0555 22.5557 38.0567 22.5538 38.0571C22.5533 38.0572 22.5527 38.0574 22.5524 38.0574C22.552 38.0575 22.5518 38.0576 22.5516 38.0576C22.5512 38.0577 22.5516 38.0576 22.5523 38.0575L22.6055 38.3018ZM22.6143 38.2998L22.6565 38.5462C23.5596 38.3912 24.4987 38.2976 25.4541 38.2527L25.4424 38.0029L25.4306 37.7532C24.4583 37.799 23.4986 37.8944 22.572 38.0534L22.6143 38.2998ZM25.4424 38.0029L25.4734 38.251L25.4812 38.25L25.4502 38.002L25.4192 37.7539L25.4114 37.7549L25.4424 38.0029ZM25.4502 38.002L25.4584 38.2518C26.5065 38.2173 27.2744 37.91 27.8719 37.4419L27.7178 37.2451L27.5636 37.0483C27.0555 37.4462 26.3918 37.7208 25.442 37.7521L25.4502 38.002ZM27.7178 37.2451L27.872 37.4419C28.3762 37.0468 28.7688 36.5284 29.1065 35.9398L28.8896 35.8154L28.6728 35.691C28.3541 36.2465 27.9999 36.7065 27.5636 37.0483L27.7178 37.2451ZM28.8896 35.8154L29.0368 35.6133C28.8881 35.505 28.7407 35.3959 28.5967 35.284L28.4434 35.4814L28.29 35.6789C28.4398 35.7953 28.5919 35.9079 28.7425 36.0175L28.8896 35.8154ZM28.4434 35.4814L28.5967 35.284C25.9689 33.2423 23.7754 30.3345 23.7754 27.0391H23.5254H23.2754C23.2754 30.5591 25.6093 33.5961 28.29 35.6789L28.4434 35.4814ZM23.5254 27.0391H23.7754V12.7471H23.5254H23.2754V27.0391H23.5254ZM23.5254 12.7471L23.665 12.5397C22.6274 11.8412 21.9865 10.9985 21.6946 10.1068L21.457 10.1846L21.2194 10.2623C21.5514 11.2765 22.2715 12.2044 23.3858 12.9545L23.5254 12.7471ZM21.457 10.1846L21.6946 10.1068C21.3822 9.15187 21.4773 8.16388 21.88 7.2772L21.6523 7.17383L21.4247 7.07046C20.9759 8.05887 20.864 9.17618 21.2194 10.2623L21.457 10.1846ZM21.6523 7.17383L21.88 7.27722C22.6834 5.50848 24.7085 4.13681 27.2168 4.13672L27.2168 3.88672L27.2168 3.63672C24.5306 3.63681 22.3165 5.10717 21.4247 7.07044L21.6523 7.17383ZM27.2168 3.88672V4.13672H30.2676V3.88672V3.63672H27.2168V3.88672ZM30.2676 3.88672L30.4846 4.01086C31.8262 1.66581 34.3455 0.500159 36.7236 0.5L36.7236 0.25L36.7236 0C34.1942 0.000169516 31.4943 1.23897 30.0506 3.76257L30.2676 3.88672ZM60.9727 50.6738L60.9727 50.4238C59.7901 50.4238 58.8204 51.3901 58.8203 52.5625L59.0703 52.5625L59.3203 52.5625C59.3204 51.6688 60.0638 50.9238 60.9727 50.9238L60.9727 50.6738ZM59.0703 52.5625H58.8203V60.2412H59.0703H59.3203V52.5625H59.0703ZM59.0703 60.2412L58.8203 60.2413C58.8205 61.4176 59.7905 62.3838 60.9727 62.3838L60.9727 62.1338L60.9727 61.8838C60.0647 61.8838 59.3205 61.1395 59.3203 60.2412L59.0703 60.2412ZM60.9727 62.1338V62.3838H62.8408V62.1338V61.8838H60.9727V62.1338ZM62.8408 62.1338L62.8409 62.3838C65.0525 62.3835 66.8612 60.5827 66.8613 58.3867L66.6113 58.3867L66.3613 58.3867C66.3612 60.304 64.7789 61.8835 62.8408 61.8838L62.8408 62.1338ZM66.6113 58.3867H66.8613V54.4209H66.6113H66.3613V58.3867H66.6113ZM66.6113 54.4209H66.8613C66.8613 52.2249 65.0526 50.4242 62.8409 50.4238L62.8408 50.6738L62.8408 50.9238C64.779 50.9241 66.3613 52.5035 66.3613 54.4209H66.6113ZM62.8408 50.6738V50.4238H60.9727V50.6738V50.9238H62.8408V50.6738ZM39.2061 47.5488L38.9565 47.5337C38.8718 48.9289 37.6989 50.0408 36.2753 50.041L36.2754 50.291L36.2754 50.541C37.9623 50.5407 39.3548 49.2241 39.4556 47.564L39.2061 47.5488ZM36.2754 50.291V50.041H33.2607V50.291V50.541H36.2754V50.291ZM33.2607 50.291L33.0297 50.1955C31.8541 53.0406 29.7949 55.4287 27.184 56.9936L27.3125 57.208L27.441 57.4224C30.1446 55.8021 32.2754 53.3303 33.4918 50.3865L33.2607 50.291ZM27.3125 57.208V57.458H30.7549V57.208V56.958H27.3125V57.208ZM30.7549 57.208L30.7548 57.458C31.7332 57.4583 32.5728 58.0916 32.8781 58.9698L33.1143 58.8877L33.3504 58.8056C32.9775 57.7331 31.9531 56.9584 30.755 56.958L30.7549 57.208ZM33.1143 58.8877V59.1377H53.1875V58.8877V58.6377H33.1143V58.8877ZM53.1875 58.8877L53.4338 58.8449L51.716 48.9689L51.4697 49.0117L51.2234 49.0546L52.9412 58.9305L53.1875 58.8877ZM51.4697 49.0117H51.7197V49.0098H51.4697H51.2197V49.0117H51.4697ZM51.4697 49.0098L51.7162 48.9681C51.5551 48.0148 50.9433 47.2994 50.0793 47.2988L50.0791 47.5488L50.0789 47.7988C50.6099 47.7992 51.0858 48.2384 51.2232 49.0514L51.4697 49.0098ZM50.0791 47.5488V47.2988H39.2061V47.5488V47.7988H50.0791V47.5488ZM50.5791 46.6035L50.5246 46.8475C51.4615 47.0568 52.0501 47.9409 52.2095 48.8844L52.4561 48.8428L52.7026 48.8011C52.5235 47.7415 51.8408 46.6292 50.6336 46.3595L50.5791 46.6035ZM52.4561 48.8428L52.2793 48.666L52.2783 48.667L52.4551 48.8438L52.6319 49.0205L52.6328 49.0196L52.4561 48.8428ZM52.4551 48.8438L52.2088 48.8866L53.9558 58.9305L54.2021 58.8877L54.4485 58.8449L52.7014 48.8009L52.4551 48.8438ZM54.2021 58.8877V59.1377H58.0703V58.8877V58.6377H54.2021V58.8877ZM58.0703 58.8877H58.3203V52.5625H58.0703H57.8203V58.8877H58.0703ZM58.0703 52.5625L58.3203 52.5625C58.3203 51.8629 58.5992 51.2253 59.052 50.7507L58.8711 50.5781L58.6902 50.4055C58.1539 50.9677 57.8203 51.727 57.8203 52.5625L58.0703 52.5625ZM58.8711 50.5781L59.1143 50.5204L57.9112 45.4501L57.668 45.5078L57.4247 45.5655L58.6278 50.6358L58.8711 50.5781ZM57.668 45.5078L57.9112 45.4501C57.3434 43.0589 55.9716 41.4536 54.1013 40.4096L53.9795 40.6279L53.8576 40.8462C55.6151 41.8272 56.8917 43.321 57.4247 45.5656L57.668 45.5078ZM53.9795 40.6279L54.1013 40.4096C53.0784 39.8388 51.9042 39.4366 50.6308 39.1675L50.5791 39.4121L50.5274 39.6567C51.7646 39.9181 52.8888 40.3056 53.8577 40.8462L53.9795 40.6279ZM50.5791 39.4121H50.3291V46.6035H50.5791H50.8291V39.4121H50.5791ZM7.2793 45.4492V45.1992H7.26367V45.4492V45.6992H7.2793V45.4492ZM7.26367 45.4492L7.26128 45.1992C6.95554 45.2022 6.73038 45.2794 6.56475 45.3988L6.71094 45.6016L6.85713 45.8044C6.92521 45.7553 7.0453 45.7013 7.26607 45.6992L7.26367 45.4492ZM6.71094 45.6016L6.56455 45.3989C6.39479 45.5215 6.26888 45.7017 6.18423 45.9325L6.41895 46.0186L6.65366 46.1046C6.71186 45.9459 6.78514 45.8564 6.85733 45.8042L6.71094 45.6016ZM6.41895 46.0186L6.18421 45.9325C6.01155 46.4036 6.02337 47.0577 6.17296 47.7301L6.41699 47.6758L6.66103 47.6215C6.52107 46.9924 6.52801 46.4475 6.65368 46.1046L6.41895 46.0186ZM6.41699 47.6758L6.17388 47.7341L6.27642 48.1618L6.51953 48.1035L6.76264 48.0452L6.6601 47.6175L6.41699 47.6758ZM6.51953 48.1035L6.27732 48.1654C7.40971 52.5963 10.4222 55.8691 14.3724 57.4403L14.4648 57.208L14.5572 56.9757C10.7533 55.4627 7.85391 52.3151 6.76175 48.0416L6.51953 48.1035ZM14.4648 57.208V57.458H25.1006V57.208V56.958H14.4648V57.208ZM25.1006 57.208L25.197 57.4387C29.2591 55.74 32.309 52.1196 33.287 47.7301L33.043 47.6758L32.799 47.6214C31.8562 51.853 28.9158 55.3415 25.0041 56.9774L25.1006 57.208ZM33.043 47.6758L33.287 47.7301C33.4366 47.0577 33.45 46.4029 33.2778 45.9317L33.043 46.0176L32.8082 46.1034C32.9334 46.4459 32.9391 46.9914 32.7989 47.6215L33.043 47.6758ZM33.043 46.0176L33.2777 45.9317C33.1931 45.7004 33.0664 45.5211 32.8974 45.3989L32.751 45.6016L32.6046 45.8042C32.6771 45.8566 32.7506 45.9461 32.8082 46.1035L33.043 46.0176ZM32.751 45.6016L32.8972 45.3988C32.7312 45.2791 32.5053 45.2022 32.1987 45.1992L32.1963 45.4492L32.1938 45.6992C32.4165 45.7014 32.537 45.7555 32.6047 45.8043L32.751 45.6016ZM32.1963 45.4492V45.1992H32.1807V45.4492V45.6992H32.1963V45.4492ZM32.1807 45.4492V45.1992C32.1921 45.1992 32.201 45.2001 32.2057 45.2006C32.2083 45.2009 32.2103 45.2011 32.2115 45.2013C32.2122 45.2014 32.2127 45.2014 32.213 45.2015C32.2133 45.2015 32.2135 45.2016 32.2136 45.2016C32.2144 45.2017 32.2125 45.2014 32.2121 45.2014C32.2111 45.2012 32.2092 45.2009 32.207 45.2006C32.2028 45.2001 32.1945 45.1991 32.1842 45.1985L32.1719 45.4482L32.1596 45.6979C32.1506 45.6975 32.1438 45.6966 32.1411 45.6963C32.1396 45.6961 32.1385 45.6959 32.1382 45.6959C32.1381 45.6958 32.138 45.6958 32.1381 45.6959C32.1382 45.6959 32.1386 45.6959 32.139 45.696C32.1401 45.6962 32.1451 45.6969 32.1513 45.6976C32.1575 45.6983 32.1679 45.6992 32.1807 45.6992V45.4492ZM32.1719 45.4482V45.1982H7.28809V45.4482V45.6982H32.1719V45.4482ZM7.28809 45.4482L7.28373 45.1983C7.27173 45.1985 7.26209 45.1995 7.25693 45.2001C7.2518 45.2007 7.24741 45.2014 7.24695 45.2014C7.24517 45.2017 7.2477 45.2013 7.25053 45.201C7.25353 45.2006 7.26085 45.1997 7.27043 45.1994L7.2793 45.4492L7.28816 45.6991C7.2991 45.6987 7.30787 45.6977 7.31235 45.6971C7.31482 45.6968 7.31685 45.6965 7.31812 45.6963C7.31926 45.6962 7.32042 45.696 7.32046 45.696C7.32152 45.6958 7.31865 45.6963 7.31499 45.6967C7.31131 45.6971 7.3031 45.698 7.29244 45.6982L7.28809 45.4482ZM3.18359 45.4492L3.18355 45.1992C1.98261 45.1994 1.00098 46.1801 1.00098 47.3721H1.25098H1.50098C1.50098 46.4579 2.25719 45.6994 3.18363 45.6992L3.18359 45.4492ZM1.25098 47.3721L1.00098 47.3722C1.00138 48.5631 1.98222 49.5408 3.18355 49.541L3.18359 49.291L3.18363 49.041C2.25599 49.0409 1.50128 48.2846 1.50098 47.372L1.25098 47.3721ZM3.18359 49.291V49.541H5.82422V49.291V49.041H3.18359V49.291ZM5.82422 49.291L6.06201 49.2138C5.9637 48.9109 5.87295 48.6034 5.79299 48.2906L5.55078 48.3525L5.30857 48.4145C5.39153 48.7389 5.48535 49.0567 5.58643 49.3682L5.82422 49.291ZM5.55078 48.3525L5.79397 48.2946L5.6846 47.8356L5.44141 47.8936L5.19822 47.9515L5.30759 48.4105L5.55078 48.3525ZM5.44141 47.8936L5.68544 47.8392C5.52622 47.1238 5.49435 46.3596 5.71422 45.7599L5.47949 45.6738L5.24477 45.5878C4.97773 46.3162 5.02868 47.1898 5.19738 47.9479L5.44141 47.8936ZM5.47949 45.6738L5.7142 45.7599C5.73859 45.6934 5.7678 45.627 5.80084 45.5609L5.57715 45.4492L5.35346 45.3376C5.31345 45.4177 5.2765 45.5013 5.24479 45.5877L5.47949 45.6738ZM5.57715 45.4492V45.1992H3.18359V45.4492V45.6992H5.57715V45.4492ZM33.9814 45.6748L33.7466 45.7606C33.9659 46.3605 33.9336 47.1244 33.7745 47.8393L34.0186 47.8936L34.2626 47.9479C34.4311 47.1906 34.4825 46.3174 34.2163 45.589L33.9814 45.6748ZM34.0186 47.8936L33.7745 47.8392C33.6707 48.3054 33.5426 48.7635 33.3944 49.2127L33.6318 49.291L33.8693 49.3693C34.0223 48.9055 34.1548 48.4314 34.2626 47.9479L34.0186 47.8936ZM33.6318 49.291V49.541H36.2754V49.291V49.041H33.6318V49.291ZM36.2754 49.291L36.2755 49.541C37.4807 49.5407 38.4615 48.5629 38.4619 47.3722L38.2119 47.3721L37.9619 47.372C37.9616 48.2837 37.2075 49.0408 36.2753 49.041L36.2754 49.291ZM38.2119 47.3721H38.4619C38.4619 46.1804 37.4803 45.1995 36.2755 45.1992L36.2754 45.4492L36.2753 45.6992C37.2063 45.6995 37.9619 46.4587 37.9619 47.3721H38.2119ZM36.2754 45.4492V45.1992H33.8838V45.4492V45.6992H36.2754V45.4492ZM33.8838 45.4492L33.66 45.5607C33.6929 45.6268 33.7221 45.6936 33.7467 45.7607L33.9814 45.6748L34.2162 45.5889C34.1846 45.5025 34.1478 45.4185 34.1076 45.3377L33.8838 45.4492ZM44.916 39.6074L44.7366 39.4333C43.9648 40.2289 42.9418 40.8444 41.7906 41.2903L41.8809 41.5234L41.9712 41.7566C43.1707 41.2919 44.261 40.6416 45.0955 39.7815L44.916 39.6074ZM41.8809 41.5234L41.7906 41.2903C40.1004 41.9448 38.1052 42.2485 36.1388 42.2246L36.1357 42.4746L36.1327 42.7246C38.15 42.7491 40.2105 42.4384 41.9711 41.7566L41.8809 41.5234ZM36.1357 42.4746L36.1388 42.2246C34.1723 42.2006 32.2184 41.8486 30.6125 41.1813L30.5166 41.4121L30.4207 41.643C32.0966 42.3394 34.1156 42.7 36.1327 42.7246L36.1357 42.4746ZM30.5166 41.4121L30.6126 41.1813C29.6037 40.7619 28.7157 40.21 28.0528 39.5245L27.873 39.6982L27.6933 39.872C28.4162 40.6196 29.3678 41.2053 30.4206 41.643L30.5166 41.4121ZM27.873 39.6982H27.623V44.4482H27.873H28.123V39.6982H27.873ZM27.873 44.4482V44.6982H32.1807V44.4482V44.1982H27.873V44.4482ZM32.1807 44.4482L32.1801 44.6982C32.1799 44.6982 32.1803 44.6982 32.1816 44.6983C32.1829 44.6983 32.1846 44.6984 32.1873 44.6985C32.1915 44.6987 32.201 44.6991 32.2107 44.6992L32.2139 44.4492L32.2171 44.1992C32.2158 44.1992 32.2142 44.1992 32.2073 44.1989C32.202 44.1987 32.192 44.1983 32.1812 44.1982L32.1807 44.4482ZM32.2139 44.4492V44.6992H36.2754V44.4492V44.1992H32.2139V44.4492ZM36.2754 44.4492L36.2753 44.6992C37.4909 44.6994 38.5238 45.5125 38.8521 46.6199L39.0918 46.5488L39.3315 46.4778C38.9419 45.1637 37.7181 44.1995 36.2754 44.1992L36.2754 44.4492ZM39.0918 46.5488V46.7988H44.916V46.5488V46.2988H39.0918V46.5488ZM44.916 46.5488H45.166V39.6074H44.916H44.666V46.5488H44.916ZM45.916 46.5488V46.7988H49.5791V46.5488V46.2988H45.916V46.5488ZM49.5791 46.5488H49.8291V39.2295H49.5791H49.3291V46.5488H49.5791ZM49.5791 39.2295L49.6167 38.9823C48.849 38.8654 48.0497 38.7908 47.2295 38.7522L47.2178 39.002L47.206 39.2517C48.0115 39.2896 48.7933 39.3627 49.5415 39.4766L49.5791 39.2295ZM47.2178 39.002L47.2263 38.7521C46.7698 38.7366 46.3573 38.6715 45.9834 38.5669L45.916 38.8076L45.8487 39.0484C46.2631 39.1643 46.7152 39.235 47.2093 39.2518L47.2178 39.002ZM45.916 38.8076H45.666V46.5488H45.916H46.166V38.8076H45.916ZM22.21 39.3936L22.1596 39.1487C18.8795 39.8227 16.2704 41.3791 15.1317 44.359L15.3652 44.4482L15.5988 44.5375C16.6537 41.7768 19.0734 40.2933 22.2603 39.6384L22.21 39.3936ZM15.3652 44.4482V44.6982H22.21V44.4482V44.1982H15.3652V44.4482ZM22.21 44.4482H22.46V39.3936H22.21H21.96V44.4482H22.21ZM26.873 38.7842L26.8015 38.5447C26.407 38.6626 25.9686 38.7356 25.4799 38.7521L25.4883 39.002L25.4967 39.2518C26.0255 39.234 26.5065 39.1547 26.9446 39.0237L26.873 38.7842ZM25.4883 39.002V39.252H25.4893V39.002V38.752H25.4883V39.002ZM25.4893 39.002L25.4775 38.7522C24.6854 38.7895 23.9145 38.8593 23.1735 38.9685L23.21 39.2158L23.2464 39.4632C23.9685 39.3568 24.7227 39.2883 25.501 39.2517L25.4893 39.002ZM23.21 39.2158H22.96V44.4482H23.21H23.46V39.2158H23.21ZM23.21 44.4482V44.6982H26.873V44.4482V44.1982H23.21V44.4482ZM26.873 44.4482H27.123V38.7842H26.873H26.623V44.4482H26.873ZM29.7158 36.3809L29.5 36.2546C29.149 36.8548 28.7294 37.4055 28.1808 37.8354L28.335 38.0322L28.4892 38.229C29.1037 37.7474 29.5612 37.1403 29.9316 36.5071L29.7158 36.3809ZM28.335 38.0322L28.1808 37.8354C28.0874 37.9086 27.9873 37.9774 27.8813 38.0463L28.0176 38.2559L28.1538 38.4655C28.2659 38.3926 28.3796 38.3148 28.4891 38.229L28.335 38.0322ZM28.0176 38.2559L27.8022 38.3827C28.3795 39.3633 29.439 40.1526 30.8044 40.7201L30.9004 40.4893L30.9963 40.2584C29.6885 39.7148 28.7359 38.983 28.233 38.129L28.0176 38.2559ZM30.9004 40.4893L30.8045 40.7201C32.3402 41.3583 34.2284 41.7012 36.1444 41.7246L36.1475 41.4746L36.1505 41.2246C34.2849 41.2019 32.462 40.8675 30.9963 40.2584L30.9004 40.4893ZM36.1475 41.4746L36.1444 41.7246C38.0604 41.7479 39.991 41.4513 41.6108 40.8239L41.5205 40.5908L41.4302 40.3577C39.8809 40.9577 38.0156 41.2473 36.1505 41.2246L36.1475 41.4746ZM41.5205 40.5908L41.6108 40.8239C43.0398 40.2704 44.2078 39.4671 44.927 38.4166L44.7207 38.2754L44.5144 38.1342C43.8699 39.0756 42.7992 39.8274 41.4302 40.3577L41.5205 40.5908ZM44.7207 38.2754L44.8552 38.0647C44.7395 37.9908 44.6295 37.9156 44.5272 37.8354L44.373 38.0322L44.2189 38.229C44.3381 38.3224 44.4623 38.407 44.5862 38.4861L44.7207 38.2754ZM44.373 38.0322L44.5272 37.8354C43.9881 37.413 43.5724 36.8749 43.2249 36.2877L43.0098 36.415L42.7946 36.5424C43.162 37.1633 43.6155 37.7563 44.2189 38.229L44.373 38.0322ZM43.0098 36.415L42.8764 36.2036C40.9451 37.4223 38.8075 38.2028 36.864 38.4106L36.8906 38.6592L36.9172 38.9078C38.9476 38.6907 41.1573 37.8796 43.1432 36.6265L43.0098 36.415ZM36.8906 38.6592L36.8701 38.41L36.3477 38.453L36.3682 38.7021L36.3887 38.9513L36.9111 38.9083L36.8906 38.6592ZM36.3682 38.7021L36.3597 38.4523L36.1576 38.4591L36.166 38.709L36.1745 38.9588L36.3766 38.952L36.3682 38.7021ZM36.166 38.709L36.163 38.459C35.1864 38.4708 33.976 38.1851 32.7109 37.6735L32.6172 37.9053L32.5235 38.137C33.8225 38.6623 35.1019 38.9718 36.169 38.959L36.166 38.709ZM32.6172 37.9053L32.7109 37.6735C31.7761 37.2954 30.8013 36.7861 29.8517 36.171L29.7158 36.3809L29.5799 36.5907C30.554 37.2217 31.5569 37.7461 32.5234 38.137L32.6172 37.9053ZM10.9111 29.7871L11.0815 29.9701C11.1828 29.8757 11.341 29.8813 11.4347 29.9814L11.6172 29.8105L11.7997 29.6397C11.5166 29.3374 11.0427 29.3229 10.7408 29.6042L10.9111 29.7871ZM11.6172 29.8105L11.4345 29.9812C11.5286 30.0819 11.5233 30.2409 11.4227 30.3352L11.5938 30.5176L11.7648 30.6999C12.0664 30.417 12.0822 29.9422 11.7999 29.6399L11.6172 29.8105ZM11.5938 30.5176L11.423 30.335C10.6374 31.0697 10.4029 31.654 10.3936 32.1467L10.6436 32.1514L10.8935 32.1561C10.8994 31.8427 11.0399 31.3778 11.7645 30.7002L11.5938 30.5176ZM10.6436 32.1514L10.3936 32.1467C10.3841 32.6572 10.6112 33.125 10.8811 33.6504L11.1035 33.5361L11.3259 33.4219C11.0468 32.8786 10.8867 32.521 10.8935 32.156L10.6436 32.1514ZM11.1035 33.5361L10.8812 33.6504C11.1403 34.1548 11.4471 34.7243 11.4649 35.3624L11.7148 35.3555L11.9647 35.3485C11.9432 34.5755 11.572 33.9008 11.3259 33.4219L11.1035 33.5361ZM11.7148 35.3555L11.4649 35.3624C11.4833 36.0232 11.1961 36.7127 10.4003 37.4835L10.5742 37.6631L10.7481 37.8427C11.6101 37.0079 11.9881 36.1912 11.9647 35.3485L11.7148 35.3555ZM10.5742 37.6631L10.4004 37.4834C10.3015 37.5791 10.143 37.5767 10.0467 37.4773L9.86719 37.6514L9.6877 37.8254C9.97553 38.1222 10.4503 38.1309 10.7481 37.8427L10.5742 37.6631ZM9.86719 37.6514L10.0468 37.4775C9.951 37.3785 9.95351 37.2201 10.0528 37.1239L9.87891 36.9443L9.705 36.7647C9.40763 37.0527 9.39944 37.5275 9.68753 37.8252L9.86719 37.6514ZM9.87891 36.9443L10.0528 37.1239C10.7814 36.4182 10.9779 35.8561 10.9647 35.3769L10.7148 35.3838L10.4649 35.3906C10.4731 35.6889 10.3665 36.124 9.70497 36.7648L9.87891 36.9443ZM10.7148 35.3838L10.9647 35.3768C10.9507 34.874 10.71 34.4098 10.4372 33.8789L10.2148 33.9932L9.99248 34.1074C10.2799 34.6667 10.4547 35.0238 10.4649 35.3908L10.7148 35.3838ZM10.2148 33.9932L10.4372 33.8789C10.1751 33.3688 9.88132 32.7927 9.89351 32.1375L9.64355 32.1328L9.3936 32.1282C9.37872 32.9279 9.73829 33.6127 9.99248 34.1074L10.2148 33.9932ZM9.64355 32.1328L9.89351 32.1375C9.90611 31.4652 10.2354 30.7613 11.0819 29.9697L10.9111 29.7871L10.7404 29.6045C9.83377 30.4524 9.40957 31.2757 9.3936 32.1281L9.64355 32.1328ZM36.7236 1.25L36.7236 1C34.4152 1.00018 31.9878 2.17312 30.7866 4.5016L31.0088 4.61621L31.231 4.73082C32.3333 2.59385 34.5721 1.50016 36.7237 1.5L36.7236 1.25ZM31.0088 4.61621L30.7866 4.50162C30.7496 4.57345 30.679 4.62293 30.5987 4.63431L30.6338 4.88184L30.6689 5.12936C30.9065 5.09567 31.1182 4.94943 31.231 4.73081L31.0088 4.61621ZM30.6338 4.88184L30.6162 4.63245L30.5469 4.63734L30.5645 4.88672L30.582 5.1361L30.6514 5.13122L30.6338 4.88184ZM30.5645 4.88672V4.63672H27.2168V4.88672V5.13672H30.5645V4.88672ZM27.2168 4.88672L27.2168 4.63672C24.8866 4.63681 23.05 5.90927 22.3349 7.48352L22.5625 7.58691L22.7901 7.69031C23.417 6.31027 25.0649 5.13681 27.2168 5.13672L27.2168 4.88672ZM22.5625 7.58691L22.3349 7.48353C21.9784 8.26851 21.9 9.12789 22.1696 9.95177L22.4072 9.87402L22.6448 9.79628C22.4181 9.10332 22.48 8.37324 22.7901 7.69029L22.5625 7.58691ZM22.4072 9.87402L22.1696 9.95182C22.4393 10.7754 23.0652 11.5872 24.1566 12.2624L24.2881 12.0498L24.4196 11.8372C23.4096 11.2123 22.8714 10.4883 22.6448 9.79622L22.4072 9.87402ZM24.2881 12.0498L24.1564 12.2623C24.2302 12.3081 24.2753 12.389 24.2754 12.4749L24.5254 12.4746L24.7754 12.4743C24.7751 12.2146 24.6398 11.9737 24.4198 11.8373L24.2881 12.0498ZM24.5254 12.4746H24.2754V19.1992H24.5254H24.7754V12.4746H24.5254ZM24.5254 19.1992L24.58 19.4432C25.8954 19.1488 27.2098 18.9043 28.5221 18.7092L28.4854 18.4619L28.4486 18.2146C27.1243 18.4115 25.7979 18.6582 24.4708 18.9553L24.5254 19.1992ZM28.4854 18.4619L28.5229 18.7091C28.5266 18.7085 28.5299 18.708 28.5321 18.7076C28.5331 18.7074 28.5342 18.7072 28.5349 18.7071C28.5357 18.707 28.5362 18.7069 28.5366 18.7068C28.5375 18.7066 28.5374 18.7067 28.5367 18.7068C28.536 18.7069 28.5341 18.7072 28.5315 18.7075L28.5039 18.459L28.4763 18.2105C28.4657 18.2117 28.4565 18.2132 28.4526 18.2139C28.4514 18.2141 28.4503 18.2143 28.4496 18.2144C28.4487 18.2146 28.4482 18.2147 28.4478 18.2147C28.4468 18.2149 28.4471 18.2149 28.4479 18.2147L28.4854 18.4619ZM28.5039 18.459L28.5329 18.7073C28.5354 18.707 28.5374 18.7067 28.5386 18.7066C28.5392 18.7065 28.5398 18.7064 28.5402 18.7064C28.5406 18.7063 28.5408 18.7063 28.5409 18.7063C28.5422 18.7061 28.5393 18.7065 28.5354 18.7069L28.5117 18.458L28.4881 18.2091C28.4816 18.2097 28.4761 18.2105 28.4747 18.2107C28.473 18.2109 28.4737 18.2108 28.473 18.2109C28.4729 18.2109 28.4737 18.2108 28.4749 18.2107L28.5039 18.459ZM28.5117 18.458L28.5484 18.7053C30.4263 18.4271 32.3018 18.2504 34.1732 18.1746L34.1631 17.9248L34.153 17.675C32.2636 17.7515 30.3704 17.9299 28.4751 18.2107L28.5117 18.458ZM34.1631 17.9248L34.1727 18.1746C34.3106 18.1693 34.4272 18.2771 34.4328 18.4145L34.6826 18.4043L34.9324 18.3941C34.9155 17.9806 34.5663 17.6591 34.1535 17.675L34.1631 17.9248ZM34.6826 18.4043L34.4328 18.4143C34.4383 18.5515 34.3309 18.6682 34.1926 18.674L34.2031 18.9238L34.2136 19.1736C34.6262 19.1563 34.9489 18.8082 34.9324 18.3943L34.6826 18.4043ZM34.2031 18.9238L34.193 18.674C32.4845 18.7432 30.7721 18.8977 29.0572 19.1372L29.0918 19.3848L29.1264 19.6324C30.8252 19.3951 32.5213 19.2421 34.2132 19.1736L34.2031 18.9238ZM29.0918 19.3848L28.842 19.3958C28.9357 21.5208 27.9804 22.8802 26.883 23.7215L27.0352 23.9199L27.1873 24.1183C28.391 23.1954 29.4436 21.6891 29.3416 19.3738L29.0918 19.3848ZM27.0352 23.9199L26.8831 23.7215C25.9985 24.3996 25.0271 24.7383 24.4602 24.8915L24.5254 25.1328L24.5906 25.3742C25.191 25.2119 26.2313 24.8512 27.1873 24.1183L27.0352 23.9199ZM24.5254 25.1328H24.2754V27.0391H24.5254H24.7754V25.1328H24.5254ZM24.5254 27.0391H24.2754C24.2754 30.1099 26.3284 32.8892 28.9033 34.8898L29.0566 34.6924L29.21 34.495C26.6884 32.5358 24.7754 29.8856 24.7754 27.0391H24.5254ZM29.0566 34.6924L28.9033 34.8898C30.1859 35.8862 31.5867 36.6797 32.8984 37.2103L32.9922 36.9785L33.0859 36.7468C31.8175 36.2337 30.4567 35.4635 29.21 34.495L29.0566 34.6924ZM32.9922 36.9785L32.8985 37.2103C34.2141 37.7423 35.4225 38.0028 36.326 37.9537L36.3125 37.7041L36.299 37.4545C35.498 37.4979 34.3673 37.2649 33.0859 36.7467L32.9922 36.9785ZM36.3125 37.7041H36.5625V37.7031H36.3125H36.0625V37.7041H36.3125ZM36.3125 37.7031L36.3264 37.9527C38.8968 37.8101 41.9457 36.5445 44.3512 34.5041L44.1895 34.3135L44.0277 34.1228C41.6926 36.1036 38.7447 37.3178 36.2986 37.4535L36.3125 37.7031ZM44.1895 34.3135L44.3512 34.5041C46.7552 32.4648 48.4862 29.6797 48.4863 26.5127L48.2363 26.5127L47.9863 26.5127C47.9862 29.4886 46.3585 32.1456 44.0277 34.1228L44.1895 34.3135ZM48.2363 26.5127H48.4863V25.1436H48.2363H47.9863V26.5127H48.2363ZM48.2363 25.1436L48.2993 24.9016C47.7779 24.766 46.855 24.4602 45.9872 23.8396L45.8418 24.043L45.6964 24.2463C46.6326 24.9158 47.62 25.2415 48.1734 25.3855L48.2363 25.1436ZM45.8418 24.043L45.9872 23.8396C44.8307 23.0123 43.7752 21.629 43.8748 19.3979L43.625 19.3867L43.3752 19.3756C43.2667 21.809 44.4315 23.3415 45.6963 24.2463L45.8418 24.043ZM43.625 19.3867L43.6593 19.1391C42.1139 18.9251 40.566 18.7762 39.0167 18.6966L39.0039 18.9463L38.9911 19.196C40.5255 19.2747 42.059 19.4222 43.5907 19.6344L43.625 19.3867ZM39.0039 18.9463L39.0167 18.6966C38.8789 18.6895 38.773 18.5723 38.78 18.4345L38.5303 18.4219L38.2806 18.4093C38.2597 18.8227 38.5776 19.1747 38.9911 19.196L39.0039 18.9463ZM38.5303 18.4219L38.7799 18.4348C38.7871 18.2961 38.9052 18.19 39.042 18.1969L39.0547 17.9473L39.0674 17.6976C38.653 17.6765 38.302 17.9966 38.2806 18.4089L38.5303 18.4219ZM39.0547 17.9473L39.0419 18.1969C40.7487 18.2846 42.4539 18.4552 44.1562 18.7044L44.1924 18.457L44.2286 18.2097C42.5113 17.9583 40.7906 17.786 39.0675 17.6976L39.0547 17.9473ZM44.1924 18.457L44.1779 18.7066C44.1842 18.707 44.1896 18.7071 44.193 18.7072C44.1948 18.7072 44.1964 18.7073 44.1975 18.7073C44.1988 18.7073 44.1993 18.7073 44.2 18.7073C44.2011 18.7073 44.2004 18.7073 44.1989 18.7073C44.1972 18.7072 44.1938 18.707 44.1892 18.7065L44.2168 18.458L44.2444 18.2095C44.2282 18.2077 44.2143 18.2075 44.2092 18.2074C44.2078 18.2074 44.2062 18.2074 44.2055 18.2073C44.2045 18.2073 44.2041 18.2073 44.2038 18.2073C44.2032 18.2073 44.2045 18.2073 44.2069 18.2075L44.1924 18.457ZM44.2168 18.458L44.1881 18.7064C44.183 18.7058 44.1812 18.7051 44.1869 18.7065C44.1897 18.7071 44.1925 18.7078 44.1979 18.7091C44.2025 18.7103 44.2092 18.712 44.2164 18.7136L44.2715 18.4697L44.3265 18.2259C44.3155 18.2234 44.3236 18.225 44.302 18.2199C44.2893 18.2169 44.2691 18.2124 44.2455 18.2097L44.2168 18.458ZM44.2715 18.4697L44.2349 18.717C45.5524 18.9118 46.8685 19.1549 48.1824 19.4453L48.2363 19.2012L48.2903 18.9571C46.9651 18.6642 45.6374 18.419 44.3081 18.2224L44.2715 18.4697ZM48.2363 19.2012H48.4863V12.4746H48.2363H47.9863V19.2012H48.2363ZM48.2363 12.4746L48.4863 12.4749C48.4864 12.3888 48.5314 12.3081 48.6052 12.2624L48.4736 12.0498L48.342 11.8372C48.1217 11.9736 47.9866 12.2146 47.9863 12.4743L48.2363 12.4746ZM48.4736 12.0498L48.6052 12.2624C49.697 11.5868 50.3316 10.7741 50.6126 9.94876L50.376 9.86816L50.1393 9.78757C49.902 10.4845 49.3536 11.2113 48.3421 11.8372L48.4736 12.0498ZM50.376 9.86816L50.6126 9.94874C50.8936 9.12356 50.8291 8.26412 50.488 7.48032L50.2588 7.58008L50.0296 7.67983C50.3255 8.35985 50.3766 9.0906 50.1393 9.78759L50.376 9.86816ZM50.2588 7.58008L50.488 7.48027C49.8037 5.9088 48.0003 4.63692 45.6709 4.63672L45.6709 4.88672L45.6709 5.13672C47.8206 5.1369 49.4322 6.30787 50.0296 7.67989L50.2588 7.58008ZM45.6709 4.88672V4.63672H42.0713V4.88672V5.13672H45.6709V4.88672ZM42.0713 4.88672L42.0715 4.63672C41.9742 4.63663 41.8871 4.58054 41.8462 4.4958L41.6211 4.60449L41.396 4.71318C41.5196 4.96921 41.7805 5.13644 42.071 5.13672L42.0713 4.88672ZM41.6211 4.60449L41.8548 4.51574L41.8255 4.43859L41.5918 4.52734L41.3581 4.6161L41.3874 4.69324L41.6211 4.60449ZM41.5918 4.52734L41.8317 4.45715C41.1621 2.16804 39.0326 1.00017 36.7237 1L36.7236 1.25L36.7236 1.5C38.875 1.50016 40.761 2.57766 41.3519 4.59753L41.5918 4.52734ZM60.6709 19.7246L60.6709 19.4746C59.2799 19.4748 58.1303 20.5373 57.9916 21.8796L58.2402 21.9053L58.4889 21.931C58.6015 20.8419 59.5379 19.9748 60.6709 19.9746L60.6709 19.7246ZM58.2402 21.9053L57.9906 21.8924L57.9779 22.1395L58.2275 22.1523L58.4772 22.1652L58.4899 21.9181L58.2402 21.9053ZM58.2275 22.1523H57.9775V30.9941H58.2275H58.4775V22.1523H58.2275ZM58.2275 30.9941L57.9775 30.9942C57.9776 32.466 59.1872 33.6717 60.6709 33.6719L60.6709 33.4219L60.6709 33.1719C59.4611 33.1717 58.4776 32.1875 58.4775 30.9941L58.2275 30.9941ZM60.6709 33.4219V33.6719H65.0107V33.4219V33.1719H60.6709V33.4219ZM65.0107 33.4219L65.0108 33.6719C66.4905 33.6713 67.704 32.4657 67.7041 30.9942L67.4541 30.9941L67.2041 30.9941C67.204 32.1867 66.2172 33.1714 65.0107 33.1719L65.0107 33.4219ZM67.4541 30.9941H67.7041V22.1523H67.4541H67.2041V30.9941H67.4541ZM67.4541 22.1523H67.7041C67.7041 20.6843 66.4903 19.4752 65.0108 19.4746L65.0107 19.7246L65.0107 19.9746C66.2166 19.9751 67.2041 20.9629 67.2041 22.1523H67.4541ZM65.0107 19.7246V19.4746H60.6709V19.7246V19.9746H65.0107V19.7246ZM16.5654 24.3428L16.736 24.5255C16.8369 24.4313 16.9949 24.4367 17.0891 24.5372L17.2715 24.3662L17.4539 24.1953C17.171 23.8933 16.6971 23.8779 16.3948 24.16L16.5654 24.3428ZM17.2715 24.3662L17.0886 24.5367C17.183 24.6378 17.1774 24.7969 17.0772 24.8908L17.248 25.0732L17.4189 25.2557C17.7212 24.9727 17.736 24.4978 17.4543 24.1957L17.2715 24.3662ZM17.248 25.0732L17.0773 24.8907C16.2916 25.6255 16.0577 26.21 16.0489 26.7025L16.2988 26.707L16.5488 26.7115C16.5544 26.3983 16.6943 25.9335 17.4188 25.2558L17.248 25.0732ZM16.2988 26.707L16.0489 26.7026C16.0399 27.2131 16.2681 27.681 16.5385 28.2062L16.7607 28.0918L16.983 27.9774C16.7032 27.4338 16.5424 27.0762 16.5488 26.7114L16.2988 26.707ZM16.7607 28.0918L16.5385 28.2062C16.7979 28.7101 17.1041 29.2801 17.1222 29.9182L17.3721 29.9111L17.622 29.904C17.6 29.1312 17.2298 28.4567 16.983 27.9774L16.7607 28.0918ZM17.3721 29.9111L17.1222 29.9182C17.1407 30.579 16.8542 31.2686 16.0585 32.0392L16.2324 32.2188L16.4063 32.3983C17.2684 31.5635 17.6457 30.7468 17.622 29.9041L17.3721 29.9111ZM16.2324 32.2188L16.0586 32.039C15.96 32.1344 15.8012 32.1321 15.7047 32.0328L15.5254 32.207L15.3461 32.3812C15.6338 32.6774 16.1085 32.6864 16.4062 32.3985L16.2324 32.2188ZM15.5254 32.207L15.7051 32.0332C15.6093 31.9342 15.6118 31.7757 15.711 31.6796L15.5371 31.5L15.3632 31.3204C15.0659 31.6084 15.0577 32.0831 15.3457 32.3808L15.5254 32.207ZM15.5371 31.5L15.711 31.6796C16.4397 30.9738 16.6363 30.4117 16.6229 29.9325L16.373 29.9395L16.1231 29.9464C16.1315 30.2445 16.0249 30.6795 15.3632 31.3204L15.5371 31.5ZM16.373 29.9395L16.6229 29.9324C16.6087 29.4294 16.3662 28.9655 16.0934 28.4354L15.8711 28.5498L15.6488 28.6642C15.9369 29.224 16.1127 29.5799 16.1231 29.9465L16.373 29.9395ZM15.8711 28.5498L16.0934 28.4354C15.831 27.9257 15.5371 27.3483 15.5488 26.6929L15.2988 26.6885L15.0489 26.684C15.0346 27.4837 15.3941 28.1693 15.6488 28.6642L15.8711 28.5498ZM15.2988 26.6885L15.5488 26.693C15.561 26.0207 15.8898 25.317 16.7362 24.5254L16.5654 24.3428L16.3947 24.1602C15.4881 25.0081 15.0643 25.8314 15.0489 26.6839L15.2988 26.6885ZM31.9873 23.335L31.9873 23.585C32.369 23.585 32.7568 23.6314 33.0987 23.7254L33.165 23.4844L33.2313 23.2433C32.8398 23.1356 32.4067 23.085 31.9873 23.085L31.9873 23.335ZM33.165 23.4844L33.0987 23.7254C33.4364 23.8184 33.7536 23.9647 33.9708 24.1817L34.1475 24.0049L34.3242 23.828C34.0207 23.5248 33.6099 23.3476 33.2314 23.2433L33.165 23.4844ZM34.1475 24.0049L33.9705 24.1814C34.0677 24.2789 34.0678 24.4378 33.9704 24.5354L34.1475 24.7119L34.3245 24.8884C34.6163 24.5957 34.6165 24.1211 34.3245 23.8283L34.1475 24.0049ZM34.1475 24.7119L33.9707 24.5351C33.8734 24.6324 33.7149 24.6326 33.617 24.5349L33.4404 24.7119L33.2639 24.8889C33.5565 25.1809 34.0313 25.1817 34.3242 24.8887L34.1475 24.7119ZM33.4404 24.7119L33.617 24.5349C33.4856 24.4038 33.2619 24.2885 32.9668 24.2072L32.9004 24.4482L32.834 24.6893C33.0881 24.7593 33.2185 24.8437 33.2639 24.8889L33.4404 24.7119ZM32.9004 24.4482L32.9667 24.2072C32.6752 24.127 32.3326 24.085 31.9873 24.085L31.9873 24.335L31.9873 24.585C32.2952 24.585 32.5925 24.6228 32.8341 24.6893L32.9004 24.4482ZM31.9873 24.335L31.9873 24.085C31.6419 24.085 31.3012 24.1273 31.0116 24.2073L31.0781 24.4482L31.1447 24.6892C31.3844 24.623 31.6796 24.585 31.9873 24.585L31.9873 24.335ZM31.0781 24.4482L31.0115 24.2073C30.7175 24.2886 30.4972 24.4033 30.3689 24.5335L30.5469 24.709L30.7249 24.8845C30.7664 24.8424 30.8919 24.7591 31.1447 24.6892L31.0781 24.4482ZM30.5469 24.709L30.3686 24.5337C30.272 24.6319 30.1136 24.6333 30.015 24.5365L29.8398 24.7148L29.6647 24.8932C29.9598 25.1831 30.4346 25.1796 30.7251 24.8843L30.5469 24.709ZM29.8398 24.7148L30.0153 24.5368C29.9168 24.4397 29.9157 24.2813 30.0122 24.1831L29.834 24.0078L29.6558 23.8325C29.3652 24.1279 29.3698 24.6026 29.6644 24.8929L29.8398 24.7148ZM29.834 24.0078L30.0122 24.1832C30.227 23.9649 30.5421 23.8183 30.8782 23.7253L30.8115 23.4844L30.7449 23.2434C30.3674 23.3478 29.9574 23.526 29.6558 23.8324L29.834 24.0078ZM30.8115 23.4844L30.8781 23.7253C31.2187 23.6312 31.6056 23.585 31.9873 23.585L31.9873 23.335L31.9873 23.085C31.568 23.085 31.1356 23.1355 30.7449 23.2434L30.8115 23.4844ZM40.2656 23.335L40.2656 23.585C40.6474 23.585 41.0351 23.6313 41.377 23.7254L41.4434 23.4844L41.5097 23.2433C41.1181 23.1356 40.685 23.085 40.2657 23.085L40.2656 23.335ZM41.4434 23.4844L41.377 23.7254C41.7148 23.8184 42.0319 23.9646 42.249 24.1817L42.4258 24.0049L42.6025 23.8281C42.299 23.5246 41.8882 23.3476 41.5097 23.2433L41.4434 23.4844ZM42.4258 24.0049L42.2488 24.1814C42.3459 24.2787 42.346 24.4377 42.2486 24.5355L42.4258 24.7119L42.6029 24.8883C42.8943 24.5957 42.8948 24.1211 42.6028 23.8283L42.4258 24.0049ZM42.4258 24.7119L42.249 24.5351C42.1517 24.6324 41.9933 24.6326 41.8953 24.5349L41.7188 24.7119L41.5422 24.8889C41.8349 25.1809 42.3096 25.1817 42.6026 24.8887L42.4258 24.7119ZM41.7188 24.7119L41.8955 24.5351C41.764 24.4037 41.5402 24.2886 41.2451 24.2072L41.1787 24.4482L41.1123 24.6893C41.3667 24.7594 41.4969 24.8436 41.542 24.8887L41.7188 24.7119ZM41.1787 24.4482L41.245 24.2072C40.9536 24.127 40.6109 24.085 40.2657 24.085L40.2656 24.335L40.2656 24.585C40.5736 24.585 40.8708 24.6228 41.1124 24.6893L41.1787 24.4482ZM40.2656 24.335L40.2656 24.085C39.9203 24.085 39.5795 24.1273 39.2899 24.2073L39.3564 24.4482L39.423 24.6892C39.6628 24.623 39.9581 24.585 40.2657 24.585L40.2656 24.335ZM39.3564 24.4482L39.2898 24.2073C38.9959 24.2885 38.7757 24.4034 38.6474 24.5333L38.8252 24.709L39.003 24.8847C39.0448 24.8424 39.1706 24.759 39.4231 24.6892L39.3564 24.4482ZM38.8252 24.709L38.647 24.5337C38.5503 24.6319 38.3919 24.6333 38.2934 24.5365L38.1182 24.7148L37.943 24.8932C38.2382 25.1831 38.7129 25.1796 39.0034 24.8843L38.8252 24.709ZM38.1182 24.7148L38.2935 24.5367C38.1951 24.4398 38.1938 24.2814 38.2905 24.1831L38.1123 24.0078L37.9341 23.8325C37.6436 24.1278 37.6478 24.6026 37.9428 24.893L38.1182 24.7148ZM38.1123 24.0078L38.2904 24.1832C38.5053 23.965 38.8205 23.8182 39.1565 23.7253L39.0898 23.4844L39.0232 23.2434C38.6457 23.3478 38.2358 23.5262 37.9342 23.8324L38.1123 24.0078ZM39.0898 23.4844L39.1564 23.7254C39.4971 23.6313 39.884 23.585 40.2656 23.585L40.2656 23.335L40.2656 23.085C39.8464 23.085 39.4139 23.1355 39.0233 23.2434L39.0898 23.4844ZM44.624 19.5361L44.3741 19.5295C44.3217 21.5066 45.2599 22.7042 46.2784 23.4328L46.4238 23.2295L46.5693 23.0262C45.6561 22.3729 44.8268 21.3204 44.8739 19.5428L44.624 19.5361ZM46.4238 23.2295L46.2784 23.4329C46.9573 23.9183 47.6741 24.1954 48.1634 24.3446L48.2363 24.1055L48.3093 23.8663C47.8508 23.7265 47.1891 23.4694 46.5692 23.0261L46.4238 23.2295ZM48.2363 24.1055H48.4863V20.2256H48.2363H47.9863V24.1055H48.2363ZM48.2363 20.2256L48.2912 19.9817C47.0832 19.7099 45.8733 19.4796 44.6629 19.2892L44.624 19.5361L44.5852 19.7831C45.785 19.9718 46.9842 20.2001 48.1814 20.4695L48.2363 20.2256ZM28.0947 19.5342L28.0555 19.2873C26.8619 19.477 25.6664 19.708 24.4698 19.9809L24.5254 20.2246L24.581 20.4684C25.7668 20.198 26.9515 19.9691 28.134 19.7811L28.0947 19.5342ZM24.5254 20.2246H24.2754V24.0898H24.5254H24.7754V20.2246H24.5254ZM24.5254 24.0898L24.6004 24.3283C25.1268 24.1627 25.8836 23.8582 26.5788 23.3254L26.4268 23.127L26.2747 22.9285C25.642 23.4134 24.9448 23.6958 24.4503 23.8514L24.5254 24.0898ZM26.4268 23.127L26.5789 23.3254C27.5418 22.5871 28.3932 21.4099 28.3446 19.5277L28.0947 19.5342L27.8448 19.5406C27.8885 21.235 27.1344 22.2694 26.2746 22.9286L26.4268 23.127ZM29.291 8.85059L29.2907 9.10059C29.4289 9.10079 29.541 9.21313 29.541 9.35065L29.791 9.35059L30.041 9.35053C30.0409 8.93636 29.7046 8.60118 29.2914 8.60059L29.291 8.85059ZM29.791 9.35059H29.541V14.0107H29.791H30.041V9.35059H29.791ZM29.791 14.0107L29.541 14.0107C29.541 14.1482 29.429 14.2605 29.2907 14.2607L29.291 14.5107L29.2914 14.7607C29.7046 14.7601 30.041 14.425 30.041 14.0108L29.791 14.0107ZM29.291 14.5107V14.2607C29.153 14.2607 29.041 14.1488 29.041 14.0107L28.791 14.0107L28.541 14.0108C28.541 14.4249 28.8768 14.7607 29.291 14.7607V14.5107ZM28.791 14.0107H29.041V9.35059H28.791H28.541V14.0107H28.791ZM28.791 9.35059L29.041 9.35065C29.041 9.21252 29.153 9.10059 29.291 9.10059V8.85059V8.60059C28.8768 8.60059 28.5411 8.93647 28.541 9.35053L28.791 9.35059ZM43.1699 8.85059L43.1697 9.10059C43.3079 9.10072 43.4199 9.21293 43.4199 9.35065L43.6699 9.35059L43.9199 9.35053C43.9198 8.9364 43.5837 8.60099 43.1702 8.60059L43.1699 8.85059ZM43.6699 9.35059H43.4199V14.0107H43.6699H43.9199V9.35059H43.6699ZM43.6699 14.0107L43.4199 14.0107C43.4199 14.1484 43.3079 14.2606 43.1697 14.2607L43.1699 14.5107L43.1702 14.7607C43.5837 14.7603 43.9199 14.425 43.9199 14.0108L43.6699 14.0107ZM43.1699 14.5107V14.2607C43.0319 14.2607 42.9199 14.1488 42.9199 14.0107L42.6699 14.0107L42.4199 14.0108C42.42 14.4249 42.7557 14.7607 43.1699 14.7607V14.5107ZM42.6699 14.0107H42.9199V9.35059H42.6699H42.4199V14.0107H42.6699ZM42.6699 9.35059L42.9199 9.35065C42.92 9.21252 43.0319 9.10059 43.1699 9.10059V8.85059V8.60059C42.7557 8.60059 42.42 8.93647 42.4199 9.35053L42.6699 9.35059ZM36.2305 6.74219L36.2301 6.99219C36.3683 6.99238 36.4804 7.10474 36.4805 7.24231L36.7305 7.24219L36.9805 7.24207C36.9803 6.82807 36.6441 6.49278 36.2308 6.49219L36.2305 6.74219ZM36.7305 7.24219H36.4805V11.9062H36.7305H36.9805V7.24219H36.7305ZM36.7305 11.9062H36.4805C36.4805 12.0437 36.3685 12.1561 36.2301 12.1562L36.2305 12.4062L36.2308 12.6562C36.6441 12.6557 36.9805 12.3206 36.9805 11.9062H36.7305ZM36.2305 12.4062V12.1562C36.0924 12.1562 35.9805 12.0443 35.9805 11.9062H35.7305H35.4805C35.4805 12.3205 35.8163 12.6562 36.2305 12.6562V12.4062ZM35.7305 11.9062H35.9805V7.24219H35.7305H35.4805V11.9062H35.7305ZM35.7305 7.24219L35.9805 7.24231C35.9805 7.10414 36.0926 6.99219 36.2305 6.99219V6.74219V6.49219C35.8162 6.49219 35.4807 6.82818 35.4805 7.24207L35.7305 7.24219Z" fill="#0CC2FE"/>
</svg>
