<svg width="57" height="64" viewBox="0 0 57 64" fill="none" xmlns="http://www.w3.org/2000/svg">
<path d="M18.098 12.0248C15.197 12.0248 12.8369 9.66472 12.8369 6.76377C12.8369 6.26628 12.9065 5.77377 13.0435 5.29995C13.1263 5.01382 13.4249 4.84832 13.7115 4.93157C13.9976 5.01432 14.1626 5.31341 14.0799 5.59955C13.971 5.97591 13.9159 6.36772 13.9159 6.76377C13.9159 9.07003 15.792 10.9461 18.0982 10.9461C20.4045 10.9461 22.2805 9.07003 22.2805 6.76377C22.2805 6.37869 22.2284 5.99709 22.1253 5.63045C22.0448 5.34382 22.2117 5.04598 22.4986 4.96547C22.785 4.88446 23.0831 5.05221 23.1636 5.33884C23.2935 5.80069 23.3593 6.27998 23.3593 6.76377C23.359 9.66472 20.9989 12.0248 18.098 12.0248Z" fill="#0CC2FE"/>
<path d="M22.6749 6.01527H13.4461C13.1483 6.01527 12.9067 5.77375 12.9067 5.4759V0.539365C12.9067 0.241518 13.1483 0 13.4461 0H22.6749C22.9727 0 23.2142 0.241518 23.2142 0.539365V5.4759C23.2142 5.77375 22.9727 6.01527 22.6749 6.01527ZM13.9855 4.93654H22.1355V1.07873H13.9855V4.93654Z" fill="#0CC2FE"/>
<path d="M45.7547 20.621C42.9599 20.621 40.686 18.3472 40.686 15.5524C40.686 12.7576 42.9599 10.4838 45.7547 10.4838C48.5494 10.4838 50.8233 12.7576 50.8233 15.5524C50.8233 18.3472 48.5497 20.621 45.7547 20.621ZM45.7547 11.5625C43.5546 11.5625 41.7648 13.3523 41.7648 15.5524C41.7648 17.7525 43.5546 19.5423 45.7547 19.5423C47.9548 19.5423 49.7446 17.7525 49.7446 15.5524C49.7448 13.3523 47.9548 11.5625 45.7547 11.5625Z" fill="#0CC2FE"/>
<path d="M24.0758 15.439H11.5565C11.2586 15.439 11.0171 15.1974 11.0171 14.8996C11.0171 14.6017 11.2586 14.3602 11.5565 14.3602H24.0758C24.3736 14.3602 24.6151 14.6017 24.6151 14.8996C24.6151 15.1974 24.3736 15.439 24.0758 15.439Z" fill="#0CC2FE"/>
<path d="M12.1878 31.8884C11.89 31.8884 11.6484 31.6469 11.6484 31.349V22.0759C11.6484 21.778 11.89 21.5365 12.1878 21.5365C12.4857 21.5365 12.7272 21.778 12.7272 22.0759V31.349C12.7272 31.6469 12.4857 31.8884 12.1878 31.8884Z" fill="#0CC2FE"/>
<path d="M7.87481 31.8883C7.57697 31.8883 7.33545 31.6468 7.33545 31.349V18.7076C7.33545 16.3532 9.25064 14.4083 11.6045 14.3717L12.3488 14.3602H12.3572C12.6513 14.3602 12.8919 14.5963 12.8963 14.8911C12.9011 15.189 12.6633 15.4342 12.3655 15.4387L11.6212 15.4502C9.85282 15.4776 8.41418 16.9387 8.41418 18.7073V31.3487C8.41418 31.6468 8.17266 31.8883 7.87481 31.8883Z" fill="#0CC2FE"/>
<path d="M23.2044 31.9265C22.9066 31.9265 22.665 31.685 22.665 31.3871V22.0759C22.665 21.778 22.9066 21.5365 23.2044 21.5365C23.5023 21.5365 23.7438 21.778 23.7438 22.0759V31.3871C23.7438 31.685 23.5023 31.9265 23.2044 31.9265Z" fill="#0CC2FE"/>
<path d="M27.5172 31.9265C27.2193 31.9265 26.9778 31.685 26.9778 31.3871V18.7075C26.9778 16.9389 25.5392 15.4778 23.7708 15.4504L23.0266 15.439C22.7287 15.4342 22.4912 15.1892 22.4957 14.8914C22.5004 14.5963 22.7407 14.3605 23.0348 14.3605H23.0433L23.7875 14.3719C26.1414 14.4083 28.0566 16.3534 28.0566 18.7078V31.3874C28.0566 31.685 27.815 31.9265 27.5172 31.9265Z" fill="#0CC2FE"/>
<path d="M0.539365 62.1486C0.241518 62.1486 0 61.9071 0 61.6092V31.4793C0 31.1815 0.241518 30.9399 0.539365 30.9399H32.5865C32.8843 30.9399 33.1258 31.1815 33.1258 31.4793C33.1258 31.7772 32.8843 32.0187 32.5865 32.0187H1.07873V61.6092C1.07873 61.9071 0.837213 62.1486 0.539365 62.1486Z" fill="#0CC2FE"/>
<path d="M42.6427 63.6256C40.7522 63.6256 39.2139 62.0876 39.2139 60.1968V30.5237C39.2139 30.2259 39.4554 29.9844 39.7532 29.9844C40.0511 29.9844 40.2926 30.2259 40.2926 30.5237V60.1968C40.2926 61.4926 41.3467 62.5469 42.6427 62.5469C43.9388 62.5469 44.9929 61.4929 44.9929 60.1968V41.3257C44.9929 41.0279 45.2344 40.7864 45.5322 40.7864C45.8301 40.7864 46.0716 41.0279 46.0716 41.3257V60.1968C46.0716 62.0876 44.5332 63.6256 42.6427 63.6256Z" fill="#0CC2FE"/>
<path d="M48.4215 63.6256C46.531 63.6256 44.9927 62.0875 44.9927 60.1967V40.9528C44.9927 40.655 45.2342 40.4134 45.532 40.4134C45.8299 40.4134 46.0714 40.655 46.0714 40.9528V60.1967C46.0714 61.4926 47.1255 62.5469 48.4215 62.5469C49.7176 62.5469 50.7717 61.4928 50.7717 60.1967V30.5922C50.7717 30.2944 51.0132 30.0529 51.311 30.0529C51.6089 30.0529 51.8504 30.2944 51.8504 30.5922V60.1967C51.8501 62.0875 50.3121 63.6256 48.4215 63.6256Z" fill="#0CC2FE"/>
<path d="M33.8095 41.0201H26.72C26.4222 41.0201 26.1807 40.7786 26.1807 40.4808C26.1807 40.1829 26.4222 39.9414 26.72 39.9414H33.8095C34.1074 39.9414 34.3489 40.1829 34.3489 40.4808C34.3489 40.7786 34.1071 41.0201 33.8095 41.0201Z" fill="#0CC2FE"/>
<path d="M28.6761 44.6178C28.3782 44.6178 28.1367 44.3762 28.1367 44.0784V41.1288C28.1367 40.831 28.3782 40.5895 28.6761 40.5895C28.9739 40.5895 29.2154 40.831 29.2154 41.1288V44.0784C29.2154 44.3762 28.9739 44.6178 28.6761 44.6178Z" fill="#0CC2FE"/>
<path d="M31.9798 44.6178C31.6819 44.6178 31.4404 44.3762 31.4404 44.0784V41.1288C31.4404 40.831 31.6819 40.5895 31.9798 40.5895C32.2776 40.5895 32.5192 40.831 32.5192 41.1288V44.0784C32.5192 44.3762 32.2776 44.6178 31.9798 44.6178Z" fill="#0CC2FE"/>
<path d="M34.8887 62.5619H25.1639C23.8788 62.5619 22.833 61.5163 22.833 60.2312V46.0499C22.833 44.7648 23.8786 43.719 25.1639 43.719H34.8887C36.1738 43.719 37.2196 44.7646 37.2196 46.0499V60.2312C37.2194 61.5165 36.1738 62.5619 34.8887 62.5619ZM25.1639 44.798C24.4735 44.798 23.912 45.3595 23.912 46.0499V60.2312C23.912 60.9216 24.4735 61.4832 25.1639 61.4832H34.8887C35.5791 61.4832 36.1407 60.9216 36.1407 60.2312V46.0499C36.1407 45.3595 35.5791 44.798 34.8887 44.798H25.1639Z" fill="#0CC2FE"/>
<path d="M26.4442 64C26.1463 64 25.9048 63.7585 25.9048 63.4607V62.361C25.9048 62.0632 26.1463 61.8217 26.4442 61.8217C26.742 61.8217 26.9835 62.0632 26.9835 62.361V63.4607C26.9835 63.7585 26.742 64 26.4442 64Z" fill="#0CC2FE"/>
<path d="M33.0511 64C32.7532 64 32.5117 63.7585 32.5117 63.4607V62.361C32.5117 62.0632 32.7532 61.8217 33.0511 61.8217C33.3489 61.8217 33.5904 62.0632 33.5904 62.361V63.4607C33.5904 63.7585 33.3487 64 33.0511 64Z" fill="#0CC2FE"/>
<path d="M31.2828 34.628H25.9036C25.6058 34.628 25.3643 34.3865 25.3643 34.0887C25.3643 33.7908 25.6058 33.5493 25.9036 33.5493H31.2828C31.5807 33.5493 31.8222 33.7908 31.8222 34.0887C31.8222 34.3865 31.5807 34.628 31.2828 34.628Z" fill="#0CC2FE"/>
<path d="M23.8152 34.628H0.676084C0.378237 34.628 0.136719 34.3865 0.136719 34.0887C0.136719 33.7908 0.378237 33.5493 0.676084 33.5493H23.8152C24.113 33.5493 24.3546 33.7908 24.3546 34.0887C24.3546 34.3865 24.113 34.628 23.8152 34.628Z" fill="#0CC2FE"/>
<path d="M27.6995 58.2728C27.4017 58.2728 27.1602 58.0313 27.1602 57.7335V48.3798C27.1602 48.082 27.4017 47.8405 27.6995 47.8405C27.9974 47.8405 28.2389 48.082 28.2389 48.3798V57.7335C28.2389 58.0311 27.9974 58.2728 27.6995 58.2728Z" fill="#0CC2FE"/>
<path d="M32.4417 58.2728C32.1439 58.2728 31.9023 58.0313 31.9023 57.7335V48.3798C31.9023 48.082 32.1439 47.8405 32.4417 47.8405C32.7396 47.8405 32.9811 48.082 32.9811 48.3798V57.7335C32.9811 58.0311 32.7396 58.2728 32.4417 58.2728Z" fill="#0CC2FE"/>
<path d="M17.9469 22.9599C17.77 22.9599 17.6042 22.8729 17.5035 22.7273L12.3928 15.3427C12.2233 15.0977 12.2844 14.7617 12.5294 14.5922C12.7744 14.4228 13.1104 14.4838 13.2798 14.7288L17.9464 21.4721L22.5343 14.8278C22.7035 14.5828 23.0393 14.5212 23.2845 14.6904C23.5295 14.8597 23.5911 15.1957 23.4218 15.4407L18.3908 22.7271C18.2901 22.8729 18.1244 22.9599 17.9469 22.9599Z" fill="#0CC2FE"/>
<path d="M16.578 20.9786C16.5162 20.9786 16.4534 20.9679 16.3921 20.9455C16.1124 20.8428 15.9691 20.5327 16.0718 20.2533L17.401 16.6348C17.4785 16.4237 17.6789 16.2829 17.904 16.2816H17.9075C18.1311 16.2816 18.3317 16.4197 18.4112 16.6288L19.7763 20.2057C19.8825 20.4841 19.7432 20.7957 19.4648 20.9019C19.1864 21.0088 18.8748 20.8687 18.7686 20.5903L17.917 18.3591L17.0845 20.6257C17.004 20.8433 16.7976 20.9786 16.578 20.9786Z" fill="#0CC2FE"/>
<path d="M17.9193 17.7659C17.9183 17.7659 17.9173 17.7659 17.9163 17.7659C17.7262 17.7649 17.5507 17.6637 17.4542 17.5L16.1667 15.3091C16.0159 15.0524 16.1016 14.7219 16.3586 14.5708C16.6153 14.4203 16.9458 14.5058 17.0968 14.7628L17.9251 16.172L18.7593 14.7869C18.9131 14.5315 19.2443 14.4495 19.4995 14.6032C19.7548 14.757 19.837 15.0883 19.6832 15.3435L18.3812 17.5052C18.2837 17.667 18.1083 17.7659 17.9193 17.7659Z" fill="#0CC2FE"/>
<path d="M17.8915 25.2864C18.2042 25.2864 18.4578 25.0328 18.4578 24.7201C18.4578 24.4073 18.2042 24.1538 17.8915 24.1538C17.5787 24.1538 17.3252 24.4073 17.3252 24.7201C17.3252 25.0328 17.5787 25.2864 17.8915 25.2864Z" fill="#0CC2FE"/>
<path d="M17.8915 27.5255C18.2042 27.5255 18.4578 27.272 18.4578 26.9592C18.4578 26.6465 18.2042 26.3929 17.8915 26.3929C17.5787 26.3929 17.3252 26.6465 17.3252 26.9592C17.3252 27.272 17.5787 27.5255 17.8915 27.5255Z" fill="#0CC2FE"/>
<path d="M17.8915 29.6825C18.2042 29.6825 18.4578 29.429 18.4578 29.1162C18.4578 28.8035 18.2042 28.5499 17.8915 28.5499C17.5787 28.5499 17.3252 28.8035 17.3252 29.1162C17.3252 29.429 17.5787 29.6825 17.8915 29.6825Z" fill="#0CC2FE"/>
<path d="M53.4036 44.8683C51.966 44.8683 50.7965 43.6988 50.7965 42.2612C50.7965 41.9633 51.0381 41.7218 51.3359 41.7218C51.6337 41.7218 51.8753 41.9633 51.8753 42.2612C51.8753 43.1039 52.5607 43.7895 53.4036 43.7895C54.2466 43.7895 54.932 43.1041 54.932 42.2612V28.2302C54.932 26.2253 53.3009 24.5942 51.2963 24.5942H40.7143C39.3029 24.5942 38.0078 25.4217 37.4151 26.7026L32.3776 37.5829C32.1608 38.0512 32.1959 38.5694 32.4738 39.0041C32.7517 39.439 33.2071 39.6885 33.7233 39.6885C34.2893 39.6885 34.8137 39.359 35.0592 38.8488L39.2939 30.0489C39.4233 29.7805 39.7453 29.6681 40.0137 29.797C40.2822 29.9261 40.3951 30.2483 40.2657 30.5168L36.031 39.3166C35.6071 40.1979 34.7011 40.7672 33.723 40.7672C32.8447 40.7672 32.0376 40.3253 31.5646 39.585C31.0918 38.8448 31.0297 37.9268 31.3986 37.1297L36.4358 26.2495C37.2045 24.5887 38.8839 23.5155 40.7141 23.5155H51.296C53.8956 23.5155 56.0107 25.6306 56.0107 28.2302V42.2612C56.0107 43.6986 54.8413 44.8683 53.4036 44.8683Z" fill="#0CC2FE"/>
</svg>
