<svg width="54" height="64" viewBox="0 0 54 64" fill="none" xmlns="http://www.w3.org/2000/svg">
<path d="M50.6445 32.0548C50.6479 32.0522 49.6725 32.0593 49.672 32.0575L49.6607 28.0475C49.644 21.9961 47.2712 16.313 42.9778 12.0457C39.4185 8.50655 34.8857 6.31644 29.9905 5.6733C31.3938 3.23221 29.4343 -0.0806731 26.6015 0.0014993C23.7168 -0.0744673 21.7617 3.33405 23.2714 5.78191C12.6036 7.34248 4.09211 17.3469 4.32869 28.1709C4.32855 28.1709 4.33895 32.1828 4.33895 32.1828L3.37384 32.1854C0.434156 32.1046 -1.15541 35.9768 0.991134 37.9824C1.63444 38.6217 2.48809 38.9719 3.39394 38.969L14.9828 38.9371C14.7677 39.3189 14.3276 44.0352 14.2396 44.5622C13.1933 45.2347 11.1711 46.9758 10.9098 50.5048L8.5732 52.0512C7.7178 51.6751 6.68201 51.8292 5.95544 52.4122L3.89306 54.0428C3.40064 54.4323 3.31354 55.1455 3.69988 55.6411L9.86692 63.5614C10.2374 64.0542 11.0003 64.15 11.4782 63.7556L13.5406 62.125C14.4013 61.4451 14.7223 60.328 14.4417 59.3287L19.3079 55.4809C19.6953 55.1751 20.1855 54.948 20.7561 54.8079C22.1016 54.487 24.7078 53.3229 27.0348 49.1309C27.3285 48.6013 27.7651 48.1566 28.2955 47.8469L38.4857 41.9339C39.6231 41.2731 40.3207 40.1168 40.436 38.8671L50.6556 38.8389C55.1043 38.7165 55.129 32.1731 50.6445 32.0548ZM26.6016 2.28716C28.6573 2.32378 28.6571 5.42273 26.6015 5.45907C24.5458 5.42245 24.5461 2.32344 26.6016 2.28716ZM41.3655 13.6663C45.2255 17.5033 47.3594 22.6127 47.3739 28.0542L47.3851 32.0638L6.62541 32.1764L6.61536 28.1647C6.58612 10.0811 28.528 0.930698 41.3655 13.6663ZM12.1225 60.3325L10.9635 61.2482L6.2011 55.1321L7.37355 54.2046C7.57174 54.069 7.71174 54.1312 7.86234 54.2784L12.1817 59.8258C12.3034 59.9826 12.2766 60.2097 12.1225 60.3325ZM37.3367 39.9578L27.1454 45.8714C26.2566 46.3898 25.5274 47.1342 25.035 48.0226C23.1334 51.4473 21.205 52.3508 20.2168 52.5863C19.3202 52.8073 18.5374 53.1773 17.8909 53.6873L13.1926 57.4026L10.2806 53.6627L12.6573 52.0902C12.9722 51.8815 13.1643 51.531 13.1699 51.1538C13.2223 47.5154 15.6666 46.3636 15.7593 46.3211C16.1356 46.1593 16.3969 45.8089 16.4438 45.4026L17.0747 39.9561C17.1227 39.5458 17.3321 39.1814 17.6397 38.9297L19.5672 38.9244C19.9187 39.2116 20.1358 39.6299 20.1442 40.0889L20.1543 45.3981C20.1294 46.2573 21.1601 46.8408 21.8839 46.3769C21.8839 46.3769 34.4338 38.8836 34.4338 38.8836L38.1104 38.8734C38.0087 39.3162 37.751 39.7172 37.3367 39.9578ZM22.2266 38.9171L29.9547 38.8959L22.4377 43.3842C22.3985 42.5171 22.5708 39.6998 22.2266 38.9171ZM50.6489 36.5532C40.2696 36.5817 14.0708 36.6538 3.38725 36.6832C3.09142 36.6841 2.81289 36.5696 2.60339 36.3618C1.91214 35.7073 2.41587 34.445 3.38062 34.4711C5.38388 34.4661 48.6371 34.3465 50.6422 34.3405C52.0784 34.3574 52.1173 36.5212 50.6489 36.5532Z" fill="#0CC2FE"/>
</svg>
