<svg width="57" height="64" viewBox="0 0 57 64" fill="none" xmlns="http://www.w3.org/2000/svg">
<path d="M28.2502 13.5097C27.8314 13.5097 27.4919 13.1703 27.4919 12.7514V7.26989C27.4919 6.85101 27.8314 6.5116 28.2502 6.5116C28.6691 6.5116 29.0085 6.85101 29.0085 7.26989V12.7514C29.0085 13.1703 28.6691 13.5097 28.2502 13.5097Z" fill="#0CC2FE"/>
<path d="M28.2502 57.4884C27.8314 57.4884 27.4919 57.149 27.4919 56.7301V51.2485C27.4919 50.8296 27.8314 50.4902 28.2502 50.4902C28.6691 50.4902 29.0085 50.8296 29.0085 51.2485V56.7301C29.0085 57.149 28.6691 57.4884 28.2502 57.4884Z" fill="#0CC2FE"/>
<path d="M6.83436 45.1234C6.57259 45.1234 6.3175 44.9875 6.17707 44.7442C5.96778 44.3814 6.09214 43.9177 6.4546 43.7084L11.2015 40.9676C11.5634 40.7583 12.0278 40.8821 12.2374 41.2451C12.4466 41.6079 12.3223 42.0717 11.9598 42.281L7.2129 45.0217C7.09339 45.0906 6.96296 45.1234 6.83436 45.1234Z" fill="#0CC2FE"/>
<path d="M44.9208 23.1343C44.659 23.1343 44.4039 22.9985 44.2635 22.7552C44.0542 22.3924 44.1786 21.9287 44.541 21.7194L49.2879 18.9786C49.6498 18.7693 50.1142 18.8931 50.3238 19.2561C50.5331 19.6189 50.4087 20.0827 50.0462 20.292L45.2993 23.0327C45.1798 23.1016 45.0497 23.1343 44.9208 23.1343Z" fill="#0CC2FE"/>
<path d="M11.5801 23.1343C11.4512 23.1343 11.321 23.1015 11.2015 23.0327L6.4546 20.2919C6.09214 20.0826 5.96778 19.6188 6.17707 19.2561C6.38636 18.8933 6.85104 18.7692 7.2129 18.9785L11.9598 21.7193C12.3223 21.9286 12.4466 22.3924 12.2374 22.7551C12.0969 22.9981 11.8418 23.1343 11.5801 23.1343Z" fill="#0CC2FE"/>
<path d="M49.6665 45.1233C49.5376 45.1233 49.4075 45.0905 49.2879 45.0217L44.541 42.2809C44.1786 42.0716 44.0542 41.6078 44.2635 41.2451C44.4731 40.8823 44.9375 40.7582 45.2993 40.9675L50.0462 43.7083C50.4087 43.9176 50.5331 44.3814 50.3238 44.7441C50.1836 44.9871 49.9286 45.1233 49.6665 45.1233Z" fill="#0CC2FE"/>
<path d="M28.2504 8.02821C30.464 8.02821 32.2645 6.22741 32.2645 4.0141C32.2645 1.8008 30.464 0 28.2504 0C26.0368 0 24.2363 1.8008 24.2363 4.0141C24.2363 6.22741 26.0368 8.02821 28.2504 8.02821ZM28.2504 1.51659C29.6275 1.51659 30.7479 2.63704 30.7479 4.0141C30.7479 5.39117 29.6275 6.51162 28.2504 6.51162C26.8734 6.51162 25.7529 5.39117 25.7529 4.0141C25.7529 2.63704 26.8734 1.51659 28.2504 1.51659Z" fill="#0CC2FE"/>
<path d="M28.2504 55.9718C26.0368 55.9718 24.2363 57.7726 24.2363 59.9859C24.2363 62.1992 26.0368 64 28.2504 64C30.464 64 32.2645 62.1992 32.2645 59.9859C32.2645 57.7726 30.464 55.9718 28.2504 55.9718ZM28.2504 62.4834C26.8734 62.4834 25.7529 61.363 25.7529 59.9859C25.7529 58.6088 26.8734 57.4884 28.2504 57.4884C29.6275 57.4884 30.7479 58.6088 30.7479 59.9859C30.7479 61.363 29.6275 62.4834 28.2504 62.4834Z" fill="#0CC2FE"/>
<path d="M4.0141 41.9785C1.80049 41.9785 0 43.7793 0 45.9926C0 48.2059 1.8008 50.0067 4.0141 50.0067C6.22741 50.0067 8.02821 48.2059 8.02821 45.9926C8.02821 43.7793 6.22772 41.9785 4.0141 41.9785ZM4.0141 48.4904C2.63704 48.4904 1.51659 47.37 1.51659 45.9929C1.51659 44.6159 2.63704 43.4954 4.0141 43.4954C5.39117 43.4954 6.51162 44.6159 6.51162 45.9929C6.51162 47.37 5.39117 48.4904 4.0141 48.4904Z" fill="#0CC2FE"/>
<path d="M52.4868 22.0215C54.7004 22.0215 56.5009 20.2207 56.5009 18.0074C56.5009 15.7941 54.7001 13.9933 52.4868 13.9933C50.2735 13.9933 48.4727 15.7938 48.4727 18.0071C48.4727 20.2204 50.2732 22.0215 52.4868 22.0215ZM52.4868 15.5096C53.8638 15.5096 54.9843 16.63 54.9843 18.0071C54.9843 19.3841 53.8638 20.5046 52.4868 20.5046C51.1097 20.5046 49.9892 19.3841 49.9892 18.0071C49.9892 16.63 51.1097 15.5096 52.4868 15.5096Z" fill="#0CC2FE"/>
<path d="M52.4868 41.9785C50.2732 41.9785 48.4727 43.7793 48.4727 45.9926C48.4727 48.2059 50.2735 50.0067 52.4868 50.0067C54.7001 50.0067 56.5009 48.2059 56.5009 45.9926C56.5009 43.7793 54.7004 41.9785 52.4868 41.9785ZM52.4868 48.4904C51.1097 48.4904 49.9892 47.37 49.9892 45.9929C49.9892 44.6159 51.1097 43.4954 52.4868 43.4954C53.8638 43.4954 54.9843 44.6159 54.9843 45.9929C54.9843 47.37 53.8638 48.4904 52.4868 48.4904Z" fill="#0CC2FE"/>
<path d="M4.0141 13.9929C1.80049 13.9929 0 15.7937 0 18.007C0 20.2203 1.8008 22.0211 4.0141 22.0211C6.22741 22.0211 8.02821 20.2206 8.02821 18.007C8.02821 15.7934 6.22772 13.9929 4.0141 13.9929ZM4.0141 20.5048C2.63704 20.5048 1.51659 19.3844 1.51659 18.0073C1.51659 16.6303 2.63704 15.5098 4.0141 15.5098C5.39117 15.5098 6.51162 16.6303 6.51162 18.0073C6.51162 19.3844 5.39117 20.5048 4.0141 20.5048Z" fill="#0CC2FE"/>
<path d="M28.2505 11.9932C17.2188 11.9932 8.24365 20.968 8.24365 32C8.24365 43.0319 17.2188 52.0068 28.2505 52.0068C39.2821 52.0068 48.2573 43.0319 48.2573 32C48.2573 20.968 39.2821 11.9932 28.2505 11.9932ZM42.1591 19.837C40.7584 20.6265 39.1265 21.2814 37.3327 21.7846C36.3309 18.5142 34.8543 15.8653 33.0696 14.151C36.6427 15.1167 39.7881 17.1286 42.1591 19.837ZM46.7213 31.2417H38.7544C38.7007 28.3665 38.3449 25.6625 37.7401 23.2429C39.7486 22.6796 41.571 21.9338 43.1236 21.0302C45.2542 23.9108 46.5666 27.4293 46.7213 31.2417ZM43.124 42.9695C41.5704 42.065 39.7492 41.3185 37.7407 40.7552C38.3452 38.336 38.7007 35.6328 38.7547 32.7583H46.7216C46.5666 36.5707 45.2542 40.0889 43.124 42.9695ZM27.501 50.4177C24.6716 49.9115 22.1687 46.5777 20.6818 41.8363C22.8096 41.3616 25.116 41.0877 27.501 41.0404V50.4177ZM29.0176 50.415V41.0407C31.3977 41.0892 33.6978 41.3625 35.8192 41.8357C34.3356 46.5674 31.8399 49.8978 29.0176 50.415ZM28.2608 39.5135C28.2602 39.5135 28.2599 39.5135 28.2593 39.5135C28.259 39.5135 28.2587 39.5135 28.2581 39.5135C28.2553 39.5135 28.2529 39.5135 28.2502 39.5135C25.4624 39.5135 22.7531 39.8159 20.2684 40.3779C19.6775 38.0609 19.3193 35.4751 19.2626 32.7583H20.0375C20.4564 32.7583 20.7958 32.4189 20.7958 32C20.7958 31.5811 20.4564 31.2417 20.0375 31.2417H19.2626C19.319 28.5252 19.6775 25.9394 20.2681 23.6227C22.7519 24.1844 25.46 24.4865 28.2502 24.4865H28.2581H28.2593H28.2608C31.0449 24.4859 33.7502 24.1835 36.2323 23.6221C36.8231 25.9391 37.1814 28.5249 37.2381 31.242H36.4631C36.0442 31.242 35.7048 31.5814 35.7048 32.0003C35.7048 32.4192 36.0442 32.7586 36.4631 32.7586H37.2381C37.1817 35.4751 36.8231 38.0609 36.2326 40.3776C33.752 39.8165 31.0474 39.5144 28.2608 39.5135ZM9.77935 32.7583H17.7463C17.8 35.6334 18.1558 38.3372 18.7606 40.7568C16.752 41.32 14.9297 42.0659 13.377 42.9698C11.2468 40.0892 9.93434 36.5707 9.77935 32.7583ZM13.377 21.0305C14.9306 21.935 16.7517 22.6815 18.7603 23.2447C18.1558 25.664 17.8003 28.3672 17.7463 31.2417H9.77935C9.93434 27.4293 11.2468 23.9111 13.377 21.0305ZM29.0176 13.585C31.8396 14.1021 34.3353 17.432 35.8189 22.1634C33.6962 22.6369 31.3959 22.9108 29.0176 22.9593V13.585ZM27.501 13.5822V22.9596C25.1148 22.9123 22.8084 22.6387 20.6818 22.1643C22.1684 17.4225 24.6716 14.0885 27.501 13.5822ZM23.4314 14.151C21.6463 15.8656 20.1698 18.5151 19.1676 21.7861C17.3738 21.2829 15.7414 20.628 14.3406 19.8382C16.712 17.1292 19.8577 15.1167 23.4314 14.151ZM14.3415 44.163C15.7423 43.3735 17.3741 42.7186 19.1679 42.2154C20.1698 45.4858 21.6463 48.1347 23.4311 49.849C19.8583 48.8832 16.7129 46.8713 14.3415 44.163ZM33.0696 49.849C34.8546 48.1344 36.3312 45.4849 37.3333 42.2139C39.1271 42.7171 40.7593 43.372 42.1603 44.1621C39.7887 46.8707 36.643 48.8832 33.0696 49.849Z" fill="#0CC2FE"/>
<path d="M32.5561 35.5578H23.8232C23.4044 35.5578 23.0649 35.2184 23.0649 34.7996C23.0649 34.3807 23.4044 34.0413 23.8232 34.0413H32.5561C32.9749 34.0413 33.3143 34.3807 33.3143 34.7996C33.3143 35.2184 32.9749 35.5578 32.5561 35.5578Z" fill="#0CC2FE"/>
<path d="M32.5561 38.1285H23.8232C23.4044 38.1285 23.0649 37.7891 23.0649 37.3702V32.4601C22.2411 31.909 21.731 30.9766 21.731 29.9653C21.731 28.3098 23.0777 26.9631 24.7329 26.9631C25.0984 26.9631 25.4536 27.028 25.7875 27.1539C26.3374 26.3631 27.2456 25.8715 28.2505 25.8715C29.2554 25.8715 30.1638 26.3628 30.7134 27.1539C31.0474 27.028 31.4022 26.9631 31.768 26.9631C33.4232 26.9631 34.77 28.3098 34.77 29.9653C34.77 31.0233 34.2025 31.9988 33.3144 32.5353V37.3699C33.3144 37.7888 32.9749 38.1285 32.5561 38.1285ZM24.5815 36.6119H31.7978V32.064C31.7978 31.7479 31.9937 31.4652 32.2891 31.3542C32.8657 31.1377 33.2534 30.5793 33.2534 29.9653C33.2534 29.1461 32.587 28.4797 31.768 28.4797C31.4359 28.4797 31.1208 28.5886 30.8566 28.7948C30.6606 28.9474 30.4022 28.9944 30.1653 28.9213C29.9281 28.8476 29.7419 28.6623 29.667 28.4254C29.471 27.8051 28.9017 27.3884 28.2505 27.3884C27.5992 27.3884 27.0302 27.8051 26.834 28.4254C26.7591 28.6623 26.5731 28.8476 26.3356 28.9213C26.099 28.995 25.8403 28.9477 25.6444 28.7948C25.3802 28.5886 25.065 28.4797 24.7329 28.4797C23.9139 28.4797 23.2475 29.1461 23.2475 29.9653C23.2475 30.5513 23.5945 31.084 24.1314 31.3224C24.405 31.444 24.5815 31.7158 24.5815 32.0155V36.6119Z" fill="#0CC2FE"/>
</svg>
