<svg width="64" height="64" viewBox="0 0 64 64" fill="none" xmlns="http://www.w3.org/2000/svg">
<path d="M33.3332 56H11.9998C9.79984 56 7.99984 54.2 7.99984 52V34.532C8.4305 34.62 8.87717 34.6666 9.33317 34.6666H13.3332C13.3332 36.872 15.1278 38.6666 17.3332 38.6666C19.5385 38.6666 21.3332 36.872 21.3332 34.6666H41.3332C41.3332 36.872 43.1278 38.6666 45.3332 38.6666C47.5385 38.6666 49.3332 36.872 49.3332 34.6666H53.3332C53.7892 34.6666 54.2358 34.62 54.6665 34.532V40.2133C54.6665 40.9466 55.2665 41.5466 55.9998 41.5466C56.7332 41.5466 57.3332 40.9466 57.3332 40.2133V33.2986C58.9425 32.08 59.9998 30.168 59.9998 28V20C59.9998 16.324 57.0092 13.3333 53.3332 13.3333H43.9998V9.33329C43.9998 5.65729 41.0092 2.66663 37.3332 2.66663H25.3332C21.6572 2.66663 18.6665 5.65729 18.6665 9.33329V13.3333H9.33317C5.65717 13.3333 2.6665 16.324 2.6665 20V28C2.6665 30.1693 3.72384 32.0813 5.33317 33.2986V52C5.33317 55.68 8.31984 58.6666 11.9998 58.6666H33.3332C34.0665 58.6666 34.6665 58.0666 34.6665 57.3333C34.6665 56.6 34.0665 56 33.3332 56ZM18.6665 34.6666C18.6665 35.4026 18.0692 36 17.3332 36C16.5972 36 15.9998 35.4026 15.9998 34.6666V32C15.9998 31.2653 16.5972 30.6666 17.3332 30.6666C18.0692 30.6666 18.6665 31.2653 18.6665 32V34.6666ZM46.6665 34.6666C46.6665 35.4026 46.0692 36 45.3332 36C44.5972 36 43.9998 35.4026 43.9998 34.6666V32C43.9998 31.2653 44.5972 30.6666 45.3332 30.6666C46.0692 30.6666 46.6665 31.2653 46.6665 32V34.6666ZM21.3332 9.33329C21.3332 7.12796 23.1278 5.33329 25.3332 5.33329H37.3332C39.5385 5.33329 41.3332 7.12796 41.3332 9.33329V13.3333H38.6665V9.33329C38.6665 8.59729 38.0705 7.99996 37.3332 7.99996H25.3332C24.5958 7.99996 23.9998 8.59729 23.9998 9.33329V13.3333H21.3332V9.33329ZM26.6665 13.3333V10.6666H35.9998V13.3333H26.6665ZM5.33317 20C5.33317 17.7946 7.12784 16 9.33317 16H53.3332C55.5385 16 57.3332 17.7946 57.3332 20V28C57.3332 30.2053 55.5385 32 53.3332 32H49.3332C49.3332 29.7946 47.5385 28 45.3332 28C43.1278 28 41.3332 29.7946 41.3332 32H21.3332C21.3332 29.7946 19.5385 28 17.3332 28C15.1278 28 13.3332 29.7946 13.3332 32H9.33317C7.12784 32 5.33317 30.2053 5.33317 28V20Z" fill="#0CC2FE"/>
<path d="M60.1067 46.1973L48.86 41.6294C47.888 41.236 46.7774 41.236 45.8054 41.6294L34.5587 46.1973C33.8134 46.5 33.332 47.208 33.332 48C33.332 48.792 33.8134 49.5 34.5587 49.8027L37.332 50.9293V57.1333C37.332 58.1947 37.952 59.1547 38.9174 59.5827C41.5814 60.744 44.412 61.3333 47.332 61.3333C50.252 61.3333 53.0814 60.744 55.752 59.5787C56.712 59.1547 57.332 58.1947 57.332 57.1333V50.9293L60.1054 49.8027C60.8507 49.5 61.332 48.792 61.332 48C61.332 47.208 60.8507 46.5 60.1054 46.1973H60.1067ZM54.68 57.1374C50.0294 59.168 44.6254 59.172 40 57.1333V52.012L45.8054 54.3707C46.2907 54.5667 46.812 54.6667 47.3334 54.6667C47.8547 54.6667 48.3747 54.568 48.8614 54.3707L54.6707 52.0107L54.68 57.1374ZM47.8587 51.8987C47.524 52.0347 47.1414 52.0347 46.8094 51.8987L37.2107 48L46.8094 44.1014C47.144 43.9654 47.5267 43.9654 47.8587 44.1014L57.4574 48L47.8587 51.8987Z" fill="#0CC2FE"/>
</svg>
