<svg width="64" height="64" viewBox="0 0 64 64" fill="none" xmlns="http://www.w3.org/2000/svg">
<path fill-rule="evenodd" clip-rule="evenodd" d="M53.4825 40.3826C52.9162 40.9489 51.9899 40.9475 51.4272 40.3826C50.8653 39.8163 50.8653 38.8967 51.4272 38.3303C52.3305 37.4263 53.9039 38.0554 53.9039 39.3564C53.9039 39.7439 53.7561 40.1084 53.4825 40.3826ZM50.1851 37.0898C48.9357 38.34 48.9358 40.3731 50.1852 41.6226C51.4355 42.8727 53.4651 42.8809 54.7172 41.6224C55.9824 40.3509 55.9774 38.3491 54.7171 37.0897C53.4677 35.8404 51.4345 35.8396 50.1851 37.0898ZM56.4547 43.3598C57.5267 42.2907 58.118 40.869 58.118 39.3564C58.1179 35.4693 54.2421 32.7122 50.5473 34.024C50.2221 34.1385 49.8672 34.058 49.6306 33.8177L47.7823 31.9739C47.619 32.207 45.4609 34.3254 45.0839 34.7021L46.9174 36.5326C47.1539 36.7721 47.2353 37.1292 47.1244 37.4486C46.3852 39.5009 46.9101 41.8208 48.4479 43.36C50.6587 45.5702 54.2492 45.5776 56.4547 43.3598ZM39.4281 36.702C38.8441 36.9068 37.9125 37.0916 36.9219 37.2876C34.4008 37.7866 32.6856 38.18 31.939 39.0562L21.5963 51.1339C18.0565 50.843 15.0855 48.3684 14.1883 44.9134L23.4812 33.473C25.6769 30.7738 27.1038 28.8973 27.0002 27.4675C26.8524 25.4189 27.5399 23.5788 28.9888 22.1452L32.0643 19.1066C33.457 17.7299 33.9861 18.173 34.2453 18.4352L40.1969 24.3821C39.5907 24.9262 38.977 25.2058 38.3338 25.2316C37.0992 25.2798 35.6205 24.4206 33.8166 22.6005C33.1751 21.9475 32.0849 22.6166 32.3528 23.4803C33.4766 27.0629 32.9444 29.8791 30.7191 32.0889C30.1567 32.6446 30.5622 33.5889 31.3328 33.5889C31.5619 33.5889 31.7837 33.5039 31.9538 33.3338C34.0608 31.2423 34.9479 28.6523 34.6078 25.6131C36.0278 26.6396 37.2818 27.0706 38.5852 26.9726C38.2355 29.6802 41.1432 31.5459 43.45 30.2158C43.7116 31.0208 44.4387 31.7659 45.2243 32.0818L42.5851 34.7212C41.6534 35.6558 40.6775 36.2665 39.4281 36.702ZM30.6378 43.2695L24.0434 50.9763C27.7025 50.1946 30.4319 47.0459 30.6378 43.2695ZM20.243 34.6775C16.6207 35.5786 14.0767 38.7798 13.9295 42.4544L20.243 34.6775ZM38.6076 41.1319L38.0013 38.8608C36.6561 39.1382 33.749 39.6398 33.2698 40.1983L32.3013 41.3294C32.7598 44.4908 31.7101 47.6882 29.4404 49.9573C25.4906 53.9058 19.0762 53.9056 15.1273 49.9577C11.1793 46.0099 11.1792 39.5867 15.1269 35.6379C16.9383 33.8258 19.3187 32.7863 21.862 32.6834C23.0495 31.2278 25.3088 28.4974 25.248 27.5954C25.2332 27.3315 25.2259 27.0713 25.2259 26.8124L23.9469 26.4709L21.7143 29.908C21.5739 30.1328 21.3299 30.2777 21.0637 30.3035C19.6812 30.438 18.3431 30.7952 17.0862 31.3674C16.8423 31.4777 16.5613 31.4716 16.3248 31.3497L12.68 29.4903L8.97589 33.1917L10.8391 36.8395C10.9573 37.0782 10.9648 37.3577 10.8539 37.6009C10.2847 38.8593 9.92245 40.1974 9.78933 41.5807C9.76719 41.8462 9.61935 42.0857 9.39752 42.2321L5.95983 44.4649L7.31292 49.5187L11.4014 49.733C11.6675 49.7471 11.9114 49.8809 12.0667 50.0974C12.886 51.2433 13.8436 52.1889 14.987 53.0117C15.2014 53.1676 15.3345 53.4131 15.3494 53.68L15.5639 57.7706L20.6208 59.1249L22.8534 55.6863C22.9939 55.4631 23.2378 55.3166 23.504 55.2908C24.8865 55.1577 26.2247 54.7998 27.4815 54.2282C27.7255 54.1174 28.0064 54.1241 28.243 54.2453L31.8878 56.1038L35.5916 52.4042L33.7358 48.7565C33.6101 48.5192 33.6027 48.2382 33.7136 47.995C34.2902 46.7359 34.645 45.3964 34.7781 44.0145C34.8003 43.749 34.9481 43.5088 35.1774 43.3623L38.6076 41.1319ZM27.9684 17.5874L29.5283 19.1443L30.8295 17.8586C31.4209 17.2679 31.9753 16.8886 32.4707 16.6631L30.6815 14.8732C30.0087 14.1975 29.6982 13.3037 29.8238 12.3559L30.2747 8.72207C30.3264 8.31171 30.2007 7.95535 29.9125 7.66339L27.4209 5.17123C27.1547 4.90588 26.8443 4.78236 26.4672 4.79939L23.3399 4.92585L26.6669 8.25641C26.8369 8.42716 26.933 8.6623 26.9257 8.9055L26.7927 12.8512C26.778 13.3133 26.4083 13.6837 25.95 13.6992L22.0021 13.8294C21.7581 13.8376 21.5216 13.7452 21.3514 13.5729L18.0245 10.2423L17.8989 13.3712C17.8842 13.7453 18.0025 14.0565 18.2686 14.3218L20.7601 16.8147C21.0558 17.1061 21.4107 17.2295 21.8172 17.1778L25.4546 16.7237C26.4009 16.6042 27.2955 16.9124 27.9684 17.5874ZM38.3703 15.1754L35.9159 17.6256L38.0599 19.7644L40.507 17.3142C41.0984 16.7249 41.0984 15.7653 40.507 15.1753C39.9155 14.5869 38.9544 14.5863 38.3703 15.1754ZM43.8857 18.5555C43.2942 17.9664 42.3331 17.9664 41.7491 18.5555L39.2947 21.0042L41.4387 23.1445L43.8858 20.6943C44.4764 20.1009 44.478 19.1555 43.8857 18.5555ZM45.1278 21.9356L41.912 25.1532L41.9045 25.1473C41.8084 25.2522 41.7123 25.3521 41.6161 25.4482L40.6477 26.427C40.1598 27.0236 40.2042 27.9102 40.7438 28.4549C41.3353 29.0435 42.2965 29.0449 42.8878 28.4534L44.1447 27.198C44.1447 27.1972 44.1447 27.1972 44.1447 27.1958L47.2644 24.0744C47.8559 23.4844 47.8558 22.5255 47.2644 21.9355C46.673 21.3456 45.7193 21.3456 45.1278 21.9356ZM49.8226 27.5203C50.3031 27.0345 50.3031 26.2457 49.8226 25.7614C49.3347 25.2772 48.5436 25.2772 48.063 25.76L45.3868 28.4386C44.9284 28.8947 44.9284 29.6362 45.3868 30.0924L45.4902 30.196C45.9413 30.6522 46.6879 30.6522 47.1463 30.196L49.8226 27.5203ZM57.6964 34.111C55.8185 32.2288 53.0387 31.508 50.4955 32.2023L49.0538 30.7643L51.0573 28.7607C52.8146 27.0078 51.7874 24.0421 49.3937 23.6773C49.8201 21.6026 48.2129 19.6648 46.074 19.7421C46.0814 19.7037 46.0814 19.6652 46.0814 19.6252C46.0814 17.7704 44.5463 16.2907 42.7027 16.3634C42.7323 15.488 42.4144 14.6024 41.749 13.9355C40.47 12.6617 38.3999 12.6618 37.1283 13.9356L34.6739 16.3843L31.9236 13.6327C31.6352 13.3399 31.5096 12.9843 31.5614 12.574L32.0122 8.94031C32.1304 7.99247 31.8273 7.09865 31.1546 6.42294L28.6556 3.93001C28.042 3.31715 27.2657 3.01033 26.3934 3.04515L21.2625 3.25302C20.5051 3.28374 20.1429 4.21148 20.6785 4.74934L25.1589 9.22806L25.0704 11.9724L22.3274 12.0626L17.8471 7.5839C17.2979 7.0399 16.3774 7.41852 16.3463 8.1695L16.1394 13.2996C16.1098 14.1668 16.4129 14.949 17.0267 15.5634L19.5182 18.0556C20.1984 18.7321 21.0856 19.0381 22.0319 18.9191L25.6693 18.465C26.0833 18.4133 26.4382 18.536 26.7265 18.8288L28.2791 20.3792L27.7541 20.8988C26.5564 22.0848 25.7728 23.4924 25.4254 25.0494L24.0503 24.6812C23.5254 24.5408 22.9709 24.7537 22.6752 25.2106L20.4722 28.6048C19.1858 28.7675 17.9438 29.101 16.7536 29.5986L13.153 27.763C12.6651 27.5145 12.081 27.6085 11.6967 27.9944L7.48264 32.2064C7.09084 32.5938 7.00213 33.1801 7.2461 33.6658L9.08712 37.2684C8.58447 38.4557 8.2518 39.7029 8.08911 40.9864L4.6957 43.1897C4.23733 43.4861 4.03036 44.0398 4.1709 44.5692L5.70882 50.324C5.84924 50.8503 6.31503 51.2237 6.8548 51.2525L10.8988 51.4646C11.6748 52.4941 12.5965 53.4046 13.6196 54.1859L13.8267 58.2254C13.8563 58.7696 14.2334 59.2309 14.7583 59.3721L20.5175 60.9142C21.0322 61.0547 21.5921 60.8473 21.8926 60.3856L24.0956 56.9913C25.382 56.8286 26.624 56.4951 27.8143 55.9975L31.4148 57.8323C31.9027 58.08 32.4868 57.9876 32.8786 57.6017L37.0852 53.3882C37.477 53.0023 37.5657 52.416 37.3217 51.9303L35.4807 48.3291C35.9834 47.1396 36.3161 45.8922 36.4787 44.6089L39.8721 42.4057C40.3305 42.1084 40.5449 41.5555 40.3971 41.0276L39.7095 38.4548C39.813 38.4231 39.9164 38.3912 40.0051 38.3587C41.4985 37.8389 42.7109 37.0774 43.8274 35.9625L43.8422 35.944L45.2987 37.3982C44.6038 39.9451 45.3284 42.719 47.2063 44.6012C50.0995 47.4946 54.7917 47.5066 57.6972 44.601C60.601 41.6967 60.5943 37.0011 57.6964 34.111Z" fill="#0CC2FE"/>
</svg>
