<svg width="32" height="32" viewBox="0 0 32 32" fill="none" xmlns="http://www.w3.org/2000/svg">
<path fill-rule="evenodd" clip-rule="evenodd" d="M30 9C30 8.204 29.684 7.441 29.121 6.879C28.559 6.316 27.796 6 27 6C22.157 6 9.843 6 5 6C4.204 6 3.441 6.316 2.879 6.879C2.316 7.441 2 8.204 2 9V23C2 23.796 2.316 24.559 2.879 25.121C3.441 25.684 4.204 26 5 26H27C27.796 26 28.559 25.684 29.121 25.121C29.684 24.559 30 23.796 30 23V9ZM28 9V23C28 23.265 27.895 23.52 27.707 23.707C27.519 23.895 27.265 24 27 24C22.157 24 9.843 24 5 24C4.735 24 4.48 23.895 4.293 23.707C4.105 23.52 4 23.265 4 23C4 19.537 4 12.463 4 9C4 8.735 4.105 8.48 4.293 8.293C4.48 8.105 4.735 8 5 8H27C27.265 8 27.519 8.105 27.707 8.293C27.895 8.48 28 8.735 28 9ZM11 16C9.344 16 8 14.656 8 13C8 11.344 9.344 10 11 10C12.656 10 14 11.344 14 13C14 14.656 12.656 16 11 16C13.759 16 16 18.24 16 21C16 21.552 15.552 22 15 22H7C6.448 22 6 21.552 6 21C6 18.24 8.24 16 11 16ZM13.829 20C13.417 18.835 12.305 18 11 18C9.695 18 8.58301 18.835 8.17101 20H13.829ZM18 19H23C23.552 19 24 18.552 24 18C24 17.448 23.552 17 23 17H18C17.448 17 17 17.448 17 18C17 18.552 17.448 19 18 19ZM18 15H24.967C25.518 15 25.967 14.552 25.967 14C25.967 13.448 25.518 13 24.967 13H18C17.448 13 17 13.448 17 14C17 14.552 17.448 15 18 15ZM11 12C11.552 12 12 12.448 12 13C12 13.552 11.552 14 11 14C10.448 14 10 13.552 10 13C10 12.448 10.448 12 11 12Z" fill="#0CC2FE"/>
</svg>
