<svg width="64" height="64" viewBox="0 0 64 64" fill="none" xmlns="http://www.w3.org/2000/svg">
<path d="M55.6951 51.0653H55.3184C55.7498 50.6662 56.1398 50.192 56.4778 49.6433C57.3549 48.2198 57.8785 46.2985 57.8785 44.5042C57.8785 41.0319 55.0536 38.207 51.5814 38.207C48.1091 38.207 45.2878 41.0319 45.2878 44.5042C45.2878 46.9608 46.1655 49.5135 47.8383 51.0654H47.4676C45.073 51.0654 42.9698 52.2559 41.7914 54.0392C40.613 52.256 38.5098 51.0654 36.1151 51.0654H35.7359C36.167 50.6662 36.5569 50.192 36.8949 49.6432C37.7716 48.2195 38.295 46.2984 38.295 44.5042C38.295 41.0319 35.4718 38.207 32.0014 38.207C28.531 38.207 25.7043 41.0319 25.7043 44.5042C25.7043 46.9608 26.5825 49.5135 28.2563 51.0654H27.8878C25.4918 51.0654 23.3873 52.256 22.2083 54.0394C21.0299 52.256 18.9266 51.0654 16.5318 51.0654H16.161C17.8338 49.5135 18.7115 46.9608 18.7115 44.5042C18.7115 41.0319 15.8883 38.207 12.4179 38.207C8.94751 38.207 6.12089 41.0319 6.12089 44.5042C6.12089 46.2987 6.64439 48.2198 7.52151 49.6433C7.85964 50.192 8.24964 50.6662 8.68101 51.0653H8.30426C4.62101 51.0653 1.62451 53.8774 1.62451 57.334V61.1643C1.62451 61.7165 2.07226 62.1643 2.62451 62.1643C3.17676 62.1643 3.62451 61.7165 3.62451 61.1643V57.334C3.62451 54.9802 5.72376 53.0653 8.30426 53.0653H16.5316C19.1101 53.0653 21.2078 54.9803 21.2078 57.334V61.1643C21.2078 61.7165 21.6555 62.1643 22.2078 62.1643C22.76 62.1643 23.2078 61.7165 23.2078 61.1643V57.334C23.2078 54.9802 25.3071 53.0653 27.8875 53.0653H36.1148C38.6933 53.0653 40.791 54.9803 40.791 57.334V61.1643C40.791 61.7165 41.2388 62.1643 41.791 62.1643C42.3433 62.1643 42.791 61.7165 42.791 61.1643V57.334C42.791 54.9802 44.8888 53.0653 47.4673 53.0653H55.6945C58.275 53.0653 60.3743 54.9803 60.3743 57.334V61.1643C60.3743 61.7165 60.822 62.1643 61.3743 62.1643C61.9265 62.1643 62.3743 61.7165 62.3743 61.1643V57.334C62.3743 53.8774 59.3776 51.0653 55.6945 51.0653H55.6951ZM47.2879 44.504C47.2879 42.1347 49.214 40.2069 51.5815 40.2069C53.949 40.2069 55.8786 42.1345 55.8786 44.504C55.8786 46.838 54.712 50.5409 51.5815 50.5409C48.62 50.5409 47.2879 47.0108 47.2879 44.504ZM27.7045 44.504C27.7045 42.1347 29.6323 40.2069 32.0016 40.2069C34.371 40.2069 36.2953 42.1345 36.2953 44.504C36.2953 46.838 35.1296 50.5409 32.0016 50.5409C29.0376 50.5409 27.7045 47.0108 27.7045 44.504ZM8.12126 44.504C8.12126 42.1347 10.0489 40.2069 12.4183 40.2069C14.7876 40.2069 16.7119 42.1345 16.7119 44.504C16.7119 47.0107 15.3799 50.5409 12.4183 50.5409C9.28789 50.5409 8.12126 46.838 8.12126 44.504Z" fill="#0CC2FE"/>
<path d="M13.6794 32.1204C14.4982 32.9438 15.5021 33.3613 16.6632 33.3613C17.8126 33.3613 18.8451 32.9316 19.6472 32.1202L22.367 29.3831V37.2119C22.367 37.7642 22.8147 38.2119 23.367 38.2119C23.9192 38.2119 24.367 37.7642 24.367 37.2119V26.9579C24.367 26.5529 24.1226 26.1878 23.7482 26.0334C23.3737 25.8791 22.9431 25.9658 22.6576 26.2531L18.2267 30.7122C17.795 31.1489 17.2835 31.3613 16.6632 31.3613C16.043 31.3613 15.5332 31.1483 15.0982 30.7109L7.89511 23.4512C7.48499 23.0374 7.26024 22.4852 7.26236 21.8963C7.26474 21.3076 7.49349 20.7576 7.90674 20.3478C8.32049 19.9376 8.87099 19.7121 9.45786 19.7121H9.46524C10.054 19.7139 10.6039 19.9427 11.0137 20.3559L15.9566 25.3412C16.1442 25.5306 16.3999 25.6371 16.6665 25.6371H16.6667C16.9332 25.6371 17.1887 25.5307 17.3765 25.3416L21.696 20.9902C23.1965 19.4772 25.0377 18.7101 27.1689 18.7101H28.7042C28.6364 19.2888 28.7124 19.9018 28.909 20.2762C28.911 20.2799 28.913 20.2837 28.915 20.2874C29.077 20.5863 29.2949 20.8562 29.5531 21.0819L28.0354 31.7563C27.9932 32.0524 28.0859 32.3519 28.288 32.5726L31.1049 35.6481C31.2942 35.8548 31.5616 35.9726 31.8419 35.9727H31.8422C32.1224 35.9727 32.3899 35.8551 32.5792 35.6486L35.3996 32.5731C35.6019 32.3524 35.6947 32.0528 35.6525 31.7564L34.1347 21.0821C34.3946 20.8547 34.6124 20.5832 34.7717 20.2833C34.973 19.9072 35.0514 19.2909 34.9835 18.7103H36.5191C38.6502 18.7103 40.4915 19.4774 41.9921 20.9904L46.3076 25.3414C46.4954 25.5308 46.751 25.6373 47.0177 25.6372C47.2844 25.6372 47.54 25.5306 47.7277 25.3413L52.6696 20.3571C53.0812 19.9431 53.6324 19.7141 54.2216 19.7122H54.2291C54.8154 19.7122 55.3647 19.9374 55.7776 20.3479C56.1919 20.7587 56.4211 21.3094 56.4234 21.8987C56.4255 22.4867 56.2006 23.0377 55.7896 23.4511L48.585 30.7123C48.153 31.1492 47.6415 31.3614 47.0212 31.3614C46.401 31.3614 45.8914 31.1484 45.4561 30.7108L41.0306 26.2534C40.7452 25.9661 40.3145 25.8792 39.94 26.0334C39.5654 26.1878 39.321 26.5529 39.321 26.9579V37.2119C39.321 37.7642 39.7687 38.2119 40.321 38.2119C40.8732 38.2119 41.321 37.7642 41.321 37.2119V29.3844L44.0374 32.1203C44.8561 32.9438 45.86 33.3613 47.0211 33.3613C48.1822 33.3613 49.1914 32.9432 50.0057 32.1196L57.2084 24.8603C57.9957 24.0684 58.4271 23.0141 58.4232 21.8913C58.4192 20.7673 57.9796 19.7148 57.1866 18.9286C56.3974 18.1437 55.3475 17.7119 54.2292 17.7119C54.2245 17.7119 54.2197 17.7119 54.2151 17.7119C53.092 17.7156 52.0395 18.1541 51.2504 18.9477L47.0175 23.2169L43.4121 19.5819C41.5222 17.6763 39.203 16.7102 36.519 16.7102H35.7347C36.3471 16.2088 36.8949 15.5757 37.366 14.8113C38.3649 13.1908 38.9612 11.0014 38.9612 8.95494C38.9612 5.02944 35.7676 1.83582 31.8421 1.83582C27.9166 1.83582 24.723 5.02944 24.723 8.95494C24.723 11.9122 25.8389 14.9913 27.9581 16.7102H27.1686C24.4846 16.7102 22.1655 17.6763 20.2759 19.5816L16.6669 23.2172L12.4337 18.9477C11.6472 18.1544 10.5954 17.7156 9.47174 17.7119C8.34686 17.7051 7.29261 18.1399 6.49849 18.9274C5.70561 19.7136 5.26661 20.7652 5.26224 21.8886C5.25811 23.0113 5.68861 24.0663 6.47499 24.8594L13.6791 32.1203L13.6794 32.1204ZM32.9736 18.7893C33.0139 18.9332 33.0242 19.2351 32.9917 19.3698C32.9089 19.5108 32.7741 19.6339 32.6176 19.7106C32.2287 19.9012 32.0066 20.3204 32.0677 20.7493L33.6062 31.5698L31.843 33.4927L30.0821 31.5702L31.6207 20.7493C31.6817 20.3204 31.4597 19.9011 31.0707 19.7106C30.9166 19.6351 30.7816 19.5129 30.695 19.3717C30.6632 19.2338 30.6737 18.9328 30.7137 18.7872C30.7879 18.7246 30.8952 18.7103 30.978 18.7103H32.707C32.7631 18.7103 32.8909 18.7183 32.9739 18.7894L32.9736 18.7893ZM26.7231 8.95494C26.7231 6.13219 29.0195 3.83582 31.8422 3.83582C34.665 3.83582 36.9614 6.13219 36.9614 8.95494C36.9614 11.7108 35.5716 16.0831 31.8422 16.0831C28.1129 16.0831 26.7231 11.7108 26.7231 8.95494Z" fill="#0CC2FE"/>
<path d="M44.5304 14.6142H45.2027V17.1184C45.2027 17.5033 45.4236 17.8541 45.7706 18.0203C45.9082 18.0862 46.0557 18.1186 46.2026 18.1184C46.4264 18.1184 46.6482 18.0433 46.8294 17.8978L50.9131 14.6142H55.9609C57.4911 14.6142 58.736 13.3693 58.736 11.8391V4.61094C58.736 3.08069 57.4911 1.83582 55.9609 1.83582H44.5305C43.0002 1.83582 41.7554 3.08069 41.7554 4.61094V11.8391C41.7554 13.3693 43.0002 14.6142 44.5305 14.6142H44.5304ZM43.7552 4.61094C43.7552 4.18357 44.103 3.83582 44.5304 3.83582H55.9607C56.3881 3.83582 56.7359 4.18357 56.7359 4.61094V11.8391C56.7359 12.2664 56.3881 12.6142 55.9607 12.6142H50.5609C50.333 12.6142 50.1119 12.6921 49.9342 12.8348L47.2026 15.0312V13.6142C47.2026 13.0619 46.7549 12.6142 46.2026 12.6142H44.5302C44.1029 12.6142 43.7551 12.2664 43.7551 11.8391V4.61094H43.7552Z" fill="#0CC2FE"/>
<path d="M46.4971 10.8549H53.9944C54.5467 10.8549 54.9944 10.4071 54.9944 9.85486C54.9944 9.30261 54.5467 8.85486 53.9944 8.85486H46.4971C45.9448 8.85486 45.4971 9.30261 45.4971 9.85486C45.4971 10.4071 45.9448 10.8549 46.4971 10.8549Z" fill="#0CC2FE"/>
<path d="M49.0483 7.59509H53.9946C54.5468 7.59509 54.9946 7.14734 54.9946 6.59509C54.9946 6.04284 54.5468 5.59509 53.9946 5.59509H49.0483C48.4961 5.59509 48.0483 6.04284 48.0483 6.59509C48.0483 7.14734 48.4961 7.59509 49.0483 7.59509Z" fill="#0CC2FE"/>
<path d="M46.4982 7.59509C47.0506 7.59509 47.4982 7.14734 47.4982 6.59509C47.4982 6.04284 47.0506 5.59509 46.4982 5.59509H46.4969C45.9447 5.59509 45.4976 6.04284 45.4976 6.59509C45.4976 7.14734 45.9459 7.59509 46.4982 7.59509Z" fill="#0CC2FE"/>
</svg>
