<svg width="111" height="117" viewBox="0 0 111 117" fill="none" xmlns="http://www.w3.org/2000/svg">
<path d="M16.1956 82.4817L31.7998 55.1058L34.1161 56.4256L18.5119 83.8015L16.1956 82.4817ZM18.5119 83.8015C18.1476 84.442 17.3333 84.665 16.6928 84.2987C16.0523 83.9345 15.8293 83.1201 16.1956 82.4797L18.5119 83.7995V83.8015ZM0.546332 109.937L16.1956 82.4817L18.5119 83.8015L2.86262 111.257L0.546332 109.937ZM2.86876 112.677L0.562702 114.018L0.497224 113.899L0.433792 113.778L0.376499 113.657L0.323298 113.537L0.272143 113.41L0.225081 113.283L0.184157 113.16L0.145279 113.031L0.11254 112.902L0.0838937 112.773L0.0593394 112.64L0.0388776 112.507L0.0225081 112.377L0.0102309 112.244L0.00204619 112.111L0 111.98L0.00204619 111.847L0.00818475 111.716L0.0184157 111.583L0.0347852 111.45L0.0532009 111.321L0.0777551 111.19L0.106402 111.061L0.139141 110.93L0.175972 110.799L0.216896 110.674L0.261912 110.547L0.311021 110.422L0.364221 110.298L0.421515 110.177L0.4829 110.056L0.548378 109.935L2.86466 111.255L2.84011 111.3L2.81555 111.347L2.79305 111.394L2.77463 111.439L2.75622 111.486L2.73985 111.531L2.72552 111.579L2.71325 111.621L2.70301 111.664L2.69278 111.709L2.6846 111.752L2.67846 111.797L2.67437 111.84L2.67028 111.883L2.66823 111.928V111.971L2.67028 112.016L2.67232 112.059L2.67641 112.102L2.68255 112.147L2.68869 112.19L2.69688 112.233L2.70711 112.278L2.71734 112.321L2.72961 112.364L2.74598 112.411L2.76235 112.454L2.77872 112.497L2.79919 112.544L2.82169 112.591L2.8442 112.636L2.8708 112.683L2.86876 112.677ZM4.09851 113.385V116.051L3.96347 116.049L3.82637 116.043L3.69337 116.033L3.56241 116.019L3.42736 116L3.29436 115.978L3.16341 115.951L3.03245 115.918L2.90149 115.882L2.77872 115.843L2.65391 115.8L2.52704 115.751L2.40632 115.697L2.28559 115.64L2.16896 115.581L2.05233 115.515L1.93774 115.446L1.82929 115.376L1.7188 115.301L1.6124 115.221L1.50804 115.139L1.40573 115.053L1.30956 114.967L1.21339 114.873L1.11926 114.775L1.03128 114.676L0.945339 114.574L0.861445 114.468L0.781644 114.361L0.703889 114.251L0.630226 114.136L0.560656 114.022L2.86671 112.681L2.89331 112.728L2.91991 112.771L2.94856 112.812L2.97925 112.853L3.0079 112.89L3.03859 112.927L3.07133 112.964L3.10202 112.997L3.13271 113.027L3.16955 113.06L3.20228 113.089L3.23707 113.115L3.2739 113.142L3.30664 113.164L3.34552 113.189L3.3803 113.211L3.41713 113.232L3.45806 113.252L3.49694 113.271L3.53786 113.287L3.57469 113.301L3.61766 113.316L3.66472 113.33L3.70769 113.342L3.75066 113.353L3.79772 113.363L3.84479 113.371L3.8898 113.377L3.94096 113.383L3.99211 113.387L4.04122 113.389H4.09442L4.09851 113.385ZM27.38 116.051H4.09851V113.385H27.38V116.051ZM27.38 113.385C28.1167 113.385 28.7142 113.983 28.7142 114.719C28.7142 115.456 28.1167 116.054 27.38 116.054V113.387V113.385ZM23.2304 113.664L25.5364 112.323L25.5773 112.391L25.6183 112.454L25.6592 112.516L25.7022 112.573L25.7472 112.63L25.7942 112.685L25.8393 112.737L25.8884 112.786L25.9395 112.835L25.9886 112.88L26.0398 112.923L26.0909 112.964L26.1462 113.005L26.2014 113.044L26.2567 113.078L26.314 113.111L26.3713 113.144L26.4286 113.172L26.49 113.201L26.5493 113.228L26.6107 113.25L26.6762 113.273L26.7396 113.293L26.8071 113.312L26.8746 113.328L26.9422 113.342L27.0117 113.355L27.0833 113.365L27.157 113.373L27.2286 113.379L27.3043 113.383L27.3821 113.385V116.051L27.2225 116.049L27.0629 116.041L26.9033 116.029L26.7457 116.013L26.5902 115.99L26.4347 115.963L26.2792 115.931L26.1278 115.894L25.9764 115.851L25.827 115.804L25.6817 115.753L25.5364 115.695L25.3932 115.634L25.2541 115.569L25.1149 115.497L24.9799 115.421L24.8469 115.341L24.7159 115.256L24.589 115.168L24.4663 115.075L24.3435 114.977L24.2248 114.875L24.1102 114.769L23.9997 114.662L23.8913 114.55L23.7849 114.431L23.6846 114.312L23.5864 114.187L23.4923 114.058L23.4023 113.928L23.3163 113.795L23.2345 113.657L23.2304 113.664ZM23.2099 108.875L25.5262 110.195L25.4894 110.263L25.4546 110.332L25.4218 110.4L25.3932 110.465L25.3666 110.535L25.342 110.6L25.3216 110.666L25.3032 110.733L25.2868 110.801L25.2725 110.868L25.2602 110.934L25.25 110.999L25.2418 111.065L25.2356 111.132L25.2315 111.198V111.263L25.2336 111.331L25.2377 111.396L25.2438 111.464L25.252 111.529L25.2622 111.595L25.2745 111.662L25.2909 111.73L25.3073 111.795L25.3257 111.859L25.3482 111.926L25.3727 111.994L25.3993 112.059L25.43 112.127L25.4607 112.192L25.4955 112.26L25.5344 112.327L23.2283 113.668L23.1506 113.529L23.0769 113.387L23.0073 113.242L22.9439 113.099L22.8846 112.952L22.8314 112.806L22.7823 112.659L22.7372 112.505L22.6984 112.354L22.6656 112.203L22.637 112.051L22.6124 111.896L22.594 111.74L22.5797 111.587L22.5715 111.431L22.5674 111.278L22.5695 111.122L22.5776 110.967L22.5899 110.813L22.6083 110.658L22.6308 110.502L22.6595 110.349L22.6922 110.197L22.7291 110.048L22.772 109.897L22.8211 109.745L22.8743 109.596L22.9316 109.45L22.9951 109.305L23.0626 109.162L23.1342 109.021L23.212 108.88L23.2099 108.875ZM45.2167 75.6536L25.5282 110.197L23.212 108.878L42.9004 74.3338L45.2167 75.6536ZM42.9004 74.3338C43.2646 73.6933 44.079 73.4703 44.7194 73.8366C45.3599 74.2008 45.5829 75.0152 45.2167 75.6556L42.9004 74.3358V74.3338ZM47.5411 71.5755L45.2167 75.6536L42.9004 74.3338L45.2248 70.2557H47.5411V71.5755ZM45.2248 70.2557C45.5891 69.6153 46.4035 69.3923 47.0439 69.7585C47.6844 70.1227 47.9074 70.9371 47.5411 71.5776L45.2248 70.2578V70.2557ZM38.9083 55.1078L47.5432 70.2557L45.2269 71.5755L36.592 56.4276L38.9083 55.1078ZM35.3561 55.7114V53.0453L35.4932 53.0473L35.6282 53.0534L35.7633 53.0637L35.9004 53.08L36.0334 53.0985L36.1664 53.121L36.2994 53.1496L36.4303 53.1824L36.5592 53.2192L36.6861 53.2601L36.8109 53.3051L36.9357 53.3542L37.0606 53.4074L37.1813 53.4647L37.2979 53.5241L37.4145 53.5895L37.5291 53.6591L37.6417 53.7328L37.7501 53.8085L37.8586 53.8903L37.9629 53.9742L38.0632 54.0602L38.1655 54.1543L38.2596 54.2484L38.3497 54.3446L38.4397 54.4469L38.5277 54.5533L38.6095 54.6597L38.6873 54.7661L38.7671 54.8827L38.8387 54.9973L38.9083 55.114L36.592 56.4337L36.5654 56.3867L36.5367 56.3417L36.5101 56.3028L36.4774 56.2598L36.4467 56.2189L36.4181 56.1841L36.3874 56.1493L36.3526 56.1145L36.3198 56.0818L36.2891 56.0532L36.2544 56.0225L36.2196 55.9938L36.1848 55.9693L36.148 55.9427L36.1111 55.9202L36.0743 55.8976L36.0375 55.8772L35.9965 55.8567L35.9577 55.8383L35.9188 55.8219L35.8779 55.8056L35.8349 55.7912L35.7899 55.7769L35.7469 55.7646L35.7039 55.7544L35.6569 55.7442L35.6098 55.736L35.5607 55.7278L35.5136 55.7237L35.4625 55.7196L35.4093 55.7176H35.3581L35.3561 55.7114ZM34.1202 56.4297L31.8039 55.1099L31.8735 54.9932L31.9451 54.8786L32.0228 54.7641L32.1026 54.6556L32.1865 54.5472L32.2725 54.4449L32.3625 54.3425L32.4566 54.2443L32.5508 54.1522L32.651 54.0602L32.7533 53.9722L32.8577 53.8883L32.9641 53.8085L33.0725 53.7307L33.1851 53.6571L33.2997 53.5875L33.4163 53.522L33.5329 53.4627L33.6537 53.4054L33.7764 53.3522L33.9012 53.3031L34.0261 53.2581L34.1529 53.2171L34.2839 53.1803L34.4148 53.1476L34.5458 53.1189L34.6788 53.0964L34.8118 53.078L34.9489 53.0616L35.0839 53.0514L35.219 53.0453L35.3561 53.0432V55.7094H35.3049L35.2517 55.7114L35.2006 55.7155L35.1535 55.7196L35.1044 55.7278L35.0573 55.736L35.0123 55.7462L34.9673 55.7565L34.9243 55.7687L34.8793 55.7831L34.8363 55.7974L34.7954 55.8138L34.7565 55.8301L34.7177 55.8485L34.6767 55.869L34.6399 55.8895L34.6031 55.912L34.5663 55.9345L34.5294 55.959L34.4926 55.9856L34.4578 56.0143L34.4251 56.0429L34.3923 56.0736L34.3575 56.1084L34.3268 56.1411L34.2962 56.1759L34.2634 56.2148L34.2327 56.2537L34.202 56.2946L34.1754 56.3355L34.1468 56.3805L34.1202 56.4276V56.4297ZM24.5031 70.2025C23.9261 69.7462 23.8299 68.9053 24.2862 68.3303C24.7425 67.7533 25.5835 67.6571 26.1585 68.1134L24.5011 70.2025H24.5031ZM28.3233 73.233L24.5031 70.2025L26.1605 68.1134L29.9807 71.1438L28.3233 73.233ZM31.5727 71.2625L32.9027 73.5747L32.7677 73.6504L32.6285 73.7199L32.4894 73.7834L32.3461 73.8427L32.2029 73.8959L32.0576 73.945L31.9083 73.988L31.7609 74.0248L31.6136 74.0555L31.4622 74.0821L31.3128 74.1026L31.1634 74.1169L31.012 74.1251L30.8606 74.1292L30.7071 74.1271L30.5598 74.1189L30.4104 74.1046L30.259 74.0842L30.1117 74.0596L29.9644 74.0289L29.8171 73.9921L29.6718 73.9491L29.5265 73.9L29.3853 73.8489L29.2441 73.7895L29.105 73.7261L28.9699 73.6586L28.8349 73.5828L28.7019 73.503L28.573 73.4192L28.4441 73.3271L28.3213 73.233L29.9787 71.1438L30.0258 71.1806L30.0708 71.2134L30.1199 71.2461L30.1669 71.2747L30.214 71.3013L30.2631 71.3259L30.3102 71.3484L30.3572 71.3689L30.4084 71.3873L30.4555 71.4037L30.5046 71.418L30.5537 71.4303L30.6028 71.4405L30.6539 71.4487L30.701 71.4548L30.7501 71.4589L30.8033 71.461H30.8504L30.9015 71.4589L30.9527 71.4569L31.0038 71.4528L31.055 71.4466L31.1041 71.4384L31.1553 71.4282L31.2064 71.4159L31.2555 71.4016L31.3067 71.3852L31.3599 71.3648L31.411 71.3443L31.4622 71.3198L31.5133 71.2932L31.5645 71.2645L31.5727 71.2625ZM35.8308 71.8886L32.9047 73.5726L31.5747 71.2604L34.5008 69.5764L35.8308 71.8886ZM38.7773 69.6992L37.3184 71.9316L37.2713 71.9009L37.2243 71.8743L37.1792 71.8497L37.1322 71.8272L37.0831 71.8047L37.038 71.7863L36.993 71.7699L36.9439 71.7536L36.8969 71.7392L36.8518 71.727L36.8068 71.7167L36.7598 71.7085L36.7127 71.7004L36.6697 71.6942L36.6227 71.6901L36.5756 71.6881H36.5326L36.4835 71.6901L36.4406 71.6922L36.3955 71.6963L36.3464 71.7024L36.2994 71.7106L36.2544 71.7188L36.2093 71.729L36.1623 71.7413L36.1152 71.7556L36.0702 71.772L36.0211 71.7904L35.972 71.8108L35.9249 71.8334L35.8758 71.8579L35.8267 71.8845L34.4967 69.5744L34.6215 69.5048L34.7484 69.4393L34.8793 69.3779L35.0082 69.3227L35.1392 69.2715L35.2742 69.2245L35.4072 69.1815L35.5423 69.1447L35.6794 69.1119L35.8185 69.0833L35.9556 69.0608L36.0907 69.0424L36.2319 69.028L36.373 69.0199L36.5081 69.0158L36.6493 69.0178L36.7884 69.0239L36.9276 69.0342L37.0687 69.0505L37.2058 69.071L37.3429 69.0976L37.48 69.1283L37.6171 69.1651L37.7522 69.2061L37.8831 69.2511L38.0161 69.3002L38.1491 69.3554L38.276 69.4127L38.4029 69.4761L38.5297 69.5437L38.6545 69.6153L38.7753 69.691L38.7773 69.6992ZM39.1518 73.1306L37.3184 71.9316L38.7773 69.6992L40.6107 70.8983L39.1518 73.1306ZM42.1535 70.9085L43.5858 73.1572L43.459 73.235L43.328 73.3087L43.195 73.3782L43.0641 73.4417L42.929 73.501L42.7919 73.5542L42.6548 73.6033L42.5136 73.6483L42.3725 73.6872L42.2333 73.7199L42.088 73.7486L41.9428 73.7711L41.7995 73.7875L41.6543 73.7997L41.511 73.8059L41.3657 73.8079L41.2205 73.8038L41.0772 73.7957L40.9319 73.7813L40.7887 73.7629L40.6434 73.7384L40.5002 73.7077L40.359 73.6729L40.2178 73.632L40.0787 73.5869L39.9436 73.5378L39.8065 73.4826L39.6694 73.4212L39.5385 73.3557L39.4096 73.2862L39.2786 73.2104L39.1518 73.1306L40.6107 70.8983L40.6578 70.9289L40.7048 70.9555L40.756 70.9821L40.8051 71.0067L40.8521 71.0272L40.8992 71.0456L40.9504 71.064L40.9974 71.0804L41.0445 71.0947L41.0936 71.107L41.1407 71.1172L41.1877 71.1254L41.2368 71.1315L41.2839 71.1356L41.333 71.1377L41.3801 71.1397H41.4271L41.4762 71.1377L41.5233 71.1336L41.5724 71.1274L41.6195 71.1192L41.6665 71.1111L41.7156 71.0988L41.7627 71.0865L41.8098 71.0722L41.8589 71.0558L41.9059 71.0374L41.953 71.0169L42.0041 70.9924L42.0512 70.9678L42.0983 70.9412L42.1474 70.9105L42.1535 70.9085ZM46.6285 71.2175L43.5858 73.1572L42.1535 70.9085L45.1962 68.9687L46.6285 71.2175ZM45.1962 68.9687C45.8162 68.5738 46.6408 68.7559 47.0378 69.3759C47.4327 69.9959 47.2506 70.8205 46.6306 71.2175L45.1982 68.9687H45.1962Z" fill="#FFC73E"/>
<path d="M42.8983 74.334L62.5294 39.8926L64.8457 41.2124L45.2146 75.6538L42.8983 74.334ZM45.2146 75.6538C44.8504 76.2943 44.036 76.5173 43.3955 76.1511C42.7551 75.7868 42.532 74.9724 42.8983 74.332L45.2146 75.6518V75.6538ZM23.2078 108.876L42.8963 74.332L45.2125 75.6518L25.5241 110.196L23.2078 108.876ZM25.5344 112.324L23.2283 113.664L23.1505 113.525L23.0769 113.383L23.0073 113.238L22.9439 113.095L22.8845 112.948L22.8313 112.802L22.7822 112.655L22.7372 112.502L22.6983 112.35L22.6656 112.199L22.637 112.047L22.6124 111.892L22.594 111.736L22.5797 111.583L22.5715 111.427L22.5674 111.274L22.5694 111.118L22.5776 110.963L22.5899 110.809L22.6083 110.654L22.6308 110.498L22.6595 110.345L22.6922 110.193L22.729 110.044L22.772 109.893L22.8211 109.741L22.8743 109.592L22.9316 109.447L22.995 109.301L23.0626 109.158L23.1342 109.017L23.2119 108.876L25.5282 110.196L25.4914 110.263L25.4566 110.333L25.4239 110.4L25.3952 110.466L25.3686 110.535L25.3441 110.601L25.3236 110.666L25.3052 110.734L25.2888 110.801L25.2745 110.869L25.2622 110.934L25.252 111L25.2438 111.065L25.2377 111.133L25.2336 111.198V111.264L25.2356 111.331L25.2397 111.397L25.2458 111.464L25.254 111.53L25.2643 111.595L25.2765 111.663L25.2929 111.73L25.3093 111.796L25.3277 111.859L25.3502 111.927L25.3748 111.994L25.4014 112.06L25.432 112.127L25.4627 112.193L25.4975 112.26L25.5364 112.328L25.5344 112.324ZM27.378 113.386V116.052L27.2184 116.05L27.0588 116.041L26.8992 116.029L26.7416 116.013L26.5861 115.99L26.4306 115.964L26.2751 115.931L26.1237 115.894L25.9722 115.851L25.8229 115.804L25.6776 115.753L25.5323 115.696L25.3891 115.634L25.2499 115.569L25.1108 115.497L24.9757 115.422L24.8427 115.342L24.7118 115.256L24.5849 115.168L24.4622 115.076L24.3394 114.977L24.2207 114.875L24.1061 114.769L23.9956 114.662L23.8872 114.55L23.7808 114.431L23.6805 114.312L23.5823 114.188L23.4882 114.059L23.3981 113.928L23.3122 113.795L23.2303 113.658L25.5364 112.317L25.5773 112.385L25.6182 112.448L25.6592 112.51L25.7021 112.567L25.7472 112.624L25.7942 112.68L25.8392 112.731L25.8883 112.78L25.9395 112.829L25.9886 112.874L26.0398 112.917L26.0909 112.958L26.1462 112.999L26.2014 113.038L26.2567 113.072L26.314 113.105L26.3712 113.138L26.4285 113.167L26.4899 113.195L26.5493 113.222L26.6107 113.244L26.6761 113.267L26.7396 113.287L26.8071 113.306L26.8746 113.322L26.9421 113.336L27.0117 113.349L27.0833 113.359L27.157 113.367L27.2286 113.373L27.3043 113.377L27.3821 113.379L27.378 113.386ZM66.6996 116.052H27.378V113.386H66.6996V116.052ZM66.6996 113.386C67.4362 113.386 68.0337 113.983 68.0337 114.72C68.0337 115.456 67.4362 116.054 66.6996 116.054V113.388V113.386ZM106.019 116.052H66.6996V113.386H106.019V116.052ZM107.863 112.324L110.169 113.664L110.087 113.801L110.001 113.934L109.911 114.065L109.817 114.194L109.719 114.319L109.618 114.437L109.512 114.556L109.404 114.668L109.293 114.775L109.178 114.881L109.06 114.984L108.937 115.082L108.814 115.174L108.687 115.262L108.556 115.348L108.423 115.428L108.288 115.503L108.149 115.575L108.01 115.64L107.867 115.702L107.722 115.759L107.576 115.81L107.427 115.857L107.275 115.9L107.124 115.937L106.969 115.97L106.813 115.996L106.658 116.019L106.5 116.035L106.34 116.048L106.181 116.056L106.021 116.058V113.392L106.099 113.39L106.175 113.386L106.246 113.379L106.32 113.371L106.392 113.361L106.461 113.349L106.529 113.334L106.596 113.318L106.664 113.3L106.727 113.279L106.793 113.257L106.854 113.234L106.913 113.208L106.975 113.179L107.032 113.15L107.089 113.117L107.147 113.085L107.202 113.05L107.257 113.011L107.312 112.97L107.363 112.929L107.415 112.886L107.464 112.841L107.515 112.792L107.564 112.743L107.609 112.692L107.656 112.637L107.701 112.579L107.744 112.522L107.785 112.461L107.826 112.397L107.867 112.33L107.863 112.324ZM107.871 110.196L110.187 108.876L110.265 109.017L110.337 109.158L110.404 109.301L110.468 109.447L110.525 109.592L110.578 109.741L110.627 109.893L110.67 110.044L110.707 110.196L110.74 110.347L110.768 110.5L110.791 110.656L110.809 110.811L110.822 110.965L110.83 111.12L110.832 111.276L110.828 111.429L110.819 111.585L110.805 111.738L110.787 111.894L110.762 112.049L110.734 112.201L110.699 112.354L110.66 112.504L110.615 112.655L110.566 112.804L110.513 112.952L110.453 113.097L110.39 113.24L110.32 113.386L110.247 113.527L110.169 113.666L107.863 112.326L107.902 112.258L107.936 112.191L107.967 112.125L107.998 112.056L108.024 111.99L108.049 111.923L108.071 111.857L108.09 111.792L108.108 111.724L108.123 111.659L108.135 111.591L108.145 111.526L108.153 111.46L108.159 111.393L108.164 111.327L108.166 111.26V111.194L108.161 111.129L108.155 111.061L108.147 110.996L108.137 110.93L108.125 110.865L108.11 110.797L108.094 110.73L108.076 110.664L108.055 110.599L108.031 110.533L108.004 110.464L107.975 110.398L107.943 110.331L107.908 110.261L107.871 110.193V110.196ZM90.4988 74.332L110.187 108.876L107.871 110.196L88.1825 75.6518L90.4988 74.332ZM88.1825 75.6518C87.8183 75.0113 88.0413 74.1969 88.6797 73.8327C89.3202 73.4685 90.1346 73.6915 90.4988 74.3299L88.1825 75.6497V75.6518ZM70.8676 39.8885L90.4988 74.3299L88.1825 75.6497L68.5514 41.2083L70.8676 39.8885ZM66.6975 40.132V37.4658L66.8592 37.4679L67.0188 37.4761L67.1784 37.4883L67.338 37.5067L67.4955 37.5293L67.6531 37.5559L67.8086 37.5886L67.96 37.6254L68.1114 37.6684L68.2628 37.7155L68.4102 37.7687L68.5575 37.8259L68.7007 37.8894L68.8399 37.9549L68.9811 38.0265L69.1182 38.1022L69.2512 38.182L69.3821 38.2679L69.509 38.358L69.6358 38.4521L69.7586 38.5523L69.8773 38.6547L69.9919 38.7611L70.1065 38.8736L70.2149 38.9882L70.3193 39.1048L70.4216 39.2276L70.5198 39.3545L70.6139 39.4834L70.706 39.6184L70.7919 39.7535L70.8738 39.8906L68.5575 41.2103L68.5166 41.1428L68.4757 41.0773L68.4347 41.018L68.3897 40.9566L68.3447 40.8993L68.2997 40.8441L68.2526 40.7888L68.2035 40.7377L68.1564 40.6906L68.1053 40.6435L68.0541 40.5985L68.003 40.5576L67.9498 40.5167L67.8945 40.4778L67.8393 40.441L67.782 40.4062L67.7247 40.3735L67.6674 40.3428L67.606 40.3141L67.5446 40.2875L67.4832 40.263L67.4178 40.2405L67.3543 40.22L67.2868 40.2016L67.2172 40.1852L67.1497 40.1709L67.0802 40.1586L67.0085 40.1484L66.9369 40.1402L66.8612 40.134L66.7835 40.13L66.7057 40.1279L66.6975 40.132ZM64.8437 41.2083L62.5274 39.8885L62.6092 39.7494L62.6952 39.6143L62.7852 39.4813L62.8793 39.3524L62.9775 39.2255L63.0799 39.1028L63.1842 38.9861L63.2927 38.8695L63.4052 38.759L63.5198 38.6526L63.6385 38.5503L63.7592 38.4521L63.884 38.358L64.0129 38.2679L64.1439 38.182L64.2769 38.1022L64.4119 38.0265L64.5531 37.9549L64.6943 37.8873L64.8396 37.8259L64.9849 37.7687L65.1322 37.7155L65.2836 37.6684L65.435 37.6254L65.5864 37.5886L65.7419 37.5559L65.8975 37.5293L66.055 37.5067L66.2146 37.4883L66.3742 37.4761L66.5338 37.4679L66.6955 37.4658V40.132L66.6177 40.134L66.54 40.1381L66.4643 40.1443L66.3926 40.1525L66.321 40.1627L66.2514 40.175L66.1819 40.1893L66.1123 40.2057L66.0448 40.2241L65.9813 40.2445L65.9179 40.2671L65.8545 40.2916L65.7931 40.3182L65.7317 40.3469L65.6744 40.3755L65.6151 40.4082L65.5578 40.443L65.5025 40.4799L65.4493 40.5167L65.3961 40.5576L65.3429 40.6006L65.2918 40.6456L65.2406 40.6927L65.1915 40.7397L65.1445 40.7888L65.0974 40.8441L65.0524 40.8993L65.0074 40.9566L64.9644 41.016L64.9235 41.0773L64.8805 41.1428L64.8416 41.2103L64.8437 41.2083Z" fill="#FFC73E"/>
<path d="M53.2602 58.4391C52.6832 57.9828 52.587 57.1418 53.0433 56.5668C53.4996 55.9898 54.3406 55.8936 54.9155 56.3499L53.2581 58.4391H53.2602ZM58.0667 62.2511L53.2602 58.4391L54.9176 56.3499L59.7241 60.162L58.0667 62.2511ZM62.114 60.34L63.4441 62.6501L63.2844 62.7381L63.1208 62.82L62.955 62.8957L62.7893 62.9653L62.6215 63.0287L62.4496 63.086L62.2757 63.1351L62.1058 63.1781L61.9299 63.2149L61.7539 63.2456L61.5779 63.2681L61.3999 63.2845L61.2239 63.2947L61.048 63.2988L60.872 63.2967L60.696 63.2865L60.518 63.2701L60.342 63.2476L60.1681 63.219L59.9942 63.1821L59.8223 63.1392L59.6525 63.0901L59.4847 63.0348L59.3169 62.9734L59.1491 62.9039L58.9875 62.8302L58.8279 62.7484L58.6683 62.6604L58.5148 62.5683L58.3613 62.468L58.214 62.3637L58.0687 62.2532L59.7261 60.164L59.7957 60.2172L59.8653 60.2663L59.9348 60.3113L60.0065 60.3543L60.0781 60.3932L60.1497 60.43L60.2234 60.4648L60.295 60.4935L60.3666 60.5201L60.4423 60.5446L60.516 60.5671L60.5917 60.5855L60.6674 60.6019L60.7431 60.6142L60.8188 60.6244L60.8925 60.6326L60.9682 60.6367L61.0439 60.6387L61.1196 60.6367L61.1973 60.6326L61.2731 60.6244L61.3508 60.6142L61.4265 60.6019L61.5022 60.5855L61.582 60.5651L61.6577 60.5426L61.7314 60.518L61.8092 60.4894L61.8869 60.4566L61.9626 60.4218L62.0383 60.383L62.114 60.34ZM67.1272 60.5303L63.4441 62.6501L62.114 60.34L65.7972 58.2201L67.1272 60.5323V60.5303ZM70.8185 58.3613L69.3596 60.5937L69.2921 60.5507L69.2225 60.5098L69.155 60.473L69.0874 60.4382L69.0179 60.4055L68.9483 60.3768L68.8808 60.3502L68.8092 60.3257L68.7396 60.3052L68.67 60.2868L68.6004 60.2704L68.5309 60.2581L68.4593 60.2479L68.3897 60.2397L68.3222 60.2336L68.2505 60.2295H68.181L68.1114 60.2315L68.0418 60.2356L67.9723 60.2418L67.9007 60.252L67.8311 60.2643L67.7615 60.2786L67.6899 60.295L67.6203 60.3134L67.5508 60.3359L67.4812 60.3605L67.4096 60.3891L67.34 60.4198L67.2704 60.4525L67.1988 60.4894L67.1292 60.5282L65.7992 58.216L65.9465 58.1342L66.0959 58.0585L66.2473 57.9869L66.4008 57.9214L66.5563 57.86L66.7139 57.8048L66.8735 57.7557L67.0331 57.7127L67.1906 57.6759L67.3523 57.6431L67.516 57.6165L67.6776 57.596L67.8413 57.5797L68.005 57.5694L68.1687 57.5654L68.3324 57.5674L68.494 57.5756L68.6577 57.5879L68.8214 57.6063L68.9831 57.6308L69.1447 57.6615L69.3064 57.6984L69.4639 57.7393L69.6215 57.7864L69.777 57.8395L69.9325 57.8968L70.086 57.9603L70.2374 58.0298L70.3868 58.1056L70.5341 58.1854L70.6794 58.2692L70.8226 58.3593L70.8185 58.3613ZM71.6656 62.1018L69.3596 60.5937L70.8185 58.3613L73.1246 59.8694L71.6656 62.1018ZM75.4388 59.8837L76.8711 62.1325L76.7218 62.2245L76.5683 62.3105L76.4128 62.3903L76.2552 62.4639L76.0956 62.5335L75.936 62.5969L75.7723 62.6542L75.6066 62.7054L75.4429 62.7504L75.2751 62.7893L75.1073 62.822L74.9395 62.8486L74.7697 62.8691L74.6019 62.8834L74.4321 62.8916L74.2602 62.8936L74.0904 62.8895L73.9205 62.8793L73.7507 62.8629L73.5809 62.8404L73.4131 62.8118L73.2473 62.777L73.0796 62.7361L72.9159 62.689L72.7522 62.6358L72.5905 62.5765L72.4289 62.511L72.2713 62.4394L72.1158 62.3637L71.9603 62.2798L71.8089 62.1918L71.6595 62.0977L73.1184 59.8653L73.19 59.9103L73.2617 59.9533L73.3312 59.9901L73.4029 60.0249L73.4745 60.0576L73.5461 60.0863L73.6177 60.1129L73.6914 60.1354L73.765 60.1558L73.8366 60.1742L73.9103 60.1886L73.984 60.2008L74.0556 60.2111L74.1272 60.2193L74.2009 60.2234L74.2745 60.2254H74.3461L74.4198 60.2213L74.4935 60.2152L74.5651 60.207L74.6387 60.1947L74.7104 60.1804L74.782 60.164L74.8577 60.1436L74.9293 60.121L75.0009 60.0965L75.0725 60.0678L75.1442 60.0372L75.2178 60.0024L75.2894 59.9655L75.361 59.9246L75.4327 59.8816L75.4388 59.8837ZM80.6996 59.6934L76.8711 62.1325L75.4388 59.8837L79.2672 57.4446L80.6996 59.6934ZM79.2672 57.4446C79.8872 57.0497 80.7118 57.2318 81.1088 57.8518C81.5037 58.4718 81.3216 59.2964 80.7016 59.6934L79.2693 57.4446H79.2672Z" fill="#FFC73E"/>
<path d="M65.3634 1.33411C65.3634 0.597487 65.9629 0 66.7016 0C67.4403 0 68.0398 0.597487 68.0398 1.33411H65.3654H65.3634ZM65.3634 38.5154V1.33411H68.0377V38.5154H65.3634ZM68.0377 38.5154C68.0377 39.252 67.4382 39.8495 66.6995 39.8495C65.9609 39.8495 65.3613 39.252 65.3613 38.5154H68.0357H68.0377Z" fill="#FFC73E"/>
<path d="M50.232 6.75857L49.0043 4.39113L49.8985 3.94915L50.7865 3.55424L51.6643 3.20434L52.5339 2.89741L53.3913 2.63141L54.2364 2.40428L55.0671 2.21399L55.8815 2.05848L56.6795 1.9357L57.4591 1.84363L58.2183 1.77815L58.9549 1.73927L59.669 1.7229L60.3586 1.72699L61.0236 1.75155L61.6599 1.79247L62.2697 1.84772L62.8508 1.91524L63.4013 1.993L63.9189 2.07894L64.4039 2.17102L64.8561 2.26719L65.2715 2.36336L65.65 2.45953L65.9897 2.55365L66.2925 2.64368L66.5524 2.72553L66.7734 2.7992L66.9493 2.86058L67.0803 2.90969L67.1662 2.94243L67.2113 2.96084L66.1902 5.42445H66.1882L66.137 5.40399L66.0408 5.36921L65.9037 5.3201L65.7257 5.26076L65.5088 5.19119L65.253 5.11548L64.9604 5.03568L64.6331 4.95178L64.2709 4.86585L63.876 4.78195L63.4504 4.7001L62.992 4.62439L62.505 4.55482L61.9914 4.49548L61.4512 4.44638L60.8865 4.40954L60.2972 4.38704L59.6854 4.38294L59.0531 4.39727L58.4004 4.43205L57.7292 4.48935L57.0397 4.57119L56.3337 4.67964L55.6135 4.81674L54.8789 4.98452L54.13 5.18505L53.3688 5.42036L52.5994 5.6925L51.8178 6.00353L51.028 6.35342L50.2299 6.74629L50.232 6.75857ZM50.232 6.75857C49.5793 7.09824 48.7731 6.84246 48.4354 6.18973C48.0958 5.53699 48.3515 4.7308 49.0043 4.39318L50.232 6.76061V6.75857ZM35.5874 4.77377H32.9212L35.1311 3.76909L35.1229 3.76295L35.1639 3.79569L35.2314 3.85094L35.3357 3.92869L35.4728 4.02895L35.6406 4.14559L35.8411 4.27654L36.0703 4.41978L36.3281 4.57119L36.6166 4.72875L36.9338 4.8904L37.2776 5.05409L37.6479 5.21574L38.0428 5.37125L38.4644 5.52063L38.9104 5.65977L39.379 5.78663L39.8721 5.89712L40.3878 5.99125L40.9259 6.06491L41.4866 6.11607L42.0677 6.14267L42.6693 6.14062L43.2913 6.10788L43.9359 6.04036L44.5988 5.93805L45.2843 5.79686L45.9882 5.6127L46.7125 5.38353L47.4574 5.1073L48.2206 4.77786L49.0043 4.39522L50.232 6.76266L49.3337 7.20259L48.4498 7.58318L47.5801 7.90648L46.7269 8.17658L45.89 8.39552L45.0735 8.56535L44.2776 8.68812L43.5 8.76793L42.745 8.80885L42.0124 8.8109L41.3045 8.7802L40.6231 8.71882L39.9663 8.62878L39.3381 8.5142L38.7365 8.37915L38.1636 8.22364L37.6213 8.05381L37.1077 7.87374L36.6248 7.68345L36.1726 7.48701L35.7532 7.28853L35.3664 7.09005L35.0124 6.89566L34.6891 6.70741L34.4027 6.5294L34.1489 6.36365L33.93 6.21224L33.7479 6.07923L33.6006 5.96874L33.488 5.87871L33.4205 5.82141L33.3755 5.78458L35.5854 4.77991L35.5874 4.77377ZM33.3775 5.77844C32.823 5.2935 32.7657 4.45047 33.2507 3.898C33.7356 3.34348 34.5786 3.28619 35.1311 3.77113L33.3775 5.78049V5.77844ZM32.9212 24.4929V4.77377H35.5874V24.4929L33.3816 25.5016L32.9192 24.4929H32.9212ZM35.5874 24.4929C35.5874 25.2295 34.9899 25.827 34.2533 25.827C33.5167 25.827 32.9192 25.2295 32.9192 24.4929H35.5854H35.5874ZM50.5532 25.5733L51.6623 27.998L50.7292 28.3929L49.8043 28.7244L48.8897 28.9965L47.9894 29.2093L47.1034 29.3689L46.2337 29.4753L45.3805 29.5347L44.5477 29.549L43.7353 29.5224L42.9455 29.459L42.1802 29.3608L41.4395 29.2319L40.7254 29.0763L40.0379 28.8963L39.379 28.6978L38.7488 28.4829L38.1492 28.2538L37.5804 28.0164L37.0423 27.7709L36.5389 27.5233L36.0683 27.2757L35.6324 27.0322L35.2314 26.7948L34.8672 26.5677L34.5398 26.3549L34.2533 26.1585L34.0037 25.9805L33.795 25.8249L33.6292 25.696L33.5064 25.5978L33.4287 25.5344L33.3857 25.4976L35.1291 23.48L35.1823 23.523L35.2744 23.5966L35.4053 23.6969L35.5731 23.8217L35.7798 23.9691L36.0233 24.1348L36.3015 24.3169L36.6146 24.5113L36.9604 24.7159L37.3369 24.9267L37.7441 25.1415L38.1799 25.3564L38.6444 25.5671L39.1355 25.7717L39.6532 25.9682L40.1954 26.1544L40.7602 26.3242L41.3454 26.4777L41.9531 26.6086L42.5813 26.7171L43.2258 26.801L43.8888 26.8542L44.5702 26.8767L45.2659 26.8644L45.978 26.8153L46.7064 26.7253L47.4492 26.5923L48.2063 26.4122L48.9756 26.183L49.7593 25.9007L50.5573 25.563L50.5532 25.5733ZM50.5532 25.5733C51.2223 25.2684 52.0142 25.563 52.3211 26.2321C52.626 26.9012 52.3314 27.6931 51.6623 28L50.5532 25.5753V25.5733ZM65.3656 26.5575H68.0318L65.9835 27.6829L65.9938 27.689L65.9569 27.6665L65.8874 27.6276L65.7851 27.5724L65.65 27.5028L65.4822 27.421L65.2817 27.3289L65.0505 27.2286L64.7906 27.1222L64.5001 27.0117L64.1808 26.9012L63.831 26.7908L63.4544 26.6823L63.0514 26.58L62.6196 26.4838L62.1613 26.3979L61.6784 26.3222L61.1689 26.2608L60.6348 26.2137L60.0782 26.1851L59.4971 26.1769L58.8935 26.1892L58.2674 26.226L57.6187 26.2894L56.9476 26.3815L56.2539 26.5043L55.5398 26.6577L54.8052 26.848L54.0502 27.0752L53.2747 27.3412L52.4787 27.6501L51.6643 28.0041L50.5553 25.5794L51.4638 25.1845L52.3559 24.8387L53.2297 24.5379L54.085 24.2801L54.9218 24.0652L55.7383 23.8893L56.5342 23.7481L57.3077 23.6437L58.0587 23.57L58.7871 23.5271L59.491 23.5128L60.1683 23.523L60.821 23.5557L61.4471 23.611L62.0446 23.6826L62.6155 23.7706L63.1578 23.8729L63.6693 23.9875L64.1522 24.1102L64.6044 24.2392L65.0239 24.3722L65.4127 24.5072L65.7687 24.6423L66.092 24.7732L66.3805 24.9001L66.6342 25.0167L66.8552 25.1252L67.0414 25.2213L67.1887 25.3032L67.3013 25.3666L67.3729 25.4096L67.42 25.4382L65.3717 26.5636L65.3656 26.5575ZM67.4138 25.4321C68.0338 25.827 68.218 26.6516 67.8231 27.2736C67.4281 27.8936 66.6035 28.0778 65.9815 27.6829L67.4138 25.4341V25.4321ZM68.0318 4.20083V26.5575H65.3656V4.20083L67.2092 2.96903L68.0318 4.20083ZM65.3656 4.20083C65.3656 3.46421 65.9631 2.86672 66.6997 2.86672C67.4363 2.86672 68.0338 3.46421 68.0338 4.20083H65.3676H65.3656Z" fill="#FFC73E"/>
</svg>
