<svg width="40" height="40" viewBox="0 0 40 40" fill="none" xmlns="http://www.w3.org/2000/svg">
<g clip-path="url(#clip0_8138_2314)">
<path d="M35.8672 4.01789H23.8243C23.5792 2.10695 21.9435 0.625 19.9671 0.625C17.9907 0.625 16.3549 2.10695 16.1099 4.01789H4.13289C2.19867 4.01789 0.625 5.59148 0.625 7.5257V27.3583C0.625 29.2926 2.19867 30.8662 4.13289 30.8662H13.4822V34.1963H9.71906C8.01883 34.1963 6.63562 35.3579 6.63562 36.7856V38.75C6.63562 39.0952 6.91547 39.375 7.26062 39.375H32.7395C33.0846 39.375 33.3645 39.0952 33.3645 38.75V36.7856C33.3645 35.358 31.9812 34.1963 30.281 34.1963H26.5179V30.8662H35.8672C37.8014 30.8662 39.375 29.2925 39.375 27.3583V7.5257C39.375 5.59148 37.8014 4.01789 35.8672 4.01789ZM20.625 13.3692C21.5798 11.9165 23.7425 10.4915 26.6388 10.3096V17.3496C24.1246 17.4045 22.1409 17.797 20.625 18.5416V13.3692ZM19.9912 12.1346C19.2213 11.2556 17.9652 10.2983 16.3247 9.68461C17.3516 8.86359 18.6342 8.40516 19.9671 8.40516C21.2987 8.40516 22.5805 8.86289 23.607 9.68266C22.044 10.2611 20.8033 11.1666 19.9912 12.1346ZM19.375 13.3716V18.5416C17.8591 17.7969 15.8758 17.4045 13.3612 17.3496V10.3114C16.3966 10.5192 18.583 12.2023 19.375 13.3716ZM17.2978 7.67859C16.4116 8.03938 15.5996 8.57836 14.9175 9.27156C14.2373 9.12477 13.5088 9.04016 12.7362 9.04016C12.3911 9.04016 12.1112 9.32 12.1112 9.66516V17.9679C12.1112 18.313 12.3911 18.5929 12.7362 18.5929C15.8899 18.5929 18.1488 19.1001 19.642 20.1434C19.749 20.2182 19.8742 20.2561 20.0001 20.2561C20.0989 20.2561 20.198 20.2327 20.2889 20.1853C20.313 20.1727 20.3359 20.1584 20.3578 20.1431L20.358 20.1434C21.8513 19.1002 24.1102 18.5929 27.2639 18.5929C27.6091 18.5929 27.8889 18.313 27.8889 17.9679V9.66516C27.8889 9.32 27.6091 9.04016 27.2639 9.04016C26.4723 9.04016 25.7223 9.12477 25.0194 9.27437C24.3367 8.57984 23.5237 8.03992 22.6363 7.67867H35.7145V24.7602H4.2857V7.67859H17.2978ZM19.9671 1.875C21.4229 1.875 22.6072 3.0593 22.6072 4.51508C22.6072 5.97086 21.4229 7.15516 19.9671 7.15516C18.5113 7.15516 17.327 5.97086 17.327 4.51508C17.327 3.0593 18.5113 1.875 19.9671 1.875ZM32.1144 36.7856V38.125H7.88562V36.7856C7.88562 36.0597 8.72523 35.4463 9.71906 35.4463H30.281C31.2748 35.4464 32.1144 36.0597 32.1144 36.7856ZM25.2679 34.1964H14.7322V30.8663H25.2679V34.1964ZM38.125 27.3584C38.125 28.6034 37.1121 29.6163 35.8672 29.6163H4.13289C2.88789 29.6163 1.875 28.6034 1.875 27.3584V7.5257C1.875 6.2807 2.88789 5.26789 4.13289 5.26789H16.1508C16.2323 5.68211 16.3802 6.07258 16.5822 6.42859H4.06055C3.49547 6.42859 3.0357 6.88836 3.0357 7.45336V25.385C3.0357 25.7302 3.31555 26.01 3.6607 26.01H36.3392C36.6844 26.01 36.9642 25.7302 36.9642 25.385V7.45336C36.9642 6.88836 36.5045 6.42859 35.9395 6.42859H23.352C23.554 6.07258 23.7018 5.68211 23.7834 5.26789H35.8672C37.1122 5.26789 38.125 6.28078 38.125 7.5257V27.3584ZM16.1416 21.7684C16.1416 21.4232 16.4215 21.1434 16.7666 21.1434H31.9595C32.3047 21.1434 32.5845 21.4232 32.5845 21.7684C32.5845 22.1135 32.3047 22.3934 31.9595 22.3934H16.7666C16.4214 22.3934 16.1416 22.1135 16.1416 21.7684ZM7.72797 23.9919C7.82469 24.0477 7.93258 24.0756 8.04047 24.0756C8.14836 24.0756 8.25633 24.0477 8.35297 23.9919L11.2668 22.3096C11.4602 22.198 11.5793 21.9917 11.5793 21.7684C11.5793 21.545 11.4602 21.3388 11.2668 21.2271L8.35297 19.5448C8.15953 19.433 7.92141 19.433 7.72797 19.5448C7.53461 19.6564 7.41547 19.8627 7.41547 20.086V23.4506C7.41547 23.6739 7.53461 23.8802 7.72797 23.9919ZM8.66547 21.1685L9.70438 21.7684L8.66547 22.3681V21.1685ZM11.9642 22.9945V20.5422C11.9642 20.197 12.2441 19.9172 12.5892 19.9172C12.9344 19.9172 13.2142 20.197 13.2142 20.5422V22.9945C13.2142 23.3396 12.9344 23.6195 12.5892 23.6195C12.2441 23.6195 11.9642 23.3396 11.9642 22.9945ZM14.308 22.9945V20.5422C14.308 20.197 14.5879 19.9172 14.933 19.9172C15.2782 19.9172 15.558 20.197 15.558 20.5422V22.9945C15.558 23.3396 15.2782 23.6195 14.933 23.6195C14.5879 23.6195 14.308 23.3396 14.308 22.9945Z" fill="#0CC2FE"/>
</g>
<defs>
<clipPath id="clip0_8138_2314">
<rect width="40" height="40" fill="white"/>
</clipPath>
</defs>
</svg>
