<svg width="40" height="40" viewBox="0 0 40 40" fill="none" xmlns="http://www.w3.org/2000/svg">
<g clip-path="url(#clip0_8138_2290)">
<path fill-rule="evenodd" clip-rule="evenodd" d="M5.1395 20.6017C4.87386 21.599 3.9639 22.3345 2.8835 22.3345C1.59511 22.3345 0.549072 21.2884 0.549072 20.0001C0.549072 18.7117 1.59511 17.6656 2.8835 17.6656C3.94515 17.6656 4.84225 18.3759 5.12515 19.3468H7.91715C8.06962 16.4788 9.2206 13.876 11.0287 11.8796L9.06664 9.91746C8.1737 10.4348 7.01009 10.3115 6.24617 9.5475C5.33511 8.63645 5.33511 7.15715 6.24617 6.24617C7.15715 5.33511 8.63645 5.33511 9.5475 6.24617C10.2982 6.99684 10.4303 8.13346 9.94382 9.01997L11.9179 10.9941C13.9213 9.19511 16.5284 8.05495 19.3984 7.91448V5.1395C18.4011 4.87386 17.6656 3.9639 17.6656 2.8835C17.6656 1.59511 18.7117 0.549072 20.0001 0.549072C21.2884 0.549072 22.3345 1.59511 22.3345 2.8835C22.3345 3.94515 21.6242 4.84225 20.6533 5.12515V7.91715C23.5213 8.06962 26.1241 9.2206 28.1205 11.0287L30.0826 9.06664C29.5653 8.1737 29.6886 7.01009 30.4526 6.24617C31.3637 5.33511 32.843 5.33511 33.7539 6.24617C34.665 7.15715 34.665 8.63645 33.7539 9.5475C33.0033 10.2982 31.8666 10.4303 30.9801 9.94382L29.006 11.9179C30.805 13.9213 31.9451 16.5284 32.0856 19.3984H34.8606C35.1262 18.4011 36.0362 17.6656 37.1166 17.6656C38.405 17.6656 39.451 18.7117 39.451 20.0001C39.451 21.2884 38.405 22.3345 37.1166 22.3345C36.055 22.3345 35.1579 21.6242 34.875 20.6533H32.083C31.9305 23.5213 30.7795 26.1241 28.9714 28.1205L30.9335 30.0826C31.8264 29.5653 32.99 29.6886 33.7539 30.4526C34.665 31.3637 34.665 32.843 33.7539 33.7539C32.843 34.665 31.3637 34.665 30.4526 33.7539C29.7019 33.0033 29.5698 31.8666 30.0563 30.9801L28.0822 29.006C26.0788 30.805 23.4717 31.9451 20.6017 32.0856V34.8606C21.599 35.1262 22.3345 36.0362 22.3345 37.1166C22.3345 38.405 21.2884 39.451 20.0001 39.451C18.7117 39.451 17.6656 38.405 17.6656 37.1166C17.6656 36.055 18.3759 35.1579 19.3468 34.875V32.083C16.4788 31.9305 13.876 30.7795 11.8796 28.9714L9.91746 30.9335C10.4348 31.8264 10.3115 32.99 9.5475 33.7539C8.63645 34.665 7.15715 34.665 6.24617 33.7539C5.33511 32.843 5.33511 31.3637 6.24617 30.4526C6.99684 29.7019 8.13346 29.5698 9.01997 30.0563L10.9941 28.0822C9.19511 26.0788 8.05495 23.4717 7.91448 20.6017H5.1395ZM28.3533 26.918C29.9099 25.0406 30.8454 22.6297 30.8454 20.0001C30.8454 14.0097 25.9904 9.15472 20.0001 9.15472C14.0097 9.15472 9.15472 14.0097 9.15472 20.0001C9.15472 22.6297 10.0902 25.0406 11.6468 26.918C12.3948 24.0721 14.558 21.7993 17.3378 20.8987C16.1209 20.0517 15.3209 18.643 15.3209 17.0559C15.3209 14.4815 17.4257 12.3768 20.0001 12.3768C22.5744 12.3768 24.6792 14.4815 24.6792 17.0559C24.6792 18.643 23.8792 20.0517 22.6623 20.8987C25.4421 21.7993 27.6053 24.0721 28.3533 26.918ZM12.6996 28.0209C14.6264 29.7757 17.1881 30.8454 20.0001 30.8454C22.812 30.8454 25.3737 29.7757 27.3005 28.0209C26.7702 24.464 23.7027 21.735 20.0001 21.735C16.2974 21.735 13.2299 24.464 12.6996 28.0209ZM20.0001 20.4801C21.884 20.4801 23.4243 18.9398 23.4243 17.0559C23.4243 15.172 21.884 13.6317 20.0001 13.6317C18.1161 13.6317 16.5758 15.172 16.5758 17.0559C16.5758 18.9398 18.1161 20.4801 20.0001 20.4801ZM7.13346 7.13346C6.71221 7.5548 6.71221 8.23888 7.13346 8.66013C7.5548 9.08146 8.23888 9.08146 8.66013 8.66013C9.08146 8.23888 9.08146 7.5548 8.66013 7.13346C8.23888 6.71221 7.5548 6.71221 7.13346 7.13346ZM20.0001 1.80397C19.4042 1.80397 18.9205 2.28766 18.9205 2.8835C18.9205 3.47927 19.4042 3.96303 20.0001 3.96303C20.5959 3.96303 21.0796 3.47927 21.0796 2.8835C21.0796 2.28766 20.5959 1.80397 20.0001 1.80397ZM32.8666 32.8666C33.2879 32.4453 33.2879 31.7612 32.8666 31.34C32.4453 30.9186 31.7612 30.9186 31.34 31.34C30.9186 31.7612 30.9186 32.4453 31.34 32.8666C31.7612 33.2879 32.4453 33.2879 32.8666 32.8666ZM32.8666 7.13346C32.4453 6.71221 31.7612 6.71221 31.34 7.13346C30.9186 7.5548 30.9186 8.23888 31.34 8.66013C31.7612 9.08146 32.4453 9.08146 32.8666 8.66013C33.2879 8.23888 33.2879 7.5548 32.8666 7.13346ZM38.1961 20.0001C38.1961 19.4042 37.7124 18.9205 37.1166 18.9205C36.5208 18.9205 36.0371 19.4042 36.0371 20.0001C36.0371 20.5959 36.5208 21.0796 37.1166 21.0796C37.7124 21.0796 38.1961 20.5959 38.1961 20.0001ZM1.80397 20.0001C1.80397 20.5959 2.28766 21.0796 2.8835 21.0796C3.47927 21.0796 3.96303 20.5959 3.96303 20.0001C3.96303 19.4042 3.47927 18.9205 2.8835 18.9205C2.28766 18.9205 1.80397 19.4042 1.80397 20.0001ZM7.13346 32.8666C7.5548 33.2879 8.23888 33.2879 8.66013 32.8666C9.08146 32.4453 9.08146 31.7612 8.66013 31.34C8.23888 30.9186 7.5548 30.9186 7.13346 31.34C6.71221 31.7612 6.71221 32.4453 7.13346 32.8666ZM20.0001 38.1961C20.5959 38.1961 21.0796 37.7124 21.0796 37.1166C21.0796 36.5208 20.5959 36.0371 20.0001 36.0371C19.4042 36.0371 18.9205 36.5208 18.9205 37.1166C18.9205 37.7124 19.4042 38.1961 20.0001 38.1961Z" fill="#0CC2FE"/>
</g>
<defs>
<clipPath id="clip0_8138_2290">
<rect width="40" height="40" fill="white"/>
</clipPath>
</defs>
</svg>
