<svg width="65" height="65" viewBox="0 0 65 65" fill="none" xmlns="http://www.w3.org/2000/svg">
<path d="M10.5401 15.1579H14.7373C15.2633 15.1579 15.6895 14.7316 15.6895 14.2057C15.6895 13.6799 15.2633 13.2536 14.7373 13.2536H10.5401C8.9847 13.2536 7.67086 12.022 7.61119 10.5083C7.60929 10.4607 7.6084 10.4135 7.6084 10.3664C7.6084 8.4946 9.1312 6.9718 11.003 6.9718C12.0333 6.9718 12.9965 7.43277 13.6453 8.23651C13.92 8.57687 14.391 8.68618 14.788 8.50159C15.1539 8.33134 15.5447 8.24501 15.9497 8.24501C16.9273 8.24501 17.8411 8.77111 18.3343 9.61801C18.4619 9.83713 18.6717 9.99633 18.9173 10.0602C19.1628 10.124 19.4235 10.0874 19.6418 9.95825C19.9552 9.7729 20.314 9.67489 20.6795 9.67489C21.6699 9.67489 22.5151 10.3813 22.6895 11.3544C22.771 11.8082 23.1657 12.1385 23.6268 12.1385H26.708C27.032 12.1385 27.3101 12.3889 27.3155 12.6852C27.3183 12.8364 27.2616 12.979 27.1559 13.0866C27.0503 13.1943 26.909 13.2536 26.758 13.2536H18.5457C18.0197 13.2536 17.5935 13.6799 17.5935 14.2057C17.5935 14.7316 18.0197 15.1579 18.5457 15.1579H26.758C27.4241 15.1579 28.048 14.8961 28.5147 14.4208C28.9813 13.9455 29.2316 13.3168 29.2195 12.6504C29.1953 11.318 28.0687 10.2342 26.708 10.2342H24.3383C23.7466 8.76882 22.3152 7.77059 20.6795 7.77059C20.2701 7.77059 19.8647 7.83432 19.4783 7.95785C18.6009 6.94451 17.3121 6.34072 15.9497 6.34072C15.5055 6.34072 15.0711 6.40229 14.6516 6.52416C13.6721 5.59131 12.3759 5.0675 11.003 5.0675C8.08117 5.0675 5.7041 7.44458 5.7041 10.3664C5.7041 10.4381 5.70563 10.5104 5.70842 10.5831C5.80935 13.1485 7.93175 15.1579 10.5401 15.1579Z" fill="#0CC2FE"/>
<path d="M64.0479 58.0282H63.4281C64.4127 56.8656 64.8777 55.0588 64.8777 52.4464C64.8777 49.1842 64.1705 45.0898 63.0318 41.7612C62.0412 38.8652 60.3293 35.4129 57.7985 35.4129C56.526 35.4129 55.3456 36.2779 54.2797 37.9863C53.356 36.5102 52.1895 35.4129 50.7628 35.4129C49.2286 35.4129 47.8319 36.6647 46.6065 39.1352C46.3564 39.0457 46.0884 38.9944 45.808 38.9944H36.3185C35.7925 38.9944 35.3663 39.4207 35.3663 39.9466C35.3663 40.4724 35.7925 40.8987 36.3185 40.8987H45.808C46.0701 40.8987 46.2834 41.112 46.2834 41.3742V42.4508C46.2834 42.713 46.0701 42.9263 45.808 42.9263H19.192C18.9299 42.9263 18.7166 42.713 18.7166 42.4508V41.3742C18.7166 41.112 18.9299 40.8987 19.192 40.8987H32.5099C33.0359 40.8987 33.4621 40.4724 33.4621 39.9466C33.4621 39.4207 33.0359 38.9944 32.5099 38.9944H24.6146C25.3431 37.3678 25.7263 35.5881 25.7263 33.794C25.7263 26.7872 20.0258 21.0868 13.019 21.0868C6.01225 21.0868 0.31167 26.7872 0.31167 33.794C0.31167 40.4357 5.43372 45.9027 11.935 46.4547V51.8777C11.7344 51.8508 11.531 51.8366 11.3259 51.8366C10.9644 51.8366 10.6091 51.8785 10.2631 51.9615C9.15472 50.4635 7.34284 49.5814 5.45238 49.6695C2.56001 49.8037 0.200205 52.1752 0.0804883 55.0691C0.0371973 56.1172 0.291865 57.1453 0.789521 58.0432C0.34125 58.1205 0 58.5102 0 58.9804C0 59.5062 0.426182 59.9325 0.952148 59.9325H2.80186H64.0479C64.5738 59.9325 65 59.5062 65 58.9804C65 58.4546 64.5738 58.0282 64.0479 58.0282ZM19.2367 56.6395C19.2177 56.362 19.1671 56.087 19.0904 55.8193H22.131V58.0282H19.0934C19.2196 57.5842 19.2695 57.1161 19.2367 56.6395ZM39.903 48.7627V50.1655H25.5161V48.7627H39.903ZM43.9375 48.7627C43.8769 49.2383 43.8265 49.7071 43.7874 50.1655H41.8072V48.7627H43.9375ZM47.9229 52.0698C48.0436 52.0698 48.1419 52.1681 48.1419 52.2888V53.6958C48.1419 53.8167 48.0436 53.9148 47.9229 53.9148H17.0771C16.9564 53.9148 16.858 53.8166 16.858 53.6958V52.2888C16.858 52.1681 16.9562 52.0698 17.0771 52.0698H47.9229ZM24.0353 55.8193H41.3837V58.0282H24.0353V55.8193ZM43.2881 55.8193H44.0502C44.3011 56.7663 44.6757 57.4855 45.1372 58.0282H43.288L43.2881 55.8193ZM55.3592 39.9594C56.184 38.3051 57.0959 37.3172 57.7986 37.3172C58.5832 37.3172 59.9526 38.6425 61.2301 42.3776C62.2892 45.4737 62.9734 49.426 62.9734 52.4464C62.9734 57.8145 61.0256 57.8145 57.7985 57.8145C57.4017 57.8145 56.9846 57.8138 56.5726 57.7977C57.4331 56.6316 57.8421 54.893 57.8421 52.4464C57.8421 49.1842 57.1349 45.0898 55.9962 41.7612C55.8012 41.1913 55.5779 40.6 55.3264 40.0175C55.3376 39.9985 55.349 39.9796 55.3592 39.9594ZM50.7628 37.3174C51.5474 37.3174 52.9169 38.6426 54.1944 42.3777C55.2534 45.4739 55.9377 49.4262 55.9377 52.4465C55.9377 57.8146 53.9899 57.8146 50.7627 57.8146C48.2026 57.8146 46.7407 57.7176 46.0421 55.8194H47.9228C49.0937 55.8194 50.0461 54.8669 50.0461 53.6961V52.2891C50.0461 51.1183 49.0935 50.1658 47.9228 50.1658H45.6994C45.7411 49.7069 45.794 49.2375 45.8583 48.7604C47.147 48.7332 48.1876 47.6784 48.1876 46.3832V45.3065C48.1876 44.7707 48.0073 44.2772 47.7073 43.8789C48.0075 43.4807 48.1876 42.9872 48.1876 42.4514V41.3747C48.1876 41.0823 48.132 40.8031 48.0351 40.5441C48.0594 40.5064 48.0821 40.4673 48.1013 40.4254C48.9916 38.479 49.9865 37.3174 50.7628 37.3174ZM45.808 44.8307C46.0701 44.8307 46.2834 45.044 46.2834 45.3061V46.3828C46.2834 46.645 46.0701 46.8583 45.808 46.8583H19.192C18.9299 46.8583 18.7166 46.645 18.7166 46.3828V45.3061C18.7166 45.044 18.9299 44.8307 19.192 44.8307H45.808ZM2.21609 33.794C2.21609 27.8373 7.0624 22.9911 13.0192 22.9911C18.9759 22.9911 23.8221 27.8373 23.8221 33.794C23.8221 35.582 23.3765 37.3532 22.5335 38.9157C22.5196 38.9416 22.5074 38.9679 22.4961 38.9944H19.1921C17.88 38.9944 16.8124 40.062 16.8124 41.3742V42.4508C16.8124 42.9357 16.9589 43.3866 17.2089 43.7632C17.1732 43.7731 17.1377 43.7845 17.1025 43.7988C16.0588 44.2253 14.9641 44.4794 13.8395 44.5633V37.0618L17.1292 33.7721C17.501 33.4002 17.501 32.7973 17.1292 32.4256C16.7572 32.0538 16.1544 32.0538 15.7826 32.4256L13.8395 34.3686V31.8835C13.8395 31.3577 13.4134 30.9314 12.8874 30.9314C12.3614 30.9314 11.9352 31.3577 11.9352 31.8835V37.608L10.1036 35.7767C9.73159 35.4048 9.12882 35.4047 8.75697 35.7767C8.38513 36.1485 8.38513 36.7514 8.75697 37.1233L11.9351 40.3015V44.5428C6.4854 43.9971 2.21609 39.3851 2.21609 33.794ZM13.8394 46.4746C14.854 46.4103 15.8484 46.2262 16.8123 45.9247V46.3828C16.8123 47.695 17.8798 48.7626 19.192 48.7626H23.6118V50.1654H17.077C15.9061 50.1654 14.9536 51.1179 14.9536 52.2887V52.902C14.7504 52.9151 14.5491 52.9419 14.3507 52.9858C14.189 52.8422 14.0179 52.7113 13.8393 52.593L13.8394 46.4746ZM3.15517 58.0282C2.36158 57.2835 1.93756 56.2503 1.98313 55.1478C2.06261 53.2313 3.62527 51.6607 5.54074 51.572C7.00337 51.505 8.33295 52.2622 9.02027 53.5491C9.25564 53.9897 9.79126 54.1737 10.2478 53.9702C10.589 53.8181 10.9517 53.741 11.3261 53.741C12.1064 53.741 12.8441 54.0833 13.3501 54.68C13.6148 54.9923 14.0495 55.1003 14.4296 54.9484C14.6974 54.8415 14.9779 54.7917 15.2659 54.7984C15.6314 55.3966 16.2828 55.8003 17.0297 55.8169C17.2076 56.1062 17.3141 56.4355 17.337 56.7699C17.3678 57.2197 17.2607 57.6549 17.032 58.0282H3.15517Z" fill="#0CC2FE"/>
<path d="M35.4227 27.0826H44.9459C45.4719 27.0826 45.8981 26.6562 45.8981 26.1304C45.8981 25.6046 45.4719 25.1783 44.9459 25.1783H35.4227C34.7927 25.1783 34.2769 24.6825 34.2727 24.0731C34.2727 24.0703 34.2726 24.059 34.2726 24.0562C34.2726 22.7453 35.3398 21.6567 36.6517 21.6297C37.1101 21.6201 37.4967 21.2852 37.5715 20.8327C37.9596 18.4805 39.9741 16.7732 42.3617 16.7732C44.7611 16.7732 46.7775 18.49 47.1559 20.8554C47.2373 21.3632 47.7078 21.7142 48.217 21.6493C48.3405 21.6336 48.4398 21.6261 48.5297 21.6261C49.3888 21.6261 50.1926 22.0878 50.6278 22.831C50.7987 23.1228 51.1114 23.302 51.4495 23.302H54.0601C54.5773 23.302 54.9982 23.7229 54.9982 24.2401C54.9982 24.7574 54.5775 25.1783 54.0601 25.1783H48.7543C48.2283 25.1783 47.8021 25.6046 47.8021 26.1304C47.8021 26.6562 48.2283 27.0826 48.7543 27.0826H54.0601C55.6274 27.0826 56.9025 25.8074 56.9025 24.2401C56.9025 22.6728 55.6274 21.3977 54.0601 21.3977H51.9517C51.2028 20.4368 50.0728 19.8265 48.8534 19.7341C48.0277 16.8704 45.4178 14.8688 42.3617 14.8688C39.2838 14.8688 36.6512 16.9073 35.8491 19.81C33.8719 20.2113 32.3682 21.977 32.3682 24.0561L32.3683 24.0861C32.3798 25.7384 33.7501 27.0826 35.4227 27.0826Z" fill="#0CC2FE"/>
</svg>
