<svg width="64" height="64" viewBox="0 0 64 64" fill="none" xmlns="http://www.w3.org/2000/svg">
<g clip-path="url(#clip0_8138_3382)">
<path d="M16.6797 3.82727C12.3919 3.82727 9.86944 6.17419 8.74784 8.41716C7.62623 10.6601 7.64406 12.8628 7.64406 12.8628V26.8821C4.18713 27.3233 2.08712 29.3945 1.09184 31.385C-0.0296482 33.628 -0.0117015 35.8307 -0.0117015 35.8307V51.1428C-0.0115819 51.9046 0.605679 52.5219 1.36757 52.5221H7.64417V58.7987C7.64417 59.5606 8.2618 60.1782 9.02369 60.1782C9.78559 60.1782 10.4032 59.5606 10.4032 58.7987V52.5221H53.5803V58.7987C53.5803 59.5606 54.1979 60.1782 54.9598 60.1782C55.7217 60.1782 56.3393 59.5606 56.3393 58.7987V52.5221H62.6159C63.3777 52.5219 63.9951 51.9047 63.9952 51.1428V35.8308C63.9952 35.8308 64.0143 33.6281 62.8929 31.3852C61.8976 29.3945 59.7966 27.3234 56.3394 26.8822V12.8628C56.3394 12.8628 56.3583 10.6601 55.2369 8.41716C54.1154 6.17419 51.5918 3.82727 47.3039 3.82727H16.6797ZM16.6797 6.5863H47.3037C50.6719 6.5863 51.9774 8.0663 52.7698 9.65133C53.5624 11.2364 53.5802 12.8629 53.5802 12.8629V26.7952H48.4935C48.6162 26.4153 48.6831 26.0116 48.6831 25.5935V23.0989C48.6831 20.9287 46.8937 19.1394 44.7236 19.1394H34.5726C33.5908 19.1394 32.6875 19.5063 31.9918 20.1084C31.2963 19.5064 30.3933 19.1394 29.4116 19.1394H19.2608C17.0907 19.1394 15.3002 20.9287 15.3002 23.0989V25.5935C15.3002 26.0116 15.3673 26.4153 15.4901 26.7952H10.4032V12.8628C10.4032 12.8628 10.4222 11.2362 11.2147 9.65121C12.0071 8.0663 13.3115 6.5863 16.6797 6.5863ZM19.2607 21.8982H29.4115C30.1009 21.8982 30.6122 22.4095 30.6122 23.0989V25.5935C30.6122 26.2829 30.1009 26.7952 29.4115 26.7952H19.2607C18.5713 26.7952 18.0591 26.2829 18.0591 25.5935V23.0989C18.0592 22.4095 18.5713 21.8982 19.2607 21.8982ZM34.5726 21.8982H44.7236C45.413 21.8982 45.9241 22.4095 45.9241 23.0989V25.5935C45.9241 26.2829 45.413 26.7952 44.7236 26.7952H34.5726C33.8832 26.7952 33.371 26.2829 33.371 25.5935V23.0989C33.3711 22.4095 33.8832 21.8982 34.5726 21.8982ZM9.02357 29.5542H19.2607H29.4115H54.9597C58.3279 29.5542 59.6334 31.0342 60.4258 32.6192C61.2183 34.2042 61.2362 35.8308 61.2362 35.8308V42.1074H2.74697V35.8308C2.74697 35.8308 2.76599 34.2042 3.5585 32.6192C4.35102 31.0342 5.65541 29.5542 9.02357 29.5542ZM2.74709 44.8663H61.2363V49.7634H2.74709V44.8663Z" fill="#0CC2FE"/>
</g>
<defs>
<clipPath id="clip0_8138_3382">
<rect width="64" height="64" fill="white"/>
</clipPath>
</defs>
</svg>
