<svg width="64" height="64" viewBox="0 0 64 64" fill="none" xmlns="http://www.w3.org/2000/svg">
<path d="M63.9927 18.5111C63.9927 12.7201 60.4052 8.00856 55.9954 8.00856C52.6238 8.00856 49.7392 10.7666 48.5648 14.6517C39.5157 6.00053 25.3325 5.77161 16.009 14.1262V11.3534C15.9577 9.45407 14.3765 7.95587 12.4771 8.00714C11.6016 8.0307 10.7679 8.38744 10.1462 9.00466C8.88523 8.00457 7.09897 8.01413 5.84854 9.02751C4.48486 7.70467 2.30689 7.73766 0.984049 9.10148C0.383681 9.72041 0.0375128 10.5423 0.0143778 11.4043L0.017234 20.9122C-0.0754489 22.1749 0.20717 23.4368 0.82953 24.5392C1.45318 25.6204 2.36629 26.5063 3.46592 27.0969C3.84922 27.3013 4.12341 27.6638 4.21567 28.0882C4.38232 28.7964 4.44002 29.5258 4.38689 30.2514C3.46192 41.3677 3.11104 49.1318 3.42408 51.5534C3.49577 52.7195 3.97475 53.8234 4.77748 54.6723C6.56344 56.4069 9.40476 56.407 11.191 54.6729C12.0194 53.8237 12.5036 52.6975 12.5494 51.5121C12.6395 49.6737 12.6328 47.8319 12.529 45.9944C20.2508 56.7537 35.2326 59.216 45.9919 51.4944C48.2859 49.8479 50.2712 47.8093 51.8561 45.4726C51.7403 49.116 51.6907 51.4857 51.6896 51.5462C51.6129 53.9244 53.4785 55.9145 55.8567 55.9911C58.2349 56.0678 60.2249 54.2022 60.3016 51.824C60.3046 51.7314 60.3046 51.6388 60.3016 51.5462V51.5239C60.2994 51.4163 60.0841 40.6275 59.4415 29.2926C59.4001 28.5713 59.7037 27.8733 60.2594 27.4116C62.7478 25.1353 64.1126 21.8817 63.9927 18.5111ZM10.2743 51.3013C10.2716 51.9308 10.0405 52.538 9.62383 53.01C8.717 53.913 7.25078 53.9127 6.34423 53.0094C5.94508 52.511 5.71587 51.898 5.68988 51.26C5.40098 49.0254 5.76514 41.2423 6.66384 30.4407C6.7341 29.4953 6.66269 28.5446 6.45191 27.6202C6.22313 26.5413 5.53236 25.6172 4.56255 25.0921C3.83394 24.7083 3.22886 24.126 2.81757 23.4123C2.40771 22.6757 2.2272 21.8334 2.29932 20.9934V11.4041C2.3523 10.7732 2.90683 10.3046 3.53775 10.3576C4.09514 10.4045 4.53742 10.8467 4.58426 11.4041V18.4425C4.58426 19.0734 5.0958 19.5849 5.72673 19.5849C6.35765 19.5849 6.8692 19.0734 6.8692 18.4425V11.5816C6.93703 10.9507 7.50355 10.4942 8.13462 10.5621C8.67201 10.62 9.09644 11.0444 9.15413 11.5816V18.4426C9.15413 19.0735 9.66567 19.5851 10.2966 19.5851C10.9275 19.5851 11.4391 19.0735 11.4391 18.4426V11.3534C11.4921 10.7225 12.0466 10.2539 12.6775 10.3069C13.2349 10.3538 13.6772 10.796 13.724 11.3534L13.7256 16.9478C13.7259 16.9541 13.7252 16.9601 13.7256 16.9664L13.7267 21.0243C13.7874 21.8377 13.6062 22.651 13.2058 23.3616C12.7946 24.0753 12.1895 24.6578 11.4608 25.0414C10.4913 25.566 9.80077 26.4896 9.57185 27.5678C9.39677 28.5055 9.32693 29.4597 9.36378 30.4128C10.1622 42.4707 10.4595 49.3031 10.2743 51.3013ZM32.0035 53.7073C23.5474 53.6946 15.8646 48.7832 12.3034 41.1135C12.1457 38.1362 11.9275 34.5431 11.6444 30.2622C11.621 29.5164 11.676 28.7701 11.8084 28.0358C11.9006 27.6121 12.1744 27.2502 12.557 27.0461C13.657 26.4557 14.5703 25.5699 15.1939 24.4884C15.8066 23.4116 16.0899 22.1789 16.009 20.9427V17.3517C24.0665 8.51896 37.7589 7.89075 46.5914 15.9483C47.0983 16.4106 47.5827 16.8967 48.0434 17.4051C48.0142 17.7688 47.9981 18.1374 47.9981 18.5111C47.878 21.8826 49.2435 25.137 51.7334 27.4133C52.2885 27.8747 52.592 28.572 52.5513 29.2926C52.3331 33.1954 52.1644 37.0112 52.0356 40.3614C48.6793 48.4581 40.7683 53.7286 32.0035 53.7073ZM58.8064 25.6483C57.6897 26.5738 57.0784 27.9745 57.1596 29.4227C57.7899 40.5428 58.008 51.1375 58.0164 51.5564C58.0862 52.6724 57.2381 53.6337 56.1222 53.7035C55.0063 53.7733 54.0449 52.9252 53.9751 51.8093C53.9701 51.7296 53.9698 51.6496 53.9742 51.5698C53.9759 51.4627 54.1984 40.7593 54.8328 29.4193C54.9123 27.9726 54.3014 26.5741 53.186 25.6494C51.2373 23.7979 50.1796 21.1972 50.283 18.5113C50.283 13.98 52.8457 10.2936 55.9954 10.2936C59.145 10.2936 61.7077 13.9798 61.7077 18.5113C61.8111 21.1965 60.7542 23.7966 58.8064 25.6483Z" fill="#0CC2FE"/>
<path d="M32.0038 43.4251C25.6941 43.4251 20.5791 38.3101 20.5791 32.0004C20.5791 25.6907 25.6941 20.5757 32.0038 20.5757C38.3135 20.5757 43.4285 25.6907 43.4285 32.0004C43.4215 38.3072 38.3107 43.4181 32.0038 43.4251ZM32.0038 22.8606C26.9561 22.8606 22.864 26.9527 22.864 32.0004C22.864 37.0481 26.9561 41.1401 32.0038 41.1401C37.0515 41.1401 41.1436 37.0481 41.1436 32.0004C41.1378 26.9551 37.0492 22.8665 32.0038 22.8606Z" fill="#0CC2FE"/>
</svg>
