<svg width="65" height="65" viewBox="0 0 65 65" fill="none" xmlns="http://www.w3.org/2000/svg">
<path d="M64.5557 28.3867L24.9463 5.51941C23.809 4.86501 22.4586 4.68821 21.1912 5.02775C19.9237 5.36729 18.8426 6.19547 18.1848 7.33077L13.6246 15.2288L10.5889 20.4862C9.93413 21.6239 9.75728 22.9748 10.0971 24.2427C10.437 25.5106 11.2658 26.592 12.4018 27.2497L25.9822 35.0898L23.8702 38.6912C23.5893 39.1679 23.1891 39.5633 22.709 39.8383C22.2289 40.1133 21.6854 40.2586 21.1321 40.2599H13.2031V34.2169C13.2031 33.9812 13.1095 33.7552 12.9428 33.5885C12.7762 33.4219 12.5501 33.3282 12.3145 33.3282H7.49023V32.1816C7.48902 31.1382 7.074 30.1379 6.3362 29.4001C5.59841 28.6623 4.59809 28.2473 3.55469 28.246H0.888672C0.771951 28.246 0.656362 28.2689 0.548513 28.3136C0.440664 28.3582 0.342671 28.4236 0.260137 28.5062C0.177603 28.5887 0.112147 28.6867 0.0675103 28.7946C0.022874 28.9024 -6.66096e-05 29.018 1.45269e-07 29.1347V59.2566C-6.66096e-05 59.3734 0.022874 59.4889 0.0675103 59.5968C0.112147 59.7046 0.177603 59.8026 0.260137 59.8852C0.342671 59.9677 0.440664 60.0332 0.548513 60.0778C0.656362 60.1224 0.771951 60.1454 0.888672 60.1453H3.55469C4.59809 60.1441 5.59841 59.7291 6.3362 58.9913C7.074 58.2535 7.48902 57.2532 7.49023 56.2098V53.3868H12.3145C12.5501 53.3868 12.7762 53.2932 12.9428 53.1265C13.1095 52.9599 13.2031 52.7338 13.2031 52.4982V48.131H21.1321C23.0572 48.1269 24.9481 47.6216 26.6187 46.6649C28.2893 45.7081 29.682 44.3329 30.6597 42.6745L32.7991 39.0264L40.2431 43.324C40.9926 43.7589 41.8436 43.9884 42.7101 43.9893C43.1456 43.9891 43.5793 43.9317 43.9999 43.8186C44.8083 43.6036 45.5484 43.1861 46.1505 42.6055C47.1242 43.0572 48.1844 43.2918 49.2578 43.293C49.9156 43.2926 50.5705 43.2059 51.2058 43.0351C52.826 42.6045 54.2528 41.6379 55.2536 40.2929L57.0736 41.3435C57.1746 41.402 57.2862 41.4399 57.402 41.4552C57.5177 41.4705 57.6354 41.4628 57.7481 41.4325C57.8609 41.4023 57.9666 41.3501 58.0592 41.279C58.1518 41.2079 58.2295 41.1192 58.2877 41.018L64.8791 29.6019C64.9377 29.5009 64.9758 29.3893 64.9912 29.2736C65.0066 29.1578 64.9991 29.0402 64.9691 28.9273C64.939 28.8145 64.8871 28.7087 64.8161 28.6159C64.7452 28.5231 64.6567 28.4453 64.5557 28.3867ZM5.71289 56.2098C5.71235 56.782 5.4848 57.3306 5.08017 57.7352C4.67555 58.1399 4.12691 58.3674 3.55469 58.368H1.77734V30.0234H3.55469C4.12691 30.0239 4.67555 30.2515 5.08017 30.6561C5.4848 31.0607 5.71235 31.6094 5.71289 32.1816V56.2098ZM11.4258 51.6095H7.49023V35.1056H11.4258V51.6095ZM29.1261 41.7752C28.3059 43.1668 27.1374 44.3209 25.7358 45.1238C24.3341 45.9267 22.7475 46.3507 21.1321 46.3541H13.2031V42.0377H21.1321C21.9952 42.0358 22.8429 41.8093 23.5918 41.3803C24.3408 40.9513 24.9651 40.3346 25.4033 39.5911L27.5234 35.9795L31.262 38.1377L29.1261 41.7752ZM41.1328 41.7848L13.2905 25.7105C12.5621 25.289 12.0308 24.5958 11.8129 23.783C11.5951 22.9701 11.7086 22.1041 12.1286 21.3748L14.7184 16.8873L40.2345 31.6189L48.0573 36.1354L45.467 40.625L45.4634 40.6306C45.3959 40.7452 45.3211 40.8555 45.2395 40.9607V40.9642C44.7709 41.5757 44.096 41.996 43.3405 42.147C42.585 42.298 41.8005 42.1692 41.1328 41.7848ZM50.7493 41.3182C49.5852 41.6329 48.3511 41.568 47.2266 41.1328L49.5996 37.0231L53.7093 39.3956C52.9523 40.3355 51.9149 41.0091 50.7482 41.3182H50.7493ZM57.1959 39.358L51.449 36.04L49.7148 35.0391L30.0945 23.7118L15.6081 15.3481L19.7239 8.21944C20.1456 7.49128 20.8389 6.96012 21.6518 6.7425C22.4646 6.52487 23.3305 6.63854 24.0596 7.05858L62.8971 29.4821L57.1959 39.358Z" fill="#0CC2FE"/>
<path d="M53.3988 34.5277C53.9163 34.8283 54.504 34.9868 55.1025 34.9873C55.4029 34.987 55.702 34.9474 55.9922 34.8694C56.7559 34.6649 57.4251 34.2018 57.8858 33.5592C58.3464 32.9165 58.5699 32.1341 58.5183 31.3451C58.4667 30.5561 58.1431 29.8094 57.6027 29.2323C57.0622 28.6551 56.3384 28.2832 55.5545 28.1799C54.7706 28.0766 53.9752 28.2483 53.3037 28.6658C52.6322 29.0832 52.1262 29.7206 51.8719 30.4692C51.6177 31.2179 51.6309 32.0316 51.9093 32.7716C52.1877 33.5116 52.7141 34.1322 53.3988 34.5277ZM53.6877 30.748C53.7953 30.5616 53.9386 30.3984 54.1095 30.2676C54.2804 30.1369 54.4755 30.0413 54.6836 29.9863C54.8227 29.9491 54.9661 29.9301 55.1101 29.9299C55.4715 29.93 55.8228 30.0493 56.1095 30.2693C56.3962 30.4894 56.6023 30.7979 56.6958 31.147C56.7893 31.4961 56.765 31.8663 56.6266 32.2002C56.4882 32.5341 56.2436 32.813 55.9306 32.9936C55.6175 33.1743 55.2537 33.2466 54.8953 33.1994C54.537 33.1522 54.2043 32.988 53.9488 32.7324C53.6933 32.4768 53.5293 32.144 53.4822 31.7857C53.435 31.4274 53.5075 31.0635 53.6882 30.7506L53.6877 30.748Z" fill="#0CC2FE"/>
<path d="M23.1055 25.5277L15.8235 21.3225C15.7224 21.2632 15.6105 21.2245 15.4944 21.2086C15.3783 21.1928 15.2602 21.2 15.1469 21.23C15.0336 21.2599 14.9273 21.312 14.8342 21.3832C14.7411 21.4544 14.663 21.5433 14.6044 21.6448C14.5458 21.7463 14.5079 21.8583 14.4928 21.9746C14.4777 22.0908 14.4857 22.2088 14.5164 22.322C14.5471 22.4351 14.5999 22.541 14.6717 22.6336C14.7435 22.7262 14.8329 22.8037 14.9348 22.8616L22.2189 27.0663C22.4221 27.1726 22.6586 27.1962 22.8789 27.1321C23.0991 27.068 23.2861 26.9213 23.4006 26.7225C23.5151 26.5238 23.5484 26.2884 23.4934 26.0657C23.4384 25.843 23.2994 25.6502 23.1055 25.5277Z" fill="#0CC2FE"/>
</svg>
