<svg width="64" height="64" viewBox="0 0 64 64" fill="none" xmlns="http://www.w3.org/2000/svg">
<path d="M32 4.47995C31.7454 4.47995 31.5013 4.3788 31.3212 4.19877C31.1412 4.01873 31.04 3.77455 31.04 3.51995V1.27995C31.04 1.02534 31.1412 0.781159 31.3212 0.601124C31.5013 0.421089 31.7454 0.319946 32 0.319946C32.2546 0.319946 32.4988 0.421089 32.6789 0.601124C32.8589 0.781159 32.96 1.02534 32.96 1.27995V3.50715C32.9617 3.63429 32.9382 3.7605 32.8907 3.87845C32.8432 3.99641 32.7727 4.10375 32.6834 4.19426C32.5941 4.28476 32.4877 4.35662 32.3704 4.40567C32.2531 4.45471 32.1272 4.47996 32 4.47995Z" fill="#0CC2FE"/>
<path d="M23.7762 6.67525C23.6077 6.67472 23.4423 6.63014 23.2964 6.54594C23.1504 6.46174 23.029 6.34085 22.9442 6.19525L21.837 4.27525C21.7097 4.05459 21.6753 3.7924 21.7413 3.54635C21.8073 3.3003 21.9684 3.09056 22.189 2.96325C22.4097 2.83595 22.6719 2.80152 22.9179 2.86753C23.164 2.93354 23.3737 3.09459 23.501 3.31525L24.6082 5.23525C24.6722 5.34427 24.7138 5.46492 24.7308 5.59019C24.7477 5.71545 24.7395 5.84283 24.7068 5.96491C24.674 6.08699 24.6173 6.20134 24.54 6.30132C24.4626 6.40129 24.3662 6.48489 24.2562 6.54725C24.1111 6.63336 23.945 6.67766 23.7762 6.67525Z" fill="#0CC2FE"/>
<path d="M17.7599 12.7168C17.5912 12.7192 17.4251 12.6749 17.2799 12.5888L15.3599 11.4752C15.2418 11.4172 15.1369 11.3355 15.0517 11.2352C14.9665 11.1349 14.9028 11.0182 14.8646 10.8923C14.8264 10.7664 14.8145 10.634 14.8296 10.5032C14.8447 10.3725 14.8866 10.2463 14.9525 10.1324C15.0185 10.0186 15.1071 9.91948 15.213 9.84131C15.3188 9.76314 15.4396 9.70757 15.5678 9.67804C15.6961 9.64852 15.829 9.64567 15.9584 9.66968C16.0878 9.69368 16.2108 9.74403 16.3199 9.81759L18.2399 10.9312C18.4251 11.0349 18.5704 11.1973 18.6529 11.3929C18.7353 11.5884 18.7501 11.8059 18.695 12.0109C18.64 12.2158 18.5181 12.3965 18.3487 12.5244C18.1793 12.6522 17.9721 12.72 17.7599 12.7168Z" fill="#0CC2FE"/>
<path d="M15.5582 20.9729H13.3374C13.0828 20.9729 12.8387 20.8717 12.6586 20.6917C12.4786 20.5116 12.3774 20.2675 12.3774 20.0129C12.3774 19.7582 12.4786 19.5141 12.6586 19.334C12.8387 19.154 13.0828 19.0529 13.3374 19.0529H15.5582C15.8128 19.0529 16.057 19.154 16.2371 19.334C16.4171 19.5141 16.5182 19.7582 16.5182 20.0129C16.5182 20.2675 16.4171 20.5116 16.2371 20.6917C16.057 20.8717 15.8128 20.9729 15.5582 20.9729Z" fill="#0CC2FE"/>
<path d="M50.6622 20.9729H48.4414C48.1868 20.9729 47.9427 20.8717 47.7626 20.6917C47.5826 20.5116 47.4814 20.2675 47.4814 20.0129C47.4814 19.7582 47.5826 19.5141 47.7626 19.334C47.9427 19.154 48.1868 19.0529 48.4414 19.0529H50.6622C50.9169 19.0529 51.161 19.154 51.3411 19.334C51.5211 19.5141 51.6222 19.7582 51.6222 20.0129C51.6222 20.2675 51.5211 20.5116 51.3411 20.6917C51.161 20.8717 50.9169 20.9729 50.6622 20.9729Z" fill="#0CC2FE"/>
<path d="M46.2398 12.7168C46.0276 12.72 45.8204 12.6522 45.651 12.5244C45.4816 12.3965 45.3598 12.2158 45.3047 12.0109C45.2496 11.8059 45.2644 11.5884 45.3469 11.3929C45.4293 11.1973 45.5746 11.0349 45.7598 10.9312L47.6798 9.81759C47.7889 9.74403 47.912 9.69368 48.0413 9.66968C48.1707 9.64567 48.3037 9.64852 48.4319 9.67804C48.5601 9.70757 48.6809 9.76314 48.7868 9.84131C48.8926 9.91948 48.9813 10.0186 49.0472 10.1324C49.1132 10.2463 49.155 10.3725 49.1701 10.5032C49.1852 10.634 49.1733 10.7664 49.1351 10.8923C49.0969 11.0182 49.0332 11.1349 48.948 11.2352C48.8628 11.3355 48.7579 11.4172 48.6398 11.4752L46.7198 12.5888C46.5747 12.6749 46.4085 12.7192 46.2398 12.7168Z" fill="#0CC2FE"/>
<path d="M40.2238 6.67525C40.0551 6.67766 39.889 6.63336 39.7438 6.54725C39.6339 6.48489 39.5375 6.40129 39.4601 6.30132C39.3828 6.20134 39.3261 6.08699 39.2933 5.96491C39.2606 5.84283 39.2524 5.71545 39.2693 5.59019C39.2862 5.46492 39.3279 5.34427 39.3918 5.23525L40.499 3.31525C40.6264 3.09459 40.8361 2.93354 41.0821 2.86753C41.3282 2.80152 41.5904 2.83595 41.811 2.96325C42.0317 3.09056 42.1928 3.3003 42.2588 3.54635C42.3248 3.7924 42.2903 4.05459 42.163 4.27525L41.0558 6.19525C40.971 6.34085 40.8496 6.46174 40.7037 6.54594C40.5578 6.63014 40.3923 6.67472 40.2238 6.67525Z" fill="#0CC2FE"/>
<path d="M38.1695 30.5601C37.9774 30.5612 37.7897 30.5031 37.6319 30.3937C37.5272 30.3235 37.4374 30.2333 37.3677 30.1282C37.2981 30.0231 37.25 29.9053 37.2262 29.7815C37.2024 29.6577 37.2033 29.5304 37.229 29.407C37.2547 29.2836 37.3046 29.1665 37.3759 29.0625C37.6511 28.6483 37.9979 28.2864 38.3999 27.9937C39.7839 26.9819 40.9105 25.6588 41.6888 24.1312C42.467 22.6036 42.875 20.9144 42.8799 19.2001C42.883 17.7106 42.5802 16.2364 41.9903 14.8688C41.4004 13.5011 40.536 12.2692 39.4507 11.2492C38.3653 10.2292 37.082 9.44295 35.6804 8.9391C34.2788 8.43526 32.7887 8.22456 31.3023 8.32006C29.0582 8.45286 26.9104 9.2775 25.1541 10.6806C23.3977 12.0837 22.1191 13.9965 21.4941 16.1558C20.869 18.3151 20.9281 20.6151 21.6634 22.7394C22.3986 24.8638 23.7738 26.7083 25.5999 28.0193C25.9943 28.3039 26.3364 28.6547 26.6111 29.0561C26.7554 29.2665 26.8101 29.5257 26.7633 29.7766C26.7165 30.0274 26.572 30.2494 26.3615 30.3937C26.2573 30.4651 26.14 30.5153 26.0164 30.5414C25.8928 30.5675 25.7652 30.5691 25.641 30.5459C25.3901 30.4991 25.1682 30.3545 25.0239 30.1441C24.8743 29.9242 24.6881 29.7315 24.4735 29.5745C22.3431 28.0218 20.7426 25.8508 19.8896 23.3565C19.0366 20.8622 18.9725 18.1657 19.706 15.6337C20.4395 13.1016 21.9351 10.857 23.9893 9.20489C26.0435 7.55281 28.5567 6.57347 31.1871 6.40006C32.9297 6.28323 34.6776 6.52825 36.321 7.11972C37.9643 7.71118 39.4674 8.63629 40.7359 9.83686C42.109 11.1279 43.1812 12.7052 43.8764 14.457C44.5716 16.2088 44.8728 18.0922 44.7585 19.9734C44.6443 21.8547 44.1175 23.6877 43.2155 25.3426C42.3135 26.9974 41.0583 28.4335 39.5391 29.5489C39.313 29.7086 39.1178 29.9081 38.9631 30.1377C38.8757 30.2679 38.7576 30.3746 38.6192 30.4482C38.4808 30.5219 38.3263 30.5603 38.1695 30.5601Z" fill="#0CC2FE"/>
<path d="M32.1217 39.1935C30.8386 39.1863 29.605 38.6975 28.6651 37.824C27.7252 36.9505 27.1475 35.7559 27.0465 34.4767C27.0369 34.3446 27.0545 34.2118 27.0983 34.0868C27.1421 33.9617 27.2112 33.847 27.3012 33.7498C27.3913 33.6525 27.5003 33.5748 27.6217 33.5215C27.743 33.4682 27.874 33.4405 28.0065 33.4399H36.2433C36.3758 33.4405 36.5068 33.4682 36.6282 33.5215C36.7495 33.5748 36.8586 33.6525 36.9486 33.7498C37.0386 33.847 37.1077 33.9617 37.1515 34.0868C37.1953 34.2118 37.213 34.3446 37.2033 34.4767C37.1022 35.757 36.5236 36.9525 35.5824 37.8262C34.6411 38.6998 33.4059 39.1879 32.1217 39.1935ZM29.2225 35.3535C29.4651 35.9225 29.8695 36.4076 30.3855 36.7485C30.9016 37.0895 31.5064 37.2713 32.1249 37.2713C32.7434 37.2713 33.3483 37.0895 33.8643 36.7485C34.3803 36.4076 34.7847 35.9225 35.0273 35.3535H29.2225Z" fill="#0CC2FE"/>
<path d="M38.4513 35.36H25.7921C24.901 35.36 24.0464 35.006 23.4162 34.3759C22.7861 33.7458 22.4321 32.8911 22.4321 32C22.4321 31.1089 22.7861 30.2543 23.4162 29.6241C24.0464 28.994 24.901 28.64 25.7921 28.64H38.4513C39.3425 28.64 40.1971 28.994 40.8272 29.6241C41.4573 30.2543 41.8113 31.1089 41.8113 32C41.8113 32.8911 41.4573 33.7458 40.8272 34.3759C40.1971 35.006 39.3425 35.36 38.4513 35.36ZM25.7921 30.56C25.4102 30.56 25.0439 30.7117 24.7739 30.9818C24.5038 31.2518 24.3521 31.6181 24.3521 32C24.3521 32.3819 24.5038 32.7482 24.7739 33.0182C25.0439 33.2883 25.4102 33.44 25.7921 33.44H38.4513C38.8332 33.44 39.1995 33.2883 39.4696 33.0182C39.7396 32.7482 39.8913 32.3819 39.8913 32C39.8913 31.6181 39.7396 31.2518 39.4696 30.9818C39.1995 30.7117 38.8332 30.56 38.4513 30.56H25.7921Z" fill="#0CC2FE"/>
<path d="M27.4303 58.4128C27.1757 58.4128 26.9315 58.3116 26.7514 58.1316C26.5714 57.9516 26.4703 57.7074 26.4703 57.4528V50.8864C26.4705 49.7402 26.0594 48.632 25.3119 47.7632L18.6559 39.9936C18.3433 39.6483 17.907 39.4405 17.4419 39.4153C16.9769 39.3902 16.5207 39.5497 16.1727 39.8592C15.8571 40.1525 15.664 40.5541 15.632 40.9837C15.5999 41.4133 15.7313 41.8391 15.9999 42.176L16.6399 42.976C16.8028 43.172 16.8812 43.4248 16.8578 43.6786C16.8344 43.9325 16.7111 44.1666 16.5151 44.3296C16.319 44.4925 16.0663 44.5709 15.8124 44.5475C15.5586 44.5241 15.3244 44.4008 15.1615 44.2048L14.4831 43.3856C13.8912 42.6395 13.6151 41.6913 13.714 40.7441C13.813 39.7969 14.279 38.9262 15.0122 38.3185C15.7455 37.7108 16.6876 37.4145 17.6367 37.4932C18.5857 37.5718 19.4662 38.0191 20.0895 38.7392L26.7455 46.5088C27.7894 47.7285 28.3636 49.2809 28.3647 50.8864V57.4528C28.3648 57.703 28.2671 57.9434 28.0926 58.1227C27.9181 58.302 27.6804 58.4061 27.4303 58.4128Z" fill="#0CC2FE"/>
<path d="M16.7614 58.3872C16.5068 58.3872 16.2626 58.286 16.0826 58.106C15.9025 57.926 15.8014 57.6818 15.8014 57.4272V56.8576L8.48618 47.4304C7.80478 46.5412 7.43382 45.453 7.43018 44.3328V29.2608C7.43018 28.3849 7.77811 27.5449 8.39743 26.9256C9.01675 26.3063 9.85673 25.9584 10.7326 25.9584C11.6084 25.9584 12.4484 26.3063 13.0677 26.9256C13.687 27.5449 14.035 28.3849 14.035 29.2608V39.8272L19.9934 46.944C20.0818 47.0395 20.1499 47.1521 20.1935 47.2748C20.2371 47.3975 20.2553 47.5278 20.2469 47.6577C20.2385 47.7876 20.2039 47.9145 20.1449 48.0306C20.086 48.1467 20.004 48.2496 19.9041 48.3331C19.8041 48.4165 19.6882 48.4788 19.5635 48.516C19.4387 48.5532 19.3077 48.5647 19.1783 48.5497C19.049 48.5347 18.924 48.4936 18.8111 48.4288C18.6982 48.364 18.5996 48.2769 18.5214 48.1728L12.339 40.8C12.19 40.6204 12.1105 40.3933 12.115 40.16V29.2608C12.1124 28.8914 11.9654 28.5376 11.7054 28.2752C11.5775 28.148 11.4257 28.0474 11.2587 27.9793C11.0918 27.9112 10.9129 27.8769 10.7326 27.8784C10.3659 27.8784 10.0143 28.024 9.75507 28.2833C9.49582 28.5425 9.35018 28.8941 9.35018 29.2608V44.3328C9.34642 45.0258 9.57137 45.7006 9.99018 46.2528L17.523 55.9424C17.6517 56.1117 17.7214 56.3185 17.7214 56.5312V57.4272C17.7214 57.6818 17.6202 57.926 17.4402 58.106C17.2602 58.286 17.016 58.3872 16.7614 58.3872Z" fill="#0CC2FE"/>
<path d="M26.7458 63.68H17.3506C16.3848 63.68 15.4585 63.2964 14.7756 62.6134C14.0927 61.9305 13.709 61.0043 13.709 60.0384C13.709 59.0726 14.0927 58.1464 14.7756 57.4634C15.4585 56.7805 16.3848 56.3969 17.3506 56.3969H26.7458C27.7116 56.3969 28.6379 56.7805 29.3208 57.4634C30.0037 58.1464 30.3874 59.0726 30.3874 60.0384C30.3874 61.0043 30.0037 61.9305 29.3208 62.6134C28.6379 63.2964 27.7116 63.68 26.7458 63.68ZM17.3506 58.3169C16.894 58.3169 16.4561 58.4982 16.1332 58.8211C15.8104 59.144 15.629 59.5819 15.629 60.0384C15.629 60.495 15.8104 60.9329 16.1332 61.2558C16.4561 61.5787 16.894 61.76 17.3506 61.76H26.7458C27.2024 61.76 27.6403 61.5787 27.9631 61.2558C28.286 60.9329 28.4674 60.495 28.4674 60.0384C28.4674 59.5819 28.286 59.144 27.9631 58.8211C27.6403 58.4982 27.2024 58.3169 26.7458 58.3169H17.3506Z" fill="#0CC2FE"/>
<path d="M36.5694 58.4128C36.3148 58.4128 36.0706 58.3117 35.8906 58.1316C35.7105 57.9516 35.6094 57.7074 35.6094 57.4528V50.8864C35.6104 49.2809 36.1846 47.7286 37.2286 46.5088L43.8846 38.7392C44.3703 38.1756 45.0171 37.7743 45.7378 37.5894C46.4585 37.4044 47.2185 37.4447 47.9157 37.7047C48.6128 37.9648 49.2135 38.4321 49.6371 39.0438C50.0606 39.6556 50.2866 40.3824 50.2846 41.1264C50.297 41.2755 50.297 41.4253 50.2846 41.5744C50.2846 41.632 50.2846 41.6832 50.2846 41.7216C50.2846 41.76 50.2462 41.9008 50.227 41.9904C50.1802 42.1815 50.116 42.3679 50.035 42.5472C49.9482 42.7735 49.8343 42.9884 49.6958 43.1872L49.6254 43.2832L49.5742 43.3472L48.8702 44.192C48.7098 44.3923 48.4764 44.5207 48.2213 44.5489C47.9663 44.5771 47.7105 44.5028 47.5102 44.3424C47.3099 44.182 47.1815 43.9486 47.1533 43.6936C47.1251 43.4385 47.1994 43.1827 47.3598 42.9824L48.115 42.0672C48.1655 41.9905 48.2084 41.9091 48.243 41.824C48.2781 41.7428 48.3081 41.6594 48.3326 41.5744C48.3326 41.5744 48.3326 41.536 48.3326 41.5168V41.44C48.3326 41.4016 48.3326 41.376 48.3326 41.344C48.3389 41.278 48.3389 41.2116 48.3326 41.1456C48.3379 40.9065 48.2928 40.6689 48.2002 40.4483C48.1076 40.2278 47.9695 40.0292 47.795 39.8656C47.4469 39.5561 46.9908 39.3966 46.5257 39.4218C46.0607 39.447 45.6244 39.6548 45.3118 40L38.6878 47.7632C37.9402 48.632 37.5292 49.7402 37.5294 50.8864V57.4528C37.5294 57.7074 37.4282 57.9516 37.2482 58.1316C37.0682 58.3117 36.824 58.4128 36.5694 58.4128Z" fill="#0CC2FE"/>
<path d="M47.2385 58.3872C46.9839 58.3872 46.7397 58.286 46.5597 58.106C46.3796 57.926 46.2785 57.6818 46.2785 57.4272V56.5312C46.2785 56.3185 46.3482 56.1117 46.4769 55.9424L53.9905 46.2528C54.4114 45.7018 54.6367 45.0261 54.6305 44.3328V29.2608C54.6305 28.8941 54.4848 28.5425 54.2256 28.2833C53.9663 28.024 53.6147 27.8784 53.2481 27.8784C53.0663 27.8772 52.8861 27.9123 52.7179 27.9815C52.5498 28.0507 52.3972 28.1527 52.2689 28.2816C52.0122 28.5431 51.8675 28.8943 51.8657 29.2608V40.1792C51.8725 40.4128 51.7928 40.6408 51.6417 40.8192L45.4785 48.1728C45.4003 48.2769 45.3017 48.364 45.1887 48.4288C45.0758 48.4936 44.9509 48.5347 44.8215 48.5497C44.6922 48.5647 44.5611 48.5532 44.4364 48.516C44.3116 48.4788 44.1957 48.4165 44.0958 48.3331C43.9958 48.2496 43.9139 48.1467 43.8549 48.0306C43.796 47.9145 43.7613 47.7876 43.753 47.6577C43.7446 47.5278 43.7628 47.3975 43.8064 47.2748C43.8499 47.1521 43.918 47.0395 44.0065 46.944L49.9649 39.8272V29.2608C49.9649 28.3849 50.3128 27.5449 50.9321 26.9256C51.5514 26.3063 52.3914 25.9584 53.2673 25.9584C54.1431 25.9584 54.9831 26.3063 55.6024 26.9256C56.2217 27.5449 56.5697 28.3849 56.5697 29.2608V44.3328C56.569 45.4546 56.1952 46.5443 55.5073 47.4304L48.1985 56.8576V57.4272C48.1985 57.6818 48.0973 57.926 47.9173 58.106C47.7373 58.286 47.4931 58.3872 47.2385 58.3872Z" fill="#0CC2FE"/>
<path d="M46.6496 63.68H37.2544C36.2886 63.68 35.3623 63.2964 34.6794 62.6134C33.9965 61.9305 33.6128 61.0043 33.6128 60.0384C33.6128 59.0726 33.9965 58.1464 34.6794 57.4634C35.3623 56.7805 36.2886 56.3969 37.2544 56.3969H46.6496C47.6154 56.3969 48.5417 56.7805 49.2246 57.4634C49.9075 58.1464 50.2912 59.0726 50.2912 60.0384C50.2912 61.0043 49.9075 61.9305 49.2246 62.6134C48.5417 63.2964 47.6154 63.68 46.6496 63.68ZM37.2544 58.3169C36.7978 58.3169 36.3599 58.4982 36.037 58.8211C35.7142 59.144 35.5328 59.5819 35.5328 60.0384C35.5328 60.495 35.7142 60.9329 36.037 61.2558C36.3599 61.5787 36.7978 61.76 37.2544 61.76H46.6496C47.1062 61.76 47.5441 61.5787 47.8669 61.2558C48.1898 60.9329 48.3712 60.495 48.3712 60.0384C48.3712 59.5819 48.1898 59.144 47.8669 58.8211C47.5441 58.4982 47.1062 58.3169 46.6496 58.3169H37.2544Z" fill="#0CC2FE"/>
</svg>
