<svg width="64" height="64" viewBox="0 0 64 64" fill="none" xmlns="http://www.w3.org/2000/svg">
<path d="M63.0625 60.3687H60.6268V20.7733C60.6268 19.5273 59.6131 18.5137 58.367 18.5137H50.3666C49.8489 18.5137 49.4291 18.9334 49.4291 19.4512C49.4291 19.9689 49.8489 20.3887 50.3666 20.3887H58.367C58.5791 20.3887 58.7518 20.5612 58.7518 20.7733V60.3688H46.9263V55.6893H54.078C55.0337 55.6893 55.8115 54.9117 55.8115 53.9558V51.7383C55.8115 50.7826 55.0339 50.0048 54.078 50.0048H46.9263V47.2543H54.078C55.0337 47.2543 55.8115 46.4767 55.8115 45.5208V43.3033C55.8115 42.3476 55.0339 41.5698 54.078 41.5698H46.9263V38.8193H54.078C55.0337 38.8193 55.8115 38.0417 55.8115 37.0858V34.8684C55.8115 33.9126 55.0339 33.1349 54.078 33.1349H46.9263V30.3844H54.078C55.0337 30.3844 55.8115 29.6068 55.8115 28.6509V26.4334C55.8115 25.4777 55.0339 24.6999 54.078 24.6999H46.9263V12.1528C46.9263 11.2377 46.3802 10.4191 45.5356 10.0674L25.9958 1.92381C25.3241 1.64381 24.5619 1.71731 23.9568 2.12081C23.3514 2.52431 22.99 3.19981 22.99 3.92781V8.32081H18.0141V4.47931C18.0141 3.96156 17.5944 3.54181 17.0766 3.54181C16.5589 3.54181 16.1391 3.96156 16.1391 4.47931V8.32093H10.5141C9.26812 8.32093 8.25438 9.33456 8.25438 10.5807V13.5204H5.09375C3.84763 13.5204 2.83375 14.5337 2.83375 15.7792V54.2854H2.26C1.01388 54.2854 0 55.2993 0 56.5454V59.9842C0 61.2303 1.01388 62.2442 2.26 62.2442L63.0625 62.2438C63.5802 62.2438 64 61.8241 64 61.3063C64 60.7886 63.5802 60.3687 63.0625 60.3687ZM53.9365 51.8799V53.8144H46.9263V51.8799H53.9365ZM53.9365 43.4449V45.3793H46.9263V43.4449H53.9365ZM53.9365 35.0099V36.9444H46.9263V35.0099H53.9365ZM53.9365 26.5751V28.5096H46.9263V26.5751H53.9365ZM24.865 3.92781C24.865 3.78943 24.9475 3.71381 24.9966 3.68093C25.0459 3.64831 25.1471 3.60118 25.2744 3.65443L36.3205 8.25818V50.4949C36.3205 51.0127 36.7402 51.4324 37.258 51.4324C37.7757 51.4324 38.1955 51.0127 38.1955 50.4949V9.03956L44.8148 11.7983C44.9585 11.8582 45.0514 11.9973 45.0514 12.1528L45.051 60.3691H38.1955V54.8911C38.1955 54.3733 37.7757 53.9536 37.258 53.9536C36.7402 53.9536 36.3205 54.3733 36.3205 54.8911V60.3691H31.715V29.8703C31.715 28.4733 30.5785 27.3367 29.1814 27.3367H24.865V3.92781ZM29.1814 29.2117C29.5445 29.2117 29.84 29.5071 29.84 29.8703V60.3688H18.0141V29.8703C18.0141 29.5072 18.3095 29.2117 18.6728 29.2117H29.1814ZM16.1391 29.8703V36.4828H4.70875V29.2117H16.229C16.1721 29.4222 16.1391 29.6422 16.1391 29.8703ZM4.70875 38.3578H16.1391V45.6303H4.70875V38.3578ZM10.1295 10.5806C10.1295 10.3684 10.3021 10.1958 10.5142 10.1958H22.9896V13.5199H10.1295V10.5806ZM5.09375 15.3953H22.99V18.6902H11.3834C10.8656 18.6902 10.4459 19.1099 10.4459 19.6277C10.4459 20.1454 10.8656 20.5652 11.3834 20.5652H22.99V27.3367H4.70875V20.5652H7.01725C7.535 20.5652 7.95475 20.1454 7.95475 19.6277C7.95475 19.1099 7.535 18.6902 7.01725 18.6902H4.70875V15.7791C4.70875 15.5676 4.8815 15.3953 5.09375 15.3953ZM4.70875 47.5054H16.1391V54.2854H4.70875V47.5054ZM2.26 60.3691C2.04775 60.3691 1.875 60.1964 1.875 59.9841V56.5453C1.875 56.3331 2.04775 56.1603 2.26 56.1603H16.1391V60.3691H2.26Z" fill="#0CC2FE"/>
<path d="M21.7554 35.3849C22.2731 35.3849 22.6929 34.9651 22.6929 34.4474V32.4427C22.6929 31.925 22.2731 31.5052 21.7554 31.5052C21.2376 31.5052 20.8179 31.925 20.8179 32.4427V34.4474C20.8179 34.9651 21.2375 35.3849 21.7554 35.3849Z" fill="#0CC2FE"/>
<path d="M26.064 35.3849C26.5817 35.3849 27.0015 34.9651 27.0015 34.4474V32.4427C27.0015 31.925 26.5817 31.5052 26.064 31.5052C25.5462 31.5052 25.1265 31.925 25.1265 32.4427V34.4474C25.1265 34.9651 25.5462 35.3849 26.064 35.3849Z" fill="#0CC2FE"/>
<path d="M21.7554 42.389C22.2731 42.389 22.6929 41.9693 22.6929 41.4515V39.4469C22.6929 38.9291 22.2731 38.5094 21.7554 38.5094C21.2376 38.5094 20.8179 38.9291 20.8179 39.4469V41.4515C20.8179 41.9693 21.2375 42.389 21.7554 42.389Z" fill="#0CC2FE"/>
<path d="M26.064 42.389C26.5817 42.389 27.0015 41.9693 27.0015 41.4515V39.4469C27.0015 38.9291 26.5817 38.5094 26.064 38.5094C25.5462 38.5094 25.1265 38.9291 25.1265 39.4469V41.4515C25.1265 41.9693 25.5462 42.389 26.064 42.389Z" fill="#0CC2FE"/>
<path d="M21.7554 49.3932C22.2731 49.3932 22.6929 48.9734 22.6929 48.4557V46.451C22.6929 45.9333 22.2731 45.5135 21.7554 45.5135C21.2376 45.5135 20.8179 45.9333 20.8179 46.451V48.4557C20.8179 48.9734 21.2375 49.3932 21.7554 49.3932Z" fill="#0CC2FE"/>
<path d="M26.064 49.3932C26.5817 49.3932 27.0015 48.9734 27.0015 48.4557V46.451C27.0015 45.9333 26.5817 45.5135 26.064 45.5135C25.5462 45.5135 25.1265 45.9333 25.1265 46.451V48.4557C25.1265 48.9734 25.5462 49.3932 26.064 49.3932Z" fill="#0CC2FE"/>
<path d="M21.7554 56.3973C22.2731 56.3973 22.6929 55.9776 22.6929 55.4598V53.4552C22.6929 52.9375 22.2731 52.5177 21.7554 52.5177C21.2376 52.5177 20.8179 52.9375 20.8179 53.4552V55.4598C20.8179 55.9776 21.2375 56.3973 21.7554 56.3973Z" fill="#0CC2FE"/>
<path d="M26.064 56.3973C26.5817 56.3973 27.0015 55.9776 27.0015 55.4598V53.4552C27.0015 52.9375 26.5817 52.5177 26.064 52.5177C25.5462 52.5177 25.1265 52.9375 25.1265 53.4552V55.4598C25.1265 55.9776 25.5462 56.3973 26.064 56.3973Z" fill="#0CC2FE"/>
</svg>
