<svg width="31" height="31" viewBox="0 0 31 31" fill="none" xmlns="http://www.w3.org/2000/svg">
<path d="M23.9138 18.4563C22.0613 17.6935 20.2871 17.1232 20.0152 17.0369L18.4204 16.2396V15.3409C19.0014 14.9527 19.4778 14.4273 19.8073 13.8112C20.1369 13.195 20.3094 12.5071 20.3097 11.8083V7.17136C20.4831 6.69668 21.2012 4.50048 20.2303 3.04443C19.2361 1.55294 17.7538 0.944824 15.1141 0.944824C13.7414 0.944824 12.252 1.37948 11.0278 2.13744C9.53858 3.0593 8.50797 4.3987 8.04739 6.01051C7.69185 7.25479 7.78696 8.19412 8.33008 8.80242C8.79059 9.31849 9.45291 9.44697 9.91827 9.46592V11.8083C9.91851 12.5071 10.091 13.195 10.4206 13.8112C10.7501 14.4273 11.2265 14.9527 11.8076 15.3409V16.2396L10.2127 17.037C9.94112 17.1234 8.16665 17.6936 6.31408 18.4564C3.50251 19.6141 1.91679 20.6148 1.46631 21.5159C1.37929 21.6903 0.944336 22.8617 0.944336 28.812C0.944336 28.9373 0.994099 29.0574 1.08268 29.146C1.17125 29.2345 1.29139 29.2843 1.41666 29.2843H28.8115C28.9368 29.2843 29.0569 29.2345 29.1455 29.146C29.2341 29.0574 29.2838 28.9373 29.2838 28.812C29.2838 22.8617 28.8489 21.6903 28.7616 21.5159C28.3111 20.6148 26.7254 19.6141 23.9138 18.4563ZM27.9168 21.9382C27.9151 21.9353 27.9136 21.9322 27.9122 21.9291L27.9168 21.9382ZM21.1118 21.5064L15.6336 24.2457C15.8956 23.8383 16.1835 23.3647 16.4725 22.8409C17.594 20.8083 18.2358 18.9412 18.3862 17.2785L19.4748 17.8229L21.1118 21.5064ZM15.1125 23.2929C14.5821 22.4332 14.1153 21.5359 13.7156 20.6082C14.6332 20.8404 15.5942 20.8404 16.5118 20.6082C16.1112 21.5359 15.6436 22.4332 15.1125 23.2929ZM16.9498 19.4533C16.371 19.7069 15.7459 19.8379 15.114 19.8379C14.4821 19.8379 13.857 19.7069 13.2783 19.4533C13.1716 19.1304 13.0775 18.803 12.9993 18.4737C14.3539 19.0334 15.8752 19.0332 17.2297 18.4733C17.1513 18.8024 17.0565 19.1299 16.9498 19.4533ZM12.1648 7.55737H19.365V8.50202H11.7424C11.9225 8.20619 12.0644 7.88879 12.1648 7.55737ZM9.03473 8.17352C8.64476 7.73662 8.77648 6.8973 8.95567 6.27011C9.87399 3.05612 13.1417 1.88947 15.1141 1.88947C17.4247 1.88947 18.6388 2.36026 19.4444 3.56847C20.0605 4.49269 19.6978 5.98205 19.5006 6.61272H12.4809C12.8401 5.89384 13.3767 5.6451 13.4106 5.62993C13.5245 5.58016 13.6141 5.4875 13.6602 5.37206C13.7062 5.25662 13.7048 5.12769 13.6565 5.01322C13.6081 4.89875 13.5165 4.80797 13.4016 4.76055C13.2867 4.71313 13.1578 4.7129 13.0428 4.75991C12.9907 4.78158 11.7648 5.31076 11.3496 6.97051C10.9881 8.41623 10.3731 8.50202 10.3672 8.50291C10.375 8.50177 10.3829 8.50147 10.3908 8.50202C10.3648 8.50202 10.3389 8.50415 10.3132 8.5084C10.3047 8.50993 9.44913 8.63781 9.03473 8.17352ZM10.8632 11.8083V9.44667H19.365V11.8083C19.364 12.6849 19.0154 13.5253 18.3955 14.1451C17.7757 14.7649 16.9353 15.1136 16.0587 15.1146H14.1694C13.2929 15.1136 12.4525 14.7649 11.8326 14.1451C11.2128 13.5253 10.8641 12.6849 10.8632 11.8083ZM14.1694 16.0592H16.0587C16.5415 16.0594 17.0207 15.977 17.4757 15.8155V16.5315C17.4753 16.7826 17.4619 17.0336 17.4357 17.2833C17.2944 17.3828 17.145 17.4705 16.9892 17.5453C16.3998 17.8111 15.7606 17.9485 15.1141 17.9485C14.4675 17.9485 13.8284 17.8111 13.2389 17.5453C13.0833 17.4705 12.9341 17.383 12.7929 17.2837C12.7665 17.0338 12.753 16.7828 12.7525 16.5315V15.8155C13.2074 15.977 13.6867 16.0594 14.1694 16.0592ZM11.8432 17.2781C12.0878 19.9164 13.5457 22.6008 14.5478 24.1714C14.5393 24.184 14.5306 24.197 14.5222 24.2094L9.11644 21.5065L10.7536 17.8229L11.8432 17.2781ZM2.31603 21.9293C2.31465 21.9324 2.31311 21.9354 2.31142 21.9384L2.31603 21.9293ZM2.31797 21.9256C2.79762 21.0051 5.51721 19.8065 6.66826 19.3323C7.74357 18.8895 8.79213 18.5125 9.52524 18.2608L8.06989 21.5353C8.0206 21.6463 8.016 21.7721 8.05705 21.8865C8.09809 22.0008 8.18163 22.095 8.29028 22.1493L13.9696 24.9892C13.8663 25.1277 13.8052 25.2048 13.8006 25.2106C13.7335 25.2943 13.697 25.3984 13.6971 25.5057V28.3397H11.3355V25.0334C11.3355 24.9081 11.2857 24.788 11.1971 24.6994C11.1086 24.6108 10.9884 24.5611 10.8632 24.5611H3.30596C3.18069 24.5611 3.06055 24.6108 2.97198 24.6994C2.8834 24.788 2.83363 24.9081 2.83363 25.0334V28.3397H1.88999C1.91118 23.1668 2.27918 22.0308 2.31797 21.9256ZM10.3908 26.4504H3.77828V25.5057H10.3908V26.4504ZM3.77828 27.395H10.3908V28.3397H3.77828V27.395ZM26.4499 26.4504H19.8373V25.5057H26.4499V26.4504ZM19.8373 28.3397V27.395H26.4499V28.3397H19.8373ZM27.3945 28.3397V25.0334C27.3945 24.9081 27.3448 24.788 27.2562 24.6994C27.1676 24.6108 27.0475 24.5611 26.9222 24.5611H19.365C19.2397 24.5611 19.1196 24.6108 19.031 24.6994C18.9424 24.788 18.8927 24.9081 18.8927 25.0334V28.3397H14.6418V25.7976L21.9379 22.1495C22.0465 22.0952 22.1301 22.0011 22.1711 21.8867C22.2122 21.7723 22.2076 21.6466 22.1583 21.5355L20.7029 18.2611C21.436 18.5128 22.4846 18.8896 23.5599 19.3325C24.7112 19.8067 27.4305 21.0053 27.9102 21.9258C27.949 22.0311 28.317 23.167 28.3382 28.3399L27.3945 28.3397Z" fill="#0CC2FE"/>
<path d="M16.0586 5.66793C16.3388 5.66793 16.6128 5.58483 16.8458 5.42913C17.0788 5.27343 17.2604 5.05213 17.3677 4.79321C17.4749 4.53429 17.503 4.24939 17.4483 3.97452C17.3936 3.69966 17.2587 3.44717 17.0605 3.24901C16.8624 3.05084 16.6099 2.91589 16.335 2.86121C16.0601 2.80654 15.7752 2.8346 15.5163 2.94185C15.2574 3.04909 15.0361 3.23071 14.8804 3.46373C14.7247 3.69675 14.6416 3.97071 14.6416 4.25096C14.642 4.62663 14.7915 4.98679 15.0571 5.25243C15.3227 5.51807 15.6829 5.6675 16.0586 5.66793ZM16.0586 3.77863C16.152 3.77863 16.2433 3.80634 16.321 3.85824C16.3987 3.91014 16.4592 3.9839 16.4949 4.07021C16.5307 4.15651 16.54 4.25148 16.5218 4.34311C16.5036 4.43473 16.4586 4.51889 16.3926 4.58494C16.3265 4.651 16.2423 4.69598 16.1507 4.71421C16.0591 4.73243 15.9641 4.72308 15.8778 4.68733C15.7915 4.65158 15.7178 4.59104 15.6659 4.51337C15.614 4.4357 15.5863 4.34438 15.5863 4.25096C15.5864 4.12573 15.6362 4.00568 15.7247 3.91713C15.8133 3.82858 15.9334 3.77878 16.0586 3.77863Z" fill="#0CC2FE"/>
</svg>
