<svg width="31" height="31" viewBox="0 0 31 31" fill="none" xmlns="http://www.w3.org/2000/svg">
<g clip-path="url(#clip0_8138_3432)">
<path d="M12.7389 24.3033H12.3016C11.8865 21.6412 11.1326 19.818 10.0008 18.7387C9.98859 18.7271 9.97572 18.7161 9.96229 18.7058L6.44678 16.0084C6.24599 15.8543 6.01103 15.7509 5.76178 15.7069C5.51254 15.6628 5.25635 15.6795 5.01493 15.7555L3.64306 12.1465C3.55654 11.9136 3.42479 11.7001 3.2554 11.5184C3.086 11.3366 2.88232 11.1901 2.65608 11.0874C2.42983 10.9847 2.1855 10.9278 1.93716 10.9199C1.68882 10.912 1.44138 10.9534 1.20909 11.0416C0.976801 11.1298 0.764255 11.263 0.583699 11.4337C0.403143 11.6044 0.258145 11.8091 0.157058 12.0361C0.055972 12.2631 0.000794956 12.5078 -0.00529376 12.7562C-0.0113825 13.0046 0.0317375 13.2517 0.121582 13.4834L2.53156 19.8229C2.54674 19.8629 2.56727 19.9007 2.59261 19.9351C3.56324 21.2549 4.4443 21.7455 5.0876 22.1037C5.868 22.5382 6.29546 22.7767 6.47222 24.3034H5.83535C5.70996 24.3034 5.5897 24.3532 5.50104 24.4419C5.41237 24.5306 5.36256 24.6508 5.36256 24.7762V27.6498C5.36256 27.7752 5.41237 27.8954 5.50104 27.9841C5.5897 28.0728 5.70996 28.1226 5.83535 28.1226H12.7389C12.8642 28.1226 12.9845 28.0728 13.0732 27.9841C13.1618 27.8954 13.2116 27.7752 13.2116 27.6498V24.7761C13.2116 24.6507 13.1618 24.5304 13.0732 24.4418C12.9845 24.3531 12.8642 24.3033 12.7389 24.3033ZM5.54771 21.2774C4.92684 20.9318 4.22443 20.5407 3.39237 19.4259L1.00566 13.1479C0.91742 12.9154 0.92517 12.6573 1.0272 12.4305C1.12923 12.2037 1.31719 12.0267 1.54971 11.9385C1.78224 11.8502 2.0403 11.858 2.26712 11.96C2.49393 12.0621 2.67093 12.25 2.75916 12.4825L4.21929 16.3237C3.97487 16.6555 3.87047 17.07 3.92854 17.478C3.98662 17.886 4.20254 18.2548 4.52985 18.5053L7.74478 20.9738C7.7939 21.0129 7.85032 21.0419 7.91075 21.059C7.97117 21.0761 8.0344 21.081 8.09674 21.0734C8.15907 21.0657 8.21927 21.0458 8.27381 21.0147C8.32835 20.9835 8.37613 20.9418 8.41439 20.892C8.45264 20.8422 8.48058 20.7853 8.49659 20.7246C8.5126 20.6639 8.51636 20.6005 8.50763 20.5384C8.49891 20.4762 8.47788 20.4163 8.44578 20.3624C8.41368 20.3084 8.37115 20.2614 8.32067 20.224L5.10478 17.7546C5.03853 17.704 4.98303 17.6408 4.94154 17.5685C4.90005 17.4962 4.87342 17.4164 4.86319 17.3337C4.84236 17.1798 4.88082 17.0238 4.97076 16.8972C4.99036 16.8791 5.02673 16.8463 5.07562 16.8059C5.10389 16.7823 5.12931 16.7556 5.15137 16.7261C5.26008 16.6571 5.38736 16.6232 5.51599 16.6289C5.64463 16.6346 5.76839 16.6797 5.87054 16.7581L9.36574 19.44C10.2995 20.3433 10.9639 21.9778 11.3436 24.3033H7.42266C7.20569 22.3024 6.55535 21.8385 5.54759 21.2774H5.54771ZM12.2662 27.1769H6.30809V25.2489H12.2661L12.2662 27.1769ZM29.0146 11.0539C28.5479 10.878 28.0305 10.8943 27.5757 11.099C27.1209 11.3038 26.7658 11.6805 26.5881 12.1465L25.2159 15.7553C24.9743 15.6793 24.718 15.6625 24.4686 15.7065C24.2192 15.7505 23.984 15.8538 23.783 16.0079L20.2668 18.7058C20.2533 18.7161 20.2405 18.7271 20.2282 18.7387C19.0966 19.818 18.3425 21.6412 17.9275 24.3033H17.4902C17.3648 24.3033 17.2446 24.3531 17.1559 24.4418C17.0672 24.5304 17.0174 24.6507 17.0174 24.7761V27.6497C17.0174 27.775 17.0672 27.8953 17.1559 27.984C17.2446 28.0726 17.3648 28.1224 17.4902 28.1224H24.3938C24.5192 28.1224 24.6394 28.0726 24.7281 27.984C24.8167 27.8953 24.8666 27.775 24.8666 27.6497V24.7761C24.8666 24.6507 24.8167 24.5304 24.7281 24.4418C24.6394 24.3531 24.5192 24.3033 24.3938 24.3033H23.7568C23.9336 22.7763 24.3611 22.538 25.1415 22.1036C25.785 21.7454 26.6659 21.2548 27.6365 19.935C27.6618 19.9005 27.6824 19.8628 27.6976 19.8228L30.1077 13.4827C30.2838 13.0156 30.2676 12.4978 30.0627 12.0426C29.8579 11.5874 29.481 11.2319 29.0146 11.0539ZM23.921 25.2489V27.1769H17.963V25.2489H23.921ZM29.2236 13.1473L26.8369 19.4259C26.0047 20.5407 25.3023 20.9318 24.6815 21.2774C23.6737 21.8383 23.0234 22.3024 22.8064 24.3033H18.885C19.265 21.9778 19.9295 20.343 20.8628 19.44L24.3589 16.7577C24.4608 16.6797 24.584 16.6347 24.7121 16.6287C24.8403 16.6227 24.9672 16.6559 25.0759 16.724C25.0983 16.7543 25.1242 16.7818 25.1531 16.8059C25.202 16.8463 25.2384 16.879 25.258 16.8972C25.3479 17.0238 25.3864 17.1798 25.3656 17.3337C25.3553 17.4166 25.3285 17.4966 25.2869 17.569C25.2453 17.6414 25.1896 17.7047 25.1231 17.7553L21.9084 20.2238C21.8115 20.3011 21.7487 20.4132 21.7337 20.5363C21.7187 20.6593 21.7526 20.7833 21.8281 20.8816C21.9035 20.9799 22.0146 21.0446 22.1373 21.0618C22.2601 21.079 22.3846 21.0474 22.4843 20.9736L25.6983 18.5057C26.0257 18.2557 26.2419 17.8871 26.3004 17.4792C26.3588 17.0714 26.2549 16.6569 26.0109 16.325L27.472 12.4814C27.5607 12.2498 27.7374 12.0627 27.9636 11.9609C28.1897 11.8591 28.4469 11.8508 28.6792 11.9378C28.9114 12.0264 29.0991 12.2035 29.2012 12.4301C29.3032 12.6568 29.3113 12.9147 29.2236 13.1473ZM20.9512 7.66777C21.4828 7.66794 22.0026 7.51042 22.4447 7.21515C22.8868 6.91988 23.2315 6.50011 23.435 6.00896C23.6385 5.5178 23.6918 4.97731 23.5881 4.45586C23.4845 3.93441 23.2285 3.45542 22.8525 3.07948C22.4766 2.70353 21.9976 2.44753 21.4761 2.34385C20.9547 2.24017 20.4142 2.29347 19.923 2.497C19.4319 2.70053 19.0121 3.04516 18.7169 3.48729C18.4216 3.92941 18.2641 4.44918 18.2642 4.98084C18.2653 5.69314 18.5487 6.37598 19.0523 6.87965C19.556 7.38333 20.2389 7.66674 20.9512 7.66777ZM20.9512 3.23778C21.2957 3.23761 21.6326 3.33962 21.9192 3.53091C22.2059 3.72221 22.4293 3.9942 22.5613 4.31248C22.6933 4.63077 22.728 4.98106 22.661 5.31906C22.5939 5.65705 22.4281 5.96757 22.1846 6.21135C21.9411 6.45512 21.6307 6.62121 21.2928 6.6886C20.9548 6.75599 20.6045 6.72165 20.2861 6.58994C19.9677 6.45823 19.6955 6.23505 19.5039 5.94864C19.3123 5.66222 19.21 5.32542 19.2098 4.98084C19.2103 4.519 19.3939 4.07621 19.7203 3.74948C20.0467 3.42276 20.4893 3.23875 20.9512 3.23778ZM15.1324 9.3548C15.6641 9.3548 16.1839 9.19711 16.6261 8.90168C17.0682 8.60625 17.4128 8.18634 17.6163 7.69505C17.8198 7.20377 17.8731 6.66317 17.7693 6.14162C17.6656 5.62007 17.4095 5.141 17.0335 4.76499C16.6575 4.38897 16.1784 4.13291 15.6569 4.02916C15.1353 3.92542 14.5947 3.97867 14.1035 4.18216C13.6122 4.38566 13.1923 4.73027 12.8968 5.17242C12.6014 5.61456 12.4437 6.13439 12.4437 6.66615C12.4445 7.37898 12.728 8.06239 13.2321 8.56643C13.7361 9.07048 14.4195 9.354 15.1324 9.3548ZM15.1324 4.9231C15.4771 4.9231 15.8141 5.02532 16.1007 5.21685C16.3874 5.40838 16.6108 5.68061 16.7427 5.99911C16.8747 6.31762 16.9092 6.66808 16.8419 7.0062C16.7747 7.34432 16.6087 7.65491 16.3649 7.89868C16.1211 8.14245 15.8105 8.30846 15.4724 8.37571C15.1343 8.44297 14.7838 8.40845 14.4653 8.27652C14.1468 8.1446 13.8746 7.92119 13.6831 7.63454C13.4915 7.3479 13.3893 7.0109 13.3893 6.66615C13.3898 6.20402 13.5736 5.76097 13.9004 5.43419C14.2272 5.10742 14.6702 4.92361 15.1324 4.9231ZM19.7186 15.7285V15.2114C20.1215 15.2541 20.5264 15.2755 20.9316 15.2757C22.3993 15.2689 23.8542 15.0013 25.2283 14.4853C25.319 14.4518 25.3973 14.3914 25.4527 14.3121C25.508 14.2327 25.5376 14.1384 25.5376 14.0417V10.8517C25.5338 10.1092 25.2653 9.39242 24.7802 8.83025C24.2952 8.26808 23.6254 7.89743 22.8915 7.78497C22.7744 7.76769 22.6552 7.79488 22.5572 7.86119C22.083 8.18121 21.524 8.35219 20.952 8.35219C20.3799 8.35219 19.821 8.18121 19.3468 7.86119C19.2488 7.79473 19.1294 7.76755 19.0123 7.78503C18.4906 7.86313 17.9975 8.07277 17.5793 8.3942C17.1611 8.71563 16.8316 9.13826 16.622 9.62225C16.1813 9.88983 15.6767 10.0338 15.1612 10.0391C14.6458 10.0444 14.1383 9.91078 13.6923 9.65231C13.5065 9.11689 13.1777 8.64254 12.7415 8.28064C12.3054 7.91874 11.7785 7.68309 11.218 7.59923C11.101 7.58198 10.9818 7.60913 10.8839 7.67533C10.4095 7.99536 9.85028 8.16635 9.27801 8.16635C8.70574 8.16635 8.14652 7.99536 7.67211 7.67533C7.57414 7.60894 7.45482 7.58173 7.33776 7.59911C6.60383 7.71161 5.93411 8.08228 5.44906 8.64445C4.96401 9.20663 4.69545 9.92342 4.69168 10.6659V13.8558C4.69171 13.9521 4.72117 14.0461 4.77613 14.1253C4.83108 14.2044 4.9089 14.2649 4.99916 14.2986C6.36502 14.8165 7.81295 15.0844 9.2737 15.0894C9.69873 15.0891 10.1234 15.0657 10.5459 15.0192V15.7285C10.546 15.8248 10.5755 15.9189 10.6304 15.998C10.6854 16.0771 10.7633 16.1376 10.8536 16.1713C12.2164 16.688 13.6612 16.9552 15.1188 16.96C16.5844 16.9537 18.0372 16.6868 19.4094 16.1719C19.5001 16.1385 19.5783 16.078 19.6336 15.9988C19.6889 15.9195 19.7186 15.8251 19.7186 15.7285ZM10.5456 12.5388V14.0674C8.88929 14.2606 7.21071 14.0745 5.63698 13.523V10.666C5.63957 10.179 5.806 9.707 6.10948 9.32606C6.41296 8.94512 6.83581 8.6774 7.30995 8.56602C7.90421 8.92333 8.58454 9.11211 9.27795 9.11211C9.97136 9.11211 10.6517 8.92333 11.246 8.56602C11.5376 8.63367 11.8119 8.76125 12.0516 8.94065C12.2913 9.12005 12.491 9.34734 12.6381 9.60808C12.0294 9.82087 11.5016 10.2168 11.1269 10.7415C10.7523 11.2662 10.5492 11.8941 10.5456 12.5388ZM18.773 15.3944C16.3402 16.2189 13.8935 16.2193 11.4912 15.3957V12.5388C11.4939 12.0518 11.6604 11.5798 11.9638 11.1989C12.2673 10.818 12.6901 10.5503 13.1642 10.4388C13.7584 10.7961 14.4387 10.9849 15.1321 10.9849C15.8255 10.9849 16.5058 10.7961 17.1 10.4388C17.5741 10.5502 17.9969 10.818 18.3004 11.1989C18.6039 11.5798 18.7703 12.0518 18.773 12.5388V15.3944ZM17.6922 9.63247C17.9979 9.18769 18.4591 8.87353 18.9849 8.75188C19.5789 9.10911 20.2589 9.29785 20.952 9.29785C21.6452 9.29785 22.3252 9.10911 22.9192 8.75188C23.3933 8.86324 23.8161 9.13094 24.1196 9.51184C24.423 9.89275 24.5895 10.3647 24.5921 10.8517V13.7075C22.9649 14.2601 21.3288 14.4448 19.7186 14.2598V12.5388C19.715 11.9061 19.5193 11.2894 19.1575 10.7704C18.7956 10.2514 18.2847 9.85459 17.6922 9.63247ZM9.27789 7.48197C9.80941 7.48179 10.3289 7.32402 10.7708 7.0286C11.2126 6.73319 11.557 6.3134 11.7603 5.82231C11.9636 5.33122 12.0168 4.79087 11.913 4.26958C11.8093 3.74829 11.5533 3.26946 11.1774 2.89363C10.8016 2.5178 10.3228 2.26185 9.80146 2.15812C9.28017 2.0544 8.73982 2.10756 8.24874 2.31089C7.75765 2.51423 7.33788 2.85859 7.04249 3.30047C6.7471 3.74234 6.58935 4.26187 6.58918 4.79338C6.58978 5.50628 6.87325 6.18981 7.37735 6.69389C7.88146 7.19797 8.56499 7.48141 9.27789 7.48197ZM9.27789 3.05204C9.62246 3.05222 9.95923 3.15456 10.2456 3.34614C10.532 3.53771 10.7552 3.80991 10.8869 4.12831C11.0186 4.44672 11.0529 4.79703 10.9855 5.13494C10.9181 5.47285 10.7521 5.78319 10.5083 6.02672C10.2645 6.27024 9.95403 6.43601 9.61605 6.50307C9.27808 6.57013 8.9278 6.53546 8.60953 6.40344C8.29125 6.27143 8.01928 6.048 7.82798 5.76141C7.63669 5.47483 7.53467 5.13795 7.53484 4.79338C7.53535 4.33141 7.71922 3.88854 8.04604 3.56203C8.37286 3.23553 8.81592 3.0521 9.27789 3.05204Z" fill="#0CC2FE"/>
</g>
<defs>
<clipPath id="clip0_8138_3432">
<rect width="30.2288" height="30.2288" fill="white"/>
</clipPath>
</defs>
</svg>
