<svg width="64" height="64" viewBox="0 0 64 64" fill="none" xmlns="http://www.w3.org/2000/svg">
<g clip-path="url(#clip0_8138_3348)">
<path d="M6.82843 42.3269C8.06077 43.5509 9.42492 44.6348 10.896 45.5586L4.75143 51.7076C4.15089 52.3076 3.81351 53.1215 3.81351 53.9706C3.81351 54.8197 4.15089 55.6341 4.75143 56.2341L7.77026 59.2524C8.37031 59.853 9.18422 60.1904 10.0333 60.1904C10.8823 60.1904 11.6967 59.853 12.2968 59.2524L22.4079 49.1414H22.507C22.7496 49.1384 22.9903 49.0935 23.2174 49.009C23.297 49.0032 23.3751 48.9876 23.4513 48.9631C28.0896 47.0517 31.831 46.6166 35.2263 47.6C36.2994 47.912 37.3267 48.365 38.2807 48.947C38.3257 49.4353 38.5385 49.8928 38.8837 50.2409L51.7051 63.0612C52.9545 64.3102 54.9797 64.3102 56.2296 63.0612L59.246 60.0449C59.8461 59.4448 60.183 58.6309 60.183 57.7823C60.183 56.9333 59.8461 56.1194 59.246 55.5193L54.718 50.9991L47.9207 44.2018C48.4817 44.0197 49.0461 43.8156 49.6115 43.5832C55.3088 41.1942 59.8392 36.6628 62.2277 30.9654C63.3624 28.2566 63.963 25.3545 63.9976 22.4177C64.0401 19.5063 63.5109 16.6144 62.4401 13.9066C60.1986 8.27029 55.7346 3.80626 50.0987 1.56375C47.3895 0.496928 44.4981 -0.0318428 41.5862 0.00672864C38.6503 0.0409059 35.7482 0.64096 33.0399 1.77418C31.2705 2.51534 29.5997 3.47327 28.0662 4.62602C26.223 4.12215 24.3237 3.85215 22.4132 3.82188C19.5013 3.78087 16.609 4.30866 13.8997 5.37695C8.25899 7.61262 3.79301 12.0796 1.55831 17.7208C0.489536 20.4296 -0.0392343 23.321 0.0022666 26.2329C0.0379086 29.1682 0.637475 32.0689 1.76825 34.7776C2.94248 37.6022 4.66209 40.1674 6.82843 42.3269ZM13.0462 55.4822L10.7822 53.2177C10.358 52.8618 9.73203 52.8896 9.34143 53.2817C8.95035 53.6737 8.92447 54.2997 9.28138 54.7225L11.5459 56.987L10.7905 57.7413C10.3677 58.1427 9.70469 58.1427 9.28138 57.7413L6.25963 54.7225C6.05945 54.5228 5.94715 54.2513 5.94715 53.9682C5.94715 53.685 6.05945 53.4135 6.25963 53.2133L10.0279 49.445L12.2924 51.7095C12.7108 52.1138 13.3763 52.1079 13.7874 51.6963C14.199 51.2852 14.2049 50.6198 13.8006 50.2013L11.5361 47.9369L12.8217 46.6518C13.3333 46.911 13.8465 47.1688 14.3787 47.391C16.0768 48.0907 17.853 48.5848 19.6688 48.8616L13.0462 55.4822ZM26.9525 45.582L41.7634 30.7711C40.9724 33.6703 40.9622 36.7272 41.7346 39.6313C42.0705 40.7928 42.548 41.909 43.1564 42.9538L39.1362 46.974C38.0923 46.3647 36.9771 45.8862 35.8161 45.5498C32.9105 44.7774 29.8522 44.7882 26.9525 45.582ZM57.7378 58.5401L54.718 61.5565C54.3016 61.9725 53.6263 61.9725 53.2098 61.5565L52.4589 60.8021L54.718 58.5391C54.9954 58.2711 55.1067 57.8746 55.009 57.5016C54.9114 57.1286 54.6204 56.8376 54.2474 56.7399C53.8743 56.6423 53.4779 56.7536 53.2098 57.0309L50.9478 59.2939L46.4222 54.7684L48.6843 52.5063C49.0886 52.0879 49.0827 51.4224 48.6716 51.0113C48.26 50.5997 47.595 50.5939 47.1761 50.9982L44.9141 53.2602L40.3885 48.7346L44.9141 44.2091L46.4222 45.7188L44.1587 47.9808C43.8892 48.2503 43.7838 48.6429 43.8824 49.011C43.981 49.3791 44.2686 49.6672 44.6367 49.7658C45.0044 49.8644 45.3974 49.7595 45.6669 49.49L47.9295 47.2265L52.455 51.752L50.1925 54.0145C49.9152 54.2821 49.8043 54.679 49.9015 55.0516C49.9991 55.4246 50.2906 55.7161 50.6636 55.8132C51.0362 55.9109 51.4331 55.8001 51.7007 55.5227L53.9715 53.2602L57.7417 57.0309C57.9414 57.2316 58.0532 57.5031 58.0528 57.7862C58.0518 58.0694 57.9385 58.3404 57.7378 58.5401ZM33.8597 3.73986C36.317 2.71356 38.9492 2.17015 41.612 2.13988C44.2461 2.09837 46.8631 2.57686 49.3127 3.54749C54.4012 5.57273 58.4316 9.60369 60.4564 14.6927C61.4251 17.1422 61.9031 19.7582 61.8645 22.3923C61.8337 25.0552 61.2908 27.6869 60.2645 30.1442C58.0923 35.3206 53.9744 39.438 48.7976 41.6092C47.9378 41.9602 47.055 42.2517 46.1557 42.4812C45.8539 42.2659 45.5009 42.1336 45.1318 42.0984C44.5498 41.1439 44.0972 40.1171 43.7847 39.0439C42.8034 35.6487 43.2374 31.9082 45.1489 27.2718C45.1709 27.2006 45.185 27.1273 45.1914 27.0531C45.2866 26.7982 45.3325 26.5273 45.3256 26.2553C45.2324 23.4865 44.6387 20.7577 43.5724 18.2007C41.1878 12.5019 36.6568 7.97051 30.959 5.58591C30.8423 5.53807 30.7232 5.50487 30.6055 5.45897C31.6386 4.793 32.7274 4.21785 33.8597 3.73986ZM3.54303 18.5044C5.56046 13.413 9.59337 9.38154 14.6858 7.36606C17.0552 6.43058 19.58 5.95259 22.1276 5.95845H22.3888C25.0512 5.98969 27.6834 6.53262 30.1407 7.55794C35.3156 9.72673 39.4311 13.8431 41.5989 19.0185C42.5685 21.3397 43.1056 23.818 43.1827 26.332L27.3855 42.137L27.3738 42.1443L27.3665 42.155L22.5133 47.0082L22.508 47.0155C19.9959 46.9316 17.52 46.3925 15.1999 45.4253C10.0216 43.2565 5.90321 39.1382 3.73491 33.9594C2.71106 31.5015 2.16764 28.8699 2.13541 26.2075C2.09684 23.5724 2.57532 20.9554 3.54303 18.5044Z" fill="#0CC2FE"/>
<path d="M37.6629 20.6556C38.2678 22.1106 38.6628 23.6442 38.8362 25.21C38.8957 25.7505 39.3517 26.1601 39.8956 26.1606C39.9352 26.1606 39.9747 26.1582 40.0138 26.1543C40.5977 26.0893 41.0191 25.565 40.9566 24.981C40.7608 23.2131 40.3141 21.4822 39.631 19.8398C38.6692 17.5314 37.2616 15.4348 35.4883 13.6708C35.0698 13.2665 34.4048 13.2724 33.9932 13.6835C33.5817 14.0951 33.5758 14.7606 33.9801 15.179C35.5556 16.7448 36.8075 18.606 37.6629 20.6556Z" fill="#0CC2FE"/>
<path d="M6.69243 33.7972C7.04885 33.7982 7.38232 33.6209 7.58055 33.3251C7.77927 33.0292 7.81686 32.6537 7.68113 32.3242C7.19289 31.1367 6.84379 29.8966 6.64117 28.6286L6.57623 23.7222C6.74321 22.4748 7.05813 21.2522 7.51464 20.0799C7.6577 19.725 7.59959 19.3202 7.36231 19.0199C7.12502 18.7197 6.74516 18.5698 6.36677 18.6264C5.98838 18.6835 5.66956 18.9389 5.5309 19.2958C4.66475 21.4861 4.23607 23.8248 4.26829 26.1796C4.2971 28.57 4.78534 30.9327 5.70618 33.139C5.8712 33.5379 6.26082 33.7977 6.69243 33.7972Z" fill="#0CC2FE"/>
<path d="M56.898 29.901C57.4424 30.1271 58.0664 29.8688 58.2925 29.3249C59.2133 27.119 59.7015 24.7568 59.7308 22.3664C59.766 20.0082 59.3383 17.666 58.4726 15.4724C58.334 15.1154 58.0151 14.8596 57.6367 14.803C57.2584 14.7458 56.8785 14.8962 56.6412 15.1965C56.4039 15.4968 56.3458 15.901 56.4889 16.256C56.9454 17.4288 57.2608 18.6518 57.4273 19.8998L57.3624 24.8057C57.1597 26.0741 56.8106 27.3148 56.3224 28.5027C56.2125 28.7644 56.2116 29.0593 56.3195 29.3214C56.4278 29.5841 56.6358 29.7926 56.898 29.901Z" fill="#0CC2FE"/>
<path d="M25.6006 57.6027C25.6006 61.1371 28.4661 64.0021 32.0005 64.0021C35.5349 64.0021 38.4 61.1371 38.4 57.6027C38.4 54.0683 35.5349 51.2028 32.0005 51.2028C28.4676 51.2067 25.6045 54.0697 25.6006 57.6027ZM36.2668 57.6027C36.2668 59.959 34.3568 61.869 32.0005 61.869C29.6442 61.869 27.7337 59.959 27.7337 57.6027C27.7337 55.2464 29.6442 53.3359 32.0005 53.3359C34.3568 53.3359 36.2668 55.2464 36.2668 57.6027Z" fill="#0CC2FE"/>
<path d="M30.1757 55.7785C29.8681 56.0837 29.7759 56.5446 29.9419 56.945C30.1079 57.3448 30.4999 57.6051 30.933 57.6026C31.0048 57.6007 31.0761 57.5934 31.1464 57.5811C31.2133 57.5694 31.2777 57.5479 31.3382 57.5172C31.4061 57.4937 31.471 57.4615 31.5301 57.421C31.5863 57.3819 31.6395 57.339 31.6903 57.2931C32.1087 56.8747 32.1087 56.197 31.6903 55.7785C31.2723 55.3601 30.5942 55.3601 30.1757 55.7785Z" fill="#0CC2FE"/>
</g>
<defs>
<clipPath id="clip0_8138_3348">
<rect width="64" height="64" fill="white"/>
</clipPath>
</defs>
</svg>
