<svg width="31" height="31" viewBox="0 0 31 31" fill="none" xmlns="http://www.w3.org/2000/svg">
<path d="M15.1141 0.944336C14.0652 0.944336 13.2239 1.79393 13.2239 2.83174C13.2239 3.86956 14.0652 4.72285 15.1141 4.72285C16.163 4.72285 17.0043 3.86956 17.0043 2.83174C17.0043 1.79393 16.163 0.944336 15.1141 0.944336ZM15.1141 1.88896C15.6303 1.88896 16.0597 2.30445 16.0597 2.83174C16.0597 3.35904 15.6322 3.77821 15.1141 3.77821C14.596 3.77821 14.1685 3.35904 14.1685 2.83174C14.1685 2.30445 14.5978 1.88896 15.1141 1.88896ZM11.9379 3.77818L5.61317 6.69601C5.04332 6.94643 5.42567 7.82045 6.0089 7.55392L12.3346 4.63609C12.7755 4.43926 12.661 3.76866 12.1676 3.73299C12.0883 3.72766 12.0096 3.74372 11.9379 3.77818ZM24.2193 7.55396C24.8025 7.82049 25.1849 6.94647 24.615 6.69605L18.2903 3.77821C18.2187 3.74394 18.1398 3.72859 18.0606 3.73303C17.5671 3.76872 17.4526 4.43929 17.8936 4.63613L24.2193 7.55396ZM13.8761 6.33351C13.5233 6.50435 13.3928 6.76795 13.3152 6.95434C13.2375 7.14075 13.207 7.24609 13.1095 7.36579C13.0118 7.48539 12.8338 7.63835 12.4222 7.81226C12.0091 7.98684 11.7686 8.0115 11.6095 8.00045C11.4504 7.98974 11.3551 7.94154 11.174 7.87138C10.993 7.80104 10.7109 7.71089 10.3613 7.82622C10.0456 7.93029 9.73438 8.18107 9.38898 8.531C9.01431 8.91056 8.78803 9.22384 8.69802 9.51068C8.58877 9.85898 8.68731 10.1395 8.76068 10.3188C8.8344 10.4981 8.8835 10.5942 8.89724 10.7514C8.91152 10.9087 8.8901 11.1502 8.72283 11.5641C8.55485 11.9781 8.40304 12.165 8.28372 12.268C8.16447 12.371 8.06221 12.4028 7.88613 12.4774C7.65709 12.5743 7.42787 12.7099 7.27542 13.0041C7.13689 13.2717 7.08018 13.6463 7.08446 14.1683C7.08087 14.6479 7.12338 15.0391 7.27542 15.3325C7.42787 15.6268 7.65828 15.7627 7.88613 15.8592C8.06214 15.9339 8.15886 15.9639 8.27818 16.0668C8.39743 16.1698 8.55478 16.3586 8.72283 16.7725C8.88778 17.1785 8.90915 17.4183 8.89724 17.5751C8.88475 17.732 8.83905 17.8267 8.768 17.9967C8.68231 18.2014 8.60251 18.4574 8.68409 18.7706C8.74408 19.0008 8.86582 19.2117 9.06232 19.4505C8.74081 19.978 8.48808 20.5391 8.31232 21.146C7.97126 20.6421 7.52297 20.2438 6.99129 19.9523C7.34442 19.5389 7.55587 19.0045 7.55587 18.4201C7.55587 17.1214 6.50676 16.0576 5.19517 16.0576C3.88355 16.0576 2.83077 17.1214 2.83077 18.4201C2.83077 19.0051 3.04347 19.5387 3.39812 19.9523C2.21121 20.5921 1.41658 21.8451 1.41658 23.289V23.8434C1.41658 25.0265 2.37075 25.9771 3.54113 25.9771H6.84646C7.28345 25.9771 7.69035 25.8464 8.02914 25.6173V27.3977C8.02914 27.9648 8.20729 28.5203 8.63982 28.8857C9.07228 29.2512 9.70485 29.3651 10.4286 29.2243C10.4393 29.2225 10.4496 29.2189 10.46 29.2171L15.1113 27.9653L19.781 29.2208C20.5204 29.3652 21.1352 29.2665 21.5873 28.886C22.0197 28.5219 22.1989 27.9686 22.1989 27.4044V25.6194C22.5377 25.8484 22.9446 25.9773 23.3816 25.9773H26.6869C27.8573 25.9773 28.8115 25.0266 28.8115 23.8436V23.2892C28.8115 21.8453 28.0168 20.5922 26.8299 19.9525C27.1846 19.5389 27.3973 19.0053 27.3973 18.4203C27.3973 17.1216 26.3445 16.0578 25.0329 16.0578C23.7213 16.0578 22.6722 17.1216 22.6722 18.4203C22.6722 19.0046 22.8836 19.5391 23.2368 19.9525C22.7088 20.2366 22.2549 20.6441 21.9139 21.1481C21.738 20.5412 21.4864 19.9745 21.1648 19.447C21.3615 19.208 21.484 19.0012 21.5439 18.7708C21.6255 18.4576 21.5456 18.2016 21.46 17.9968C21.3892 17.8269 21.3429 17.7321 21.3308 17.5752C21.3183 17.4185 21.3397 17.1787 21.5052 16.7727C21.6732 16.3587 21.8305 16.17 21.9498 16.067C22.0691 15.964 22.1658 15.934 22.3419 15.8594C22.5698 15.7628 22.8002 15.627 22.9526 15.3327C23.1047 15.0393 23.1475 14.6481 23.1436 14.1685C23.1472 13.6465 23.0913 13.2718 22.9526 13.0043C22.8002 12.71 22.571 12.5746 22.3419 12.4776C22.1659 12.403 22.0637 12.3712 21.9443 12.2682C21.8251 12.1652 21.6732 11.9783 21.5052 11.5643C21.3372 11.1504 21.3172 10.9088 21.3308 10.7516C21.3451 10.5945 21.3936 10.4983 21.4674 10.3189C21.5411 10.1397 21.6395 9.85916 21.53 9.51086C21.4401 9.22402 21.2138 8.91074 20.8391 8.53118C20.4937 8.18125 20.1825 7.93056 19.8668 7.82639C19.5172 7.71107 19.2351 7.80122 19.054 7.87156C18.873 7.94189 18.7777 7.98956 18.6186 8.00063C18.4595 8.01134 18.219 7.98634 17.8059 7.81243C17.3942 7.63856 17.2162 7.48564 17.1186 7.36595C17.0209 7.24634 16.9906 7.14093 16.9129 6.95452C16.8352 6.76813 16.7047 6.5046 16.352 6.33369C16.046 6.18535 15.679 6.13904 15.114 6.13895C14.5491 6.13886 14.1821 6.18528 13.8761 6.33351ZM2.83363 6.61118C1.78472 6.61118 0.944336 7.46077 0.944336 8.4986C0.944336 9.5364 1.78472 10.3897 2.83363 10.3897C3.88254 10.3897 4.72385 9.5364 4.72385 8.4986C4.72385 7.46077 3.88254 6.61118 2.83363 6.61118ZM27.3945 6.61118C26.3456 6.61118 25.5043 7.46077 25.5043 8.4986C25.5043 9.5364 26.3456 10.3897 27.3945 10.3897C28.4434 10.3897 29.2838 9.5364 29.2838 8.4986C29.2838 7.46077 28.4434 6.61118 27.3945 6.61118ZM15.9406 7.18132C16.0056 7.21274 16.0121 7.26344 16.042 7.32057C16.0943 7.44606 16.1749 7.70143 16.3871 7.96169C16.5993 8.22193 16.9257 8.46839 17.436 8.68401C17.9447 8.89897 18.3497 8.96829 18.6841 8.94507C19.0186 8.92186 19.266 8.80475 19.3991 8.75318C19.4781 8.72247 19.518 8.7048 19.5697 8.72176C19.6376 8.74425 19.8098 8.83173 20.1666 9.19315C20.5068 9.53783 20.606 9.72604 20.6269 9.79277C20.6412 9.84865 20.618 9.8981 20.5919 9.95968C20.5473 10.068 20.4189 10.3335 20.3899 10.6672C20.3608 11.001 20.4224 11.4083 20.6298 11.9191C20.837 12.4298 21.0731 12.7634 21.3272 12.9827C21.5812 13.202 21.8403 13.2927 21.9729 13.3489C22.0479 13.3807 22.0832 13.3836 22.1122 13.4393C22.1411 13.4951 22.2068 13.68 22.2025 14.168C22.2061 14.6274 22.1509 14.8219 22.1122 14.8968C22.0832 14.9527 22.0308 14.9627 21.9729 14.9871C21.8403 15.0433 21.5812 15.134 21.3272 15.3533C21.0731 15.5726 20.837 15.9062 20.6298 16.417C20.4264 16.9179 20.3647 17.3171 20.3899 17.6476C20.4151 17.978 20.5231 18.2028 20.5882 18.3588C20.6159 18.4368 20.6434 18.4806 20.6298 18.5332C20.6263 18.5475 20.6057 18.5978 20.5873 18.6328C19.8872 17.7849 18.9872 17.0986 17.9647 16.6513C18.5456 15.9861 18.8936 15.1186 18.8936 14.1689C18.8936 12.0876 17.1954 10.3904 15.1141 10.3904C13.0328 10.3904 11.3346 12.0876 11.3346 14.1689C11.3346 15.1188 11.6823 15.9861 12.2636 16.6513C11.2409 17.0984 10.3408 17.7849 9.64087 18.6328C9.62266 18.5978 9.60231 18.548 9.59838 18.5332C9.5841 18.4806 9.61267 18.4368 9.63998 18.3588C9.70514 18.2028 9.81314 17.978 9.83831 17.6476C9.86348 17.3171 9.80171 16.9179 9.59845 16.417C9.39116 15.9062 9.15507 15.5726 8.90104 15.3533C8.64701 15.1341 8.38788 15.0433 8.2553 14.9871C8.19728 14.9627 8.14497 14.9525 8.11605 14.8968C8.07731 14.822 8.0218 14.6274 8.02572 14.168C8.02214 13.68 8.08713 13.4951 8.11605 13.4393C8.14497 13.3834 8.18032 13.3807 8.2553 13.3489C8.38793 13.2927 8.64701 13.202 8.90104 12.9827C9.15507 12.7634 9.39116 12.4298 9.59845 11.9191C9.80577 11.4083 9.86744 11.001 9.83831 10.6672C9.80921 10.3335 9.68086 10.068 9.63628 9.95968C9.61093 9.89792 9.5863 9.84847 9.60129 9.79277C9.62218 9.72601 9.72143 9.53783 10.0616 9.19315C10.4184 8.83176 10.5906 8.74417 10.6585 8.72176C10.7103 8.70391 10.7501 8.72242 10.8292 8.75318C10.9622 8.80477 11.2097 8.92188 11.5441 8.94507C11.8786 8.96827 12.2835 8.89901 12.7923 8.68401C13.3025 8.46839 13.6289 8.22193 13.8411 7.96169C14.0533 7.70143 14.1339 7.44598 14.1862 7.32057C14.2163 7.26344 14.2226 7.21274 14.2877 7.18132C14.3638 7.14437 14.6126 7.0835 15.1142 7.0835C15.6158 7.0835 15.8645 7.14437 15.9406 7.18132ZM2.83363 7.55582C3.34986 7.55582 3.77919 7.9713 3.77919 8.4986C3.77919 9.0259 3.35172 9.44507 2.83363 9.44507C2.31554 9.44507 1.88897 9.0259 1.88897 8.4986C1.88897 7.9713 2.31739 7.55582 2.83363 7.55582ZM27.3945 7.55582C27.9108 7.55582 28.3392 7.9713 28.3392 8.4986C28.3392 9.0259 27.9126 9.44507 27.3945 9.44507C26.8764 9.44507 26.4489 9.0259 26.4489 8.4986C26.4489 7.9713 26.8783 7.55582 27.3945 7.55582ZM3.68419 11.159C3.35923 11.1387 3.11151 11.4453 3.19986 11.7587L4.03012 14.9034C4.17507 15.5375 5.12878 15.287 4.94341 14.6636L4.11315 11.5188C4.06423 11.318 3.89048 11.1722 3.68419 11.159ZM26.544 11.159C26.3377 11.1715 26.1639 11.3179 26.115 11.5188L25.2847 14.6636C25.0994 15.287 26.0531 15.5375 26.198 14.9034L27.0283 11.7587C27.1166 11.4453 26.8689 11.1386 26.544 11.159ZM15.1141 11.3352C16.67 11.3352 17.9489 12.5984 17.9489 14.1691C17.9489 15.7399 16.6756 17.0039 15.1141 17.0039C13.5526 17.0039 12.2792 15.7399 12.2792 14.1691C12.2792 12.5984 13.5563 11.3352 15.1141 11.3352ZM5.19526 17.0021C5.97234 17.0021 6.61038 17.6318 6.61038 18.42C6.61038 19.2081 5.9742 19.836 5.19526 19.836C4.4163 19.836 3.77643 19.2081 3.77643 18.42C3.77643 17.6318 4.41816 17.0021 5.19526 17.0021ZM25.0329 17.0021C25.81 17.0021 26.4517 17.6318 26.4517 18.42C26.4517 19.2081 25.8118 19.836 25.0329 19.836C24.2539 19.836 23.6178 19.2081 23.6178 18.42C23.6178 17.6318 24.2558 17.0021 25.0329 17.0021ZM11.8087 24.7741V23.1385C11.7944 22.5226 10.8777 22.5226 10.8641 23.1385V25.0167L10.7461 25.047C10.1346 25.2027 10.368 26.1197 10.9795 25.964L18.1197 24.1301C18.6644 23.9901 19.1945 24.3054 19.3328 24.8238C19.4733 25.3482 19.1693 25.8933 18.6326 26.0378L10.247 28.297C10.2452 28.2973 10.2452 28.2966 10.2434 28.297C9.70701 28.4003 9.41858 28.3059 9.24985 28.1641C9.08044 28.021 8.97495 27.7738 8.97495 27.3976V23.144C8.97495 20.4511 10.6921 18.179 13.069 17.348C13.6572 17.7261 14.3623 17.9485 15.1142 17.9485C15.8656 17.9485 16.5688 17.7266 17.1567 17.3489C19.5493 18.1853 21.2545 20.4511 21.2545 23.144V27.404C21.2545 27.7758 21.1481 28.0215 20.9786 28.1641C20.8099 28.3062 20.5215 28.4004 19.9851 28.297L16.9316 27.475L18.8762 26.9511C19.9025 26.6747 20.5216 25.6214 20.2434 24.583C20.1056 24.0685 19.7796 23.6664 19.3642 23.4207V23.1384C19.3499 22.5225 18.4333 22.528 18.4196 23.1545C18.2771 23.1438 18.0625 23.167 17.8826 23.2131L11.8087 24.7741ZM17.0043 20.3092C16.3883 20.3235 16.3883 21.2402 17.0043 21.2538H18.4194C19.0354 21.2396 19.0354 20.3229 18.4194 20.3092H17.0043ZM4.28013 20.5952C4.54326 20.71 4.87484 20.7806 5.19526 20.7806C5.51568 20.7806 5.83463 20.7099 6.11223 20.5952C7.23383 20.972 8.02921 22.0438 8.02921 23.2889V23.8433C8.02921 24.5011 7.50783 25.0324 6.84654 25.0324H3.5412C2.87992 25.0324 2.36131 24.4947 2.36131 23.8433V23.2889C2.36131 22.0419 3.15776 20.9725 4.28013 20.5952ZM24.1159 20.5952C24.3824 20.7118 24.7125 20.7815 25.0329 20.7815C25.3533 20.7815 25.6756 20.7155 25.948 20.5952C27.0704 20.9725 27.8668 22.0419 27.8668 23.2889V23.8433C27.8668 24.4947 27.3482 25.0324 26.6869 25.0324H23.3816C22.7203 25.0324 22.1989 24.4947 22.1989 23.8433V23.2889C22.1989 22.0438 22.9943 20.972 24.1159 20.5952Z" fill="#0CC2FE"/>
</svg>
