<svg width="65" height="65" viewBox="0 0 65 65" fill="none" xmlns="http://www.w3.org/2000/svg">
<path fill-rule="evenodd" clip-rule="evenodd" d="M17.2656 57.8906V59.9219C17.2656 60.4825 17.7206 60.9375 18.2812 60.9375H22.3438C22.9044 60.9375 23.3594 60.4825 23.3594 59.9219V57.8906H41.6406V59.9219C41.6406 60.4825 42.0956 60.9375 42.6562 60.9375H46.7188C47.2794 60.9375 47.7344 60.4825 47.7344 59.9219V57.8906H49.7656C50.3262 57.8906 50.7812 57.4356 50.7812 56.875V5.07812C50.7812 4.5175 50.3262 4.0625 49.7656 4.0625H15.2344C14.6738 4.0625 14.2188 4.5175 14.2188 5.07812V56.875C14.2188 57.4356 14.6738 57.8906 15.2344 57.8906H17.2656ZM21.3281 57.8906H19.2969V58.9062H21.3281V57.8906ZM43.6719 57.8906V58.9062H45.7031V57.8906H43.6719ZM16.25 55.8594H48.75V6.09375H16.25V55.8594ZM32.5 32.5C30.2575 32.5 28.4375 34.32 28.4375 36.5625C28.4375 38.805 30.2575 40.625 32.5 40.625C34.7425 40.625 36.5625 38.805 36.5625 36.5625C36.5625 34.32 34.7425 32.5 32.5 32.5ZM32.5 34.5312C33.6213 34.5312 34.5312 35.4412 34.5312 36.5625C34.5312 37.6838 33.6213 38.5938 32.5 38.5938C31.3787 38.5938 30.4688 37.6838 30.4688 36.5625C30.4688 35.4412 31.3787 34.5312 32.5 34.5312ZM46.7188 9.14062C46.7188 8.58 46.2637 8.125 45.7031 8.125H19.2969C18.7362 8.125 18.2812 8.58 18.2812 9.14062V27.4219C18.2812 27.9825 18.7362 28.4375 19.2969 28.4375H45.7031C46.2637 28.4375 46.7188 27.9825 46.7188 27.4219V9.14062ZM44.6875 10.1562V26.4062H20.3125V10.1562H44.6875ZM40.625 20.3125H41.6406C42.2013 20.3125 42.6562 19.8575 42.6562 19.2969V17.2656C42.6562 16.7223 42.2297 16.2784 41.6924 16.251L41.6406 16.25H40.625V14.2188C40.625 13.6581 40.17 13.2031 39.6094 13.2031H23.3594C22.7987 13.2031 22.3438 13.6581 22.3438 14.2188V22.3438C22.3438 22.9044 22.7987 23.3594 23.3594 23.3594H39.6094C40.17 23.3594 40.625 22.9044 40.625 22.3438V20.3125ZM26.4062 15.2344V21.3281H24.375V15.2344H26.4062ZM28.4375 15.2344V21.3281H30.4688V15.2344H28.4375ZM32.5 15.2344V21.3281H34.5312V15.2344H32.5ZM36.5625 15.2344H38.5938V21.3281H36.5625V15.2344Z" fill="#0CC2FE"/>
</svg>
