<svg width="31" height="31" viewBox="0 0 31 31" fill="none" xmlns="http://www.w3.org/2000/svg">
<path d="M29.4561 18.2696C29.1776 17.8045 28.0341 16.4232 25.0151 18.1814L19.6924 21.2817C19.4255 21.4371 19.1541 21.5468 18.8709 21.6123C18.9758 21.444 19.0581 21.2536 19.1145 21.0429C19.3866 20.0273 18.783 18.967 17.7404 18.629C17.7201 18.6224 17.6995 18.6172 17.6785 18.6135C16.1487 18.3376 14.6388 17.7917 13.4256 17.3531C13.0041 17.2007 12.6061 17.0568 12.2676 16.947C10.905 16.505 9.67293 17.0522 8.64763 17.6458L4.68754 19.9386L4.31417 19.2789C4.14933 18.9877 3.88022 18.7778 3.55633 18.688C3.23243 18.5982 2.8936 18.6395 2.60247 18.8044L1.10903 19.6497C0.817728 19.8146 0.607898 20.0837 0.518097 20.4076C0.428297 20.7315 0.469684 21.0702 0.634525 21.3614L5.0252 29.1195C5.18998 29.4107 5.45915 29.6205 5.78304 29.7103C5.89504 29.7414 6.00881 29.7567 6.12182 29.7567C6.33554 29.7567 6.54638 29.7017 6.7369 29.5939L8.23039 28.7487C8.52164 28.5839 8.73141 28.3148 8.82121 27.9909C8.91101 27.667 8.86963 27.3282 8.70478 27.037L8.25212 26.2371L9.15485 25.716L15.9723 27.5427C16.3573 27.646 16.7352 27.6974 17.1051 27.6974C17.8424 27.6974 18.5472 27.4926 19.2105 27.0842L28.8702 21.1363C29.7506 20.5941 30.03 19.2278 29.4561 18.2696ZM7.91092 27.7385C7.88849 27.8192 7.83677 27.8861 7.76509 27.9266L6.2716 28.7718C6.12489 28.855 5.93047 28.8012 5.84722 28.6542L1.45661 20.8962C1.41605 20.8246 1.40613 20.7407 1.42844 20.6599C1.45082 20.5792 1.5026 20.5124 1.57427 20.4719L3.06771 19.6266C3.11435 19.6003 3.16619 19.5868 3.21897 19.5868C3.24725 19.5868 3.27582 19.5906 3.30399 19.5985C3.3847 19.6209 3.45147 19.6726 3.49203 19.7443H3.49209L7.88276 27.5023C7.92326 27.5739 7.9333 27.6578 7.91092 27.7385ZM28.3749 20.3318L18.7152 26.2798C17.9493 26.7514 17.1086 26.8693 16.2168 26.6302L9.21041 24.7528C9.08955 24.7205 8.96055 24.7374 8.85203 24.8L7.78688 25.415L5.15284 20.7609L9.12096 18.4634C10.0086 17.9495 10.969 17.5188 11.9761 17.8456C12.2996 17.9505 12.6726 18.0854 13.1044 18.2415C14.3422 18.689 15.8806 19.2452 17.4767 19.537C18.033 19.7313 18.344 20.2687 18.2021 20.7984C18.0153 21.4955 17.4348 21.5821 16.9727 21.5291C16.1886 21.3678 15.4435 21.1552 14.6551 20.9301C14.2813 20.8233 13.8947 20.7129 13.4975 20.6065C13.2457 20.5392 12.9865 20.6885 12.919 20.9405C12.8514 21.1925 13.001 21.4514 13.253 21.519C13.6428 21.6234 14.0256 21.7327 14.3957 21.8384C15.2082 22.0705 15.9756 22.2896 16.802 22.4585C16.8051 22.4592 16.8082 22.4594 16.8114 22.4599C16.8146 22.4605 16.8176 22.4614 16.8207 22.462L17.4826 22.5696C18.4725 22.7279 19.3509 22.5737 20.1678 22.098L25.4906 18.9977C27.0227 18.1053 28.2023 18.0146 28.6457 18.755C28.9513 19.2653 28.8147 20.0611 28.3749 20.3318ZM3.501 21.125C3.54363 21.4163 3.34195 21.6871 3.05053 21.7297C2.75916 21.7723 2.4884 21.5706 2.44577 21.2793C2.4032 20.9879 2.60483 20.7171 2.89625 20.6745C3.18768 20.6319 3.45844 20.8336 3.501 21.125ZM20.102 18.7439C20.1918 18.8526 20.3253 18.9156 20.4663 18.9156C20.6073 18.9156 20.7409 18.8526 20.8306 18.7439L27.4975 10.6645C27.6207 10.5152 27.6403 10.3058 27.5471 10.1362L25.3247 6.09649C25.2417 5.94559 25.0831 5.85183 24.9108 5.85183H16.0218C15.8496 5.85183 15.6909 5.94559 15.6079 6.09649L13.3856 10.1362C13.2924 10.3058 13.312 10.5152 13.4352 10.6645L20.102 18.7439ZM23.0486 10.8362H26.1311L21.5074 16.4396L23.0486 10.8362ZM20.4663 16.6622L18.8638 10.8362H22.0688L20.4663 16.6622ZM19.043 9.89156L20.4663 7.30411L21.8897 9.89156H19.043ZM21.2653 6.79648H24.112L22.6886 9.38393L21.2653 6.79648ZM18.2441 9.38393L16.8207 6.79648H19.6674L18.2441 9.38393ZM17.4452 9.89156H14.5985L16.0218 7.30417L17.4452 9.89156ZM17.8841 10.8362L19.4253 16.4396L14.8017 10.8362H17.8841ZM26.3343 9.89156H23.4875L24.9109 7.30411L26.3343 9.89156ZM19.994 2.79524V0.944493C19.994 0.683651 20.2055 0.472168 20.4663 0.472168C20.7272 0.472168 20.9386 0.683651 20.9386 0.944493V2.79524C20.9386 3.05608 20.7272 3.26756 20.4663 3.26756C20.2055 3.26756 19.994 3.05608 19.994 2.79524ZM15.3477 2.44265C15.2172 2.2167 15.2947 1.92787 15.5205 1.79745C15.7466 1.66703 16.0354 1.74455 16.1657 1.97032L17.0911 3.5731C17.2216 3.79905 17.1441 4.08787 16.9182 4.21829C16.8438 4.26122 16.7626 4.28164 16.6825 4.28164C16.5192 4.28164 16.3605 4.19692 16.273 4.04542L15.3477 2.44265ZM23.8417 3.57304L24.767 1.97026C24.8974 1.74432 25.1863 1.66685 25.4122 1.79739C25.6381 1.92781 25.7156 2.2167 25.5851 2.44259L24.6597 4.04536C24.5723 4.19686 24.4135 4.28159 24.2502 4.28159C24.1701 4.28159 24.0889 4.26116 24.0145 4.21823C23.7887 4.08787 23.7112 3.79899 23.8417 3.57304Z" fill="#0CC2FE"/>
</svg>
