<svg width="15" height="20" viewBox="0 0 15 20" fill="none" xmlns="http://www.w3.org/2000/svg">
<path d="M2.33291 0.583813L3.94675 0.0972457C4.47937 -0.0630829 5.05212 -0.0241824 5.55817 0.206691C6.06422 0.437564 6.46901 0.844642 6.69702 1.35199L7.82845 3.86814C8.02483 4.30465 8.07956 4.79171 7.98497 5.26092C7.89038 5.73013 7.65122 6.15794 7.30106 6.48427L5.57891 8.08895C5.34813 8.30807 5.52309 9.16206 6.36625 10.6234C7.21025 12.0856 7.86261 12.6638 8.16338 12.5739L10.4196 11.884C10.8769 11.7441 11.3666 11.7508 11.8199 11.9032C12.2732 12.0556 12.6675 12.3461 12.9474 12.7338L14.5554 14.9625C14.8802 15.4126 15.0306 15.9652 14.9786 16.5178C14.9267 17.0704 14.6759 17.5853 14.273 17.9669L13.0299 19.1442C12.6286 19.5242 12.1337 19.791 11.5956 19.9173C11.0576 20.0436 10.4957 20.025 9.96718 19.8632C7.36272 19.0659 4.95071 16.6997 2.69867 12.798C0.44163 8.89045 -0.410696 5.59446 0.18335 2.90167C0.303162 2.35908 0.565513 1.85825 0.943357 1.45083C1.3212 1.0434 1.80087 0.74411 2.33291 0.583813Z" fill="#FF7373"/>
</svg>
