<svg width="16" height="20" viewBox="0 0 16 20" fill="none" xmlns="http://www.w3.org/2000/svg">
<path fill-rule="evenodd" clip-rule="evenodd" d="M7.1156 19.7281C7.1156 19.7281 0 13.7354 0 7.83872C0 5.75976 0.825863 3.76595 2.29591 2.29591C3.76595 0.825863 5.75976 0 7.83872 0C9.91768 0 11.9115 0.825863 13.3815 2.29591C14.8516 3.76595 15.6774 5.75976 15.6774 7.83872C15.6774 13.7354 8.56184 19.7281 8.56184 19.7281C8.16598 20.0926 7.51439 20.0887 7.1156 19.7281ZM7.83872 11.2682C8.28908 11.2682 8.73503 11.1795 9.15111 11.0071C9.56719 10.8348 9.94524 10.5821 10.2637 10.2637C10.5821 9.94524 10.8348 9.56719 11.0071 9.15111C11.1795 8.73503 11.2682 8.28908 11.2682 7.83872C11.2682 7.38836 11.1795 6.94241 11.0071 6.52633C10.8348 6.11025 10.5821 5.73219 10.2637 5.41374C9.94524 5.09529 9.56719 4.84267 9.15111 4.67033C8.73503 4.49798 8.28908 4.40928 7.83872 4.40928C6.92917 4.40928 6.05688 4.77059 5.41374 5.41374C4.77059 6.05688 4.40928 6.92917 4.40928 7.83872C4.40928 8.74826 4.77059 9.62055 5.41374 10.2637C6.05688 10.9068 6.92917 11.2682 7.83872 11.2682Z" fill="#FF7373"/>
</svg>
