<svg width="110" height="109" viewBox="0 0 110 109" fill="none" xmlns="http://www.w3.org/2000/svg">
<path d="M11.4743 54.233L8.45947 55.9729L7.21694 53.8214L10.2318 52.0814L11.4743 54.233ZM14.1823 53.141L12.0308 54.3835L12.0193 54.3664L12.0079 54.3511L11.9946 54.334L11.9812 54.3187L11.966 54.3035L11.9546 54.2921L11.9393 54.2806L11.926 54.2692L11.9088 54.2578L11.8898 54.2463L11.8745 54.2368L11.8555 54.2273L11.8345 54.2177L11.8193 54.212L11.8002 54.2063L11.7792 54.1987L11.7602 54.1949L11.7411 54.1911L11.724 54.1892L11.703 54.1873L11.682 54.1853H11.663L11.6439 54.1873L11.6268 54.1892L11.6058 54.193L11.5849 54.1968L11.5677 54.2006L11.5486 54.2063L11.5296 54.2139L11.5124 54.2216L11.4934 54.2311L11.4743 54.2406L10.2318 52.0891L10.3614 52.0185L10.4948 51.9557L10.6301 51.8985L10.7673 51.8489L10.9045 51.807L11.0455 51.7727L11.1827 51.746L11.3219 51.7251L11.4648 51.7117L11.6058 51.7041H11.7468L11.884 51.7117L12.0212 51.7251L12.1604 51.746L12.2976 51.7727L12.4329 51.8051L12.5644 51.8432L12.6959 51.889L12.8274 51.9423L12.9512 51.9995L13.0751 52.0624L13.199 52.1329L13.3133 52.2072L13.4277 52.2892L13.5401 52.3768L13.6468 52.4702L13.7517 52.5712L13.8488 52.676L13.9422 52.7846L14.0299 52.9009L14.1137 53.0229L14.1919 53.1486L14.1823 53.141ZM18.4073 65.4272L12.0308 54.3835L14.1823 53.141L20.5589 64.1847L18.4073 65.4272ZM19.4993 68.1352L18.2568 65.9837L18.2739 65.9722L18.2892 65.9608L18.3063 65.9474L18.3216 65.9341L18.3368 65.9189L18.3482 65.9074L18.3597 65.8922L18.3711 65.8788L18.3825 65.8617L18.394 65.8426L18.4035 65.8274L18.413 65.8083L18.4226 65.7874L18.4283 65.7721L18.434 65.7531L18.4416 65.7321L18.4454 65.713L18.4493 65.694L18.4511 65.6768L18.453 65.6559L18.455 65.6349V65.6159L18.453 65.5968L18.4511 65.5796L18.4473 65.5587L18.4435 65.5377L18.4397 65.5206L18.434 65.5015L18.4264 65.4824L18.4188 65.4653L18.4092 65.4462L18.3997 65.4272L20.5512 64.1847L20.6218 64.3142L20.6847 64.4476L20.7418 64.583L20.7914 64.7202L20.8333 64.8574L20.8676 64.9984L20.8943 65.1356L20.9152 65.2747L20.9286 65.4177L20.9362 65.5587V65.6997L20.9286 65.8369L20.9152 65.9741L20.8943 66.1132L20.8676 66.2505L20.8352 66.3858L20.7971 66.5173L20.7514 66.6488L20.698 66.7802L20.6408 66.9041L20.5779 67.028L20.5074 67.1519L20.4331 67.2662L20.3512 67.3805L20.2635 67.493L20.1701 67.5997L20.0691 67.7045L19.9643 67.8017L19.8557 67.8951L19.7394 67.9828L19.6175 68.0666L19.4917 68.1447L19.4993 68.1352ZM15.2419 67.7255L18.2568 65.9856L19.4993 68.1371L16.4845 69.877L15.2419 67.7255ZM12.5339 68.8175L14.6855 67.5749L14.6969 67.5921L14.7083 67.6073L14.7217 67.6245L14.735 67.6397L14.7502 67.655L14.7617 67.6664L14.7769 67.6778L14.7903 67.6893L14.8074 67.7007L14.8265 67.7121L14.8417 67.7217L14.8608 67.7312L14.8817 67.7407L14.897 67.7464L14.916 67.7541L14.937 67.7598L14.9561 67.7636L14.9751 67.7674L14.9942 67.7693L15.0151 67.7712L15.0361 67.7731H15.0552L15.0742 67.7712L15.0914 67.7693L15.1123 67.7655L15.1333 67.7617L15.1485 67.7579L15.1676 67.7522L15.1867 67.7445L15.2038 67.7369L15.2229 67.7274L15.2419 67.7179L16.4845 69.8694L16.3549 69.9399L16.2215 70.0028L16.0862 70.06L15.9508 70.1095L15.8136 70.1515L15.6726 70.1877L15.5354 70.2144L15.3963 70.2353L15.2553 70.2487L15.1142 70.2563H14.9732L14.836 70.2487L14.6988 70.2353L14.5597 70.2144L14.4244 70.1877L14.2891 70.1553L14.1576 70.1172L14.028 70.0733L13.8965 70.02L13.7726 69.9628L13.6487 69.8999L13.5249 69.8294L13.4105 69.7551L13.2962 69.6731L13.1838 69.5855L13.077 69.4921L12.9722 69.3911L12.875 69.2863L12.7816 69.1776L12.694 69.0614L12.6101 68.9394L12.532 68.8136L12.5339 68.8175ZM8.30891 56.5313L14.6855 67.5749L12.5339 68.8175L6.15736 57.7738L8.30891 56.5313ZM7.21694 53.8233L8.45947 55.9748L8.44232 55.9863L8.42706 55.9977L8.40992 56.011L8.39468 56.0244L8.38133 56.0377L8.368 56.051L8.35655 56.0663L8.34322 56.0815L8.33178 56.0987L8.32226 56.1139L8.31273 56.1311L8.3013 56.152L8.29367 56.1711L8.28795 56.1864L8.28032 56.2054L8.27462 56.2264L8.27081 56.2454L8.26699 56.2664L8.26508 56.2835L8.26318 56.3045L8.26127 56.3255V56.3445L8.26318 56.3636L8.26508 56.3807L8.2689 56.4017L8.27271 56.4227L8.27653 56.4398L8.28223 56.4589L8.28986 56.4779L8.29749 56.4951L8.307 56.5141L8.31654 56.5332L6.16498 57.7757L6.09447 57.6461L6.03159 57.5127L5.9744 57.3774L5.92487 57.2402L5.88293 57.103L5.84863 56.962L5.82195 56.8248L5.80099 56.6857L5.78765 56.5427L5.78003 56.4017V56.2607L5.78765 56.1235L5.80099 55.9863L5.82195 55.8471L5.84863 55.7118L5.88103 55.5765L5.91914 55.445L5.96297 55.3154L6.01634 55.1839L6.07351 55.0582L6.1364 54.9362L6.20691 54.8142L6.28314 54.6942L6.36509 54.5798L6.45274 54.4693L6.54612 54.3626L6.64713 54.2597L6.75194 54.1606L6.86248 54.0672L6.97681 53.9795L7.09878 53.8957L7.22457 53.8175L7.21694 53.8233Z" fill="#FFC73E"/>
<path d="M14.632 56.4036L12.9378 55.9482L13.3895 54.2521L35.6216 41.4171L36.8641 43.5686L14.632 56.4036ZM13.3895 54.2521L14.632 56.4036C14.0393 56.7467 13.2809 56.5428 12.9378 55.9482C12.5948 55.3536 12.7968 54.5951 13.3895 54.2521ZM19.6498 62.6182L19.1981 64.3143L17.5039 63.8588L12.9378 55.9482L15.0837 54.7076L19.6498 62.6182ZM17.5039 63.8588L19.6498 62.6182C19.9928 63.2128 19.7908 63.9713 19.1981 64.3143C18.6054 64.6573 17.847 64.4534 17.5039 63.8588ZM40.1877 49.3277L41.8819 49.7832L41.4302 51.4793L19.1981 64.3143L17.9556 62.1627L40.1877 49.3277ZM41.4302 51.4793L40.1877 49.3277C40.7804 48.9847 41.5389 49.1886 41.8819 49.7832C42.2249 50.3778 42.0229 51.1362 41.4302 51.4793ZM35.17 43.1151L35.6216 41.419L37.3158 41.8744L41.8819 49.7832L39.7361 51.0238L35.17 43.1151ZM37.3158 41.8744L35.17 43.1151C34.8269 42.5205 35.0289 41.762 35.6216 41.419C36.2143 41.0759 36.9728 41.2799 37.3158 41.8744Z" fill="#FFC73E"/>
<path d="M57.3545 27.025L36.2524 39.2083L35.0099 37.0567L56.1119 24.8734L57.808 25.3289L57.3525 27.025H57.3545ZM56.1119 24.8734C56.7065 24.5304 57.465 24.7343 57.808 25.3289C58.151 25.9235 57.9471 26.682 57.3525 27.025L56.11 24.8734H56.1119ZM64.3065 41.5504L55.6584 26.5695L57.8099 25.327L66.4581 40.3079L66.0026 42.0039L64.3065 41.5485V41.5504ZM66.4581 40.3079C66.8011 40.9024 66.5972 41.6609 66.0026 42.0039C65.408 42.347 64.6496 42.1431 64.3065 41.5485L66.4581 40.306V40.3079ZM59.6813 42.7872L64.762 39.8543L66.0045 42.0059L60.9239 44.9388L59.4507 44.7653L59.6833 42.7872H59.6813ZM60.9239 44.9388C60.3293 45.2818 59.5708 45.0779 59.2278 44.4833C58.8848 43.8887 59.0887 43.1302 59.6833 42.7872L60.9258 44.9388H60.9239ZM51.7307 43.8639L50.4882 41.7124L50.8198 41.5294L51.1552 41.3617L51.4963 41.2093L51.8412 41.0721L52.188 40.9501L52.5387 40.8434L52.8913 40.7519L53.2457 40.6738L53.6002 40.6109L53.9566 40.5632L54.3129 40.5289L54.6693 40.5099L55.0257 40.5041L55.382 40.5137L55.7365 40.5365L56.0891 40.5728L56.4397 40.6242L56.7866 40.689L57.1315 40.7671L57.4726 40.8586L57.8099 40.9615L58.1434 41.0797L58.4712 41.2112L58.7952 41.3541L59.1134 41.5104L59.426 41.68L59.7328 41.861L60.032 42.0554L60.3255 42.2631L60.6113 42.4823L60.8877 42.7129L61.1564 42.9568L59.4507 44.7634L59.2564 44.5881L59.0563 44.4204L58.8505 44.2622L58.6389 44.1136L58.4217 43.9726L58.2006 43.8411L57.9738 43.7191L57.7432 43.6048L57.5088 43.4999L57.2706 43.4046L57.0286 43.3189L56.7827 43.2427L56.535 43.176L56.2853 43.1188L56.0338 43.0711L55.7803 43.0349L55.525 43.0083L55.2696 42.9911L55.0123 42.9835L54.755 42.9873L54.4978 43.0006L54.2405 43.0254L53.9832 43.0597L53.726 43.1055L53.4706 43.1607L53.2171 43.2274L52.9637 43.3036L52.7121 43.3913L52.4625 43.4904L52.2166 43.6009L51.9727 43.7229L51.7307 43.8563V43.8639ZM48.0641 52.3634L46.8216 50.2119L46.2346 51.5745L46.1584 51.22L46.0955 50.8636L46.0478 50.5073L46.0154 50.1509L45.9964 49.7945L45.9926 49.4382L46.0021 49.0818L46.025 48.7273L46.0631 48.3748L46.1145 48.026L46.1793 47.6773L46.2575 47.3323L46.3489 46.9912L46.4537 46.6539L46.5719 46.3204L46.7034 45.9926L46.8482 45.6686L47.0045 45.3504L47.1741 45.0379L47.3571 44.731L47.5514 44.4318L47.7592 44.1403L47.9783 43.8563L48.2108 43.58L48.4548 43.3113L48.7101 43.0521L48.9769 42.8024L49.2571 42.5623L49.5467 42.3317L49.8497 42.1126L50.1623 41.9049L50.4863 41.7086L51.7288 43.8601L51.4925 44.003L51.2657 44.1536L51.0465 44.3118L50.8369 44.4776L50.6349 44.651L50.4424 44.8301L50.2576 45.0169L50.0822 45.2113L49.9145 45.4114L49.7563 45.6172L49.6058 45.8287L49.4648 46.046L49.3333 46.267L49.2113 46.4938L49.097 46.7244L48.9941 46.9588L48.8988 47.197L48.813 47.4391L48.7368 47.683L48.6701 47.9307L48.6129 48.1804L48.5653 48.4319L48.5291 48.6854L48.5024 48.9408L48.4852 49.1961L48.4776 49.4534L48.4814 49.7107L48.4948 49.9679L48.5195 50.2252L48.5539 50.4825L48.5996 50.7398L48.6549 50.9951L48.0679 52.3577L48.0641 52.3634ZM48.651 51.0008C48.8092 51.6678 48.3957 52.3387 47.7287 52.4968C47.0617 52.655 46.3909 52.2415 46.2327 51.5745L48.6491 51.0008H48.651ZM43.66 52.0376L46.8216 50.2119L48.0641 52.3634L44.9025 54.1891L43.66 52.0376ZM40.9519 53.1314L43.1035 51.8889L43.1149 51.9061L43.1264 51.9213L43.1397 51.9385L43.1531 51.9537L43.1683 51.969L43.1797 51.9804L43.195 51.9918L43.2083 52.0033L43.2236 52.0147L43.2445 52.028L43.2598 52.0376L43.2769 52.0471L43.296 52.0566L43.3131 52.0642L43.3341 52.0719L43.355 52.0776L43.3741 52.0814L43.3951 52.0852L43.4122 52.0871L43.4332 52.089L43.4541 52.0909H43.4732L43.4923 52.089L43.5094 52.0871L43.5304 52.0833L43.5513 52.0795L43.5666 52.0757L43.5856 52.07L43.6047 52.0623L43.6219 52.0547L43.6409 52.0452L43.66 52.0356L44.9025 54.1872L44.7729 54.2577L44.6395 54.3206L44.5042 54.3778L44.3689 54.4273L44.2317 54.4693L44.0887 54.5055L43.9515 54.5321L43.8124 54.5531L43.6695 54.5664L43.5304 54.5741H43.3894L43.2521 54.5664L43.1149 54.5531L42.9758 54.5321L42.8405 54.5055L42.7052 54.4731L42.5737 54.435L42.4441 54.3911L42.3126 54.3378L42.1887 54.2806L42.0649 54.2177L41.9429 54.1472L41.8286 54.0729L41.7142 53.9909L41.6018 53.9014L41.4951 53.808L41.3903 53.707L41.2931 53.6041L41.1997 53.4954L41.112 53.3792L41.0282 53.2572L40.95 53.1314H40.9519ZM36.1038 39.7666L43.1035 51.8889L40.9519 53.1314L33.9522 41.0092L36.1038 39.7666ZM35.0099 37.0586L36.2524 39.2102L36.2353 39.2216L36.2181 39.233L36.2029 39.2464L36.1895 39.2578L36.1762 39.2711L36.161 39.2864L36.1495 39.2997L36.1362 39.315L36.1248 39.3321L36.1152 39.3474L36.1057 39.3645L36.0962 39.3836L36.0885 39.3988L36.0809 39.4179L36.0733 39.4388L36.0676 39.4579L36.0619 39.4789L36.058 39.4998L36.0561 39.5208L36.0542 39.5399V39.5589V39.5799L36.0561 39.6008L36.058 39.618L36.0619 39.639L36.0657 39.6599L36.0695 39.6771L36.0752 39.6961L36.0809 39.7152L36.0885 39.7323L36.0981 39.7514L36.1095 39.7704L33.958 41.013L33.8874 40.8834L33.8245 40.75L33.7674 40.6147L33.7178 40.4775L33.6759 40.3403L33.6416 40.1992L33.6149 40.062L33.594 39.9229L33.5806 39.78L33.573 39.6409V39.5036L33.5787 39.3626L33.5921 39.2235L33.6111 39.0863L33.6378 38.951L33.6702 38.8195L33.7102 38.6861L33.754 38.5565L33.8055 38.4269L33.8646 38.2973L33.9275 38.1754L33.9961 38.0553L34.0723 37.9352L34.1542 37.8228L34.2419 37.7123L34.3372 37.6036L34.4344 37.5026L34.5392 37.4035L34.6516 37.3083L34.7679 37.2206L34.8879 37.1386L35.0137 37.0605L35.0099 37.0586Z" fill="#FFC73E"/>
<path d="M56.8093 22.7848L55.5668 20.6332L76.4897 8.5529L77.7322 10.7045L56.8093 22.7848ZM54.5148 24.58L54.4443 24.4504L54.3814 24.317L54.3243 24.1817L54.2747 24.0445L54.2328 23.9073L54.1985 23.7663L54.1718 23.629L54.1508 23.4899L54.1375 23.347L54.1299 23.206V23.0649L54.1375 22.9277L54.1508 22.7905L54.1699 22.6514L54.1966 22.5161L54.229 22.3808L54.2671 22.2493L54.3109 22.1197L54.3643 21.9882L54.4214 21.8643L54.4843 21.7424L54.5549 21.6185L54.6292 21.5042L54.7092 21.3898L54.7969 21.2774L54.8903 21.1707L54.9913 21.0658L55.0942 20.9706L55.2028 20.8772L55.3171 20.7895L55.4391 20.7057L55.5649 20.6294L56.8074 22.781L56.7903 22.7924L56.7731 22.8039L56.7559 22.8172L56.7388 22.8305L56.7236 22.8458L56.7121 22.8572L56.6988 22.8725L56.6873 22.8877L56.6759 22.9049L56.6645 22.9239L56.655 22.9392L56.6454 22.9582L56.6359 22.9792L56.6283 22.9944L56.6206 23.0154L56.6149 23.0364L56.6111 23.0554L56.6073 23.0764L56.6054 23.0935L56.6035 23.1145L56.6016 23.1355V23.1545V23.1736L56.6035 23.1907L56.6073 23.2117L56.6111 23.2327L56.6149 23.2498L56.6206 23.2689L56.6283 23.286L56.6359 23.3032L56.6454 23.3222L56.655 23.3413L54.5148 24.5762V24.58ZM67.5976 42.2994L65.4575 43.5343L54.5148 24.58L56.655 23.3451L67.5976 42.2994ZM69.4023 44.5958L69.2727 44.6663L69.1412 44.7292L69.0059 44.7844L68.8706 44.834L68.7334 44.8759L68.5924 44.9102L68.4552 44.9369L68.316 44.9578L68.175 44.9712L68.0359 44.9788H67.8987L67.7596 44.9731L67.6205 44.9598L67.4832 44.9407L67.3479 44.914L67.2164 44.8816L67.083 44.8416L66.9535 44.7959L66.8258 44.7444L66.6981 44.6853L66.578 44.6224L66.4561 44.5519L66.336 44.4757L66.2217 44.3938L66.1111 44.3061L66.0044 44.2108L65.9015 44.1098L65.8024 44.005L65.709 43.8945L65.6214 43.7801L65.5375 43.6581L65.4594 43.5305L67.5995 42.2956L67.609 42.3127L67.6205 42.328L67.6338 42.3451L67.6452 42.3603L67.6586 42.3737L67.6719 42.387L67.6872 42.3985L67.7024 42.4118L67.7196 42.4232L67.7348 42.4328L67.752 42.4423L67.7729 42.4537L67.7882 42.4614L67.8072 42.469L67.8263 42.4766L67.8453 42.4823L67.8682 42.488L67.8873 42.4918L67.9082 42.4937L67.9273 42.4957H67.9463H67.9692L67.9902 42.4937L68.0073 42.4918L68.0283 42.488L68.0492 42.4842L68.0664 42.4804L68.0855 42.4747L68.1045 42.4671L68.1236 42.4594L68.1426 42.4499L68.1617 42.4385L69.4042 44.59L69.4023 44.5958ZM89.0827 30.3658L90.773 30.8231L90.3233 32.5154L69.4004 44.5958L68.1579 42.4442L89.0808 30.3639L89.0827 30.3658ZM90.3252 32.5173L89.0827 30.3658C89.6734 30.0246 90.43 30.2305 90.773 30.8231C91.1161 31.4177 90.9141 32.1743 90.3233 32.5154L90.3252 32.5173ZM76.0418 10.2471L76.4916 8.5548L78.182 9.01218L90.7749 30.8231L88.6348 32.058L76.0418 10.2471ZM78.182 9.01218L76.0418 10.2471C75.6988 9.6525 75.9008 8.89593 76.4916 8.5548C77.0824 8.21368 77.8389 8.4195 78.182 9.01218Z" fill="#FFC73E"/>
<path d="M85.0962 2.54413L77.4676 6.94825L76.2212 4.78907L83.8498 0.384955L85.0962 2.54413ZM87.8023 1.44644L85.6507 2.68897L85.6393 2.67182L85.6279 2.65657L85.6164 2.64133L85.6031 2.62608L85.5878 2.61083L85.5764 2.5994L85.5631 2.58797L85.5497 2.57653L85.5326 2.5651L85.5135 2.55366L85.4983 2.54413L85.4811 2.53461L85.4602 2.52508L85.4449 2.51936L85.4259 2.51174L85.4049 2.50602L85.3858 2.50221L85.3668 2.4984L85.3477 2.49649L85.3268 2.49459L85.3058 2.49268H85.2867H85.2658L85.2486 2.49459L85.2277 2.4984L85.2067 2.50221L85.1896 2.50602L85.1705 2.51174L85.1514 2.51936L85.1343 2.52698L85.1152 2.53651L85.0962 2.54604L83.8498 0.386861L83.9794 0.316349L84.1109 0.253461L84.2462 0.196289L84.3815 0.14674L84.5187 0.104815L84.6598 0.0686059L84.797 0.0419258L84.9361 0.0209629L85.0771 0.00762288L85.2162 0H85.3573L85.4945 0.00762288L85.6317 0.0209629L85.7708 0.0400201L85.9061 0.0667002L86.0414 0.0990974L86.1729 0.139117L86.3025 0.182949L86.434 0.236309L86.5578 0.293481L86.6817 0.356369L86.8056 0.426881L86.9218 0.501204L87.0362 0.58315L87.1486 0.672719L87.2573 0.766099L87.3621 0.869008L87.4593 0.973822L87.5526 1.08435L87.6403 1.2006L87.7241 1.32257L87.8023 1.45025V1.44644ZM99.9856 27.5148L85.6526 2.68897L87.8042 1.44644L102.137 26.2722L99.9856 27.5148ZM101.081 30.2266L99.835 28.0674L99.8521 28.056L99.8693 28.0446L99.8865 28.0312L99.9017 28.0179L99.917 28.0026L99.9284 27.9912L99.9417 27.976L99.9532 27.9626L99.9646 27.9455L99.976 27.9264L99.9856 27.9112L99.9951 27.8921L100.005 27.8711L100.012 27.8559L100.018 27.8368L100.024 27.814L100.027 27.7949L100.031 27.7759L100.033 27.7587L100.035 27.7377L100.037 27.7168V27.6977L100.035 27.6787L100.033 27.6615L100.031 27.6405L100.027 27.6196L100.024 27.6024L100.018 27.5834L100.012 27.5662L100.005 27.5491L99.997 27.53L99.9856 27.511L102.137 26.2684L102.208 26.398L102.272 26.5314L102.33 26.6667L102.379 26.8039L102.421 26.9411L102.455 27.0822L102.482 27.2194L102.503 27.3585L102.516 27.5014L102.524 27.6425V27.7835L102.516 27.9207L102.503 28.0579L102.482 28.197L102.455 28.3342L102.423 28.4695L102.385 28.601L102.339 28.7325L102.286 28.864L102.229 28.9879L102.166 29.1099L102.095 29.2337L102.021 29.35L101.941 29.4643L101.851 29.5768L101.758 29.6835L101.657 29.7883L101.554 29.8855L101.445 29.9789L101.329 30.0665L101.207 30.1504L101.081 30.2266ZM92.2064 32.4715L99.835 28.0674L101.081 30.2266L93.4527 34.6307L92.2064 32.4715ZM89.5003 33.5673L91.6519 32.3248L91.6614 32.342L91.6728 32.3572L91.6861 32.3744L91.6976 32.3896L91.7109 32.4029L91.7243 32.4163L91.7376 32.4277L91.7528 32.4391L91.77 32.4506L91.7833 32.4601L91.8005 32.4696L91.8214 32.4811L91.8386 32.4887L91.8538 32.4944L91.8729 32.502L91.8939 32.5078L91.9129 32.5116L91.9339 32.5154L91.951 32.5173L91.972 32.5192L91.993 32.5211H92.012L92.033 32.5192L92.0501 32.5173L92.0711 32.5135L92.0921 32.5097L92.1092 32.5058L92.1283 32.5001L92.1473 32.4944L92.1645 32.4868L92.1835 32.4773L92.2026 32.4658L93.4489 34.625L93.3194 34.6955L93.1878 34.7584L93.0526 34.8156L92.9172 34.8651L92.78 34.9071L92.639 34.9414L92.5018 34.968L92.3627 34.989L92.2217 35.0023L92.0825 35.01H91.9415L91.8043 35.0023L91.6671 34.989L91.528 34.9699L91.3927 34.9433L91.2574 34.9109L91.1259 34.8708L90.9963 34.827L90.8648 34.7737L90.739 34.7165L90.617 34.6536L90.4951 34.5831L90.375 34.5069L90.2607 34.4249L90.1501 34.3372L90.0415 34.2439L89.9386 34.1429L89.8395 34.038L89.7461 33.9256L89.6585 33.8113L89.5746 33.6893L89.4965 33.5616L89.5003 33.5673ZM77.317 7.499L91.6499 32.3248L89.4984 33.5673L75.1655 8.74153L77.317 7.499ZM76.2231 4.78717L77.4695 6.94635L77.4523 6.95778L77.4352 6.96921L77.418 6.98255L77.4028 6.99589L77.3875 7.01114L77.3761 7.02257L77.3628 7.03782L77.3513 7.05116L77.3399 7.06831L77.3285 7.08737L77.3189 7.10261L77.3094 7.12167L77.2999 7.14263L77.2922 7.15788L77.2865 7.17694L77.2808 7.1979L77.277 7.21696L77.2732 7.23792L77.2713 7.25507L77.2694 7.27603L77.2675 7.297V7.31605L77.2694 7.33511L77.2713 7.35226L77.2732 7.37323L77.277 7.39419L77.2808 7.41134L77.2865 7.4304L77.2922 7.44755L77.2999 7.4647L77.3075 7.48376L77.3189 7.50282L75.1674 8.74534L75.0969 8.61576L75.0321 8.48235L74.9749 8.34705L74.9254 8.20984L74.8834 8.07263L74.8491 7.9316L74.8224 7.79439L74.8015 7.65527L74.7881 7.51234L74.7805 7.37132V7.2303L74.7881 7.09309L74.8015 6.95587L74.8224 6.81676L74.8491 6.68145L74.8815 6.54614L74.9196 6.41465L74.9654 6.28506L75.0187 6.15357L75.0759 6.02969L75.1388 5.90773L75.2093 5.78386L75.2836 5.66761L75.3637 5.55326L75.4532 5.44083L75.5466 5.33411L75.6476 5.22929L75.7505 5.1321L75.8592 5.03872L75.9754 4.95106L76.0974 4.86721L76.2231 4.79098V4.78717Z" fill="#FFC73E"/>
<path d="M105.83 7.5905L103.679 8.83302L103.374 8.33563L103.048 7.8592L102.703 7.40564L102.339 6.97304L101.956 6.56331L101.556 6.17645L101.14 5.81055L100.71 5.46752L100.264 5.14736L99.8043 4.85007L99.3317 4.57565L98.8476 4.326L98.3521 4.09922L97.8471 3.89721L97.3345 3.71998L96.8142 3.56752L96.2882 3.43984L95.7546 3.33693L95.2172 3.2588L94.676 3.20734L94.1329 3.18257L93.5878 3.18447L93.0409 3.21115L92.494 3.26451L91.9489 3.34646L91.4058 3.45508L90.8665 3.59039L90.331 3.75428L89.7993 3.94676L89.2733 4.16782L88.7549 4.41747L88.2423 4.69571L86.9998 2.54415L87.621 2.20684L88.2537 1.90192L88.896 1.63322L89.5439 1.39881L90.1976 1.19871L90.8569 1.03101L91.5201 0.899516L92.1852 0.800419L92.8522 0.733718L93.5192 0.699415L94.1843 0.69751L94.8475 0.728001L95.5069 0.79089L96.1625 0.88427L96.8123 1.01005L97.4545 1.16632L98.0872 1.35308L98.7123 1.56842L99.3279 1.81426L99.9301 2.09059L100.521 2.39551L101.096 2.72901L101.657 3.09109L102.202 3.48177L102.73 3.90102L103.238 4.34696L103.726 4.81958L104.193 5.32078L104.637 5.84867L105.058 6.40323L105.455 6.98257L105.824 7.58668L105.83 7.5905ZM99.0877 25.9616L101.239 24.7191L99.5432 24.2655L100.041 23.9606L100.517 23.6347L100.971 23.2898L101.403 22.9258L101.813 22.5428L102.2 22.1426L102.566 21.7271L102.909 21.2964L103.229 20.8505L103.526 20.3912L103.801 19.9186L104.05 19.4345L104.277 18.941L104.479 18.4359L104.656 17.9233L104.809 17.403L104.936 16.8752L105.039 16.3416L105.116 15.8041L105.167 15.2629L105.192 14.7198L105.19 14.1728L105.163 13.6259L105.11 13.0809L105.028 12.5358L104.919 11.9927L104.784 11.4534L104.62 10.9179L104.428 10.3862L104.207 9.86021L103.957 9.34185L103.679 8.82921L105.83 7.58668L106.167 8.20795L106.472 8.84065L106.741 9.48287L106.976 10.1308L107.176 10.7845L107.343 11.4439L107.475 12.107L107.574 12.7721L107.641 13.4391L107.675 14.1061L107.677 14.7712L107.646 15.4344L107.583 16.0938L107.49 16.7494L107.364 17.3992L107.208 18.0415L107.021 18.6761L106.804 19.3011L106.558 19.9148L106.282 20.517L105.977 21.1078L105.643 21.6833L105.281 22.2436L104.891 22.7886L104.471 23.3165L104.025 23.8253L103.551 24.3132L103.05 24.7801L102.522 25.2241L101.967 25.6453L101.388 26.0417L100.784 26.4114L99.0877 25.9578V25.9616ZM100.784 26.4152C100.189 26.7582 99.4308 26.5543 99.0877 25.9616C98.7447 25.367 98.9486 24.6086 99.5413 24.2655L100.784 26.4171V26.4152ZM88.6997 2.99962L101.239 24.7191L99.0877 25.9616L86.5481 4.24215L87.0036 2.54606L88.6997 3.00152V2.99962ZM86.5481 4.24215C86.2051 3.64756 86.409 2.88909 87.0036 2.54606C87.5982 2.20303 88.3567 2.40694 88.6997 3.00152L86.5481 4.24405V4.24215Z" fill="#FFC73E"/>
<path d="M62.7668 45.0055L60.6152 46.2481L60.4399 45.9603L60.2531 45.6859L60.053 45.4248L59.8434 45.1751L59.6242 44.9388L59.3937 44.7159L59.1535 44.5062L58.9058 44.308L58.6485 44.1232L58.3836 43.9517L58.113 43.7954L57.8348 43.6506L57.5508 43.521L57.2592 43.4047L56.9639 43.3018L56.6646 43.2142L56.3616 43.1398L56.0548 43.0808L55.7442 43.0369L55.4336 43.0064L55.121 42.9912H54.8066L54.4921 43.0064L54.1777 43.0369L53.8633 43.0846L53.5507 43.1475L53.2401 43.2256L52.9314 43.319L52.6264 43.4295L52.3234 43.5572L52.0242 43.7001L51.7289 43.8602L50.4863 41.7086L50.8922 41.4876L51.3058 41.2894L51.7231 41.1141L52.1462 40.9597L52.5731 40.8282L53.0038 40.7196L53.4364 40.6338L53.8709 40.569L54.3054 40.5252L54.7399 40.5023H55.1744L55.607 40.5233L56.0377 40.5633L56.4646 40.6243L56.8876 40.7043L57.3069 40.8053L57.7204 40.9273L58.1283 41.0683L58.5284 41.2284L58.921 41.4094L59.306 41.6076L59.6814 41.8268L60.0473 42.0631L60.4018 42.3185L60.7467 42.5929L61.0783 42.8845L61.3966 43.1932L61.7015 43.521L61.9911 43.8659L62.2656 44.2261L62.5247 44.6034L62.7649 44.9979L62.7668 45.0055ZM59.4756 57.286L58.2331 55.1344L58.5208 54.9591L58.7953 54.7723L59.0563 54.5741L59.306 54.3645L59.5423 54.1454L59.7653 53.9167L59.9749 53.6785L60.1712 53.4307L60.356 53.1734L60.5275 52.9086L60.6857 52.636L60.8287 52.3578L60.9582 52.0719L61.0745 51.7804L61.1755 51.485L61.2632 51.1839L61.3375 50.8809L61.3966 50.574L61.4404 50.2634L61.4709 49.9528L61.4861 49.6383V49.3239L61.4709 49.0095L61.4404 48.695L61.3927 48.3806L61.3298 48.068L61.2517 47.7574L61.1564 47.4487L61.0459 47.1438L60.9182 46.8407L60.7753 46.5415L60.6152 46.2462L62.7668 45.0036L62.9878 45.4095L63.186 45.8212L63.3613 46.2385L63.5138 46.6616L63.6453 47.0885L63.7539 47.5192L63.8416 47.9518L63.9064 48.3863L63.9502 48.8208L63.9731 49.2572V49.6917L63.9521 50.1243L63.9121 50.555L63.8511 50.9819L63.7692 51.4049L63.6682 51.8242L63.5462 52.2377L63.4052 52.6456L63.2451 53.0458L63.066 53.4383L62.8659 53.8233L62.6467 54.1987L62.4104 54.5646L62.155 54.9191L61.8825 55.264L61.591 55.5956L61.2822 55.9139L60.9544 56.2188L60.6114 56.5085L60.2512 56.7829L59.8739 57.0421L59.4794 57.2822L59.4756 57.286ZM47.1932 53.9948L49.3448 52.7523L49.5201 53.04L49.7069 53.3145L49.9051 53.5756L50.1147 53.8252L50.3339 54.0615L50.5625 54.2845L50.8007 54.4941L51.0485 54.6904L51.3058 54.8753L51.5707 55.0468L51.8432 55.2049L52.1214 55.3479L52.4073 55.4775L52.6989 55.5937L52.9942 55.6947L53.2954 55.7824L53.5984 55.8567L53.9052 55.9158L54.2158 55.9596L54.5264 55.9901L54.8409 56.0053H55.1553L55.4698 55.9901L55.7842 55.9596L56.0987 55.912L56.4112 55.8491L56.7218 55.7709L57.0306 55.6757L57.3374 55.5651L57.6404 55.4374L57.9396 55.2945L58.235 55.1344L59.4775 57.286L59.0716 57.5071L58.66 57.7052L58.2426 57.8806L57.8195 58.033L57.3926 58.1645L56.962 58.2731L56.5294 58.3608L56.0948 58.4256L55.6603 58.4694L55.2239 58.4923H54.7894L54.3568 58.4713L53.9261 58.4313L53.4993 58.3703L53.0762 58.2884L52.6569 58.1874L52.2434 58.0654L51.8356 57.9244L51.4354 57.7643L51.0428 57.5852L50.6578 57.3851L50.2824 57.1659L49.9165 56.9296L49.562 56.6743L49.2171 56.4017L48.8855 56.1102L48.5673 55.8014L48.2623 55.4736L47.9727 55.1306L47.6983 54.7704L47.4391 54.3931L47.199 53.9986L47.1932 53.9948ZM50.4844 41.7125L51.7269 43.864L51.4392 44.0393L51.1647 44.2261L50.9037 44.4262L50.654 44.6358L50.4177 44.855L50.1947 45.0856L49.9851 45.3257L49.7869 45.5734L49.6021 45.8307L49.4305 46.0956L49.2743 46.3662L49.1295 46.6445L48.9999 46.9284L48.8836 47.22L48.7807 47.5154L48.693 47.8146L48.6187 48.1176L48.5596 48.4244L48.5158 48.735L48.4853 49.0457L48.4701 49.3582V49.6726L48.4853 49.9871L48.5158 50.3015L48.5634 50.616L48.6263 50.9285L48.7045 51.2391L48.7979 51.5479L48.9084 51.8547L49.0342 52.1577L49.1771 52.4569L49.3372 52.7523L47.1856 53.9948L46.9646 53.5889L46.7664 53.1754L46.591 52.758L46.4386 52.3349L46.3071 51.908L46.1985 51.4774L46.1127 51.0448L46.0479 50.6103L46.0041 50.1758L45.9812 49.7412V49.3067L46.0022 48.8741L46.0422 48.4435L46.1032 48.0166L46.1832 47.5935L46.2842 47.1742L46.4062 46.7607L46.5472 46.3529L46.7073 45.9527L46.8883 45.5601L47.0865 45.1751L47.3057 44.7997L47.542 44.4338L47.7974 44.0794L48.0718 43.7344L48.3633 43.4028L48.6721 43.0846L48.9999 42.7797L49.3448 42.49L49.705 42.2156L50.0823 41.9564L50.4768 41.7163L50.4844 41.7125Z" fill="#FFC73E"/>
<path d="M1.24253 108.087C0.556474 108.087 0 107.53 0 106.844C0 106.158 0.556474 105.602 1.24253 105.602V108.085V108.087ZM108.757 108.087H1.24253V105.603H108.757V108.087ZM108.757 105.603C109.444 105.603 110 106.16 110 106.846C110 107.532 109.444 108.089 108.757 108.089V105.605V105.603Z" fill="#FFC73E"/>
<path d="M68.1601 78.7272L57.3375 56.9829L59.5615 55.8757L70.3841 77.62L68.1601 78.7272ZM70.3841 77.62C70.689 78.2336 70.4394 78.9807 69.8257 79.2856C69.2121 79.5905 68.465 79.3408 68.1601 78.7272L70.3841 77.62ZM82.4321 107.399L68.1601 78.7253L70.3841 77.6181L84.656 106.292L83.545 108.087L82.434 107.399H82.4321ZM84.656 106.292C84.9609 106.905 84.7113 107.652 84.0977 107.957C83.484 108.262 82.737 108.012 82.4321 107.399L84.656 106.292ZM54.9992 105.604H83.545V108.087H54.9992V105.604ZM54.9992 108.087C54.3132 108.087 53.7567 107.53 53.7567 106.844C53.7567 106.158 54.3132 105.602 54.9992 105.602V108.085V108.087ZM26.4535 105.604H54.9992V108.087H26.4535L25.3424 106.292L26.4535 105.604ZM26.4535 108.087C25.7674 108.087 25.2109 107.53 25.2109 106.844C25.2109 106.158 25.7674 105.602 26.4535 105.602V108.085V108.087ZM41.8383 78.7253L27.5664 107.399L25.3424 106.292L39.6144 77.6181L41.8383 78.7253ZM39.6144 77.6181C39.9193 77.0044 40.6663 76.7548 41.28 77.0597C41.8936 77.3646 42.1433 78.1116 41.8383 78.7253L39.6144 77.6181ZM52.6552 56.9963L41.8383 78.7253L39.6144 77.6181L50.4312 55.8891L52.093 55.3288L52.6552 56.9963ZM50.4312 55.8891C50.7361 55.2754 51.4832 55.0258 52.0968 55.3307C52.7105 55.6356 52.9601 56.3826 52.6552 56.9963L50.4312 55.8891ZM59.5615 55.8738L57.3375 56.981L59.007 57.5375L58.763 57.6557L58.5172 57.7662L58.2694 57.8672L58.0198 57.9625L57.7682 58.0482L57.5148 58.1264L57.2594 58.1969L57.004 58.2598L56.7487 58.315L56.4914 58.3627L56.2341 58.4027L55.9749 58.4351L55.7177 58.4599L55.4604 58.477L55.2012 58.4865L54.944 58.4885L54.6886 58.4827L54.4332 58.4713L54.1779 58.4522L53.9225 58.4256L53.669 58.3913L53.4175 58.3512L53.1659 58.3036L52.9163 58.2483L52.6685 58.1854L52.4246 58.1168L52.1807 58.0406L51.9386 57.9568L51.7004 57.8672L51.4622 57.77L51.2278 57.6671L50.9972 57.5566L52.0968 55.3307L52.2645 55.4107L52.4341 55.485L52.6056 55.5556L52.7791 55.6203L52.9544 55.6813L53.1316 55.7366L53.3108 55.788L53.4899 55.8338L53.6709 55.8738L53.852 55.9081L54.0349 55.9386L54.2198 55.9634L54.4027 55.9824L54.5895 55.9977L54.7744 56.0072L54.9611 56.011L55.1479 56.0091L55.3327 56.0015L55.5195 55.9882L55.7063 55.971L55.8911 55.9481L56.0779 55.9195L56.2646 55.8852L56.4495 55.8452L56.6343 55.7995L56.8173 55.748L57.0002 55.6909L57.1813 55.628L57.3623 55.5594L57.5434 55.485L57.7225 55.405L57.8997 55.3192L59.5691 55.8757L59.5615 55.8738ZM57.8921 55.3173C58.5058 55.0105 59.2528 55.2583 59.5596 55.87C59.8664 56.4836 59.6187 57.2307 59.007 57.5375L57.894 55.3173H57.8921Z" fill="#FFC73E"/>
</svg>
