<svg width="32" height="32" viewBox="0 0 32 32" fill="none" xmlns="http://www.w3.org/2000/svg">
<g clip-path="url(#clip0_8138_3409)">
<path d="M21.4188 20.2285C21.8886 20.6983 21.8886 21.4608 21.4188 21.934C20.949 22.4038 20.1865 22.4038 19.7133 21.934C17.6674 19.8847 14.3313 19.8847 12.2854 21.934C11.8122 22.4038 11.0496 22.4038 10.5799 21.934C10.1101 21.4608 10.1101 20.6983 10.5799 20.2285C13.5687 17.2396 18.43 17.2396 21.4188 20.2285Z" fill="#0CC2FE"/>
<path d="M18.8147 25.648C18.8147 27.2105 17.5517 28.4701 15.996 28.4701C14.4402 28.4701 13.1807 27.2106 13.1807 25.648C13.1807 24.0923 14.4402 22.8328 15.996 22.8328C17.5517 22.8328 18.8147 24.0923 18.8147 25.648Z" fill="#0CC2FE"/>
<path d="M28.2377 13.41C28.7075 13.8831 28.7075 14.6457 28.2377 15.1154C27.7679 15.5852 27.0054 15.5852 26.5322 15.1154C20.7247 9.30783 11.2746 9.30783 5.46704 15.1154C4.99385 15.5852 4.23129 15.5852 3.76154 15.1154C3.29173 14.6456 3.29173 13.8831 3.76154 13.41C10.5086 6.66283 21.4906 6.66283 28.2377 13.41Z" fill="#0CC2FE"/>
<path d="M31.6454 11.7044C31.1756 12.1776 30.4131 12.1776 29.9433 11.7044C22.2532 4.01768 9.74616 4.01768 2.05604 11.7044C1.58623 12.1776 0.823727 12.1776 0.353914 11.7044C-0.119273 11.2346 -0.119273 10.4721 0.353914 10.0022C8.98016 1.37262 23.0191 1.37262 31.6454 10.0022C32.1185 10.4721 32.1185 11.2346 31.6454 11.7044Z" fill="#0CC2FE"/>
<path d="M24.8265 16.8209C25.2997 17.2907 25.2997 18.0533 24.8265 18.523C24.3567 18.9963 23.5942 18.9963 23.1244 18.523C19.1925 14.5946 12.8063 14.5946 8.8744 18.523C8.40459 18.9963 7.64209 18.9963 7.17227 18.523C6.69909 18.0533 6.69909 17.2908 7.17227 16.8209C12.0437 11.9461 19.9551 11.9461 24.8265 16.8209Z" fill="#0CC2FE"/>
</g>
<defs>
<clipPath id="clip0_8138_3409">
<rect width="32" height="32" fill="white"/>
</clipPath>
</defs>
</svg>
